<?xml version="1.0" encoding="utf-8"?>
<!-- Generator: Adobe Illustrator 24.0.3, SVG Export Plug-In . SVG Version: 6.00 Build 0)  -->
<svg version="1.1" id="Layer_1" xmlns="http://www.w3.org/2000/svg" xmlns:xlink="http://www.w3.org/1999/xlink" x="0px" y="0px"
	 viewBox="0 0 1700 1080" style="enable-background:new 0 0 1700 1080;" xml:space="preserve">
<style type="text/css">
	.st0{fill:#0C0C0C;}
	.st1{fill:#ED332B;}
	.st2{fill:#F58C3A;stroke:#231F20;stroke-width:1.4547;stroke-miterlimit:10;}
	.st3{fill:#F9EB18;stroke:#231F20;stroke-width:1.4547;stroke-miterlimit:10;}
	.st4{fill:#EBEBE2;stroke:#231F20;stroke-width:1.4547;stroke-miterlimit:10;}
	.st5{fill:#FFFFFF;}
	.st6{fill:#896264;}
	.st7{font-family:'CarterOne';}
	.st8{font-size:57.9635px;}
	.st9{display:none;}
	.st10{display:inline;fill:#3A9B3F;}
	.st11{display:inline;fill:#FFFFFF;}
	.st12{font-size:70px;}
	.st13{font-size:63.7639px;}
	.st14{display:none;enable-background:new    ;}
	.st15{display:inline;opacity:0.53;}
	.st16{fill:#0D280E;}
	.st17{font-size:119.5298px;}
	.st18{display:inline;}
	.st19{fill:#1B5E1F;}
</style>
<g>
	<path class="st0" d="M282.4,206.8c0-27.5-26.2-49.8-58.6-49.8s-56.9,22.3-58.5,49.8c-2.3,38.6,26.2,41.6,58.5,41.6
		S282.4,234.3,282.4,206.8z"/>
	<path class="st1" d="M182.8,220.7c0,0,0.7,12.2,25.2,9.2c24.4-3.1,25.7-4.8,25.2-14.7c-0.4-9.9-15-16-36.5-9.5
		C174.9,212.2,182.8,220.7,182.8,220.7z"/>
	<path class="st0" d="M194.4,245.8c0,0-26.9-5.5-49.8,20.9s-33,63-40.6,102.1c-7.6,39-37.1,80.6-35.1,94.3s26.3,36.5,53.8-7.6
		c16.6-27.8,25-59.8,24.4-92.2l74-74.9l54,47.3l21.8,66l18.3,3.1c0,0,30,68.5,53.8,70.1c23.9,1.6,43.1-10.2,11.2-50.2
		c-32-40-30-16.3-59.5-113.8c-8.4-34.6-42.6-72.6-81.3-70.6C201,242.3,194.4,245.8,194.4,245.8z"/>
	<path class="st2" d="M175.8,499.5c0,0-6.1,10.6-13.7,12.2l-7.6,1.5c-2.6,0.4-45.7,10.6-48.3,20.4c-2.5,9.6-2.6,29.4,50.5,27.9
		c53.1-1.5,48.6-19.1,48.2-40.2C204.3,500.4,175.8,499.5,175.8,499.5z"/>
	<path class="st2" d="M258.9,506.7c0,0-20.4,20.4-21.8,32.6c-1.5,12.2-8.1,19.5,21.8,24s61,9,73.2-17.9c12.2-26.9-46.3-20.9-61.4-42
		C255.5,482.2,258.9,506.7,258.9,506.7z"/>
	<path class="st3" d="M321,430.7c-15.3-114.9-47-161.2-99.9-161.5c-53-0.4-83.5,67.8-83.8,152.7c-0.3,85.1,45.2,97.6,98.2,97.8
		S327.8,512.1,321,430.7z"/>
	<path class="st4" d="M321.1,436c-15.7-107.7-47.7-150.9-100.5-150.9s-83.2,63.7-83.2,143.4s45.7,91.2,98.5,91.2
		S328.4,512.1,321.1,436z"/>
	<ellipse transform="matrix(0.681 -0.7323 0.7323 0.681 -63.589 236.5137)" class="st5" cx="239.7" cy="191.2" rx="8.6" ry="11.8"/>
	<ellipse transform="matrix(0.5 -0.866 0.866 0.5 -76.6457 251.7351)" class="st5" cx="179.7" cy="192.2" rx="11.8" ry="6"/>
	<ellipse transform="matrix(0.5 -0.866 0.866 0.5 -76.7282 251.8022)" class="st0" cx="179.7" cy="192.4" rx="7.4" ry="4.1"/>
	<ellipse transform="matrix(0.843 -0.5379 0.5379 0.843 -65.5198 160.1115)" class="st0" cx="241.5" cy="192.3" rx="4.8" ry="6.7"/>
</g>
<g>
	<g>
		<rect x="414.6" y="382.1" class="st6" width="290.3" height="42.1"/>
	</g>
	<g>
		<polygon class="st6" points="809.6,402.4 690.7,471.1 690.7,333.8 		"/>
	</g>
</g>
<text transform="matrix(1 0 0 1 866.6912 403.1387)" class="st7 st8">According to the reasons, </text>
<text transform="matrix(1 0 0 1 833.3085 472.6947)" class="st7 st8">the conclusion makes sense. </text>
<g class="st9">
	<path class="st10" d="M941.2,984.3h-850c-21.9,0-39.7-17.8-39.7-39.7V703c0-21.9,17.8-39.7,39.7-39.7h850.1
		c21.9,0,39.7,17.8,39.7,39.7v241.5C980.9,966.5,963.2,984.3,941.2,984.3z"/>
	<text transform="matrix(1 0 0 1 114.9933 753.803)" class="st11 st7 st12">Conclusion: </text>
	<text transform="matrix(1 0 0 1 105.4438 832.4297)" class="st11 st7 st13">Therefore, penguin can fly </text>
	<text transform="matrix(1 0 0 1 114.9933 924.2111)" class="st11 st7 st13">(General Conclusion)</text>
</g>
<g class="st14">
	<g class="st15">
		<text transform="matrix(1 0 0 1 1032.5398 793.5627)" class="st16 st7 st17">LOGICALLY </text>
		<text transform="matrix(1 0 0 1 1203.5398 936.9626)" class="st16 st7 st17">TRUE</text>
	</g>
	<g class="st18">
		<text transform="matrix(1 0 0 1 1027.5398 789.5627)" class="st19 st7 st17">LOGICALLY </text>
		<text transform="matrix(1 0 0 1 1198.5398 932.9626)" class="st19 st7 st17">TRUE</text>
	</g>
</g>
</svg>
