<?xml version="1.0" encoding="utf-8"?>
<!-- Generator: Adobe Illustrator 24.0.3, SVG Export Plug-In . SVG Version: 6.00 Build 0)  -->
<svg version="1.1" id="Layer_1" xmlns="http://www.w3.org/2000/svg" xmlns:xlink="http://www.w3.org/1999/xlink" x="0px" y="0px"
	 viewBox="0 0 1700 1080" style="enable-background:new 0 0 1700 1080;" xml:space="preserve">
<style type="text/css">
	.st0{display:none;}
	.st1{display:inline;}
	.st2{display:none;fill:url(#SVGID_1_);}
	.st3{display:inline;fill:#0C0C0C;}
	.st4{display:inline;fill:#ED332B;}
	.st5{display:inline;fill:#F58C3A;stroke:#231F20;stroke-miterlimit:10;}
	.st6{display:inline;fill:#F9EB18;stroke:#231F20;stroke-miterlimit:10;}
	.st7{display:inline;fill:#EBEBE2;stroke:#231F20;stroke-miterlimit:10;}
	.st8{display:inline;fill:#FFFFFF;}
	.st9{fill:#444444;}
	.st10{font-family:'CarterOne';}
	.st11{font-size:199.8046px;}
	.st12{letter-spacing:11;}
</style>
<text transform="matrix(1 0 0 1 855.8451 1194.0299)" style="display:none;enable-background:new    ; font-family:'GillSans'; font-size:70px;">Penguin cannot fly</text>
<text transform="matrix(1 0 0 1 781.8285 1189.0299)" style="display:none;enable-background:new    ; font-family:'GillSans'; font-size:70px;"> </text>
<text transform="matrix(1 0 0 1 1347.4884 1424.8894)" style="display:none;enable-background:new    ; font-family:'GillSans'; font-size:70px;">NOT </text>
<text transform="matrix(1 0 0 1 1347.4884 1508.8894)" style="display:none;enable-background:new    ; font-family:'GillSans'; font-size:70px;">Realistically true</text>
<text transform="matrix(1 0 0 1 553.7118 1293.5299)" style="display:none;enable-background:new    ; font-family:'GillSans'; font-size:70px;">So,</text>
<g class="st0">
	<g class="st1">
		<rect x="855.7" y="1433.5" width="290.3" height="42.1"/>
	</g>
	<g class="st1">
		<polygon points="1250.7,1453.8 1131.8,1522.5 1131.8,1385.2 		"/>
	</g>
</g>
<linearGradient id="SVGID_1_" gradientUnits="userSpaceOnUse" x1="1501.7316" y1="-133.5219" x2="1635.1316" y2="-133.5219">
	<stop  offset="0" style="stop-color:#FBB03B"/>
	<stop  offset="0.32" style="stop-color:#E352AC"/>
	<stop  offset="0.96" style="stop-color:#AA0004"/>
</linearGradient>
<path class="st2" d="M1587.5-99.1h-45.8v-4.6c0-7.8,0.9-14.1,2.7-19c1.8-4.9,4.5-9.4,7.9-13.3c3.5-4,11.4-11.1,23.6-21.2
	c6.5-5.3,9.8-10.2,9.8-14.6s-1.3-7.8-3.9-10.3c-2.6-2.4-6.6-3.7-11.9-3.7c-5.3-0.2-10.4,1.9-14.2,5.7c-3.7,3.8-6.1,10.4-7.2,19.8
	l-46.8-5.8c1.6-17.2,7.9-31.1,18.8-41.6s27.6-15.7,50.1-15.7c17.5,0,31.7,3.7,42.5,11c14.7,9.9,22,23.1,22,39.5c0,7-2,13.8-5.7,19.8
	c-3.8,6.4-11.5,14.1-23.2,23.3c-8.1,6.4-13.3,11.6-15.4,15.5C1588.6-110.5,1587.5-105.4,1587.5-99.1z M1549.2-86.9h30.9
	c5,0,9.1,4.1,9.1,9.1v25.1c0,5-4.1,9.1-9.1,9.1h-30.9c-5,0-9.1-4.1-9.1-9.1v-25.1C1540.1-82.8,1544.2-86.9,1549.2-86.9z"/>
<g class="st0">
	<path class="st3" d="M636.5,1351.9c0-16.8-16.1-30.5-35.9-30.5c-19.8,0-34.9,13.7-35.9,30.5c-1.4,23.6,16,25.5,35.9,25.5
		C620.5,1377.4,636.5,1368.7,636.5,1351.9z"/>
	<path class="st4" d="M575.4,1360.3c0,0,0.5,7.5,15.5,5.6s15.7-3,15.5-9c-0.3-6.1-9.2-9.8-22.4-5.8
		C570.7,1355.2,575.4,1360.3,575.4,1360.3z"/>
	<path class="st3" d="M582.6,1375.8c0,0-16.5-3.4-30.5,12.9s-20.2,38.6-24.9,62.5c-4.7,23.9-22.7,49.4-21.5,57.8s16.2,22.4,33-4.7
		c10.2-17.1,15.4-36.7,14.9-56.5l45.4-45.9l33.1,29l13.4,40.5l11.2,1.9c0,0,18.3,42,33,43c14.6,1,26.4-6.2,6.8-30.8
		c-19.6-24.5-18.4-10-36.4-69.7c-5.2-21.2-26.1-44.5-49.8-43.3C586.6,1373.6,582.6,1375.8,582.6,1375.8z"/>
	<path class="st5" d="M571.2,1531.2c0,0-3.7,6.5-8.4,7.5l-4.7,0.9c-1.6,0.3-28,6.5-29.6,12.4c-1.5,5.9-1.6,18,30.9,17.1
		s29.8-11.7,29.5-24.6C588.7,1531.8,571.2,1531.2,571.2,1531.2z"/>
	<path class="st5" d="M622.1,1535.6c0,0-12.4,12.5-13.4,19.9c-0.9,7.5-5,11.9,13.4,14.7c18.3,2.8,37.4,5.5,44.8-10.9
		c7.4-16.4-28.3-12.9-37.7-25.8C620,1520.7,622.1,1535.6,622.1,1535.6z"/>
	<path class="st6" d="M660.1,1489.1c-9.4-70.5-28.8-98.7-61.2-99c-32.4-0.2-51.2,41.5-51.4,93.6s27.7,59.8,60.2,59.9
		C640.1,1543.8,664.4,1538.9,660.1,1489.1z"/>
	<path class="st7" d="M660.2,1492.3c-9.7-66-29.2-92.5-61.6-92.5c-32.4,0-51,39-51,87.9c0,48.8,28,55.9,60.4,55.9
		S664.7,1539,660.2,1492.3z"/>
	
		<ellipse transform="matrix(0.681 -0.7323 0.7323 0.681 -788.2986 875.1542)" class="st8" cx="610.3" cy="1342.4" rx="5.3" ry="7.2"/>
	<ellipse transform="matrix(0.5 -0.866 0.866 0.5 -876.2452 1168.2632)" class="st8" cx="573.6" cy="1343" rx="7.2" ry="3.7"/>
	<ellipse transform="matrix(0.5 -0.866 0.866 0.5 -876.2957 1168.3043)" class="st3" cx="573.6" cy="1343.1" rx="4.6" ry="2.5"/>
	<ellipse transform="matrix(0.843 -0.5379 0.5379 0.843 -626.4074 539.7953)" class="st3" cx="611.5" cy="1343" rx="2.9" ry="4.1"/>
</g>
<text transform="matrix(1 0 0 1 386.7118 1661.5299)" style="display:none;enable-background:new    ; font-family:'GillSans'; font-size:70px;">Conclusion: </text>
<text transform="matrix(1 0 0 1 386.7118 1745.5299)" style="display:none;enable-background:new    ; font-family:'GillSans'; font-size:70px;">Therefore, penguin can fly. </text>
<text transform="matrix(1 0 0 1 386.7118 1829.5299)" style="display:none;enable-background:new    ; font-family:'GillSans'; font-size:70px;">(General conclusion)</text>
<text transform="matrix(1 0 0 1 323.4946 589.0765)" class="st9 st10 st11 st12">HOWEVER</text>
</svg>
