<?xml version="1.0" encoding="utf-8"?>
<!-- Generator: Adobe Illustrator 24.0.3, SVG Export Plug-In . SVG Version: 6.00 Build 0)  -->
<svg version="1.1" id="Layer_1" xmlns="http://www.w3.org/2000/svg" xmlns:xlink="http://www.w3.org/1999/xlink" x="0px" y="0px"
	 viewBox="0 0 1700 1080" style="enable-background:new 0 0 1700 1080;" xml:space="preserve">
<style type="text/css">
	.st0{enable-background:new    ;}
	.st1{font-family:'CarterOne';}
	.st2{font-size:70px;}
	.st3{fill:#1C8219;}
	.st4{display:none;}
	.st5{display:inline;fill:#0C0C0C;}
	.st6{display:inline;fill:#ED332B;}
	.st7{display:inline;fill:#F58C3A;stroke:#231F20;stroke-width:1.6349;stroke-miterlimit:10;}
	.st8{display:inline;fill:#F9EB18;stroke:#231F20;stroke-width:1.6349;stroke-miterlimit:10;}
	.st9{display:inline;fill:#EBEBE2;stroke:#231F20;stroke-width:1.6349;stroke-miterlimit:10;}
	.st10{display:inline;fill:#FFFFFF;}
	.st11{fill:#444444;}
	.st12{font-size:118.5476px;}
	.st13{letter-spacing:4;}
	.st14{display:none;enable-background:new    ;}
	.st15{font-size:182.6358px;}
	.st16{display:inline;}
	.st17{fill:#A54A4A;}
	.st18{font-size:82.5465px;}
</style>
<text transform="matrix(1 0 0 1 528.0365 256.2642)" class="st0"><tspan x="0" y="0" class="st1 st2">Penguin </tspan><tspan x="299.2" y="0" class="st3 st1 st2">cannot</tspan><tspan x="545.1" y="0" class="st1 st2"> fly !</tspan></text>
<g class="st4">
	<path class="st5" d="M378.9,528.6c0-27.5-26.3-49.9-58.7-49.9s-57.1,22.4-58.7,49.9c-2.3,38.6,26.2,41.7,58.7,41.7
		S378.9,556,378.9,528.6z"/>
	<path class="st6" d="M279,542.3c0,0,0.8,12.3,25.3,9.2s25.7-4.9,25.3-14.7c-0.5-10-15-16-36.6-9.5C271.3,534,279,542.3,279,542.3z"
		/>
	<path class="st5" d="M290.8,567.6c0,0-27-5.6-49.9,21.1c-22.9,26.6-33,63.1-40.7,102.2c-7.7,39.1-37.1,80.8-35.2,94.5
		c2,13.7,26.5,36.6,54-7.7c16.7-28,25.2-60,24.4-92.4l74.2-75l54.1,47.4l21.9,66.2l18.3,3.1c0,0,29.9,68.7,54,70.3
		C489.7,799,509,787.2,477,747c-32-40.1-30.1-16.3-59.5-114c-8.5-34.7-42.7-72.8-81.4-70.8C297.3,564,290.8,567.6,290.8,567.6z"/>
	<path class="st7" d="M272.1,821.7c0,0-6,10.6-13.7,12.3l-7.7,1.5c-2.6,0.5-45.8,10.6-48.4,20.3c-2.5,9.6-2.6,29.4,50.5,28
		c53.1-1.5,48.7-19.1,48.2-40.2C300.7,822.7,272.1,821.7,272.1,821.7z"/>
	<path class="st7" d="M355.4,828.9c0,0-20.3,20.4-21.9,32.5c-1.5,12.3-8.2,19.5,21.9,24c29.9,4.6,61.1,9,73.2-17.8
		c12.1-26.8-46.3-21.1-61.6-42.2C351.9,804.5,355.4,828.9,355.4,828.9z"/>
	<path class="st8" d="M417.5,752.9C402.1,637.6,370.4,591.5,317.4,591c-53-0.3-83.7,67.8-84,153c-0.3,85.2,45.3,97.8,98.4,97.9
		C384.8,842.3,424.5,834.3,417.5,752.9z"/>
	<path class="st9" d="M417.6,758.1c-15.9-107.9-47.7-151.2-100.7-151.2s-83.4,63.8-83.4,143.7c0,79.8,45.8,91.4,98.7,91.4
		S425,834.5,417.6,758.1z"/>
	
		<ellipse transform="matrix(0.681 -0.7323 0.7323 0.681 -268.3929 409.7043)" class="st10" cx="336" cy="512.9" rx="8.7" ry="11.8"/>
	<ellipse transform="matrix(0.5 -0.866 0.866 0.5 -307.0517 496.0531)" class="st10" cx="276.1" cy="513.9" rx="11.8" ry="6"/>
	<ellipse transform="matrix(0.5 -0.866 0.866 0.5 -307.1342 496.1204)" class="st5" cx="276.1" cy="514.1" rx="7.5" ry="4.1"/>
	<ellipse transform="matrix(0.843 -0.5379 0.5379 0.843 -223.4055 262.5267)" class="st5" cx="338" cy="514" rx="4.7" ry="6.7"/>
</g>
<text transform="matrix(1 0 0 1 557.991 138.7795)" class="st11 st1 st12 st13">HOWEVER</text>
<text transform="matrix(1 0 0 1 189.2229 433.7762)" class="st14 st1 st15">So,</text>
<g class="st4">
	<g class="st16">
		<rect x="599.6" y="641.7" class="st17" width="290.3" height="42.1"/>
	</g>
	<g class="st16">
		<polygon class="st17" points="994.6,662 875.7,730.7 875.7,593.4 		"/>
	</g>
</g>
<text transform="matrix(1 0 0 1 1224.2098 662.7498)" class="st4"><tspan x="0" y="0" class="st16 st1 st18">Not </tspan><tspan x="-262.7" y="99.1" class="st16 st1 st18">Realistically True</tspan></text>
</svg>
