<?xml version="1.0" encoding="utf-8"?>
<!-- Generator: Adobe Illustrator 24.0.3, SVG Export Plug-In . SVG Version: 6.00 Build 0)  -->
<svg version="1.1" id="Layer_1" xmlns="http://www.w3.org/2000/svg" xmlns:xlink="http://www.w3.org/1999/xlink" x="0px" y="0px"
	 viewBox="0 0 1700 1080" style="enable-background:new 0 0 1700 1080;" xml:space="preserve">
<style type="text/css">
	.st0{display:none;enable-background:new    ;}
	.st1{font-family:'GillSans';}
	.st2{font-size:80px;}
	.st3{fill:#4453A3;stroke:#000000;stroke-width:0.8462;stroke-linecap:round;stroke-miterlimit:10;}
	.st4{fill:#F9EB18;stroke:#000000;stroke-width:0.8462;stroke-linecap:round;stroke-miterlimit:10;}
	.st5{fill:#848A8A;stroke:#000000;stroke-width:0.8462;stroke-linecap:round;stroke-miterlimit:10;}
	.st6{fill:#DA1F29;stroke:#000000;stroke-width:0.8462;stroke-linecap:round;stroke-miterlimit:10;}
	.st7{fill:#D1C9C2;stroke:#000000;stroke-width:0.8462;stroke-linecap:round;stroke-miterlimit:10;}
	.st8{fill:none;stroke:#000000;stroke-width:0.8462;stroke-linecap:round;stroke-miterlimit:10;}
	.st9{fill:#2A1B1B;stroke:#000000;stroke-width:0.8462;stroke-linecap:round;stroke-miterlimit:10;}
	.st10{fill:#DFCD85;stroke:#000000;stroke-width:0.8462;stroke-linecap:round;stroke-miterlimit:10;}
	.st11{fill:#FFFFFF;stroke:#000000;stroke-width:0.8462;stroke-linecap:round;stroke-miterlimit:10;}
	.st12{fill:#8C523D;stroke:#000000;stroke-width:0.8462;stroke-linecap:round;stroke-miterlimit:10;}
	.st13{fill:#25291D;stroke:#000000;stroke-width:0.8462;stroke-linecap:round;stroke-miterlimit:10;}
	.st14{fill:#FFFFFF;stroke:#000000;stroke-width:0.8462;stroke-linecap:round;stroke-miterlimit:9.9999;}
	.st15{fill:#DA1F29;}
	.st16{fill:#0C0C0C;}
	.st17{fill:#ED332B;}
	.st18{fill:#F58C3A;stroke:#231F20;stroke-width:1.0882;stroke-miterlimit:10;}
	.st19{fill:#F9EB18;stroke:#231F20;stroke-width:1.0882;stroke-miterlimit:10;}
	.st20{fill:#EBEBE2;stroke:#231F20;stroke-width:1.0882;stroke-miterlimit:10;}
	.st21{fill:#FFFFFF;}
	.st22{fill:#FDCB37;stroke:#000000;stroke-width:0.8486;stroke-linecap:round;stroke-miterlimit:10;}
	.st23{fill:#EBEBE3;stroke:#000000;stroke-width:0.8486;stroke-linecap:round;stroke-miterlimit:10;}
	.st24{fill:#32221A;stroke:#000000;stroke-width:0.8486;stroke-linecap:round;stroke-miterlimit:10;}
	.st25{fill:#5D391E;stroke:#000000;stroke-width:0.8486;stroke-linecap:round;stroke-miterlimit:10;}
	.st26{fill:none;stroke:#000000;stroke-width:0.8486;stroke-linecap:round;stroke-miterlimit:10;}
	.st27{fill:#FFFFFF;stroke:#000000;stroke-width:0.8486;stroke-linecap:round;stroke-miterlimit:10;}
	.st28{fill:#FEFEFE;stroke:#000000;stroke-width:0.8487;stroke-linecap:round;stroke-miterlimit:10.0005;}
	.st29{fill:#FBCE32;stroke:#000000;stroke-width:0.8486;stroke-linecap:round;stroke-miterlimit:10;}
	.st30{fill:#FFFEFE;stroke:#000000;stroke-width:0.8486;stroke-linecap:round;stroke-miterlimit:9.9995;}
	.st31{fill:#FFFFFF;stroke:#000000;stroke-width:0.8486;stroke-linecap:round;stroke-miterlimit:9.9996;}
	.st32{fill:#3A3A3A;}
	.st33{font-family:'CarterOne';}
	.st34{font-size:126.143px;}
</style>
<text transform="matrix(1 0 0 1 910.9834 648.498)" class="st0 st1 st2">LOGICALLY TRUE</text>
<g>
	<path class="st3" d="M1573.1,169c6.9-3.1,14-5.8,21.3-8c9.9-3,22.8-5.4,25.4-8.1c2.5-2.8,1.4,8.1-9.1,14.6
		c-8.3,4.4-17.1,7.7-26.3,9.5c0,0,33.2-3.4,35.9-3.6s-9.3,25.1-41,18c0,0,38.4,3.6,28.3,16.4c0,0-5.3,6.5-23.7,2.4
		c0,0,21.9,22.2-10.8,13.5c0,0,14.2,27.4-14.1,8.1c0,0-1.8,21-13.8,4.7c0,0-3.9,13.4-13.1-0.6c0,0-10.4,21.4-16-1.4
		c0,0-7.2,16.4-17.1-1.2c0,0-5.6,17.1-13.6-1.2c-8.1-18.3,5.1-24.5,5.1-24.5L1573.1,169z"/>
	<path class="st4" d="M1489.1,209.8c0,0,10.2,31.4,27.3,6c0,0,10.2,16.9,23.4-6c0,0,19.7,5.4,12.8-11.7c0,0,38.5-1.7,9.9-14.4
		c0,0,16.4,3.9,16.9-6c0.5-9.9-10.4-7.2-10.4-7.2l-29.5,8.7l-47.8,18.7L1489.1,209.8z"/>
	<path class="st5" d="M1456.1,260.5c0,0-7.2,6.3-3.4,12.8c3.8,6.5,2,11,13.1,12.8c11.1,1.8,15.1,2.9,22.2,1.8c7-1.1,2.5,7.2-2.6,7.8
		c-5.2,0.6-6.6-2.8-11.4-2.3c-3.1,0.3-6,0.8-8.9,1.7c2.6,2.3,5.5,4.4,8.6,6.3c4.2,2.4-1.9,8.3-7.7,5.1c-3.4-1.8-5.9-5.1-6.8-8.8
		c-2-1.9-4.8-2.9-7.5-2.3l-4.5,0.8c0,0-8,1.7-6-1.7c1.9-3.3,4.4-4.8,10.8-6.8c3.6-1.3-11.1-15-10.8-25.8
		C1441.3,251.3,1456.1,260.5,1456.1,260.5z"/>
	<path class="st5" d="M1413.2,265.5c0.6,6.6,1.8,13.1,3.3,19.6c1.9,6.5,2.2,8.3-7.9,9.1c-10.2,0.8-7.4,6.3,0,6l7.5-0.3
		c0,0,4.7-0.3,9.9,14.4c2,8,12.2,5.7,13.2,3.1c1.2-2.6-8.3-6.3-10-12.8c-1.8-6.5-1.3-5.4-1.3-5.4s11.8,12.2,22.1,8.5
		c5.8-1.4,14-3.8,1.5-7.2s-8.8,1-23.3-7.9c-14.5-8.9,0-30.4,0-30.4L1413.2,265.5z"/>
	<path class="st6" d="M1473.8,169.7c3.5-0.6,7.1,0.7,9.2,3.6c5,4.8,16.2,12.8,21.9,9.8c5.7-3,27.2-16,31.5-16s14.4,6.9,20.3,5.1
		c5.9-1.8,21.5-7.6,30.3-7.2c0,0-11.6,4.5-14.9,6.5c-3.3,1.9,1.4,8.8-21.5,8.3c0,0,2.5,8.7-12.7,6c0,0-10.4,21.3-14.7,8.4
		c0,0-8.7,22.6-16.9,5c0,0-3.6,14-14.4,8.6C1481.2,202.4,1473.8,169.7,1473.8,169.7z"/>
	<path class="st6" d="M1491.7,183.9c-6.6-9.4-8.1-5.7-12.2-11.4c-4-5.8,1.8-14.6,1.8-14.6l4.2-4.5c0,0,18.9-37.1-3.6-59.7
		c-22.5-22.6-48.6-6.2-48.6-6.2c-0.3-3.5,4.3-14.9,4.3-14.9c-6.3,2-15,18-15,18l-1-7.7c0,0-1.7,5.7-3.2,9.8
		c-1.5,4.1-25.1,24-12.7,49.8c10.5,21.7,11,24.8,11,25.1c7.2,9.3,1.1,21.2-8.9,26.1c-1.7,2.3-11.2,15.3-23.2,17.6
		c-13.2,2.4-5.4,26.9-5.4,26.9s-21.2,7.7-65.9,20.9c-44.7,13.2-21.9,17-21.9,17c-37.9,21-3.6,18.6-3.6,18.6
		c-16,11,16.7,7.2,16.7,7.2s-10.2,7.7-5.1,11.1c5.1,3.4,36.4-8.4,53.5-17.7c17-9.2,32.6-27.4,43.7-26.8c11.2,0.6,10.8,6.9,15.4,6.9
		c10.6-0.2,21-3,30.4-8c2.8,1.7,5.9,2.6,9.2,2.6l3.1-1.6c3.1-1.5,2.8-5.8,6-7.2c3.3-1.4,3.1,1.3,14.1-8.9
		C1507.2,221.6,1498.3,193.3,1491.7,183.9z"/>
	<path class="st7" d="M1473.8,115.2c0,0-8.7-19.5-19.3-20.9c-10.6-1.5-23,7.2-27.7,19.7c-4.8,12.5,1.8,24.2,10.4,24.2
		c0,0-5.4,41.7,39.5,13C1521.5,122.5,1473.8,115.2,1473.8,115.2z"/>
	<path class="st4" d="M1560.5,199c1.2,1.1,23.2,11.1,23.2,11.1"/>
	<line class="st8" x1="1554.3" y1="212" x2="1573.1" y2="223.8"/>
	<path class="st8" d="M1543.8,215.1c0,0,11.1,14.4,15.1,16.8"/>
	<path class="st8" d="M1539.9,219.4c0,0,3.3,14.4,5.3,17.1"/>
	<path class="st8" d="M1531.2,225.1c0,0,0,9,1.2,10.8"/>
	<path class="st8" d="M1516.8,223.8c-0.5,3.6-0.8,7.2-0.7,10.8"/>
	<path class="st8" d="M1498.2,223.8c-0.4,3.3-0.2,6.6,0.7,9.7"/>
	<path class="st3" d="M1328.2,149c-6.3-4.1-12.9-7.9-19.6-11.3c-9.3-4.4-21.7-9-23.8-12.2s-2.6,7.7,6.6,15.9
		c7.4,5.7,15.7,10.3,24.4,13.6c0,0-32.1-8.7-34.7-9.3s5.1,26.3,37.7,24.4c0,0-38.5-2.6-30.6,11.6c0,0,4.1,7.2,23,6.2
		c0,0-25.1,18.4,8.3,15.1c0,0-18.4,24.9,12.6,10.4c0,0-1.7,21,12.8,6.8c0,0,1.7,13.9,13,1.5c0,0,6.8,22.7,16,1.3
		c0,0,4.3,17.3,17.1,1.7c0,0,2.6,18,13.6,1.1c11-16.9-1.1-25.1-1.1-25.1L1328.2,149z"/>
	<path class="st4" d="M1333.2,154.2c0,0-10.4-8.3-13.9-1.8c-3.5,6.5,1.5,10.8,11.6,12.6c0,0-8.9-0.6-9.3,4.5
		c-0.4,5.2,4.3,10.6,16.9,11.3c0,0-6.2,7.2,0,12.6c6.2,5.5,11.1,2.2,11.1,2.2s4.9,20.1,14.1,14.7c7.2-4.2,7.6-5.6,7.6-5.6
		c0.2-1.4,4.5,20.6,24.2,8.9c0,0,4-1.3,3.9-7.6c0,0,7.9,14.4,8.8-7l0.8-21.5l-2.9,6L1333.2,154.2z"/>
	<path class="st6" d="M1417.1,167.4L1417.1,167.4c-0.5,1-1.4,1.7-2.3,2.1c-21.5,11.4-22.2,6.8-28.7,2.8c-6.5-4-22.4-20-27-18.7
		c-17.3,5.1-22.1-0.4-32.8-7.2c-10.8-6.8-12.8-4.2-12.8-4.2c4.5,2.9,8.9,6.1,12.9,9.6c10.2,13.3,19.3,10.8,19.3,10.8
		c-1.3,9.9,11.6,8.7,11.6,8.7c0.3,20.3,12.6,11,12.6,11c9,26.4,15.4,8.1,15.4,8.1c5.5,18.2,17.1-2,17.1-2c0.4,4.5,6.2,4.8,6.2,4.8
		S1428.4,183.2,1417.1,167.4z"/>
	<path class="st9" d="M1477.4,134.1c0,0-7.4,10.4-3.9,18.2c3.5,7.8,17.1,18.4,32.5,0C1505.8,152.3,1503.4,129.8,1477.4,134.1z"/>
	<path class="st10" d="M1477,134.2c0,0-10.2-26.2-2.2-33.6c7.9-7.4,22.1-13.8,41.4,7.7c19.3,21.5-0.8,47.9-8.8,53.5
		C1507.4,161.8,1507.9,128.5,1477,134.2z"/>
	<path class="st11" d="M1443.4,131.8c0,0-14.9-17.5,1.6-25.6c14.1-4.9,18.4,17.6,13.6,21.9C1453.3,128.2,1448.2,129.4,1443.4,131.8z
		"/>
	<path class="st8" d="M1439,134.2c7.5-4.5,16.3-6.7,25.1-5.9"/>
	<ellipse class="st12" cx="1448.1" cy="122" rx="8.3" ry="7.2"/>
	<ellipse class="st13" cx="1448.5" cy="123.1" rx="5.4" ry="5.8"/>
	<ellipse transform="matrix(0.753 -0.658 0.658 0.753 279.4711 980.303)" class="st14" cx="1445.6" cy="117.9" rx="3.6" ry="4.7"/>
	<path class="st3" d="M1386.7,237.7c0,0-2.9-2.6-13.1,1.8l-10.4,4.3l0,0c-1.6,0-15.9,2-16.5,4.2s10.8,5.7,15.5,5.5
		c4.8-0.2,23.7-9.5,25.9-10.8C1390.4,241.6,1386.7,237.7,1386.7,237.7z"/>
	<path class="st3" d="M1394.9,240.7c0,0-4.1-2-13.2,0.8c-9,2.9-21.7,11.2-25.9,16.9c-4.1,5.7-11.1,10-5.8,11.3
		c5.3,1.3,27-8.6,31.3-11.2C1385.5,255.9,1397.3,246.1,1394.9,240.7z"/>
	<path class="st3" d="M1398.5,243.5c0,0-5.1-3.8-15.1,1.8c-10.2,5.6-32.3,25.7-33.4,29.4c-1.2,3.7-1.3,2.4-1.3,3.6
		c0,1.2,0.8,13.3,15.7,4.5C1379,274.1,1398.5,243.5,1398.5,243.5z"/>
	<path class="st3" d="M1364.3,285c0,0,13.3-0.4,19.4-4.7c5.9-4.1,12.9-18.9,14.9-24.4c1.1-4.1,1.1-8.5,0-12.5c0,0-23.5,20.4-27,25.5
		l-3.6,5.1l0,0C1368,274,1359.5,282.6,1364.3,285z"/>
	<path class="st4" d="M1335.7,180.5c-1.3,0.8-24.6,7.2-24.6,7.2"/>
	<line class="st8" x1="1339.7" y1="194.5" x2="1319.3" y2="202.9"/>
	<path class="st8" d="M1349.6,199.1c0,0-13.3,12.3-17.7,14.4"/>
	<path class="st8" d="M1352.8,204.1c0,0-5.6,13.9-8,16.1"/>
	<path class="st8" d="M1360.6,211.1c0,0-1.3,8.9-2.9,10.5"/>
	<path class="st8" d="M1374.7,212c0,3.6-0.3,7.2-1,10.8"/>
	<path class="st8" d="M1393.2,215.1c-0.1,3.2-1,6.3-2.3,9.3"/>
	<path class="st8" d="M1330.9,165c0,0,12.2,0.6,13.9-0.4"/>
	<path class="st8" d="M1338.6,180.8c6.2-1,12.5-2.2,18.5-3.9"/>
	<path class="st8" d="M1349.7,195.8c0,0,18.2-7.2,21-10.8"/>
	<path class="st8" d="M1371.4,204.9c3-2.2,5.3-5.1,6.9-8.5"/>
	<path class="st8" d="M1399.5,206.1c-0.5-3.6-1.5-7.1-2.9-10.4"/>
	<path class="st8" d="M1291.8,275.9c0,0,49.3-9,64-17.6"/>
	<path class="st8" d="M1288.2,294.5c0,0,55.4-18,64.5-23.6"/>
	<path class="st8" d="M1304.9,302c16.2-3.8,31.7-9.5,46.6-16.9"/>
	<path class="st4" d="M1516.4,215.9c0.6-3.7,0.5-7.5-0.3-11.2"/>
	<path class="st4" d="M1539.8,209.8c0,0-0.8-15-4.4-19.4"/>
	<path class="st4" d="M1552.7,198.1c-1.8-4.3-4.2-8.5-7.4-12"/>
	<line class="st8" x1="1562.5" y1="183.8" x2="1550.6" y2="179.7"/>
	<path class="st8" d="M1465,295.1c0,0-2.6-1.8-2.4-4.2"/>
	<line class="st8" x1="1428" y1="299" x2="1426.1" y2="294.5"/>
	<path class="st8" d="M1459.1,297.7c0,0-3.6-4.1-2.8-6.2"/>
	<path class="st8" d="M1442.8,267.6c4.1-2.2,7.6-5.4,10.4-9.2"/>
	<path class="st8" d="M1428,155.5c0,0,2.3,7.4,17.7,9.6"/>
	<path class="st8" d="M1466.3,165.1c4.1,0.2,8.3,0,12.4-0.6"/>
	<ellipse class="st15" cx="1425.4" cy="172.6" rx="9" ry="7.2"/>
</g>
<g>
	<path class="st16" d="M312.4,793c0-19.8-18.9-35.8-42.2-35.8s-41,16.1-42.2,35.8c-1.6,27.9,18.9,30,42.2,30S312.4,812.8,312.4,793z
		"/>
	<path class="st17" d="M240.4,802.9c0,0,0.5,8.8,18.2,6.5c17.6-2.3,18.5-3.5,18.2-10.7c-0.3-7.1-10.8-11.5-26.3-6.7
		C234.9,796.8,240.4,802.9,240.4,802.9z"/>
	<path class="st16" d="M248.8,821.1c0,0-19.4-4-35.9,15.1c-16.5,19.2-23.8,45.5-29.3,73.7c-5.4,28.2-26.8,58.1-25.2,68
		c1.4,9.9,19,26.3,38.8-5.4c12-20.1,18.1-43.1,17.6-66.5l53.4-54.1l39,34.1l15.8,47.7l13.2,2.2c0,0,21.5,49.5,38.8,50.6
		c17.2,1.1,31.1-7.3,8.1-36.2c-23.1-28.8-21.7-11.8-42.9-82c-6.1-24.9-30.8-52.5-58.7-50.9C253.6,818.6,248.8,821.1,248.8,821.1z"/>
	<path class="st18" d="M235.5,1004.1c0,0-4.4,7.7-9.9,8.8l-5.4,1.1c-1.8,0.3-33,7.7-34.8,14.7c-1.8,7-1.8,21.2,36.3,20.1
		c38.2-1.1,35-13.8,34.7-28.9C256,1004.6,235.5,1004.1,235.5,1004.1z"/>
	<path class="st18" d="M295.4,1009.2c0,0-14.7,14.7-15.8,23.5c-1.1,8.8-5.9,14,15.8,17.3c21.7,3.3,44,6.5,52.8-12.8
		s-33.4-15.1-44.3-30.4C292.9,991.6,295.4,1009.2,295.4,1009.2z"/>
	<path class="st19" d="M340.1,954.4c-11-82.9-34-116.2-72-116.5c-38.2-0.3-60.2,48.9-60.5,110.2c-0.2,61.4,32.6,70.4,70.8,70.5
		C316.6,1018.7,345.1,1013,340.1,954.4z"/>
	<path class="st20" d="M340.3,958.2c-11.3-77.7-34.4-108.8-72.6-108.8s-60.1,45.9-60.1,103.5c0,57.5,33,65.8,71.1,65.8
		C316.9,1018.7,345.6,1013.1,340.3,958.2z"/>
	
		<ellipse transform="matrix(0.681 -0.7323 0.7323 0.681 -482.6619 455.5168)" class="st21" cx="281.5" cy="781.7" rx="6.2" ry="8.5"/>
	<ellipse transform="matrix(0.5 -0.866 0.866 0.5 -558.5258 597.5478)" class="st21" cx="238.2" cy="782.5" rx="8.5" ry="4.4"/>
	<ellipse transform="matrix(0.5 -0.866 0.866 0.5 -558.4766 597.5963)" class="st16" cx="238.3" cy="782.5" rx="5.4" ry="2.9"/>
	
		<ellipse transform="matrix(0.843 -0.5379 0.5379 0.843 -376.4676 274.9832)" class="st16" cx="282.9" cy="782.4" rx="3.5" ry="4.8"/>
</g>
<g>
	<path class="st22" d="M291.7,617.9c0,0-3.3,19.6,13,22.9c9.7,2,19.7,2,29.4,0l9.8,13c0,0-13-6.6-16.3-6.6h-16.3l13,9.8
		c0,0,3.3,9.8,6.6,13h-13c0,0-9.8-19.6-16.3-22.9c-6.6-3.3-13,13-13,13l-9.8,3.3c0,0-3.3-13,3.3-16.3c3-1.8,6.4-2.9,9.8-3.3
		c0,0-16.3-19.6-9.8-29.4C288.5,604.7,291.7,617.9,291.7,617.9z"/>
	<path class="st22" d="M262.3,650.5c9.8,3.3,26.1,19.6,26.1,19.6c3.3-6.6,0-9.8,0-9.8c-9.8-16.3-9.8-6.6-26.1-16.3
		c-16.3-9.8-6.6-29.4-6.6-29.4h-13c0,0,6.6,19.6,6.6,22.9c0,3.3,0,6.6-16.3,6.6c-9.8,0-13,16.3-13,16.3s16.3-13,26.1-9.8l9.8,3.3
		l9.8,13l3.3,13l3.3-9.8L262.3,650.5z"/>
	<path class="st23" d="M275.3,399c-3.3-3.3-29.4,6.6-29.4,6.6l13,3.3c-32.7,3.3-26.1,45.7-26.1,45.7v6.6c0,6.6,19.6,32.7,13,39.2
		c-19.6,19.6-32.7,71.9-55.6,75.1c-22.9,3.3-42.4-16.3-52.3-26.1c-9.8-9.8-22.9-6.6-29.4-6.6c-3.3,6.6-3.3,16.3,6.6,26.1
		c-13-6.6-29.4,0-29.4,0s0,13,9.8,19.6h-13c0,26.1,42.4,49,81.7,39.2s42.4-9.8,65.3-16.3c45.7,0,75.1-13,75.1-13
		c45.7-45.7,39.2-78.4,26.1-88.3c-13.2-9.9-13-16.3-9.8-22.9c3.3-6.6,13-6.6,16.3-42.4c3.3-35.9-45.7-62.1-62.1-62.1l9.8,9.8
		c-9.8-6.6-29.4,0-29.4,0S272,395.7,275.3,399z"/>
	<path class="st24" d="M265.6,562.4l26.1-36c0,0,13,22.9,16.3,32.7c0,0,6.6-29.4,6.6-32.7c0-3.3,19.6,16.3,19.6,26.1
		c3.7-8.3,5.8-17.1,6.6-26.1c0,0,6.6,6.6-3.3,29.4c-3.3,16.3-3.3,13-16.3,32.7c0,0-16.3,19.6-26.1,22.9l-3.3,6.6
		c-4.6,1.8-9.9,0.5-13-3.3c-10.9,5.9-23.5,8.3-36,6.6c-19.6-3.3-16.3-3.3-26.1-6.6l-19.6-6.6L265.6,562.4z"/>
	<path class="st25" d="M183.9,581.9c0,0-6.6-16.3,29.4-49c36-32.7,49-29.4,49-29.4s42.4-3.3,16.3,45.7c-26.1,49-78.4,71.9-78.4,71.9
		s-22.9,6.6-9.8-9.8c0,0-36,26.1-9.8-13C180.6,598.2,164.3,601.5,183.9,581.9z"/>
	<path class="st26" d="M268.7,412.1c0,0,13,9.8,22.9,9.8"/>
	
		<ellipse transform="matrix(0.1889 -0.982 0.982 0.1889 -201.8962 624.2445)" class="st27" cx="276.9" cy="434.3" rx="15.7" ry="11.5"/>
	
		<ellipse transform="matrix(0.121 -0.9927 0.9927 0.121 -193.6949 660.4476)" class="st28" cx="276.1" cy="439.6" rx="9.7" ry="9.2"/>
	
		<ellipse transform="matrix(0.1889 -0.982 0.982 0.1889 -210.6529 630.2895)" class="st29" cx="276.2" cy="442.7" rx="6.2" ry="5.9"/>
	
		<ellipse transform="matrix(0.1889 -0.982 0.982 0.1889 -208.7575 629.6995)" class="st24" cx="276.8" cy="441.2" rx="3.8" ry="3.7"/>
	
		<ellipse transform="matrix(0.6267 -0.7792 0.7792 0.6267 -240.0382 374.1741)" class="st30" cx="270.5" cy="437.6" rx="2.5" ry="4"/>
	<path class="st26" d="M308,421.8c0,0,19.6-6.6,22.9-13"/>
	
		<ellipse transform="matrix(0.997 -7.689606e-02 7.689606e-02 0.997 -32.0249 25.9352)" class="st31" cx="320.8" cy="428.8" rx="6.8" ry="10.2"/>
	
		<ellipse transform="matrix(0.1889 -0.982 0.982 0.1889 -165.197 669.4092)" class="st29" cx="322.6" cy="434.7" rx="3.8" ry="3.7"/>
	<path class="st22" d="M291.7,457.8c0,0,16.3-19.6,22.9-19.6s16.3-9.8,49,13c32.7,22.9,26.1,45.7,26.1,45.7l-26.1-16.3
		c0,0-26.1,3.3-42.4,6.6c-9.9,1.7-19.8-2-26.1-9.8C294.9,477.4,288.4,461.1,291.7,457.8z"/>
	<path class="st22" d="M311.3,470.8c0,0,29.4-13,52.3,9.8"/>
	<path class="st26" d="M115.2,568.9c0,0,39.2,19.6,45.7,19.6"/>
	<path class="st26" d="M95.6,588.5c0,0,45.7,19.6,58.8,16.3"/>
	<path class="st25" d="M183.9,581.9c0,0,39.2-32.7,45.7-39.2"/>
	<line class="st26" x1="180.6" y1="598.2" x2="213.3" y2="575.4"/>
	<path class="st25" d="M193.6,608.1c0,0,19.6-13,29.4-26.1"/>
</g>
<text transform="matrix(1 0 0 1 337.4243 225.0551)" class="st32 st33 st34">Parrot can fly</text>
<text transform="matrix(1 0 0 1 1054.6149 -154.8256)" class="st0 st1" style="font-size:85px;">Eagle can fly</text>
<text transform="matrix(1 0 0 1 293.761 1312.6442)" class="st0 st1" style="font-size:85px;">Therefore, penguin can fly</text>
</svg>
