<?xml version="1.0" encoding="utf-8"?>
<!-- Generator: Adobe Illustrator 24.0.3, SVG Export Plug-In . SVG Version: 6.00 Build 0)  -->
<svg version="1.1" id="Layer_1" xmlns="http://www.w3.org/2000/svg" xmlns:xlink="http://www.w3.org/1999/xlink" x="0px" y="0px"
	 viewBox="0 0 1700 1080" style="enable-background:new 0 0 1700 1080;" xml:space="preserve">
<style type="text/css">
	.st0{fill:#C68456;stroke:#231F20;stroke-linecap:round;stroke-miterlimit:10;}
	.st1{fill:#FBEDB0;stroke:#231F20;stroke-linecap:round;stroke-miterlimit:10;}
	.st2{fill:#C68456;stroke:#231F20;stroke-width:1.1863;stroke-linecap:round;stroke-miterlimit:10;}
	.st3{fill:#FBEDB0;stroke:#231F20;stroke-width:1.1863;stroke-linecap:round;stroke-miterlimit:10;}
	.st4{fill:#5B5B5B;}
	.st5{fill:#4453A3;stroke:#000000;stroke-width:0.7443;stroke-linecap:round;stroke-miterlimit:10;}
	.st6{fill:#F9EB18;stroke:#000000;stroke-width:0.7443;stroke-linecap:round;stroke-miterlimit:10;}
	.st7{fill:#848A8A;stroke:#000000;stroke-width:0.7443;stroke-linecap:round;stroke-miterlimit:10;}
	.st8{fill:#DA1F29;stroke:#000000;stroke-width:0.7443;stroke-linecap:round;stroke-miterlimit:10;}
	.st9{fill:#D1C9C2;stroke:#000000;stroke-width:0.7443;stroke-linecap:round;stroke-miterlimit:10;}
	.st10{fill:none;stroke:#000000;stroke-width:0.7443;stroke-linecap:round;stroke-miterlimit:10;}
	.st11{fill:#2A1B1B;stroke:#000000;stroke-width:0.7443;stroke-linecap:round;stroke-miterlimit:10;}
	.st12{fill:#DFCD85;stroke:#000000;stroke-width:0.7443;stroke-linecap:round;stroke-miterlimit:10;}
	.st13{fill:#FFFFFF;stroke:#000000;stroke-width:0.7443;stroke-linecap:round;stroke-miterlimit:10;}
	.st14{fill:#8C523D;stroke:#000000;stroke-width:0.7443;stroke-linecap:round;stroke-miterlimit:10;}
	.st15{fill:#25291D;stroke:#000000;stroke-width:0.7443;stroke-linecap:round;stroke-miterlimit:10;}
	.st16{fill:#FFFFFF;stroke:#000000;stroke-width:0.7443;stroke-linecap:round;stroke-miterlimit:9.9999;}
	.st17{fill:#DA1F29;}
	.st18{fill:#4453A3;stroke:#000000;stroke-width:1.0736;stroke-linecap:round;stroke-miterlimit:10;}
	.st19{fill:#F9EB18;stroke:#000000;stroke-width:1.0736;stroke-linecap:round;stroke-miterlimit:10;}
	.st20{fill:#848A8A;stroke:#000000;stroke-width:1.0736;stroke-linecap:round;stroke-miterlimit:10;}
	.st21{fill:#DA1F29;stroke:#000000;stroke-width:1.0736;stroke-linecap:round;stroke-miterlimit:10;}
	.st22{fill:#D1C9C2;stroke:#000000;stroke-width:1.0736;stroke-linecap:round;stroke-miterlimit:10;}
	.st23{fill:none;stroke:#000000;stroke-width:1.0736;stroke-linecap:round;stroke-miterlimit:10;}
	.st24{fill:#2A1B1B;stroke:#000000;stroke-width:1.0736;stroke-linecap:round;stroke-miterlimit:10;}
	.st25{fill:#DFCD85;stroke:#000000;stroke-width:1.0736;stroke-linecap:round;stroke-miterlimit:10;}
	.st26{fill:#FFFFFF;stroke:#000000;stroke-width:1.0736;stroke-linecap:round;stroke-miterlimit:10;}
	.st27{fill:#8C523D;stroke:#000000;stroke-width:1.0736;stroke-linecap:round;stroke-miterlimit:10;}
	.st28{fill:#25291D;stroke:#000000;stroke-width:1.0736;stroke-linecap:round;stroke-miterlimit:10;}
	.st29{fill:#FFFFFF;stroke:#000000;stroke-width:1.0736;stroke-linecap:round;stroke-miterlimit:9.9999;}
	.st30{opacity:0.7;fill:none;stroke:#000000;stroke-width:13.7176;stroke-miterlimit:10;enable-background:new    ;}
</style>
<g>
	<path class="st0" d="M1140.6,254.3l-52.9-9.1l45.7-9.1l-54.2-13.9l49.5-1.6l-32.5-14.2l46.6,6.2l-26.8-16.1l85.3,11l254.6,1.1
		l40.6-12.1l-14.4,15.8l45.8-4.9l-23,16.9l39.9-4.9c0,0-39.9,41.2-117.2,51.6c-53.2,6.2-106.9,7.7-160.3,4.5L1140.6,254.3z"/>
	<path class="st1" d="M1286.7,142.8c-28.5-40.7-60.7-67.4-90.3-53.5c-29.7,13.8-32.7,56.3-17.2,103.5c14.8,45.4,60.7,67.4,90.3,53.5
		C1299.2,232.4,1314,181.9,1286.7,142.8z"/>
	<path class="st1" d="M1473.7,208.3c14.3-46.3,4.9-95.1-12.9-101.5c-30-10.9-62.9,8.6-90.1,48.9c-26,38.6-15.5,86.9,12.9,101.5
		C1412,271.9,1460,252.8,1473.7,208.3z"/>
	<path class="st1" d="M1403,167.7c7.8-66.8-0.9-122.6-43.4-135.3s-83.8,27.7-110.4,89.4c-25.7,59.4,0.9,122.6,43.4,135.3
		C1335.1,269.8,1395.4,231.9,1403,167.7z"/>
	<path class="st0" d="M1113.8,210.9c0,0-11.8,39.1,51.9,53.3c63.7,14.2,123.5,40.3,183.5,24.6c62.4-16.3,143.1-17.5,183-60.5
		c0,0-24.1,10.2-37.4,11.2c0,0,17.6-18.7,15.5-28.9c0,0-33.7,23.6-56.7,25.1c0,0,19.2-14.8,24-32.6c0,0-53.5,39.1-72.8,40.1
		c0,0,19.7-18.7,19.3-28.3c0,0-34.2,36.9-51.3,38.5c4.4-9.7,5.4-20.7,2.7-31c0,0-10.9,17.4-26.8,21.1l-15.8,3.7
		c0,0-23.6,1.3-34.8-15.5c2.1,9.2,7.7,17.2,15.5,22.5c0,0-29.6-8.8-38-17.9c0,0,4.6,15.5,13.1,19.7c0,0-34.7-9.9-45.7-23.5
		c-2.2,5.4-1.9,11.5,0.8,16.8c0,0-40.1-20.6-51.1-32.4c0,0,8,29.6,21.4,38.8c0,0-47.9-14.8-54.2-38.8c0,0,0,27.8,6.7,33.2
		c0,0-34.5-18.5-38.8-46.8c0,0-4.9,28.6,1.3,35C1129.3,238.4,1113.5,214.9,1113.8,210.9z"/>
	<path class="st1" d="M1382.3,174.2c0.6,6.4-2.5,12.6-8,16.1"/>
	<path class="st1" d="M1446.9,200.1c1.9-3.4,3.5-7,4.9-10.6"/>
	<path class="st1" d="M1270,209.5c-1.5-3.6-3.3-7.1-5.3-10.5"/>
	<path class="st1" d="M1269.8,146.3c-7.8,7.3-12,17.6-11.4,28.2"/>
	<path class="st1" d="M1222.4,215.8c3.4,5.5,7.1,10.7,11.2,15.7"/>
	<path class="st1" d="M1406.5,221.7c-4.1,5-8,10.2-11.4,15.6"/>
</g>
<g>
	<path class="st2" d="M1150.7,944.1l-62.8-10.8l54.2-10.8l-64.3-16.5l58.7-1.9l-38.6-16.8l55.3,7.4l-31.8-19.1l101.2,13l302,1.3
		l48.2-14.4l-17.1,18.7l54.3-5.8l-27.3,20l47.3-5.8c0,0-47.3,48.9-139,61.2c-63.1,7.4-126.8,9.1-190.2,5.3L1150.7,944.1z"/>
	<path class="st3" d="M1324,811.8c-33.8-48.3-72-80-107.1-63.5c-35.2,16.4-38.8,66.8-20.4,122.8c17.6,53.9,72,80,107.1,63.5
		C1338.9,918.1,1356.4,858.2,1324,811.8z"/>
	<path class="st3" d="M1545.9,889.6c17-54.9,5.8-112.8-15.3-120.4c-35.6-12.9-74.6,10.2-106.9,58c-30.8,45.8-18.4,103.1,15.3,120.4
		S1529.6,942.3,1545.9,889.6z"/>
	<path class="st3" d="M1462,841.4c9.3-79.2-1.1-145.4-51.5-160.5c-50.4-15.1-99.4,32.9-131,106.1c-30.5,70.5,1.1,145.4,51.5,160.5
		C1381.5,962.5,1453,917.5,1462,841.4z"/>
	<path class="st2" d="M1118.9,892.6c0,0-14,46.4,61.6,63.2c75.6,16.8,146.5,47.8,217.7,29.2c74-19.3,169.8-20.8,217.1-71.8
		c0,0-28.6,12.1-44.4,13.3c0,0,20.9-22.2,18.4-34.3c0,0-40,28-67.3,29.8c0,0,22.8-17.6,28.5-38.7c0,0-63.5,46.4-86.4,47.6
		c0,0,23.4-22.2,22.9-33.6c0,0-40.6,43.8-60.9,45.7c5.2-11.5,6.4-24.6,3.2-36.8c0,0-12.9,20.6-31.8,25l-18.7,4.4
		c0,0-28,1.5-41.3-18.4c2.5,10.9,9.1,20.4,18.4,26.7c0,0-35.1-10.4-45.1-21.2c0,0,5.5,18.4,15.5,23.4c0,0-41.2-11.7-54.2-27.9
		c-2.6,6.4-2.3,13.6,0.9,19.9c0,0-47.6-24.4-60.6-38.4c0,0,9.5,35.1,25.4,46c0,0-56.8-17.6-64.3-46c0,0,0,33,7.9,39.4
		c0,0-40.9-21.9-46-55.5c0,0-5.8,33.9,1.5,41.5C1137.3,925.2,1118.6,897.3,1118.9,892.6z"/>
	<path class="st3" d="M1437.5,849c0.7,7.6-3,14.9-9.5,19.1"/>
	<path class="st3" d="M1514.1,879.8c2.3-4,4.2-8.3,5.8-12.6"/>
	<path class="st3" d="M1304.2,890.9c-1.8-4.3-3.9-8.4-6.3-12.5"/>
	<path class="st3" d="M1304,815.9c-9.3,8.7-14.2,20.9-13.5,33.5"/>
	<path class="st3" d="M1247.8,898.4c4,6.5,8.4,12.7,13.3,18.6"/>
	<path class="st3" d="M1466.2,905.5c-4.9,5.9-9.5,12.1-13.5,18.5"/>
</g>
<path class="st4" d="M731.7,184.7c0,0,105.2-65.4,173.3-56.9c0,0-34.1-28.4-65.4-34.1c0,0,102.3,2.9,153.5,51.1
	c0,0-96.6,17-108,85.2c0,0,2.9-59.7,22.7-79.6C907.8,150.6,799.9,153.4,731.7,184.7z"/>
<path class="st4" d="M683.9,878.4c0,0,133.7-83,220.2-72.2c0,0-43.3-36.1-83-43.3c0,0,130,3.6,195,65c0,0-122.7,21.6-137.2,108.3
	c0,0,3.6-75.9,28.9-101.1C907.8,835,770.6,838.7,683.9,878.4z"/>
<g>
	<path class="st5" d="M539.7,371c6.5-2.9,13.1-5.4,19.8-7.5c9.2-2.8,21.4-5,23.8-7.6c2.4-2.6,1.3,7.6-8.6,13.7
		c-7.7,4.2-16,7.2-24.6,8.9c0,0,31.1-3.2,33.5-3.3c2.4-0.2-8.7,23.4-38.4,16.7c0,0,35.9,3.3,26.5,15.3c0,0-4.9,6-22.1,2.3
		c0,0,20.5,20.7-10,12.7c0,0,13.2,25.7-13.2,7.6c0,0-1.7,19.7-12.8,4.4c0,0-3.6,12.6-12.3-0.7c0,0-9.8,19.9-14.9-1.2
		c0,0-6.7,15.4-16.1-1.1c0,0-5.2,16-12.7-1.1s4.7-23,4.7-23L539.7,371z"/>
	<path class="st6" d="M461.2,409.2c0,0,9.5,29.4,25.5,5.7c0,0,9.5,15.8,21.9-5.7c0,0,18.4,5,12-11c0,0,35.9-1.6,9.2-13.4
		c0,0,15.4,3.7,15.9-5.6c0.6-9.3-9.7-6.7-9.7-6.7l-27.6,8.1l-44.7,17.6L461.2,409.2z"/>
	<path class="st7" d="M430.3,456.6c0,0-6.7,6-3.2,12s1.9,10.3,12.3,12c10.4,1.7,14.1,2.7,20.7,1.7c6.6-1,2.3,6.7-2.4,7.3
		s-6.1-2.6-10.7-2.2c-2.8,0.3-5.6,0.7-8.4,1.6c2.5,2.2,5.1,4.2,8,6c4,2.3-1.8,7.7-7.3,4.8c-3.2-1.7-5.5-4.7-6.3-8.3
		c-1.9-1.9-4.5-2.6-7-2.2l-4.2,0.7c0,0-7.4,1.6-5.7-1.6c1.8-3.2,4.1-4.5,10-6.3c3.3-1.2-10.3-14-10-24.1
		C416.5,448,430.3,456.6,430.3,456.6z"/>
	<path class="st7" d="M390.2,461.2c0.7,6.1,1.7,12.3,3.1,18.3c1.8,6,2,7.7-7.3,8.6c-9.4,0.8-7,5.9,0,5.7l7-0.3c0,0,4.4-0.3,9.3,13.4
		c2,7.4,11.4,5.3,12.4,2.9c1-2.4-7.7-6-9.4-12s-1.1-5-1.1-5s11.1,11.4,20.7,7.9c5.4-1.2,13-3.5,1.4-6.7c-11.6-3.2-8.3,0.9-21.8-7.4
		c-13.6-8.3,0-28.4,0-28.4L390.2,461.2z"/>
	<path class="st8" d="M446.9,371.8c3.3-0.6,6.6,0.7,8.7,3.3c4.7,4.5,15.1,12,20.5,9.1s25.4-15,29.5-15s13.4,6.4,19,4.7
		c5.5-1.7,20.1-7.1,28.3-6.7c0,0-10.8,4.3-14,6c-3.1,1.8,1.3,8.3-20.1,7.7c0,0,2.3,8.1-11.8,5.7c0,0-9.7,19.9-13.8,7.8
		c0,0-8.2,21.1-15.9,4.7c0,0-3.3,13-13.4,8C453.7,402.3,446.9,371.8,446.9,371.8z"/>
	<path class="st8" d="M463.6,385c-6.1-8.7-7.5-5.3-11.4-10.7c-3.7-5.4,1.7-13.7,1.7-13.7l4-4.3c0,0,17.7-34.7-3.3-55.8
		s-45.4-5.8-45.4-5.8c-0.3-3.3,4.1-14,4.1-14c-5.9,2-14,16.7-14,16.7l-0.8-7.3c0,0-1.6,5.3-3,9.1c-1.4,3.8-23.4,22.4-11.9,46.5
		c9.8,20.3,10.3,23.2,10.2,23.4c6.7,8.7,1,19.7-8.3,24.4c-1.6,2.2-10.4,14.3-21.7,16.5c-12.4,2.3-5,25.1-5,25.1s-19.8,7.3-61.6,19.6
		c-41.8,12.4-20.5,16-20.5,16c-35.4,19.7-3.3,17.4-3.3,17.4c-15,10.3,15.6,6.7,15.6,6.7s-9.5,7.3-4.7,10.4s34.1-7.8,50-16.5
		c16-8.7,30.4-25.7,40.8-25c10.4,0.7,10,6.5,14.4,6.5c10-0.2,19.6-2.8,28.4-7.4c2.6,1.6,5.6,2.4,8.7,2.4l2.9-1.4
		c2.9-1.4,2.6-5.4,5.7-6.7c3.1-1.3,2.9,1.2,13.1-8.4C478.1,420.1,469.8,393.7,463.6,385z"/>
	<path class="st9" d="M446.9,320.7c0,0-8.1-18.2-18-19.6c-9.9-1.3-21.5,6.7-25.9,18.4c-4.5,11.6,1.7,22.6,9.7,22.6
		c0,0-5,39,36.9,12.2C491.5,327.5,446.9,320.7,446.9,320.7z"/>
	<path class="st6" d="M527.9,399.1c1,0.9,21.7,10.4,21.7,10.4"/>
	<line class="st10" x1="522.2" y1="411.3" x2="539.7" y2="422.2"/>
	<path class="st10" d="M512.3,414.1c0,0,10.4,13.4,14.1,15.7"/>
	<path class="st10" d="M508.7,418.2c0,0,3.1,13.4,4.9,16"/>
	<path class="st10" d="M500.5,423.4c0,0,0,8.4,1,10"/>
	<path class="st10" d="M487.1,422.2c-0.6,3.3-0.7,6.7-0.7,10"/>
	<path class="st10" d="M469.7,422.3c-0.4,3.1-0.2,6.1,0.7,9.1"/>
	<path class="st5" d="M310.7,352.3c-6-3.9-12-7.4-18.3-10.6c-8.7-4.2-20.3-8.5-22.2-11.4s-2.5,7.2,6.1,14.9
		c7,5.3,14.6,9.7,22.8,12.7c0,0-30-8.1-32.5-8.7c-2.5-0.6,4.8,24.6,35.2,22.8c0,0-35.9-2.5-28.6,10.8c0,0,3.8,6.7,21.5,5.8
		c0,0-23.4,17.2,7.7,14.1c0,0-17.2,23.2,11.8,9.7c0,0-1.6,19.7,12,6.3c0,0,1.6,13,12.2,1.4c0,0,6.3,21.3,14.9,1.1
		c0,0,4.1,16.3,16,1.6c0,0,2.5,16.7,12.7,0.9c10.2-15.8-0.9-23.4-0.9-23.4L310.7,352.3z"/>
	<path class="st6" d="M315.4,357.2c0,0-9.7-7.7-13-1.7c-3.3,6,1.4,10,10.8,11.8c0,0-8.3-0.6-8.7,4.3c-0.4,4.8,4.1,9.9,15.9,10.6
		c0,0-5.8,6.7,0,11.8s10.4,2.1,10.4,2.1s4.6,18.8,13.1,13.8c6.7-4,7.2-5.2,7.2-5.2c0.2-1.3,4.3,19.3,22.6,8.3c0,0,3.7-1.2,3.6-7.2
		c0,0,7.4,13.4,8.2-6.5l0.7-20.1l-2.7,5.6L315.4,357.2z"/>
	<path class="st8" d="M393.8,369.5L393.8,369.5c-0.6,0.8-1.3,1.5-2.1,2c-20.1,10.7-20.7,6.3-26.8,2.6c-6-3.7-20.9-18.6-25.2-17.5
		c-16.2,4.7-20.7-0.4-30.7-6.7c-10-6.3-12-4-12-4c4.3,2.7,8.3,5.7,12.1,9c9.5,12.5,18,10,18,10c-1.2,9.3,10.8,8.1,10.8,8.1
		c0.3,19,11.7,10.3,11.7,10.3C358,408.1,364,391,364,391c5.2,17,16-2,16-2c0.4,4.2,5.8,4.5,5.8,4.5S404.5,384.2,393.8,369.5z"/>
	<path class="st11" d="M450.3,338.4c0,0-7,9.7-3.6,17c3.3,7.3,16,17.2,30.3,0C476.9,355.3,474.5,334.3,450.3,338.4z"/>
	<path class="st12" d="M449.9,338.5c0,0-9.5-24.5-2-31.4c7.4-7,20.7-12.8,38.7,7.3c18,20.1-0.7,44.8-8.3,50
		C478.3,364.3,478.8,333.1,449.9,338.5z"/>
	<path class="st13" d="M418.4,336.1c0,0-14-16.4,1.5-23.9c13.1-4.6,17.2,16.5,12.7,20.5C427.7,332.8,422.9,334,418.4,336.1z"/>
	<path class="st10" d="M414.2,338.5c7.1-4.3,15.3-6.2,23.4-5.5"/>
	<ellipse class="st14" cx="422.8" cy="327.1" rx="7.7" ry="6.7"/>
	<ellipse class="st15" cx="423.2" cy="328" rx="5" ry="5.4"/>
	<ellipse transform="matrix(0.753 -0.658 0.658 0.753 -108.7487 356.4682)" class="st16" cx="420.5" cy="323.1" rx="3.3" ry="4.4"/>
	<path class="st5" d="M365.4,435.3c0,0-2.6-2.5-12.3,1.7l-9.7,4.1l0,0c-1.5,0-14.8,1.9-15.4,3.9c-0.6,2,10,5.3,14.5,5.1
		c4.5-0.2,22.2-8.8,24.3-10C368.9,438.8,365.4,435.3,365.4,435.3z"/>
	<path class="st5" d="M373.1,438.1c0,0-3.9-1.9-12.4,0.8c-8.5,2.7-20.3,10.4-24.2,15.8c-3.9,5.3-10.4,9.4-5.5,10.6
		c4.9,1.2,25.2-8,29.2-10.4C364.3,452.4,375.3,443.1,373.1,438.1z"/>
	<path class="st5" d="M376.5,440.6c0,0-4.7-3.6-14.1,1.7s-30.1,24-31.3,27.5c-1.1,3.5-1.1,2.2-1.1,3.3c0,1.1,0.8,12.5,14.6,4.3
		C358.2,469.3,376.5,440.6,376.5,440.6z"/>
	<path class="st5" d="M344.5,479.5c0,0,12.5-0.5,18-4.4c5.6-3.9,12.1-17.7,14-22.8c1-3.8,1-7.9,0-11.7c0,0-22,19.1-25.2,23.8
		l-3.3,4.7l0,0C347.9,469.2,340,477.2,344.5,479.5z"/>
	<path class="st6" d="M317.7,381.8c-1.2,0.8-23.1,6.7-23.1,6.7"/>
	<line class="st10" x1="321.6" y1="394.8" x2="302.4" y2="402.7"/>
	<path class="st10" d="M330.7,399.1c0,0-12.5,11.4-16.6,13.4"/>
	<path class="st10" d="M333.7,403.8c0,0-5.2,12.9-7.5,15"/>
	<path class="st10" d="M341,410.4c0,0-1.2,8.3-2.6,9.9"/>
	<path class="st10" d="M354.2,411.2c0,3.3-0.4,6.7-0.9,10"/>
	<path class="st10" d="M371.5,414.2c-0.1,3-0.9,6-2.2,8.7"/>
	<path class="st10" d="M313.2,367.2c0,0,11.4,0.6,13-0.4"/>
	<path class="st10" d="M320.4,382.1c5.9-0.8,11.6-2.1,17.3-3.7"/>
	<path class="st10" d="M330.8,396c0,0,16.9-6.7,19.6-10"/>
	<path class="st10" d="M351.1,404.5c2.8-2,5-4.7,6.5-7.9"/>
	<path class="st10" d="M377.4,405.7c-0.5-3.3-1.4-6.6-2.7-9.7"/>
	<path class="st10" d="M276.7,471c0,0,46.1-8.4,59.8-16.5"/>
	<path class="st10" d="M273.4,488.3c0,0,51.8-16.7,60.4-22.1"/>
	<path class="st10" d="M288.9,495.3c15.1-3.5,29.7-8.8,43.6-15.8"/>
	<path class="st6" d="M486.6,414.7c0.7-3.4,0.6-7.1-0.3-10.5"/>
	<path class="st6" d="M508.6,409.2c0,0-0.8-14-4.2-18.1"/>
	<path class="st6" d="M520.7,398.2c-1.7-4.1-4-7.9-6.9-11.2"/>
	<line class="st10" x1="529.8" y1="384.8" x2="518.6" y2="381"/>
	<path class="st10" d="M438.6,488.9c0,0-2.5-1.7-2.2-3.9"/>
	<line class="st10" x1="404" y1="492.5" x2="402.2" y2="488.4"/>
	<path class="st10" d="M433,491.4c0,0-3.3-3.9-2.6-5.9"/>
	<path class="st10" d="M417.9,463.2c3.8-2,7.2-5,9.7-8.6"/>
	<path class="st10" d="M404,358.4c0,0,2.2,7,16.5,9"/>
	<path class="st10" d="M439.8,367.3c3.9,0.2,7.7,0,11.5-0.6"/>
	<ellipse class="st17" cx="401.6" cy="374.4" rx="8.4" ry="6.7"/>
</g>
<g>
	<path class="st18" d="M568.6,789.4c9.4-4.2,18.9-7.8,28.6-10.9c13.3-4,30.9-7.2,34.4-11s1.9,11-12.3,19.7
		c-11.1,6-23.1,10.3-35.4,12.9c0,0,44.8-4.6,48.3-4.8c3.5-0.3-12.5,33.8-55.4,24.2c0,0,51.8,4.8,38.2,22c0,0-7.1,8.7-31.9,3.4
		c0,0,29.5,29.9-14.5,18.3c0,0,19.1,37-19.1,11c0,0-2.4,28.5-18.5,6.3c0,0-5.2,18.1-17.7-0.9c0,0-14.1,28.7-21.5-1.7
		c0,0-9.7,22.1-23.2-1.6c0,0-7.5,23.1-18.4-1.6c-10.9-24.7,6.8-33.1,6.8-33.1L568.6,789.4z"/>
	<path class="st19" d="M455.3,844.4c0,0,13.7,42.4,36.8,8.2c0,0,13.7,22.8,31.5-8.2c0,0,26.6,7.2,17.3-15.8c0,0,51.8-2.3,13.3-19.3
		c0,0,22.1,5.4,22.9-8.1c0.7-13.4-14-9.7-14-9.7l-39.9,11.7l-64.6,25.4L455.3,844.4z"/>
	<path class="st20" d="M410.8,912.9c0,0-9.7,8.6-4.6,17.3c5.1,8.7,2.7,14.9,17.7,17.3c15,2.4,20.4,3.9,29.9,2.4
		c9.5-1.5,3.4,9.7-3.5,10.6c-6.8,0.9-8.9-3.8-15.4-3.2c-4,0.4-8.1,1.1-12.1,2.3c3.6,3.2,7.4,6,11.5,8.6c5.8,3.4-2.5,11.1-10.5,7
		c-4.6-2.4-7.9-6.8-9.1-11.9c-2.7-2.7-6.4-3.8-10.1-3.2l-6,1.1c0,0-10.7,2.3-8.2-2.3c2.5-4.6,5.9-6.4,14.5-9.1
		c4.8-1.7-14.9-20.3-14.5-34.8C390.9,900.4,410.8,912.9,410.8,912.9z"/>
	<path class="st20" d="M353,919.5c0.9,8.9,2.4,17.7,4.4,26.4c2.5,8.7,3,11.1-10.6,12.3c-13.6,1.1-10.1,8.5,0,8.2l10.1-0.4
		c0,0,6.3-0.4,13.4,19.3c2.8,10.7,16.4,7.6,17.8,4.2c1.5-3.5-11.1-8.6-13.6-17.3s-1.6-7.2-1.6-7.2s16,16.5,29.8,11.4
		c7.8-1.7,18.8-5.1,2-9.7c-16.8-4.6-11.9,1.3-31.4-10.7c-19.6-11.9,0-40.9,0-40.9L353,919.5z"/>
	<path class="st21" d="M434.7,790.5c4.7-0.8,9.5,1.1,12.5,4.8c6.7,6.4,21.7,17.3,29.5,13.2c7.8-4,36.6-21.6,42.5-21.6
		c5.9,0,19.3,9.3,27.4,6.8c7.9-2.4,29-10.2,40.8-9.7c0,0-15.6,6.2-20.1,8.7c-4.4,2.5,1.9,11.9-29,11.1c0,0,3.4,11.7-17,8.2
		c0,0-14,28.7-19.9,11.3c0,0-11.8,30.5-22.9,6.7c0,0-4.8,18.8-19.3,11.5C444.6,834.5,434.7,790.5,434.7,790.5z"/>
	<path class="st21" d="M459,809.5c-8.9-12.6-10.9-7.6-16.4-15.4c-5.4-7.8,2.4-19.7,2.4-19.7l5.8-6.2c0,0,25.5-50.1-4.8-80.5
		s-65.5-8.3-65.5-8.3c-0.4-4.7,5.9-20.1,5.9-20.1c-8.5,2.8-20.3,24.2-20.3,24.2l-1.2-10.5c0,0-2.3,7.6-4.3,13.2
		s-33.8,32.3-17.2,67.1c14.1,29.3,14.9,33.4,14.8,33.8c9.7,12.5,1.5,28.5-11.9,35.2c-2.3,3.2-15,20.7-31.3,23.8
		c-17.8,3.4-7.2,36.2-7.2,36.2s-28.6,10.5-88.8,28.3c-60.3,17.8-29.5,23.1-29.5,23.1c-51.1,28.5-4.8,25.1-4.8,25.1
		c-21.6,14.9,22.5,9.7,22.5,9.7s-13.7,10.5-6.8,15c6.8,4.7,49.1-11.3,72.1-23.8c23.1-12.5,43.9-37,58.9-36.1
		c15,0.9,14.5,9.4,20.8,9.4c14.4-0.3,28.3-4,40.9-10.7c3.8,2.3,8.1,3.5,12.5,3.5l4.2-2c4.2-2,3.8-7.8,8.2-9.7
		c4.4-1.9,4.2,1.7,18.9-12.1C479.8,860.3,467.8,822.2,459,809.5z"/>
	<path class="st22" d="M434.7,716.8c0,0-11.7-26.3-25.9-28.3c-14.2-1.9-31,9.7-37.3,26.6c-6.4,16.8,2.4,32.6,14,32.6
		c0,0-7.2,56.2,53.3,17.6S434.7,716.8,434.7,716.8z"/>
	<path class="st19" d="M551.7,829.9c1.5,1.3,31.3,15,31.3,15"/>
	<line class="st23" x1="543.2" y1="847.5" x2="568.6" y2="863.2"/>
	<path class="st23" d="M529.2,851.6c0,0,15,19.3,20.4,22.7"/>
	<path class="st23" d="M523.9,857.5c0,0,4.4,19.3,7.1,23.1"/>
	<path class="st23" d="M512.1,865c0,0,0,12.1,1.5,14.5"/>
	<path class="st23" d="M492.8,863.2c-0.8,4.8-1.1,9.7-1.1,14.5"/>
	<path class="st23" d="M467.6,863.4c-0.5,4.4-0.3,8.9,0.9,13.2"/>
	<path class="st18" d="M238.3,762.4c-8.6-5.6-17.3-10.7-26.4-15.3c-12.6-6-29.3-12.2-32.1-16.4c-2.8-4.2-3.6,10.3,8.9,21.5
		c10.1,7.6,21.1,14,32.9,18.4c0,0-43.2-11.7-46.8-12.5c-3.6-0.8,7,35.4,50.7,32.9c0,0-51.8-3.6-41.2,15.6c0,0,5.5,9.7,31,8.3
		c0,0-33.8,24.8,11.1,20.4c0,0-24.8,33.4,17,14c0,0-2.3,28.5,17.3,9.1c0,0,2.3,18.8,17.6,2c0,0,9.1,30.7,21.5,1.6
		c0,0,5.9,23.5,23.1,2.3c0,0,3.6,24.2,18.4,1.3c14.8-22.8-1.3-33.8-1.3-33.8L238.3,762.4z"/>
	<path class="st19" d="M245.1,769.4c0,0-14-11.1-18.8-2.4c-4.7,8.7,2,14.5,15.6,17c0,0-11.9-0.8-12.5,6.2s5.9,14.2,22.9,15.3
		c0,0-8.3,9.7,0,17c8.3,7.4,15,3.1,15,3.1s6.6,27.1,18.9,19.9c9.7-5.8,10.3-7.5,10.3-7.5c0.3-1.9,6.2,27.8,32.6,11.9
		c0,0,5.4-1.7,5.2-10.3c0,0,10.7,19.3,11.8-9.4l1.1-29l-3.9,8.1L245.1,769.4z"/>
	<path class="st21" d="M358.2,787.3L358.2,787.3c-0.8,1.2-1.9,2.1-3.1,2.8c-29,15.4-29.9,9.1-38.6,3.8c-8.7-5.4-30.2-26.8-36.4-25.2
		c-23.4,6.8-29.8-0.5-44.3-9.7s-17.3-5.8-17.3-5.8c6.2,3.9,11.9,8.2,17.4,13c13.7,18,26,14.5,26,14.5c-1.7,13.4,15.6,11.7,15.6,11.7
		c0.4,27.4,16.9,14.9,16.9,14.9c12.1,35.7,20.8,11,20.8,11c7.5,24.6,23.1-2.8,23.1-2.8c0.5,6,8.3,6.4,8.3,6.4
		S373.5,808.5,358.2,787.3z"/>
	<path class="st24" d="M439.5,742.3c0,0-10.1,14-5.2,24.6c4.7,10.6,23.1,24.8,43.7,0C477.9,766.7,474.5,736.4,439.5,742.3z"/>
	<path class="st25" d="M439.1,742.4c0,0-13.7-35.3-3-45.4c10.7-10.1,29.8-18.5,55.8,10.5c26,29-1.1,64.7-11.9,72.1
		C480,779.8,480.8,734.7,439.1,742.4z"/>
	<path class="st26" d="M393.8,739.1c0,0-20.1-23.6,2.1-34.5c18.9-6.6,24.8,23.8,18.4,29.5C407,734.3,400.1,736,393.8,739.1z"/>
	<path class="st23" d="M387.7,742.4c10.2-6.2,22-9,33.8-7.9"/>
	<ellipse class="st27" cx="400.1" cy="726.1" rx="11.1" ry="9.7"/>
	<ellipse class="st28" cx="400.6" cy="727.4" rx="7.2" ry="7.8"/>
	<ellipse transform="matrix(0.753 -0.658 0.658 0.753 -375.9693 438.9152)" class="st29" cx="396.7" cy="720.3" rx="4.8" ry="6.3"/>
	<path class="st18" d="M317.3,882.1c0,0-3.8-3.6-17.7,2.4l-14,5.9l0,0c-2.1,0-21.3,2.7-22.1,5.6c-0.8,3,14.5,7.6,20.9,7.4
		c6.4-0.3,32.1-12.7,35-14.5C322.4,887.2,317.3,882.1,317.3,882.1z"/>
	<path class="st18" d="M328.3,886.2c0,0-5.6-2.7-17.8,1.2c-12.2,3.9-29.3,15-34.9,22.8c-5.6,7.6-15,13.6-7.9,15.3
		c7.1,1.7,36.4-11.5,42.1-15C315.6,906.8,331.5,893.4,328.3,886.2z"/>
	<path class="st18" d="M333.1,889.8c0,0-6.8-5.2-20.4,2.4s-43.5,34.6-45.1,39.7c-1.6,5.1-1.6,3.2-1.6,4.8c0,1.6,1.2,18,21.1,6.2
		C306.8,931.1,333.1,889.8,333.1,889.8z"/>
	<path class="st18" d="M287.1,945.9c0,0,18-0.7,26-6.3c8.1-5.6,17.4-25.5,20.1-32.9c1.5-5.5,1.5-11.4,0-16.9
		c0,0-31.7,27.5-36.4,34.4L292,931l0,0C292,931,280.6,942.5,287.1,945.9z"/>
	<path class="st19" d="M248.4,805c-1.7,1.2-33.3,9.7-33.3,9.7"/>
	<line class="st23" x1="253.9" y1="823.8" x2="226.3" y2="835.2"/>
	<path class="st23" d="M267.2,829.9c0,0-18,16.5-23.9,19.3"/>
	<path class="st23" d="M271.5,836.7c0,0-7.5,18.7-10.9,21.6"/>
	<path class="st23" d="M282.1,846.2c0,0-1.7,11.9-3.8,14.2"/>
	<path class="st23" d="M301,847.4c0,4.8-0.5,9.7-1.3,14.5"/>
	<path class="st23" d="M326,851.7c-0.1,4.3-1.3,8.6-3.2,12.5"/>
	<path class="st23" d="M242,783.9c0,0,16.5,0.8,18.8-0.5"/>
	<path class="st23" d="M252.3,805.4c8.5-1.2,16.8-3.1,25-5.4"/>
	<path class="st23" d="M267.3,825.5c0,0,24.4-9.7,28.3-14.5"/>
	<path class="st23" d="M296.6,837.7c4-3,7.2-6.8,9.4-11.4"/>
	<path class="st23" d="M334.4,839.5c-0.7-4.8-2-9.5-3.9-14"/>
	<path class="st23" d="M189.2,933.7c0,0,66.4-12.1,86.3-23.8"/>
	<path class="st23" d="M184.4,958.6c0,0,74.7-24.2,87.1-31.9"/>
	<path class="st23" d="M206.9,968.7c21.7-5.1,42.8-12.7,62.9-22.8"/>
	<path class="st19" d="M492.1,852.5c0.9-5,0.8-10.2-0.4-15.2"/>
	<path class="st19" d="M523.7,844.4c0,0-1.2-20.3-6-26.2"/>
	<path class="st19" d="M541.1,828.6c-2.4-5.9-5.8-11.4-9.9-16.1"/>
	<line class="st23" x1="554.4" y1="809.3" x2="538.3" y2="803.8"/>
	<path class="st23" d="M422.9,959.4c0,0-3.6-2.4-3.2-5.6"/>
	<line class="st23" x1="372.8" y1="964.7" x2="370.4" y2="958.8"/>
	<path class="st23" d="M414.8,963.1c0,0-4.8-5.6-3.8-8.5"/>
	<path class="st23" d="M392.9,922.4c5.5-3,10.3-7.2,14-12.3"/>
	<path class="st23" d="M372.8,771.2c0,0,3.2,10.1,23.8,13"/>
	<path class="st23" d="M424.5,784c5.6,0.3,11.1,0,16.6-0.8"/>
	<ellipse class="st17" cx="369.5" cy="794.2" rx="12.1" ry="9.7"/>
</g>
<path d="M813.6,379.1v-15.5h133.1v15.5H813.6z M813.6,429.6V414h133.1v15.5L813.6,429.6z"/>
<line class="st30" x1="87" y1="583" x2="1637.7" y2="583"/>
<g>
	<path d="M312.6,92.2c0,0,16.1-15.1,24,0l7.7,3.1c0,0-13.5,1.5-18.7,7.7c0,0-1.1,14.6-17.6,18.8c-16.5,4.3-43.5,3.3-43.5,3.3
		l28.6-17.2l-10.2-5.2l7.6-0.9l-8.3-5l7-0.6c0,0-16.5-15.9-16.5-23.8C272.9,72.6,307,92.9,312.6,92.2z"/>
	<path d="M523,93.9c0,0-16.1-18.9-24,0l-7.7,3.9c0,0,13.5,1.8,18.7,9.7c0,0,1.1,18.2,17.6,23.5c16.5,5.3,43.5,4.2,43.5,4.2
		l-28.7-21.5l10.2-6.5l-7.6-1.2l8.3-6.2l-7-0.7c0,0,16.5-19.8,16.5-29.7C562.6,69.5,528.5,94.8,523,93.9z"/>
	<path d="M407.6,85.3c0,0-5.4-10.9,5.9-14.2l2.4-7.4l2.8,7.6c0,0,10.5,3.1,5.9,14c0,0,12.8-6.8,19.5-5.2c6.8,1.7,11.3,7.6,22.5,9.6
		c11.3,2,11.3,2,11.3,2s-4.8,4.1-13.3,5.2c0,0,3.3,2.7,5.2,2c1.9-0.7-9.1,3.5-14.4,4.3c0,0,3,3,4.6,2.8c1.7-0.2-10.2,1.7-12.8,1.7
		c0,0-1.3,2,1.7,2.4c3,0.4-12.9,5-22,4.4c0,0-1.8,3.9-2.4,4.4c-0.6,0.6,5.4,21.4,5.4,21.4s-3.5,3.1-6.6-1.1c0,0,0.7,14.8-8.1,11.7
		c-8.9-3.1-5.5-11.8-5.5-11.8s-5.9,3.9-7.6,1.7c-1.7-2.2,6.1-21.8,6.1-21.8s-3.3-3.3-2.8-4.4c0,0-10.3,0.2-13.9-2.2
		c-3.5-2.4,0-2.4,0-2.4s-13.1,0.2-8-2.4c5.2-2.6-16.6-3.5-7.7-5.6s-21.8-3.5-8.5-5.4c0,0-10.9-2.4-13.3-5.5c0,0,16.8-1.5,33.9-10.3
		C388,80.7,393.2,77.6,407.6,85.3z"/>
	<path d="M422.7,191.9c0,0,3-9.1,8.9-9.2c5.9-0.2,8.3-0.4,10.5,4.6l7.7,3l-8.5,1.7c0,0-0.6,4.4-2.6,7.2c0,0,0.4,13.9-17.6,22.1
		l-1.3,3.5l2.8,6.1l-5.2-4.8v-3.9h-1.7l-2.3,4.4l2.3,4.3l-4.7-3.7V223c0,0-5.5,0-10.2-1.5l-27.5,12.9c0,0,18.8-23.8,33.9-33.2
		C422.7,191.9,422.7,191.9,422.7,191.9z"/>
	<path d="M456.8,222.2c0,0,4.3-5.9,7-6.1c0,0,1-9.7,13.3-6.5c12.3,3.2,12.8,2.2,12.8,2.2s-4.6-21.7-20.8-30.5
		c0,0,20.3,10.7,22.1,12.2l-1.9-5.9l12,12.5v-5l9.4,12.5c0,0,41.6-9.4,50.5-19.8c0,0-7.7,14.9-13.1,18.4c0,0,5.2,1.1,8-1.6
		c0,0-4.8,7.4-9.4,9.4c0,0,5,0.6,7.2-0.6c0,0-12.2,7.2-14.5,7.5c0,0,16,12.9,21.3,26.2c0,0-16.5-10.9-30.4-11.6
		c0,0-22.9,12.5-42.7,0c0,0-8.9-8-14.6-9.6c0,0-7,1.6-8.6-4.8L456.8,222.2z"/>
	<path d="M269.2,177.4c0,0,6.7-2.9,9.1-1.7c0,0,5.7-7.9,14.7,1.1s9.9,8.4,9.9,8.4s6.9-21-2.4-36.8c0,0,12,19.5,12.8,21.7l1.3-6.1
		l4,16.9l2.5-4.3l1.7,15.6c0,0,40.6,12.9,53.5,8.5c0,0-14.3,8.9-20.6,9.3c0,0,3.9,3.5,7.7,2.7c0,0-7.9,3.9-12.8,3.5
		c0,0,3.9,3,6.5,3.1c0,0-14.1,0-16.3-0.9c0,0,7.2,19.2,5,33.4c0,0-8.7-17.8-20.3-25.4c0,0-26.1-0.8-36.8-21.7c0,0-3.6-11.4-7.8-15.7
		c0,0-6.8-2.2-5-8.5L269.2,177.4z"/>
</g>
<g>
	<path d="M1250.3,343.2c0,0,14.6-13.7,21.8,0l7,2.9c0,0-12.2,1.4-16.9,7c0,0-1,13.2-15.9,17.1c-14.9,3.9-39.5,3-39.5,3l25.9-15.6
		l-9.2-4.7l6.9-0.9l-7.5-4.5l6.4-0.5c0,0-14.9-14.4-14.9-21.6C1214.4,325.5,1245.3,344,1250.3,343.2z"/>
	<path d="M1441.1,344.8c0,0-14.6-17.1-21.8,0l-7,3.6c0,0,12.2,1.6,16.9,8.8c0,0,1,16.5,15.9,21.3c14.9,4.8,39.5,3.8,39.5,3.8
		l-25.9-19.4l9.2-5.9l-6.9-1.1l7.5-5.6l-6.4-0.6c0,0,14.9-17.9,14.9-26.9C1477.1,322.8,1446.1,345.7,1441.1,344.8z"/>
	<path d="M1336.6,337.1c0,0-4.9-9.8,5.4-12.8l2.2-6.7l2.5,6.9c0,0,9.6,2.9,5.4,12.7c0,0,11.6-6.2,17.7-4.7
		c6.2,1.5,10.2,6.9,20.4,8.7c10.2,1.9,10.2,1.9,10.2,1.9s-4.4,3.7-12.1,4.7c0,0,3,2.4,4.7,1.8c1.6-0.6-8.2,3.2-13.1,3.9
		c0,0,2.7,2.7,4.2,2.5c1.5-0.2-9.2,1.5-11.6,1.5c0,0-1.1,1.9,1.5,2.1c2.7,0.4-11.7,4.5-19.9,4c0,0-1.6,3.5-2.1,4
		c-0.5,0.5,4.9,19.4,4.9,19.4s-3.2,2.9-6-1c0,0,0.6,13.4-7.4,10.6c-8-2.9-5-10.7-5-10.7s-5.4,3.5-6.9,1.5s5.5-19.8,5.5-19.8
		s-3-3-2.5-4c0,0-9.4,0.1-12.6-2s0-2.1,0-2.1s-11.8,0.2-7.2-2.1c4.7-2.4-15.1-3.2-7-5.1c8.1-1.9-19.8-3.2-7.7-4.9
		c0,0-9.8-2.1-12.1-5c0,0,15.2-1.4,30.8-9.4C1318.8,332.9,1323.5,330,1336.6,337.1z"/>
	<path d="M1350.3,433.6c0,0,2.7-8.2,8.1-8.4c5.4-0.1,7.5-0.4,9.6,4.2l7,2.7l-7.7,1.5c0,0-0.5,4-2.4,6.5c0,0,0.4,12.6-15.9,20.1
		l-1.1,3.2l2.5,5.5l-4.7-4.4v-3.5h-1.5l-2.1,4l2.1,3.9l-4.3-3.4v-3.7c0,0-5,0-9.2-1.4l-24.9,11.7c0,0,17.1-21.6,30.8-30.1
		C1350.3,433.6,1350.3,433.6,1350.3,433.6z"/>
	<path d="M1381.2,461.2c0,0,3.9-5.4,6.4-5.5c0,0,0.9-8.8,12.1-5.9c11.1,2.9,11.6,2,11.6,2s-4.2-19.6-18.8-27.7
		c0,0,18.4,9.7,20.1,11.1l-1.7-5.4l10.9,11.3v-4.5l8.5,11.3c0,0,37.7-8.6,45.8-18c0,0-7,13.5-11.8,16.7c0,0,4.7,1,7.3-1.4
		c0,0-4.4,6.7-8.5,8.6c0,0,4.5,0.6,6.5-0.6c0,0-11.1,6.5-13.1,6.8c0,0,14.5,11.7,19.3,23.8c0,0-14.9-9.9-27.6-10.5
		c0,0-20.8,11.3-38.7,0c0,0-8.1-7.3-13.3-8.7c0,0-6.4,1.4-7.8-4.4L1381.2,461.2z"/>
	<path d="M1211.1,420.5c0,0,6.1-2.6,8.3-1.5c0,0,5.2-7.1,13.3,1c8.1,8.1,9,7.6,9,7.6s6.3-19.1-2.2-33.4c0,0,10.9,17.7,11.6,19.6
		l1.2-5.5l3.6,15.3l2.3-3.9l1.6,14.1c0,0,36.8,11.7,48.5,7.7c0,0-12.9,8.1-18.7,8.4c0,0,3.5,3.2,7,2.4c0,0-7.1,3.6-11.6,3.1
		c0,0,3.6,2.7,5.9,2.8c0,0-12.8,0-14.8-0.8c0,0,6.6,17.4,4.6,30.3c0,0-7.9-16.1-18.4-23c0,0-23.6-0.7-33.4-19.6
		c0,0-3.3-10.3-7.1-14.2c0,0-6.2-2-4.5-7.7L1211.1,420.5z"/>
</g>
</svg>
