<?xml version="1.0" encoding="utf-8"?>
<!-- Generator: Adobe Illustrator 24.0.3, SVG Export Plug-In . SVG Version: 6.00 Build 0)  -->
<svg version="1.1" id="Layer_1" xmlns="http://www.w3.org/2000/svg" xmlns:xlink="http://www.w3.org/1999/xlink" x="0px" y="0px"
	 viewBox="0 0 1700 1080" style="enable-background:new 0 0 1700 1080;" xml:space="preserve">
<style type="text/css">
	.st0{opacity:0.51;fill:#226999;enable-background:new    ;}
	.st1{fill:#C68456;stroke:#231F20;stroke-width:0.7808;stroke-linecap:round;stroke-miterlimit:10;}
	.st2{fill:#FBEDB0;stroke:#231F20;stroke-width:0.7808;stroke-linecap:round;stroke-miterlimit:10;}
	.st3{enable-background:new    ;}
	.st4{opacity:0.72;}
	.st5{fill:#FFFFFF;}
	.st6{font-family:'CarterOne';}
	.st7{font-size:81.6434px;}
	.st8{fill:#6D6D6D;stroke:#000000;stroke-width:1.1585;stroke-linejoin:round;}
	.st9{opacity:0.51;fill:#999923;enable-background:new    ;}
	.st10{fill:#4453A3;stroke:#000000;stroke-width:0.7203;stroke-linecap:round;stroke-miterlimit:10;}
	.st11{fill:#F9EB18;stroke:#000000;stroke-width:0.7203;stroke-linecap:round;stroke-miterlimit:10;}
	.st12{fill:#848A8A;stroke:#000000;stroke-width:0.7203;stroke-linecap:round;stroke-miterlimit:10;}
	.st13{fill:#DA1F29;stroke:#000000;stroke-width:0.7203;stroke-linecap:round;stroke-miterlimit:10;}
	.st14{fill:#D1C9C2;stroke:#000000;stroke-width:0.7203;stroke-linecap:round;stroke-miterlimit:10;}
	.st15{fill:none;stroke:#000000;stroke-width:0.7203;stroke-linecap:round;stroke-miterlimit:10;}
	.st16{fill:#2A1B1B;stroke:#000000;stroke-width:0.7203;stroke-linecap:round;stroke-miterlimit:10;}
	.st17{fill:#DFCD85;stroke:#000000;stroke-width:0.7203;stroke-linecap:round;stroke-miterlimit:10;}
	.st18{fill:#FFFFFF;stroke:#000000;stroke-width:0.7203;stroke-linecap:round;stroke-miterlimit:10;}
	.st19{fill:#8C523D;stroke:#000000;stroke-width:0.7203;stroke-linecap:round;stroke-miterlimit:10;}
	.st20{fill:#25291D;stroke:#000000;stroke-width:0.7203;stroke-linecap:round;stroke-miterlimit:10;}
	.st21{fill:#FFFFFF;stroke:#000000;stroke-width:0.7203;stroke-linecap:round;stroke-miterlimit:9.9998;}
	.st22{fill:#DA1F29;}
	.st23{display:none;}
	.st24{display:inline;opacity:0.7;fill:none;stroke:#000000;stroke-width:13.243;stroke-miterlimit:10;enable-background:new    ;}
	.st25{display:inline;fill:#FFFFFF;}
	.st26{display:inline;fill:#C1272D;}
	.st27{font-size:85px;}
	.st28{display:inline;opacity:0.51;fill:#259949;enable-background:new    ;}
	.st29{display:inline;}
	.st30{fill:#4453A3;stroke:#000000;stroke-width:0.8863;stroke-linecap:round;stroke-miterlimit:10;}
	.st31{fill:#F9EB18;stroke:#000000;stroke-width:0.8863;stroke-linecap:round;stroke-miterlimit:10;}
	.st32{fill:#848A8A;stroke:#000000;stroke-width:0.8863;stroke-linecap:round;stroke-miterlimit:10;}
	.st33{fill:#DA1F29;stroke:#000000;stroke-width:0.8863;stroke-linecap:round;stroke-miterlimit:10;}
	.st34{fill:#D1C9C2;stroke:#000000;stroke-width:0.8863;stroke-linecap:round;stroke-miterlimit:10;}
	.st35{fill:none;stroke:#000000;stroke-width:0.8863;stroke-linecap:round;stroke-miterlimit:10;}
	.st36{fill:#2A1B1B;stroke:#000000;stroke-width:0.8863;stroke-linecap:round;stroke-miterlimit:10;}
	.st37{fill:#DFCD85;stroke:#000000;stroke-width:0.8863;stroke-linecap:round;stroke-miterlimit:10;}
	.st38{fill:#FFFFFF;stroke:#000000;stroke-width:0.8863;stroke-linecap:round;stroke-miterlimit:10;}
	.st39{fill:#8C523D;stroke:#000000;stroke-width:0.8863;stroke-linecap:round;stroke-miterlimit:10;}
	.st40{fill:#25291D;stroke:#000000;stroke-width:0.8863;stroke-linecap:round;stroke-miterlimit:10;}
	.st41{fill:#FFFFFF;stroke:#000000;stroke-width:0.8863;stroke-linecap:round;stroke-miterlimit:9.9998;}
	.st42{fill:#C68456;stroke:#231F20;stroke-linecap:round;stroke-miterlimit:10;}
	.st43{fill:#FBEDB0;stroke:#231F20;stroke-linecap:round;stroke-miterlimit:10;}
	.st44{display:inline;stroke:#000000;stroke-width:1.4621;stroke-linejoin:round;}
	.st45{display:inline;enable-background:new    ;}
</style>
<g>
	<path class="st0" d="M1617.7,308.7H87.3c-23,0-41.7-18.6-41.7-41.7V72.6c0-23,18.6-41.7,41.7-41.7h1530.4c23,0,41.7,18.6,41.7,41.7
		v194.5C1659.3,290.1,1640.7,308.7,1617.7,308.7z"/>
	<g>
		<path class="st1" d="M1099.8,278.1l-34.5-5.9l29.8-5.9l-35.3-9.1l32.2-1.1l-21.2-9.2l30.4,4l-17.4-10.5l55.6,7.2l165.9,0.7
			l26.5-7.9l-9.4,10.3l29.8-3.2l-15,11l26-3.2c0,0-26,26.9-76.4,33.7c-34.7,4.1-69.6,5-104.5,2.9L1099.8,278.1z"/>
		<path class="st2" d="M1195,205.4c-18.6-26.5-39.5-43.9-58.9-34.9c-19.4,9.1-21.3,36.7-11.2,67.5c9.6,29.6,39.5,43.9,58.9,34.9
			C1203.1,263.9,1212.8,230.8,1195,205.4z"/>
		<path class="st2" d="M1316.8,248.1c9.3-30.1,3.2-62-8.4-66.1c-19.5-7.1-41,5.6-58.7,31.9c-16.9,25.1-10.1,56.6,8.4,66.1
			C1276.6,289.5,1307.9,277.1,1316.8,248.1z"/>
		<path class="st2" d="M1270.8,221.6c5.1-43.6-0.5-79.9-28.3-88.2c-27.6-8.3-54.6,18.1-71.9,58.2c-16.8,38.6,0.5,79.9,28.3,88.2
			C1226.5,288.2,1265.8,263.5,1270.8,221.6z"/>
		<path class="st1" d="M1082.3,249.7c0,0-7.7,25.5,33.8,34.7c41.5,9.3,80.4,26.2,119.5,16.1c40.7-10.6,93.3-11.4,119.2-39.4
			c0,0-15.7,6.6-24.4,7.3c0,0,11.5-12.2,10.1-18.8c0,0-21.9,15.4-36.9,16.4c0,0,12.5-9.6,15.7-21.2c0,0-34.9,25.5-47.4,26.2
			c0,0,12.8-12.2,12.6-18.4c0,0-22.3,24-33.4,25.1c2.9-6.3,3.5-13.5,1.7-20.2c0,0-7.1,11.3-17.4,13.7l-10.3,2.4
			c0,0-15.4,0.9-22.6-10.2c1.4,6,5,11.2,10.2,14.7c0,0-19.3-5.8-24.8-11.6c0,0,3,10.2,8.5,12.8c0,0-22.6-6.4-29.8-15.3
			c-1.4,3.5-1.2,7.5,0.5,10.9c0,0-26.2-13.4-33.3-21.1c0,0,5.2,19.3,14,25.3c0,0-31.2-9.6-35.3-25.3c0,0,0,18.1,4.4,21.6
			c0,0-22.5-12-25.3-30.5c0,0-3.2,18.7,0.9,22.8C1092.4,267.7,1082.1,252.4,1082.3,249.7z"/>
		<path class="st2" d="M1257.3,225.8c0.4,4.2-1.6,8.2-5.2,10.5"/>
		<path class="st2" d="M1299.4,242.7c1.2-2.3,2.3-4.5,3.2-6.9"/>
		<path class="st2" d="M1184.1,248.9c-1-2.3-2.2-4.6-3.4-6.9"/>
		<path class="st2" d="M1184,207.7c-5.1,4.8-7.8,11.5-7.4,18.4"/>
		<path class="st2" d="M1153.1,252.9c2.2,3.6,4.7,7,7.3,10.2"/>
		<path class="st2" d="M1273,256.8c-2.7,3.2-5.2,6.6-7.4,10.2"/>
	</g>
	<g class="st3">
		<g class="st4">
			<text transform="matrix(1 0 0 1 148.8861 110.9069)" class="st5 st6 st7">General Statement 1:  Bird lays eggs</text>
		</g>
		<g>
			<text transform="matrix(1 0 0 1 143.8861 107.9069)" class="st6 st7">General Statement 1:  Bird lays eggs</text>
		</g>
	</g>
	<path class="st8" d="M688.8,242.3c0,0,109.9-68.4,181.3-59.4c0,0-35.7-29.8-68.4-35.7c0,0,107,3,160.5,53.5c0,0-101,17.8-113,89.2
		c0,0,3-62.4,23.7-83.2C873.1,206.6,760.2,209.6,688.8,242.3z"/>
	<g>
		<path d="M356.5,162.1c0,0,12.4-11.7,18.7,0l6.1,2.5c0,0-10.5,1.2-14.4,6.1c0,0-0.8,11.3-13.7,14.6c-12.7,3.3-33.8,2.6-33.8,2.6
			l22.1-13.3l-7.9-4l5.9-0.7l-6.4-3.8l5.5-0.4c0,0-12.7-12.4-12.7-18.5C325.6,146.9,352.2,162.7,356.5,162.1z"/>
		<path d="M519.9,163.4c0,0-12.4-14.7-18.7,0l-6.1,3.1c0,0,10.5,1.5,14.4,7.5c0,0,0.8,14.1,13.7,18.2c12.7,4.1,33.8,3.2,33.8,3.2
			l-22.1-16.7l7.9-5l-5.9-0.8l6.4-4.8l-5.5-0.5c0,0,12.7-15.4,12.7-23C550.7,144.6,524.1,164.2,519.9,163.4z"/>
		<path d="M430.3,156.8c0,0-4.1-8.4,4.6-11.1l1.9-5.8l2.1,5.9c0,0,8.1,2.5,4.6,10.9c0,0,9.9-5.3,15.2-4s8.8,5.9,17.5,7.4
			c8.8,1.6,8.8,1.6,8.8,1.6s-3.7,3.1-10.3,4c0,0,2.6,2.1,4,1.5c1.5-0.5-7,2.8-11.1,3.4c0,0,2.3,2.3,3.5,2.1c1.3-0.2-7.9,1.3-9.9,1.3
			c0,0-1,1.6,1.3,1.8c2.3,0.3-10,3.8-17,3.5c0,0-1.5,3-1.8,3.5c-0.4,0.4,4.1,16.7,4.1,16.7s-2.8,2.5-5.1-0.8c0,0,0.5,11.4-6.3,9.1
			c-6.8-2.4-4.3-9.2-4.3-9.2s-4.6,3-5.9,1.3c-1.3-1.7,4.8-16.9,4.8-16.9s-2.6-2.6-2.1-3.5c0,0-8,0.2-10.7-1.7c-2.8-1.8,0-1.8,0-1.8
			s-10.1,0.2-6.1-1.8c4-2-12.9-2.8-6.1-4.3c6.8-1.6-16.9-2.8-6.6-4.1c0,0-8.4-1.8-10.3-4.3c0,0,13.1-1.2,26.4-8
			C415.1,153.2,419.1,150.8,430.3,156.8z"/>
		<path d="M442,239.5c0,0,2.3-7,6.8-7.1c4.6-0.2,6.4-0.3,8.1,3.5l6.1,2.3l-6.6,1.3c0,0-0.4,3.5-2,5.6c0,0,0.3,10.7-13.7,17.2l-1,2.8
			l2.1,4.8l-4-3.7v-3h-1.2l-1.8,3.5l1.8,3.3l-3.7-2.9v-3.1c0,0-4.3,0-7.9-1.2l-21.3,10c0,0,14.6-18.5,26.4-25.8
			C442,239.5,442,239.5,442,239.5z"/>
		<path d="M468.5,263.2c0,0,3.4-4.6,5.5-4.7c0,0,0.8-7.5,10.3-5.1c9.5,2.5,9.9,1.7,9.9,1.7s-3.6-16.8-16.1-23.7
			c0,0,15.7,8.3,17.1,9.4l-1.5-4.6l9.4,9.8v-3.8l7.3,9.8c0,0,32.2-7.3,39.2-15.4c0,0-6.1,11.6-10.1,14.4c0,0,4,0.8,6.2-1.2
			c0,0-3.7,5.8-7.3,7.3c0,0,3.8,0.5,5.5-0.5c0,0-9.4,5.5-11.3,5.8c0,0,12.4,10,16.5,20.3c0,0-12.8-8.5-23.6-9c0,0-17.7,9.8-33.2,0
			c0,0-6.8-6.2-11.4-7.4c0,0-5.5,1.2-6.7-3.7L468.5,263.2z"/>
		<path d="M322.8,228.2c0,0,5.2-2.3,7.1-1.3c0,0,4.5-6.1,11.4,0.8c7,7,7.7,6.5,7.7,6.5s5.4-16.3-1.9-28.6c0,0,9.4,15.1,10,16.8
			l1-4.7l3.1,13.1l1.9-3.3l1.3,12.1c0,0,31.6,10,41.5,6.5c0,0-11.1,6.9-16,7.2c0,0,3.1,2.8,6,2.1c0,0-6.1,3.1-10,2.7
			c0,0,3.1,2.3,5,2.4c0,0-11,0-12.7-0.7c0,0,5.6,14.9,3.9,26c0,0-6.7-13.8-15.8-19.7c0,0-20.3-0.6-28.6-16.8c0,0-2.8-8.8-6.1-12.2
			c0,0-5.3-1.7-3.8-6.6L322.8,228.2z"/>
	</g>
</g>
<g>
	<path class="st9" d="M1617.7,605.3H87.3c-23,0-41.7-18.6-41.7-41.7V369.2c0-23,18.6-41.7,41.7-41.7h1530.4
		c23,0,41.7,18.6,41.7,41.7v194.5C1659.3,586.7,1640.7,605.3,1617.7,605.3z"/>
	<path d="M745.1,487.5v-18.7h160.7v18.7H745.1z M745.1,548.4v-18.8h160.7v18.7L745.1,548.4z"/>
	<g>
		<path d="M1178.8,454.5c0,0,15.5-14.7,23.3,0l7.5,3c0,0-13,1.4-18,7.5c0,0-1.1,14.1-17,18.2c-15.9,4.1-42.1,3.2-42.1,3.2l27.6-16.6
			l-9.8-5l7.4-0.9l-8.1-4.8l6.8-0.5c0,0-15.9-15.4-15.9-23C1140.3,435.6,1173.4,455.3,1178.8,454.5z"/>
		<path d="M1382.4,456.2c0,0-15.5-18.3-23.3,0l-7.5,3.8c0,0,13,1.8,18,9.4c0,0,1.1,17.6,17,22.7c15.9,5.1,42.1,4,42.1,4l-27.6-20.7
			l9.8-6.2l-7.4-1.1l8.1-6l-6.8-0.6c0,0,15.9-19.1,15.9-28.7C1420.9,432.6,1387.8,457.1,1382.4,456.2z"/>
		<path d="M1270.8,448c0,0-5.1-10.6,5.8-13.7l2.4-7.1l2.6,7.4c0,0,10.2,3,5.8,13.6c0,0,12.4-6.6,19-5c6.6,1.6,10.9,7.4,21.8,9.3
			c10.9,2,10.9,2,10.9,2s-4.6,3.9-12.9,5c0,0,3.2,2.6,5,1.9c1.8-0.6-8.7,3.4-13.9,4.2c0,0,2.8,2.8,4.5,2.7c1.6-0.2-9.8,1.6-12.4,1.6
			c0,0-1.2,2,1.6,2.3c2.8,0.4-12.5,4.8-21.3,4.3c0,0-1.8,3.8-2.3,4.3c-0.5,0.5,5.1,20.7,5.1,20.7s-3.4,3-6.4-1.1
			c0,0,0.7,14.3-7.8,11.3c-8.6-3-5.4-11.4-5.4-11.4s-5.8,3.8-7.4,1.6c-1.6-2.1,5.9-21,5.9-21s-3.2-3.2-2.7-4.3c0,0-10,0.2-13.4-2.1
			c-3.4-2.4,0-2.3,0-2.3s-12.7,0.2-7.7-2.3c5-2.5-16.1-3.4-7.5-5.4c8.6-2-21-3.4-8.2-5.1c0,0-10.6-2.3-12.9-5.4
			c0,0,16.3-1.4,32.9-10C1251.9,443.4,1256.8,440.4,1270.8,448z"/>
		<path d="M1285.4,551c0,0,2.8-8.7,8.6-9c5.8-0.2,8.1-0.4,10.2,4.5l7.5,2.8l-8.2,1.6c0,0-0.5,4.3-2.5,7c0,0,0.4,13.4-17,21.4
			l-1.2,3.4l2.7,5.9l-5-4.6v-3.8h-1.5l-2.2,4.3l2.2,4.1l-4.6-3.6v-3.8c0,0-5.4,0-9.8-1.4l-26.6,12.5c0,0,18.2-23,32.9-32.2
			C1285.4,551,1285.4,551,1285.4,551z"/>
		<path d="M1318.5,580.5c0,0,4.2-5.8,6.8-5.8c0,0,1-9.4,12.9-6.3c11.9,3.1,12.4,2.1,12.4,2.1s-4.5-21-20.1-29.5
			c0,0,19.6,10.4,21.3,11.7l-1.8-5.8l11.7,12.2v-4.7l9.1,12.2c0,0,40.2-9.1,48.9-19.2c0,0-7.5,14.4-12.6,17.9c0,0,5,1.1,7.8-1.5
			c0,0-4.6,7.1-9.1,9.1c0,0,4.8,0.6,6.9-0.6c0,0-11.7,6.9-14,7.3c0,0,15.5,12.5,20.6,25.3c0,0-16-10.6-29.4-11.2
			c0,0-22.1,12.2-41.3,0c0,0-8.6-7.8-14.2-9.3c0,0-6.8,1.5-8.4-4.6L1318.5,580.5z"/>
		<path d="M1136.8,537c0,0,6.5-2.8,8.8-1.6c0,0,5.6-7.7,14.3,1.1s9.6,8.1,9.6,8.1s6.7-20.3-2.4-35.7c0,0,11.7,18.9,12.5,21l1.3-5.8
			l3.9,16.4l2.4-4.1l1.7,15c0,0,39.3,12.5,51.8,8.2c0,0-13.7,8.6-20,9c0,0,3.8,3.5,7.4,2.6c0,0-7.6,3.8-12.4,3.4c0,0,3.8,2.9,6.2,3
			c0,0-13.7,0-15.7-0.8c0,0,7,18.6,4.9,32.3c0,0-8.4-17.3-19.7-24.6c0,0-25.3-0.8-35.7-21c0,0-3.5-11-7.5-15.2c0,0-6.6-2.1-4.8-8.2
			L1136.8,537z"/>
	</g>
	<g>
		<path class="st10" d="M556.9,486.2c5.4-2.4,10.8-4.5,16.5-6.2c7.7-2.3,17.7-4.1,19.7-6.3c2-2.2,1.1,6.3-7,11.3
			c-6.4,3.4-13.2,5.9-20.3,7.4c0,0,25.8-2.6,27.7-2.8c2.1-0.2-7.2,19.4-31.8,13.9c0,0,29.7,2.8,22,12.7c0,0-4.1,5-18.4,1.9
			c0,0,16.9,17.2-8.4,10.5c0,0,11,21.3-10.9,6.3c0,0-1.4,16.3-10.6,3.6c0,0-3,10.4-10.2-0.5c0,0-8,16.6-12.3-1
			c0,0-5.6,12.7-13.3-0.9c0,0-4.3,13.2-10.6-0.9c-6.3-14.1,4-19,4-19L556.9,486.2z"/>
		<path class="st11" d="M491.9,517.8c0,0,7.8,24.3,21.1,4.7c0,0,7.8,13.1,18.1-4.7c0,0,15.2,4.1,9.9-9.1c0,0,29.8-1.3,7.7-11.1
			c0,0,12.7,3.1,13.1-4.7c0.5-7.7-8-5.6-8-5.6l-22.9,6.8l-37,14.5L491.9,517.8z"/>
		<path class="st12" d="M466.3,557c0,0-5.6,5-2.6,9.9c3,5,1.5,8.6,10.2,9.9c8.6,1.4,11.7,2.3,17.2,1.4c5.5-0.9,2,5.6-2.1,6.1
			c-4.1,0.5-5.1-2.2-8.8-1.8c-2.3,0.2-4.7,0.6-6.9,1.3c2.1,1.8,4.2,3.5,6.6,5c3.3,1.9-1.5,6.4-5.9,4c-2.6-1.4-4.6-3.9-5.2-6.8
			c-1.5-1.5-3.7-2.2-5.8-1.8l-3.5,0.6c0,0-6.2,1.3-4.7-1.3c1.5-2.5,3.4-3.7,8.4-5.2c2.8-1-8.6-11.6-8.4-20
			C454.9,549.8,466.3,557,466.3,557z"/>
		<path class="st12" d="M433.1,560.8c0.5,5.1,1.4,10.2,2.5,15.1c1.4,5,1.7,6.4-6.1,7c-7.8,0.6-5.8,4.9,0,4.7l5.8-0.2
			c0,0,3.6-0.2,7.7,11.1c1.6,6.2,9.4,4.4,10.3,2.3c0.9-2.1-6.4-5-7.8-9.9c-1.4-5-0.9-4.1-0.9-4.1s9.2,9.5,17.1,6.6
			c4.5-1,10.8-3,1.2-5.6c-9.6-2.6-6.8,0.7-18-6.1c-11.3-6.8,0-23.5,0-23.5L433.1,560.8z"/>
		<path class="st13" d="M480.1,486.7c2.7-0.5,5.5,0.6,7.2,2.8c3.9,3.7,12.5,9.9,16.9,7.6s21-12.4,24.4-12.4s11.1,5.3,15.7,4
			c4.6-1.4,16.7-5.9,23.4-5.6c0,0-9,3.5-11.5,5c-2.5,1.5,1.1,6.8-16.7,6.4c0,0,2,6.8-9.8,4.7c0,0-8,16.5-11.4,6.5
			c0,0-6.8,17.5-13.1,3.9c0,0-2.8,10.8-11.1,6.6C485.7,512,480.1,486.7,480.1,486.7z"/>
		<path class="st13" d="M493.9,497.7c-5.1-7.3-6.3-4.4-9.4-8.8c-3.2-4.5,1.4-11.3,1.4-11.3l3.3-3.5c0,0,14.7-28.7-2.8-46.2
			c-17.5-17.5-37.5-4.8-37.5-4.8c-0.2-2.7,3.4-11.5,3.4-11.5c-4.9,1.6-11.6,13.9-11.6,13.9l-0.7-5.9c0,0-1.3,4.4-2.4,7.6
			c-1.2,3.2-19.4,18.5-9.8,38.5c8.1,16.8,8.6,19.2,8.5,19.4c5.6,7.2,0.8,16.4-6.8,20.2c-1.3,1.8-8.6,11.9-18,13.6
			c-10.3,1.9-4.1,20.8-4.1,20.8s-16.4,6-51.1,16.2C321.6,566,339.2,569,339.2,569c-29.4,16.3-2.8,14.4-2.8,14.4
			c-12.4,8.6,12.9,5.6,12.9,5.6s-7.9,5.9-4,8.6c4,2.7,28.2-6.5,41.4-13.7c13.2-7.2,25.2-21.3,33.9-20.7c8.6,0.5,8.4,5.4,12,5.4
			c8.2-0.2,16.3-2.3,23.5-6.2c2.2,1.4,4.6,2.1,7.1,2.1l2.3-1.2c2.3-1.2,2.2-4.5,4.7-5.6c2.5-1.1,2.3,1,10.9-6.9
			C505.8,526.8,499.1,504.9,493.9,497.7z"/>
		<path class="st14" d="M480.1,444.5c0,0-6.8-15.1-14.9-16.2c-8.1-1.1-17.7,5.6-21.4,15.2s1.4,18.7,8,18.7c0,0-4.1,32.3,30.5,10.1
			S480.1,444.5,480.1,444.5z"/>
		<path class="st11" d="M547.2,509.4c0.9,0.8,17.9,8.6,17.9,8.6"/>
		<line class="st15" x1="542.4" y1="519.5" x2="556.9" y2="528.6"/>
		<path class="st15" d="M534.3,521.8c0,0,8.6,11.1,11.7,13.1"/>
		<path class="st15" d="M531.2,525.2c0,0,2.5,11.1,4.1,13.2"/>
		<path class="st15" d="M524.5,529.6c0,0,0,6.9,0.9,8.4"/>
		<path class="st15" d="M513.4,528.6c-0.5,2.8-0.6,5.6-0.5,8.4"/>
		<path class="st15" d="M498.9,528.6c-0.4,2.5-0.2,5,0.5,7.6"/>
		<path class="st10" d="M367.2,470.7c-4.9-3.2-10-6.1-15.2-8.8c-7.2-3.5-16.8-7-18.4-9.5c-1.6-2.4-2.1,5.9,5.1,12.3
			c5.8,4.4,12.1,8,18.9,10.5c0,0-24.9-6.8-26.9-7.2c-2.1-0.5,4,20.3,29.2,18.9c0,0-29.8-2.1-23.7,9c0,0,3.2,5.6,17.7,4.8
			c0,0-19.4,14.2,6.4,11.7c0,0-14.2,19.2,9.8,8c0,0-1.3,16.3,9.9,5.3c0,0,1.3,10.7,10.1,1.2c0,0,5.3,17.6,12.3,0.9
			c0,0,3.3,13.5,13.2,1.3c0,0,2.1,13.9,10.6,0.8c8.5-13.1-0.8-19.4-0.8-19.4L367.2,470.7z"/>
		<path class="st11" d="M371.1,474.6c0,0-8-6.4-10.7-1.4c-2.7,5,1.2,8.4,9,9.7c0,0-6.8-0.5-7.2,3.5c-0.3,4,3.3,8.2,13.1,8.8
			c0,0-4.8,5.6,0,9.8c4.8,4.2,8.6,1.7,8.6,1.7s3.8,15.5,10.9,11.3c5.6-3.2,5.9-4.3,5.9-4.3c0.2-1.1,3.5,15.9,18.7,6.8
			c0,0,3.2-1,3-5.9c0,0,6.1,11.1,6.8-5.4l0.6-16.7l-2.3,4.7L371.1,474.6z"/>
		<path class="st13" d="M436.1,484.9L436.1,484.9c-0.5,0.7-1.1,1.3-1.8,1.6c-16.7,8.8-17.2,5.2-22.2,2.2c-5-3.1-17.3-15.4-20.9-14.5
			c-13.4,4-17.1-0.4-25.4-5.6c-8.3-5.2-9.9-3.3-9.9-3.3c3.5,2.3,6.8,4.7,10,7.5c7.9,10.4,14.9,8.4,14.9,8.4c-1,7.7,9,6.8,9,6.8
			c0.2,15.7,9.7,8.6,9.7,8.6c6.9,20.5,12,6.3,12,6.3c4.2,14.1,13.2-1.6,13.2-1.6c0.3,3.5,4.8,3.7,4.8,3.7S444.9,497.1,436.1,484.9z"
			/>
		<path class="st16" d="M482.8,459.1c0,0-5.8,8-3.1,14c2.7,6,13.2,14.2,25.1,0C504.8,473.2,502.9,455.7,482.8,459.1z"/>
		<path class="st17" d="M482.6,459.2c0,0-7.9-20.3-1.7-26c6.2-5.8,17.1-10.6,32.1,6c14.9,16.7-0.6,37.1-6.8,41.4
			C506.1,480.6,506.5,454.7,482.6,459.2z"/>
		<path class="st18" d="M456.5,457.3c0,0-11.5-13.6,1.3-19.8c10.9-3.8,14.2,13.6,10.5,16.9C464.1,454.5,460.2,455.5,456.5,457.3z"/>
		<path class="st15" d="M453.1,459.2c5.9-3.5,12.6-5.1,19.4-4.6"/>
		<ellipse class="st19" cx="460.1" cy="449.8" rx="6.4" ry="5.6"/>
		<ellipse class="st20" cx="460.4" cy="450.6" rx="4.1" ry="4.5"/>
		
			<ellipse transform="matrix(0.753 -0.658 0.658 0.753 -180.6035 411.7429)" class="st21" cx="458.2" cy="446.4" rx="2.8" ry="3.6"/>
		<path class="st10" d="M412.6,539.4c0,0-2.2-2.1-10.2,1.4l-8,3.4l0,0c-1.2,0-12.2,1.5-12.8,3.2c-0.5,1.7,8.4,4.4,12.1,4.2
			s18.4-7.3,20.1-8.4C415.5,542.4,412.6,539.4,412.6,539.4z"/>
		<path class="st10" d="M418.9,541.6c0,0-3.2-1.5-10.2,0.7c-7,2.3-16.8,8.6-20.1,13.1c-3.2,4.4-8.6,7.7-4.5,8.7
			c4.1,1,20.9-6.7,24.2-8.6C411.6,553.5,420.7,545.9,418.9,541.6z"/>
		<path class="st10" d="M421.7,543.8c0,0-3.9-3-11.7,1.4c-7.8,4.3-25,19.9-25.9,22.8s-0.9,1.9-0.9,2.8c0,0.9,0.6,10.4,12.1,3.5
			C406.6,567.5,421.7,543.8,421.7,543.8z"/>
		<path class="st10" d="M395.3,575.9c0,0,10.4-0.4,14.9-3.6c4.6-3.2,10-14.7,11.5-18.9c0.8-3.2,0.8-6.5,0-9.7
			c0,0-18.2,15.8-20.9,19.7l-2.8,3.9l0,0C398.1,567.5,391.6,574.1,395.3,575.9z"/>
		<path class="st11" d="M373.1,495.1c-1,0.6-19.1,5.6-19.1,5.6"/>
		<line class="st15" x1="376.3" y1="505.9" x2="360.4" y2="512.5"/>
		<path class="st15" d="M383.9,509.5c0,0-10.3,9.5-13.7,11.1"/>
		<path class="st15" d="M386.3,513.3c0,0-4.3,10.7-6.2,12.4"/>
		<path class="st15" d="M392.4,518.7c0,0-1,6.8-2.2,8.1"/>
		<path class="st15" d="M403.3,519.5c0,2.8-0.3,5.6-0.8,8.4"/>
		<path class="st15" d="M417.7,521.9c-0.1,2.5-0.7,5-1.8,7.2"/>
		<path class="st15" d="M369.4,483c0,0,9.5,0.5,10.7-0.4"/>
		<path class="st15" d="M375.4,495.4c4.9-0.7,9.6-1.7,14.3-3.1"/>
		<path class="st15" d="M383.9,506.9c0,0,14-5.6,16.3-8.4"/>
		<path class="st15" d="M400.7,513.9c2.3-1.7,4.1-4,5.4-6.6"/>
		<path class="st15" d="M422.5,514.9c-0.5-2.8-1.2-5.5-2.3-8"/>
		<path class="st15" d="M339.2,569c0,0,38.2-6.9,49.5-13.6"/>
		<path class="st15" d="M336.4,583.3c0,0,42.9-13.9,50-18.3"/>
		<path class="st15" d="M349.2,589.1c12.5-3,24.6-7.4,36.1-13.1"/>
		<path class="st11" d="M513,522.4c0.5-2.9,0.5-5.9-0.2-8.7"/>
		<path class="st11" d="M531.1,517.8c0,0-0.7-11.6-3.5-15"/>
		<path class="st11" d="M541.1,508.6c-1.4-3.4-3.3-6.5-5.8-9.3"/>
		<line class="st15" x1="548.7" y1="497.6" x2="539.5" y2="494.5"/>
		<path class="st15" d="M473.2,583.8c0,0-2.1-1.4-1.9-3.2"/>
		<line class="st15" x1="444.5" y1="586.7" x2="443.1" y2="583.4"/>
		<path class="st15" d="M468.6,585.8c0,0-2.8-3.2-2.2-4.9"/>
		<path class="st15" d="M456,562.4c3.2-1.7,5.9-4.1,8-7.1"/>
		<path class="st15" d="M444.5,475.7c0,0,1.8,5.8,13.7,7.5"/>
		<path class="st15" d="M474.2,483.1c3.2,0.2,6.4,0,9.5-0.5"/>
		<ellipse class="st22" cx="442.5" cy="488.9" rx="6.9" ry="5.6"/>
	</g>
	<g>
		<g class="st3">
			<g class="st4">
				<text transform="matrix(1 0 0 1 134.9193 402.2126)" class="st5 st6 st7">General Statement 2:  Parrot is a bird</text>
			</g>
			<g>
				<text transform="matrix(1 0 0 1 129.9193 399.2126)" class="st6 st7">General Statement 2:  Parrot is a bird</text>
			</g>
		</g>
	</g>
</g>
<g class="st23">
	<line class="st24" x1="39" y1="663" x2="1661" y2="663"/>
	<rect x="601.7" y="609" class="st25" width="481" height="108.1"/>
	<text transform="matrix(1 -7.940244e-05 7.940244e-05 1 636.2858 681.2086)" class="st26 st6 st27">Therefore </text>
</g>
<g class="st23">
	<path class="st28" d="M1617.7,1045.3H87.3c-23,0-41.7-20.4-41.7-45.7V762.7c0-25.2,18.6-45.7,41.7-45.7h1530.4
		c23,0,41.7,20.4,41.7,45.7v236.9C1659.3,1024.8,1640.7,1045.3,1617.7,1045.3z"/>
	<g class="st29">
		<path class="st30" d="M611.9,907.4c6.3-2.8,12.9-5.3,19.4-7.4c9.1-2.8,20.9-4.9,23.3-7.4c2.3-2.5,1.3,7.4-8.3,13.3
			c-7.5,4.1-15.6,7-24,8.8c0,0,30.4-3.1,32.8-3.3c2.4-0.2-8.5,22.9-37.6,16.4c0,0,35.1,3.3,25.9,15c0,0-4.9,6-21.6,2.2
			c0,0,20.1,20.4-9.9,12.4c0,0,13,25-12.9,7.4c0,0-1.7,19.3-12.6,4.2c0,0-3.5,12.3-12-0.7c0,0-9.5,19.5-14.5-1.2
			c0,0-6.5,15.1-15.7-1c0,0-5.1,15.6-12.5-1.1s4.7-22.4,4.7-22.4L611.9,907.4z"/>
		<path class="st31" d="M535.2,944.7c0,0,9.2,28.8,24.9,5.5c0,0,9.3,15.5,21.4-5.5c0,0,17.9,4.9,11.7-10.7c0,0,35.1-1.6,9.1-13.1
			c0,0,15.1,3.7,15.5-5.4c0.4-9.1-9.5-6.5-9.5-6.5l-27,8l-43.8,17.2L535.2,944.7z"/>
		<path class="st32" d="M505,991c0,0-6.5,5.8-3.1,11.7c3.4,6,1.8,10.1,12.1,11.7c10.2,1.7,13.8,2.7,20.3,1.7c6.4-1,2.3,6.5-2.4,7.2
			c-4.7,0.7-6-2.5-10.4-2.2c-2.8,0.2-5.5,0.8-8.2,1.6c2.4,2.2,5,4.1,7.8,5.8c3.9,2.2-1.8,7.5-7.1,4.7c-3.1-1.7-5.4-4.7-6.2-8.1
			c-1.8-1.8-4.3-2.5-6.9-2.2l-4.1,0.8c0,0-7.3,1.6-5.5-1.6c1.8-3,4-4.4,9.9-6.2c3.3-1.1-10.1-13.7-9.9-23.6
			C491.6,982.6,505,991,505,991z"/>
		<path class="st32" d="M465.7,995.6c0.6,6,1.6,12,3,17.9c1.8,6,2,7.5-7.2,8.3c-9.2,0.8-6.8,5.8,0,5.5l6.9-0.2c0,0,4.3-0.2,9.1,13.1
			c1.9,7.3,11.1,5.2,12.1,2.8c1-2.4-7.5-5.8-9.2-11.7s-1.1-4.9-1.1-4.9s10.9,11.2,20.2,7.8c5.3-1.2,12.7-3.4,1.3-6.5
			c-11.3-3.1-8.1,0.9-21.3-7.2c-13.3-8.1,0-27.8,0-27.8L465.7,995.6z"/>
		<path class="st33" d="M521.1,908.1c3.2-0.6,6.4,0.8,8.4,3.3c4.5,4.4,14.7,11.7,20.1,9c5.3-2.8,24.8-14.6,28.8-14.6
			s13.1,6.3,18.5,4.7c5.4-1.7,19.7-6.9,27.6-6.5c0,0-10.6,4.2-13.6,6s1.2,8.1-19.7,7.5c0,0,2.3,8-11.5,5.5c0,0-9.4,19.5-13.5,7.6
			c0,0-8,20.6-15.5,4.5c0,0-3.3,12.7-13.1,7.8C527.8,937.9,521.1,908.1,521.1,908.1z"/>
		<path class="st33" d="M537.5,921c-6-8.6-7.4-5.2-11.1-10.4c-3.7-5.2,1.7-13.4,1.7-13.4l3.9-4.2c0,0,17.3-33.9-3.3-54.6
			c-20.6-20.6-44.3-5.7-44.3-5.7c-0.2-3.1,4-13.6,4-13.6c-5.8,1.9-13.7,16.4-13.7,16.4l-0.9-7.1c0,0-1.6,5.2-2.9,9
			c-1.3,3.8-22.9,21.9-11.6,45.5c9.5,19.8,10.1,22.6,10.1,22.9c6.5,8.5,1,19.3-8.1,23.8c-1.6,2.2-10.2,14-21.2,16.1
			c-12.1,2.2-4.9,24.6-4.9,24.6s-19.4,7.1-60.3,19.2s-20.1,15.6-20.1,15.6c-34.7,19.3-3.3,17.1-3.3,17.1
			c-14.6,10.1,15.3,6.5,15.3,6.5s-9.3,7.1-4.7,10.2c4.7,3.1,33.2-7.6,48.9-16.2c15.6-8.4,29.7-25,40-24.5c10.2,0.7,9.9,6.3,14.1,6.3
			c9.7-0.2,19.2-2.7,27.7-7.3c2.5,1.6,5.4,2.4,8.4,2.4l2.8-1.4c2.8-1.3,2.5-5.3,5.5-6.5c3-1.2,2.8,1.1,12.9-8.2
			C551.7,955.4,543.6,929.6,537.5,921z"/>
		<path class="st34" d="M521.1,858.2c0,0-8-17.8-17.6-19.2c-9.6-1.3-20.9,6.5-25.3,17.9c-4.3,11.4,1.7,22,9.4,22
			c0,0-4.9,38.1,36.1,12C564.8,864.9,521.1,858.2,521.1,858.2z"/>
		<path class="st31" d="M600.5,934.9c1,1,21.2,10.2,21.2,10.2"/>
		<line class="st35" x1="594.8" y1="946.7" x2="612" y2="957.5"/>
		<path class="st35" d="M585.2,949.5c0,0,10.2,13.1,13.8,15.4"/>
		<path class="st35" d="M581.6,953.5c0,0,3,13.1,4.9,15.6"/>
		<path class="st35" d="M573.6,958.7c0,0,0,8.2,1,9.9"/>
		<path class="st35" d="M560.6,957.5c-0.6,3.2-0.8,6.5-0.7,9.9"/>
		<path class="st35" d="M543.5,957.5c-0.4,3-0.2,6,0.7,8.9"/>
		<path class="st30" d="M388.1,889.1c-5.8-3.8-11.7-7.2-17.9-10.4c-8.5-4.1-19.8-8.3-21.7-11.1c-1.9-2.8-2.4,7,6,14.5
			c6.8,5.2,14.3,9.4,22.3,12.4c0,0-29.4-8-31.8-8.5c-2.4-0.6,4.7,24,34.3,22.3c0,0-35.1-2.4-27.9,10.6c0,0,3.8,6.5,20.9,5.7
			c0,0-22.9,16.8,7.5,13.8c0,0-16.8,22.7,11.5,9.4c0,0-1.6,19.3,11.7,6.2c0,0,1.6,12.7,11.9,1.3c0,0,6.2,20.8,14.5,1.1
			c0,0,4,16,15.6,1.6c0,0,2.4,16.4,12.5,1c10.1-15.4-1-22.9-1-22.9L388.1,889.1z"/>
		<path class="st31" d="M392.6,893.9c0,0-9.5-7.5-12.7-1.7c-3.2,5.9,1.3,9.9,10.6,11.5c0,0-8.1-0.6-8.5,4.2
			c-0.3,4.8,4,9.6,15.5,10.4c0,0-5.7,6.5,0,11.5c5.7,5,10.2,2.1,10.2,2.1s4.4,18.3,12.9,13.4c6.5-3.9,7-5.1,7-5.1
			c0.1-1.2,4.2,18.8,22.2,8.1c0,0,3.7-1.1,3.5-7c0,0,7.2,13.1,8-6.3l0.8-19.7l-2.7,5.4L392.6,893.9z"/>
		<path class="st33" d="M469.3,906L469.3,906c-0.6,0.9-1.2,1.6-2.1,1.9c-19.7,10.4-20.3,6.2-26.3,2.5s-20.5-18.3-24.7-17.1
			c-15.8,4.7-20.2-0.4-30-6.5c-9.9-6.2-11.7-3.9-11.7-3.9c4.2,2.7,8.1,5.5,11.9,8.9c9.3,12.2,17.6,9.9,17.6,9.9
			c-1.1,9.1,10.6,8,10.6,8c0.2,18.5,11.5,10.1,11.5,10.1c8.2,24.2,14.1,7.4,14.1,7.4c5.1,16.6,15.6-1.9,15.6-1.9
			c0.3,4.1,5.7,4.3,5.7,4.3S479.7,920.3,469.3,906z"/>
		<path class="st36" d="M524.5,875.5c0,0-6.8,9.4-3.5,16.6c3.2,7.2,15.6,16.8,29.7,0C550.5,892.1,548.2,871.5,524.5,875.5z"/>
		<path class="st37" d="M524.1,875.6c0,0-9.3-23.9-2-30.8c7.3-6.9,20.2-12.6,37.8,7.1c17.6,19.7-0.8,43.9-8.1,48.9
			C551.9,900.9,552.4,870.3,524.1,875.6z"/>
		<path class="st38" d="M493.3,873.3c0,0-13.6-16,1.4-23.4c12.9-4.4,16.8,16.1,12.4,19.9C502.4,870.1,497.8,871.2,493.3,873.3z"/>
		<path class="st35" d="M489.3,875.6c6.9-4.2,15-6.1,22.9-5.4"/>
		<ellipse class="st39" cx="497.6" cy="864.4" rx="7.5" ry="6.5"/>
		<ellipse class="st40" cx="498.1" cy="865.4" rx="4.9" ry="5.3"/>
		
			<ellipse transform="matrix(0.753 -0.658 0.658 0.753 -443.9236 538.4777)" class="st41" cx="495.3" cy="860.6" rx="3.3" ry="4.2"/>
		<path class="st30" d="M441.6,970.3c0,0-2.5-2.4-12.1,1.7l-9.4,4l0,0c-1.4,0-14.5,1.8-15.1,3.9c-0.6,2,9.9,5.2,14.2,5
			c4.4-0.2,21.7-8.6,23.7-9.9C445,973.8,441.6,970.3,441.6,970.3z"/>
		<path class="st30" d="M449,973c0,0-3.8-1.8-12.1,0.8c-8.3,2.7-19.8,10.2-23.7,15.4c-3.9,5.2-10.2,9.2-5.3,10.4
			c4.9,1.2,24.7-7.9,28.6-10.2C440.5,986.9,451.2,977.9,449,973z"/>
		<path class="st30" d="M452.3,975.5c0,0-4.7-3.5-13.8,1.7c-9.2,5.1-29.5,23.5-30.6,26.9c-1.1,3.4-1.1,2.2-1.1,3.3
			s0.8,12.2,14.3,4.2C434.5,1003.5,452.3,975.5,452.3,975.5z"/>
		<path class="st30" d="M421.1,1013.4c0,0,12.2-0.4,17.7-4.2c5.4-3.8,11.9-17.3,13.6-22.3c1-3.8,1-7.6,0-11.4
			c0,0-21.5,18.7-24.7,23.3l-3.3,4.7l0,0C424.4,1003.3,416.7,1011.2,421.1,1013.4z"/>
		<path class="st31" d="M395,917.9c-1.1,0.8-22.5,6.5-22.5,6.5"/>
		<line class="st35" x1="398.6" y1="930.7" x2="379.9" y2="938.4"/>
		<path class="st35" d="M407.6,934.9c0,0-12.2,11.2-16.2,13.1"/>
		<path class="st35" d="M410.6,939.4c0,0-5.1,12.6-7.4,14.6"/>
		<path class="st35" d="M417.7,945.8c0,0-1.1,8.1-2.5,9.6"/>
		<path class="st35" d="M430.6,946.7c0,3.3-0.3,6.5-0.9,9.9"/>
		<path class="st35" d="M447.5,949.6c-0.1,3-0.9,5.9-2.2,8.5"/>
		<path class="st35" d="M390.5,903.6c0,0,11.2,0.6,12.7-0.4"/>
		<path class="st35" d="M397.5,918.3c5.8-0.9,11.4-2,17-3.7"/>
		<path class="st35" d="M407.7,931.9c0,0,16.6-6.5,19.2-9.9"/>
		<path class="st35" d="M427.5,940.2c2.7-2,4.9-4.7,6.3-7.8"/>
		<path class="st35" d="M453.2,941.3c-0.4-3.2-1.3-6.4-2.7-9.5"/>
		<path class="st35" d="M354.8,1005.2c0,0,45.1-8.2,58.5-16.1"/>
		<path class="st35" d="M351.5,1022.2c0,0,50.6-16.4,59-21.6"/>
		<path class="st35" d="M366.8,1028.9c14.7-3.5,29-8.6,42.7-15.4"/>
		<path class="st31" d="M560.1,950.2c0.6-3.4,0.6-6.9-0.2-10.3"/>
		<path class="st31" d="M581.5,944.7c0,0-0.8-13.7-4.1-17.7"/>
		<path class="st31" d="M593.4,934c-1.7-4-3.9-7.6-6.8-11"/>
		<line class="st35" x1="602.2" y1="920.9" x2="591.4" y2="917.2"/>
		<path class="st35" d="M513.2,1022.6c0,0-2.4-1.7-2.2-3.9"/>
		<line class="st35" x1="479.3" y1="1026.2" x2="477.6" y2="1022.2"/>
		<path class="st35" d="M507.7,1025.1c0,0-3.3-3.8-2.5-5.8"/>
		<path class="st35" d="M492.8,997.5c3.8-2,7-4.9,9.4-8.4"/>
		<path class="st35" d="M479.3,895.1c0,0,2.2,6.8,16.2,8.8"/>
		<path class="st35" d="M514.3,903.9c3.8,0.2,7.5,0,11.3-0.6"/>
		<ellipse class="st22" cx="476.9" cy="910.6" rx="8.2" ry="6.5"/>
	</g>
	<g class="st29">
		<path class="st42" d="M1211,1005.2l-43.5-7.5l37.5-7.4l-44.5-11.4l40.7-1.3l-26.7-11.7l38.2,5.1l-22-13.2l70.1,9l209.1,0.9
			l33.4-9.9l-11.9,13l37.6-4l-18.9,13.8l32.7-4c0,0-32.7,33.8-96.2,42.4c-43.7,5.1-87.7,6.3-131.6,3.7L1211,1005.2z"/>
		<path class="st43" d="M1331,913.6c-23.4-33.4-49.8-55.3-74.2-43.9s-26.8,46.2-14.1,85c12.1,37.3,49.8,55.3,74.2,43.9
			S1353.5,945.7,1331,913.6z"/>
		<path class="st43" d="M1484.6,967.4c11.7-38,4-78.1-10.6-83.3c-24.6-8.9-51.6,7.1-74,40.2c-21.4,31.7-12.7,71.4,10.6,83.3
			C1433.9,1019.6,1473.3,1003.9,1484.6,967.4z"/>
		<path class="st43" d="M1426.5,934.1c6.4-54.9-0.7-100.7-35.6-111.1c-34.9-10.4-68.8,22.8-90.6,73.4
			c-21.1,48.8,0.7,100.7,35.6,111.1S1420.2,986.8,1426.5,934.1z"/>
		<path class="st42" d="M1189,969.5c0,0-9.7,32.1,42.6,43.8c52.3,11.7,101.4,33.1,150.7,20.2c51.3-13.4,117.5-14.4,150.3-49.6
			c0,0-19.8,8.4-30.7,9.2c0,0,14.5-15.4,12.7-23.7c0,0-27.7,19.3-46.5,20.6c0,0,15.8-12.1,19.7-26.8c0,0-43.9,32.1-59.8,32.9
			c0,0,16.2-15.4,15.8-23.3c0,0-28.1,30.3-42.2,31.6c3.6-8,4.4-17,2.2-25.5c0,0-9,14.3-22,17.4l-12.9,3.1c0,0-19.3,1.1-28.6-12.7
			c1.8,7.5,6.3,14.1,12.7,18.4c0,0-24.3-7.2-31.2-14.7c0,0,3.8,12.7,10.8,16.2c0,0-28.5-8.1-37.5-19.3c-1.8,4.5-1.6,9.5,0.6,13.8
			c0,0-32.9-16.9-42-26.6c0,0,6.6,24.3,17.6,31.8c0,0-39.3-12.1-44.5-31.8c0,0,0,22.8,5.5,27.2c0,0-28.3-15.2-31.8-38.4
			c0,0-4,23.5,1.1,28.8C1201.8,992.1,1188.8,972.8,1189,969.5z"/>
		<path class="st43" d="M1409.5,939.4c0.5,5.3-2.1,10.4-6.6,13.2"/>
		<path class="st43" d="M1462.6,960.7c1.6-2.8,2.9-5.7,4-8.7"/>
		<path class="st43" d="M1317.3,968.4c-1.3-3-2.7-5.9-4.4-8.6"/>
		<path class="st43" d="M1317.1,916.5c-6.4,6-9.8,14.4-9.4,23.2"/>
		<path class="st43" d="M1278.2,973.6c2.8,4.5,5.9,8.8,9.2,12.9"/>
		<path class="st43" d="M1429.4,978.5c-3.4,4.1-6.5,8.3-9.4,12.8"/>
	</g>
	<path class="st44" d="M682.8,974.3c0,0,136.6-84.9,225.2-73.8c0,0-44.3-36.8-84.9-44.3c0,0,132.9,3.7,199.3,66.4
		c0,0-125.5,22.1-140.2,110.7c0,0,3.7-77.5,29.5-103.4C911.6,930,771.4,933.7,682.8,974.3z"/>
	<g class="st45">
		<g class="st4">
			<text transform="matrix(1 0 0 1 134.9193 805.2524)" class="st5 st6 st7">Specific Conclusion: Parrot lays eggs</text>
		</g>
		<g>
			<text transform="matrix(1 0 0 1 129.9193 802.2524)" class="st6 st7">Specific Conclusion: Parrot lays eggs</text>
		</g>
	</g>
</g>
</svg>
