<?xml version="1.0" encoding="utf-8"?>
<!-- Generator: Adobe Illustrator 24.0.3, SVG Export Plug-In . SVG Version: 6.00 Build 0)  -->
<svg version="1.1" id="Layer_1" xmlns="http://www.w3.org/2000/svg" xmlns:xlink="http://www.w3.org/1999/xlink" x="0px" y="0px"
	 viewBox="0 0 1700 1080" style="enable-background:new 0 0 1700 1080;" xml:space="preserve">
<style type="text/css">
	.st0{fill:#C68456;stroke:#231F20;stroke-width:1.2747;stroke-linecap:round;stroke-miterlimit:10;}
	.st1{fill:#FBEDB0;stroke:#231F20;stroke-width:1.2747;stroke-linecap:round;stroke-miterlimit:10;}
	.st2{fill:#4453A3;stroke:#000000;stroke-width:1.0198;stroke-linecap:round;stroke-miterlimit:10;}
	.st3{fill:#F9EB18;stroke:#000000;stroke-width:1.0198;stroke-linecap:round;stroke-miterlimit:10;}
	.st4{fill:#848A8A;stroke:#000000;stroke-width:1.0198;stroke-linecap:round;stroke-miterlimit:10;}
	.st5{fill:#DA1F29;stroke:#000000;stroke-width:1.0198;stroke-linecap:round;stroke-miterlimit:10;}
	.st6{fill:#D1C9C2;stroke:#000000;stroke-width:1.0198;stroke-linecap:round;stroke-miterlimit:10;}
	.st7{fill:none;stroke:#000000;stroke-width:1.0198;stroke-linecap:round;stroke-miterlimit:10;}
	.st8{fill:#2A1B1B;stroke:#000000;stroke-width:1.0198;stroke-linecap:round;stroke-miterlimit:10;}
	.st9{fill:#DFCD85;stroke:#000000;stroke-width:1.0198;stroke-linecap:round;stroke-miterlimit:10;}
	.st10{fill:#FFFFFF;stroke:#000000;stroke-width:1.0198;stroke-linecap:round;stroke-miterlimit:10;}
	.st11{fill:#8C523D;stroke:#000000;stroke-width:1.0198;stroke-linecap:round;stroke-miterlimit:10;}
	.st12{fill:#25291D;stroke:#000000;stroke-width:1.0198;stroke-linecap:round;stroke-miterlimit:10;}
	.st13{fill:#FFFFFF;stroke:#000000;stroke-width:1.0198;stroke-linecap:round;stroke-miterlimit:9.9999;}
	.st14{fill:#DA1F29;}
	.st15{fill:#896264;}
	.st16{font-family:'CarterOne';}
	.st17{font-size:57.9635px;}
	.st18{fill:#3A9B3F;}
	.st19{fill:#FFFFFF;}
	.st20{font-size:70px;}
	.st21{enable-background:new    ;}
	.st22{opacity:0.53;}
	.st23{fill:#0D280E;}
	.st24{font-size:119.5298px;}
	.st25{fill:#1B5E1F;}
</style>
<g>
	<path class="st0" d="M129.1,614.9L92,608.6l32-6.4l-38-9.7l34.7-1.1l-22.8-9.9l32.6,4.3l-18.7-11.2l59.8,7.6l178.3,0.8l28.4-8.4
		l-10.1,11.1l32-3.4L384.2,594l27.9-3.4c0,0-27.9,28.8-82.1,36.2c-37.2,4.3-74.8,5.4-112.3,3.2L129.1,614.9z"/>
	<path class="st1" d="M231.3,536.8c-19.9-28.6-42.4-47.2-63.2-37.5c-20.8,9.7-22.8,39.4-12,72.4c10.3,31.9,42.4,47.2,63.2,37.5
		C240.1,599.5,250.6,564.2,231.3,536.8z"/>
	<path class="st1" d="M362.4,582.7c9.9-32.4,3.4-66.5-9.1-71c-21-7.6-44,6-63.1,34.3c-18.2,27-10.8,60.8,9.1,71
		C319.2,627.2,352.7,613.8,362.4,582.7z"/>
	<path class="st1" d="M312.8,554.3c5.5-46.8-0.6-85.9-30.3-94.7c-29.7-8.9-58.6,19.4-77.2,62.6c-18,41.6,0.6,85.9,30.3,94.7
		C265.3,625.8,307.4,599.1,312.8,554.3z"/>
	<path class="st0" d="M110.4,584.5c0,0-8.3,27.4,36.3,37.3c44.6,9.9,86.4,28.2,128.5,17.2c43.7-11.5,100.2-12.2,128.1-42.3
		c0,0-16.8,7.1-26.3,7.9c0,0,12.4-13.1,10.8-20.3c0,0-23.6,16.4-39.6,17.6c0,0,13.5-10.3,16.8-22.8c0,0-37.5,27.4-51,28
		c0,0,13.8-13.1,13.5-19.9c0,0-24,25.9-35.9,27c3.1-6.8,3.8-14.5,1.9-21.7c0,0-7.6,12.2-18.7,14.8l-11.1,2.7c0,0-16.4,0.9-24.3-10.8
		c1.5,6.4,5.4,12.1,10.8,15.7c0,0-20.7-6.1-26.6-12.5c0,0,3.2,10.8,9.2,13.8c0,0-24.3-6.9-32-16.4c-1.5,3.8-1.3,8,0.5,11.7
		c0,0-28-14.4-35.8-22.7c0,0,5.6,20.7,15,27.2c0,0-33.5-10.3-38-27.2c0,0,0,19.5,4.7,23.2c0,0-24.1-12.9-27.2-32.8
		c0,0-3.4,20,0.9,24.5C121.2,603.7,110.1,587.3,110.4,584.5z"/>
	<path class="st1" d="M298.4,558.7c0.4,4.5-1.8,8.8-5.6,11.2"/>
	<path class="st1" d="M343.5,577c1.3-2.4,2.4-4.8,3.4-7.4"/>
	<path class="st1" d="M219.7,583.5c-1-2.5-2.3-5-3.7-7.4"/>
	<path class="st1" d="M219.6,539.2c-5.5,5.1-8.4,12.4-8,19.8"/>
	<path class="st1" d="M186.3,587.9c2.4,3.8,5,7.5,7.9,11"/>
	<path class="st1" d="M315.2,592.1c-2.9,3.4-5.6,7.1-8,11"/>
</g>
<g>
	<path class="st2" d="M391.5,257.4c7.6-3.4,15.3-6.4,23.3-8.8c10.8-3.3,25.1-5.9,27.9-8.9c2.8-3.1,1.5,8.9-9.9,16.1
		c-9.1,4.8-18.7,8.4-28.8,10.5c0,0,36.5-3.7,39.3-4c2.9-0.3-10.2,27.5-45,19.6c0,0,42.1,4,31.1,18c0,0-5.7,7.1-26,2.7
		c0,0,24,24.3-11.9,14.9c0,0,15.6,30.1-15.4,8.9c0,0-1.9,23.1-15,5.1c0,0-4.2,14.7-14.4-0.8c0,0-11.3,23.5-17.5-1.4
		c0,0-7.9,18-18.9-1.3c0,0-6.1,18.7-15-1.3c-8.9-20,5.6-26.9,5.6-26.9L391.5,257.4z"/>
	<path class="st3" d="M299.4,302.1c0,0,11.1,34.4,29.8,6.6c0,0,11.1,18.6,25.6-6.6c0,0,21.5,5.9,14-12.9c0,0,42.2-1.8,10.8-15.7
		c0,0,18,4.3,18.6-6.6C399,256,387,259,387,259l-32.4,9.6l-52.4,20.5L299.4,302.1z"/>
	<path class="st4" d="M263.2,357.7c0,0-7.9,7-3.7,14c4.2,7.1,2.2,12.1,14.4,14c12.2,1.9,16.6,3.2,24.3,1.9c7.6-1.1,2.8,7.9-2.9,8.7
		c-5.6,0.8-7.3-3.1-12.5-2.5c-3.3,0.3-6.6,0.9-9.8,1.8c2.9,2.5,6,5,9.3,7c4.7,2.7-2.2,9.1-8.4,5.6c-3.7-2-6.5-5.5-7.4-9.7
		c-2.2-2.2-5.2-3.1-8.2-2.5l-5,0.9c0,0-8.8,1.8-6.6-1.8c2.2-3.6,4.8-5.2,11.9-7.4c4-1.4-12.1-16.4-11.9-28.3
		C247,347.5,263.2,357.7,263.2,357.7z"/>
	<path class="st4" d="M216.2,363.2c0.8,7.3,1.9,14.4,3.6,21.4c2,7.1,2.4,9.1-8.7,9.9c-11.1,0.9-8.2,6.9,0,6.6l8.2-0.3
		c0,0,5.1-0.3,10.8,15.7c2.3,8.8,13.3,6.2,14.5,3.3c1.3-2.9-9.1-7-11.1-14c-1.9-7.1-1.3-5.9-1.3-5.9s13,13.4,24.2,9.3
		c6.4-1.4,15.3-4.2,1.7-7.9c-13.6-3.7-9.7,1-25.5-8.7c-15.9-9.7,0-33.3,0-33.3L216.2,363.2z"/>
	<path class="st5" d="M282.7,258.3c3.8-0.6,7.8,0.9,10.2,4c5.5,5.2,17.7,14,24,10.7s29.7-17.6,34.5-17.6c4.8,0,15.7,7.5,22.2,5.6
		c6.5-1.9,23.6-8.3,33.1-7.9c0,0-12.7,5-16.3,7.1c-3.6,2.2,1.5,9.7-23.6,9.1c0,0,2.8,9.6-13.9,6.6c0,0-11.3,23.3-16.2,9.2
		c0,0-9.6,24.7-18.6,5.5c0,0-4,15.3-15.7,9.3C290.6,294.1,282.7,258.3,282.7,258.3z"/>
	<path class="st5" d="M302.3,273.7c-7.3-10.3-8.9-6.2-13.3-12.5c-4.5-6.4,1.9-16.1,1.9-16.1l4.7-5c0,0,20.8-40.7-4-65.4
		s-53.2-6.8-53.2-6.8c-0.3-3.8,4.8-16.3,4.8-16.3c-6.9,2.3-16.4,19.6-16.4,19.6l-1-8.4c0,0-1.8,6.2-3.4,10.7
		c-1.7,4.5-27.5,26.3-13.9,54.6c11.5,23.8,12.1,27.2,12,27.5c7.9,10.2,1.1,23.2-9.7,28.6c-1.8,2.5-12.2,16.8-25.5,19.2
		c-14.5,2.7-5.9,29.4-5.9,29.4s-23.2,8.5-72.3,22.9s-24.1,18.7-24.1,18.7c-41.6,23.1-4,20.4-4,20.4c-17.6,12.1,18.2,7.9,18.2,7.9
		s-11.2,8.4-5.6,12.2c5.6,3.8,39.9-9.2,58.6-19.4c18.7-10.2,35.7-30.1,47.9-29.3c12.2,0.8,11.9,7.6,17,7.6
		c11.6-0.3,23.1-3.2,33.3-8.8c3.1,1.9,6.5,2.9,10.1,2.9l3.3-1.7c3.3-1.7,3.1-6.4,6.6-7.9c3.6-1.5,3.3,1.4,15.4-9.8
		C319.2,315,309.6,284,302.3,273.7z"/>
	<path class="st6" d="M282.7,198.4c0,0-9.6-21.4-21-22.9c-11.6-1.5-25.1,7.9-30.3,21.5s2,26.5,11.3,26.5c0,0-5.9,45.8,43.2,14.3
		S282.7,198.4,282.7,198.4z"/>
	<path class="st3" d="M377.7,290.3c1.3,1.1,25.4,12.2,25.4,12.2"/>
	<line class="st7" x1="370.9" y1="304.5" x2="391.5" y2="317.4"/>
	<path class="st7" d="M359.5,307.9c0,0,12.2,15.7,16.6,18.5"/>
	<path class="st7" d="M355.1,312.7c0,0,3.6,15.7,5.9,18.7"/>
	<path class="st7" d="M345.6,318.8c0,0,0,9.8,1.3,11.9"/>
	<path class="st7" d="M329.9,317.4c-0.6,4-0.9,7.9-0.8,11.9"/>
	<path class="st7" d="M309.4,317.4c-0.5,3.6-0.3,7.1,0.8,10.7"/>
	<path class="st2" d="M123,235.4c-6.9-4.6-14.1-8.7-21.5-12.5c-10.2-5-23.8-9.9-26-13.4c-2.3-3.4-2.9,8.4,7.3,17.5
		c8.2,6.2,17.1,11.3,26.8,14.9c0,0-35.2-9.6-38.1-10.2c-2.9-0.6,5.6,28.8,41.3,26.8c0,0-42.2-2.9-33.5,12.7c0,0,4.5,7.9,25.1,6.8
		c0,0-27.5,20.1,9.1,16.6c0,0-20.1,27.2,13.9,11.3c0,0-1.8,23.1,14,7.5c0,0,1.8,15.2,14.3,1.7c0,0,7.5,25,17.5,1.3
		c0,0,4.7,19.1,18.7,1.8c0,0,2.9,19.6,15,1.1c12-18.5-1.1-27.5-1.1-27.5L123,235.4z"/>
	<path class="st3" d="M128.5,241.2c0,0-11.3-9.1-15.2-2c-3.8,7,1.7,11.9,12.7,13.8c0,0-9.7-0.6-10.2,5c-0.4,5.6,4.7,11.6,18.6,12.5
		c0,0-6.8,7.9,0,13.9c6.8,6,12.2,2.4,12.2,2.4s5.4,21.9,15.4,16.1c7.9-4.6,8.4-6.1,8.4-6.1c0.3-1.5,5,22.6,26.5,9.7
		c0,0,4.5-1.4,4.2-8.4c0,0,8.7,15.7,9.6-7.6l0.9-23.6l-3.2,6.6L128.5,241.2z"/>
	<path class="st5" d="M220.5,255.6L220.5,255.6c-0.6,1-1.5,1.8-2.5,2.3c-23.6,12.5-24.3,7.4-31.5,3.1c-7.1-4.3-24.5-21.8-29.6-20.5
		c-19,5.6-24.2-0.5-35.9-7.9c-11.9-7.4-14-4.7-14-4.7c5,3.2,9.7,6.6,14.1,10.6c11.2,14.7,21.2,11.9,21.2,11.9
		c-1.4,10.8,12.7,9.6,12.7,9.6c0.3,22.2,13.8,12.1,13.8,12.1c9.8,29.1,17,8.9,17,8.9c5.9,19.9,18.6-2.3,18.6-2.3
		c0.4,5,6.8,5.2,6.8,5.2S232.9,272.8,220.5,255.6z"/>
	<path class="st8" d="M286.5,219.1c0,0-8.2,11.3-4.3,19.9c3.8,8.7,18.7,20.1,35.6,0C317.8,239,315.1,214.3,286.5,219.1z"/>
	<path class="st9" d="M286.3,219.3c0,0-11.2-28.7-2.4-36.8c8.8-8.2,24.2-15,45.4,8.5c21.2,23.6-0.9,52.5-9.7,58.6
		C319.6,249.5,320.1,212.9,286.3,219.3z"/>
	<path class="st10" d="M249.3,216.5c0,0-16.3-19.2,1.8-28c15.4-5.4,20.1,19.2,14.9,24C260.2,212.6,254.5,214,249.3,216.5z"/>
	<path class="st7" d="M244.5,219.3c8.3-5,17.8-7.3,27.5-6.5"/>
	<ellipse class="st11" cx="254.4" cy="205.9" rx="9.1" ry="7.9"/>
	<ellipse class="st12" cx="254.9" cy="207" rx="5.9" ry="6.4"/>
	<ellipse transform="matrix(0.753 -0.658 0.658 0.753 -70.2598 215.3727)" class="st13" cx="251.8" cy="201.3" rx="4" ry="5.1"/>
	<path class="st2" d="M187.2,332.7c0,0-3.1-2.9-14.4,1.9l-11.3,4.8l0,0c-1.7,0-17.3,2.2-18.1,4.6c-0.8,2.4,11.9,6.2,17.1,6
		c5.2-0.3,26-10.3,28.4-11.9C191.3,336.7,187.2,332.7,187.2,332.7z"/>
	<path class="st2" d="M196.2,336c0,0-4.6-2.2-14.4,1c-9.9,3.2-23.8,12.2-28.4,18.5s-12.2,11-6.4,12.4c5.7,1.4,29.6-9.4,34.3-12.2
		S198.7,341.9,196.2,336z"/>
	<path class="st2" d="M200.1,339c0,0-5.5-4.2-16.6,1.9c-11.1,6.1-35.4,28.2-36.7,32.3c-1.3,4.1-1.3,2.7-1.3,4c0,1.3,0.9,14.7,17.1,5
		C178.7,372.6,200.1,339,200.1,339z"/>
	<path class="st2" d="M162.6,384.6c0,0,14.7-0.5,21.2-5.1c6.5-4.6,14.1-20.8,16.3-26.8c1.1-4.5,1.1-9.2,0-13.8
		c0,0-25.7,22.4-29.6,27.9l-4,5.5l0,0C166.7,372.5,157.4,381.9,162.6,384.6z"/>
	<path class="st3" d="M131.3,270.1c-1.4,0.9-27,7.9-27,7.9"/>
	<line class="st7" x1="135.7" y1="285.3" x2="113.3" y2="294.6"/>
	<path class="st7" d="M146.6,290.4c0,0-14.5,13.4-19.4,15.7"/>
	<path class="st7" d="M150,295.9c0,0-6.1,15.2-8.8,17.6"/>
	<path class="st7" d="M158.6,303.5c0,0-1.4,9.7-3.1,11.5"/>
	<path class="st7" d="M174,304.5c0,4-0.4,7.9-1.1,11.9"/>
	<path class="st7" d="M194.4,308c-0.1,3.6-1,7-2.5,10.2"/>
	<path class="st7" d="M126,252.9c0,0,13.4,0.6,15.2-0.5"/>
	<path class="st7" d="M134.5,270.4c6.9-1,13.6-2.4,20.3-4.3"/>
	<path class="st7" d="M146.6,286.7c0,0,19.9-7.9,23.1-11.9"/>
	<path class="st7" d="M170.4,296.6c3.2-2.4,5.9-5.6,7.6-9.3"/>
	<path class="st7" d="M201.3,298c-0.6-4-1.7-7.8-3.2-11.3"/>
	<path class="st7" d="M83.2,374.7c0,0,54-9.8,70.1-19.2"/>
	<path class="st7" d="M79.3,394.9c0,0,60.7-19.6,70.7-25.9"/>
	<path class="st7" d="M97.5,403.1c17.7-4.2,34.8-10.5,51.1-18.5"/>
	<path class="st3" d="M329.4,308.7c0.8-4.1,0.6-8.3-0.3-12.4"/>
	<path class="st3" d="M355,302.1c0,0-1-16.4-5-21.3"/>
	<path class="st3" d="M369.1,289.2c-1.9-4.8-4.7-9.2-8.2-13.1"/>
	<line class="st7" x1="379.8" y1="273.6" x2="366.8" y2="269.1"/>
	<path class="st7" d="M273,395.6c0,0-2.9-1.9-2.7-4.6"/>
	<line class="st7" x1="232.4" y1="399.9" x2="230.3" y2="395"/>
	<path class="st7" d="M266.5,398.5c0,0-4-4.6-3.1-6.9"/>
	<path class="st7" d="M248.7,365.5c4.5-2.4,8.4-5.9,11.3-10.1"/>
	<path class="st7" d="M232.4,242.6c0,0,2.5,8.2,19.4,10.6"/>
	<path class="st7" d="M274.4,253c4.6,0.3,9.1,0,13.5-0.6"/>
	<ellipse class="st14" cx="229.6" cy="261.3" rx="9.8" ry="7.9"/>
</g>
<g>
	<g>
		<rect x="485.5" y="395.5" class="st15" width="166.5" height="42.1"/>
	</g>
	<g>
		<polygon class="st15" points="747.4,415.8 639.1,484.5 639.1,347.2 		"/>
	</g>
</g>
<text transform="matrix(1 0 0 1 810.2074 402.8071)" class="st16 st17">According to the reasons, </text>
<text transform="matrix(1 0 0 1 776.8248 472.3633)" class="st16 st17">the conclusion makes sense. </text>
<g>
	<path class="st18" d="M938.6,1010.2h-850c-21.9,0-39.7-17.8-39.7-39.7V728.9c0-21.9,17.8-39.7,39.7-39.7h850.1
		c21.9,0,39.7,17.8,39.7,39.7v241.5C978.3,992.4,960.6,1010.2,938.6,1010.2z"/>
	<text transform="matrix(1 0 0 1 112.3087 779.7804)" class="st19 st16 st20">Conclusion: </text>
	<text transform="matrix(1 0 0 1 112.3087 863.7805)" class="st19 st16 st20">Parrot lays eggs. </text>
	<text transform="matrix(1 0 0 1 112.3087 947.7805)" class="st19 st16 st20">(Specific Conclusion)</text>
</g>
<g class="st21">
	<g class="st22">
		<text transform="matrix(1 0 0 1 1021.5662 804.3806)" class="st23 st16 st24">LOGICALLY </text>
		<text transform="matrix(1 0 0 1 1192.5662 947.7806)" class="st23 st16 st24">TRUE</text>
	</g>
	<g>
		<text transform="matrix(1 0 0 1 1016.5662 800.3806)" class="st25 st16 st24">LOGICALLY </text>
		<text transform="matrix(1 0 0 1 1187.5662 943.7806)" class="st25 st16 st24">TRUE</text>
	</g>
</g>
</svg>
