<?xml version="1.0" encoding="utf-8"?>
<!-- Generator: Adobe Illustrator 24.0.3, SVG Export Plug-In . SVG Version: 6.00 Build 0)  -->
<svg version="1.1" id="Layer_1" xmlns="http://www.w3.org/2000/svg" xmlns:xlink="http://www.w3.org/1999/xlink" x="0px" y="0px"
	 viewBox="0 0 1700 1080" style="enable-background:new 0 0 1700 1080;" xml:space="preserve">
<style type="text/css">
	.st0{opacity:0.51;fill:#226999;enable-background:new    ;}
	.st1{opacity:0.7;}
	.st2{fill:#FFFFFF;}
	.st3{font-family:'CarterOne';}
	.st4{font-size:71.0064px;}
	.st5{fill:#4453A3;}
	.st6{fill:#F9EB18;}
	.st7{fill:#848A8A;}
	.st8{fill:#DA1F29;}
	.st9{fill:#D1C9C2;}
	.st10{fill:none;}
	.st11{fill:#2A1B1B;}
	.st12{fill:#DFCD85;}
	.st13{fill:#8C523D;}
	.st14{fill:#25291D;}
	.st15{opacity:0.51;fill:#999923;enable-background:new    ;}
	.st16{fill:#FDCB37;stroke:#000000;stroke-width:0.7991;stroke-linecap:round;stroke-miterlimit:10;}
	.st17{fill:#EBEBE3;stroke:#000000;stroke-width:0.7991;stroke-linecap:round;stroke-miterlimit:10;}
	.st18{fill:#32221A;stroke:#000000;stroke-width:0.7991;stroke-linecap:round;stroke-miterlimit:10;}
	.st19{fill:#5D391E;stroke:#000000;stroke-width:0.7991;stroke-linecap:round;stroke-miterlimit:10;}
	.st20{fill:none;stroke:#000000;stroke-width:0.7991;stroke-linecap:round;stroke-miterlimit:10;}
	.st21{fill:#FFFFFF;stroke:#000000;stroke-width:0.7991;stroke-linecap:round;stroke-miterlimit:10;}
	.st22{fill:#FEFEFE;stroke:#000000;stroke-width:0.7991;stroke-linecap:round;stroke-miterlimit:10.0005;}
	.st23{fill:#FBCE32;stroke:#000000;stroke-width:0.7991;stroke-linecap:round;stroke-miterlimit:10;}
	.st24{fill:#FFFEFE;stroke:#000000;stroke-width:0.799;stroke-linecap:round;stroke-miterlimit:9.9995;}
	.st25{fill:#FFFFFF;stroke:#000000;stroke-width:0.799;stroke-linecap:round;stroke-miterlimit:9.9996;}
	.st26{display:none;opacity:0.7;fill:none;stroke:#000000;stroke-width:13.243;stroke-miterlimit:10;enable-background:new    ;}
	.st27{display:none;fill:#FFFFFF;}
	.st28{display:none;fill:#C1272D;enable-background:new    ;}
	.st29{font-size:85px;}
	.st30{display:none;}
	.st31{display:inline;opacity:0.51;fill:#259949;enable-background:new    ;}
	.st32{display:inline;}
	.st33{fill:#0C0C0C;}
	.st34{fill:#ED332B;}
	.st35{fill:#F58C3A;stroke:#231F20;stroke-width:1.0882;stroke-miterlimit:10;}
	.st36{fill:#F9EB18;stroke:#231F20;stroke-width:1.0882;stroke-miterlimit:10;}
	.st37{fill:#EBEBE2;stroke:#231F20;stroke-width:1.0882;stroke-miterlimit:10;}
</style>
<g>
	<path class="st0" d="M1623.2,307.4H92.8c-23,0-41.7-18.6-41.7-41.7V71.3c0-23,18.6-41.7,41.7-41.7h1530.4c23,0,41.7,18.6,41.7,41.7
		v194.5C1664.8,288.8,1646.2,307.4,1623.2,307.4z"/>
	<g>
		<g class="st1">
			<text transform="matrix(1 0 0 1 100.8358 189.1875)" class="st2 st3 st4">Specific Statement 1: Parrot can fly</text>
		</g>
		<g>
			<text transform="matrix(1 0 0 1 95.8358 186.1875)" class="st3 st4">Specific Statement 1: Parrot can fly</text>
		</g>
	</g>
	<g>
		<path class="st5" d="M1605.9,138.6c6.9-3.1,14-5.8,21.3-8c9.9-3,22.8-5.4,25.4-8.1c2.5-2.8,1.4,8.1-9.1,14.6
			c-8.3,4.4-17.1,7.7-26.3,9.5c0,0,33.2-3.4,35.9-3.6c2.6-0.2-9.3,25.1-41,18c0,0,38.4,3.6,28.3,16.4c0,0-5.3,6.5-23.7,2.4
			c0,0,21.9,22.2-10.8,13.5c0,0,14.2,27.4-14.1,8.1c0,0-1.8,21-13.8,4.7c0,0-3.9,13.4-13.1-0.6c0,0-10.4,21.4-16-1.4
			c0,0-7.2,16.4-17.1-1.2c0,0-5.6,17.1-13.6-1.2c-8.1-18.3,5.1-24.5,5.1-24.5L1605.9,138.6z"/>
		<path class="st6" d="M1521.9,179.5c0,0,10.2,31.4,27.3,6c0,0,10.2,16.9,23.4-6c0,0,19.7,5.4,12.8-11.7c0,0,38.5-1.7,9.9-14.4
			c0,0,16.4,3.9,16.9-6c0.5-9.9-10.4-7.2-10.4-7.2l-29.5,8.7l-47.8,18.7L1521.9,179.5z"/>
		<path class="st7" d="M1488.9,230.1c0,0-7.2,6.3-3.4,12.8c3.8,6.5,2,11,13.1,12.8c11.1,1.8,15.1,2.9,22.2,1.8
			c7-1.1,2.5,7.2-2.6,7.8c-5.2,0.6-6.6-2.8-11.4-2.3c-3.1,0.3-6,0.8-8.9,1.7c2.6,2.3,5.5,4.4,8.6,6.3c4.2,2.4-1.9,8.3-7.7,5.1
			c-3.4-1.8-5.9-5.1-6.8-8.8c-2-1.9-4.8-2.9-7.5-2.3l-4.5,0.8c0,0-8,1.7-6-1.7c1.9-3.3,4.4-4.8,10.8-6.8c3.6-1.3-11.1-15-10.8-25.8
			C1474.1,220.9,1488.9,230.1,1488.9,230.1z"/>
		<path class="st7" d="M1446,235.1c0.6,6.6,1.8,13.1,3.3,19.6c1.9,6.5,2.2,8.3-7.9,9.1c-10.2,0.8-7.4,6.3,0,6l7.5-0.3
			c0,0,4.7-0.3,9.9,14.4c2,8,12.2,5.7,13.2,3.1c1.2-2.6-8.3-6.3-10-12.8c-1.8-6.5-1.3-5.4-1.3-5.4s11.8,12.2,22.1,8.5
			c5.8-1.4,14-3.8,1.5-7.2c-12.5-3.4-8.8,1-23.3-7.9s0-30.4,0-30.4L1446,235.1z"/>
		<path class="st8" d="M1506.6,139.4c3.5-0.6,7.1,0.7,9.2,3.6c5,4.8,16.2,12.8,21.9,9.8c5.7-3,27.2-16,31.5-16s14.4,6.9,20.3,5.1
			c5.9-1.8,21.5-7.6,30.3-7.2c0,0-11.6,4.5-14.9,6.5c-3.3,1.9,1.4,8.8-21.5,8.3c0,0,2.5,8.7-12.7,6c0,0-10.4,21.3-14.7,8.4
			c0,0-8.7,22.6-16.9,5c0,0-3.6,14-14.4,8.6C1514,172.1,1506.6,139.4,1506.6,139.4z"/>
		<path class="st8" d="M1524.6,153.6c-6.6-9.4-8.1-5.7-12.2-11.4c-4-5.8,1.8-14.6,1.8-14.6l4.2-4.5c0,0,18.9-37.1-3.6-59.7
			c-22.5-22.6-48.6-6.2-48.6-6.2c-0.3-3.5,4.3-14.9,4.3-14.9c-6.3,2-15,18-15,18l-1-7.7c0,0-1.7,5.7-3.2,9.8
			c-1.5,4.1-25.1,24-12.7,49.8c10.5,21.7,11,24.8,11,25.1c7.2,9.3,1.1,21.2-8.9,26.1c-1.7,2.3-11.2,15.3-23.2,17.6
			c-13.2,2.4-5.4,26.9-5.4,26.9s-21.2,7.7-65.9,20.9c-44.7,13.2-21.9,17-21.9,17c-37.9,21-3.6,18.6-3.6,18.6
			c-16,11,16.7,7.2,16.7,7.2s-10.2,7.7-5.1,11.1c5.1,3.4,36.4-8.4,53.5-17.7c17-9.2,32.6-27.4,43.7-26.8c11.2,0.6,10.8,6.9,15.4,6.9
			c10.6-0.2,21-3,30.4-8c2.8,1.7,5.9,2.6,9.2,2.6l3.1-1.6c3.1-1.5,2.8-5.8,6-7.2c3.3-1.4,3.1,1.3,14.1-8.9
			C1540,191.2,1531.2,163,1524.6,153.6z"/>
		<path class="st9" d="M1506.6,84.8c0,0-8.7-19.5-19.3-20.9c-10.6-1.5-23,7.2-27.7,19.7s1.8,24.2,10.4,24.2c0,0-5.4,41.7,39.5,13
			S1506.6,84.8,1506.6,84.8z"/>
		<path class="st6" d="M1593.3,168.7c1.2,1.1,23.2,11.1,23.2,11.1"/>
		<line class="st10" x1="1587.1" y1="181.7" x2="1605.9" y2="193.4"/>
		<path class="st10" d="M1576.6,184.8c0,0,11.1,14.4,15.1,16.8"/>
		<path class="st10" d="M1572.7,189.1c0,0,3.3,14.4,5.3,17.1"/>
		<path class="st10" d="M1564,194.7c0,0,0,9,1.2,10.8"/>
		<path class="st10" d="M1549.7,193.4c-0.5,3.6-0.8,7.2-0.7,10.8"/>
		<path class="st10" d="M1531,193.4c-0.4,3.3-0.2,6.6,0.7,9.7"/>
		<path class="st5" d="M1361.1,118.6c-6.3-4.1-12.9-7.9-19.6-11.3c-9.3-4.4-21.7-9-23.8-12.2s-2.6,7.7,6.6,15.9
			c7.4,5.7,15.7,10.3,24.4,13.6c0,0-32.1-8.7-34.7-9.3c-2.6-0.6,5.1,26.3,37.7,24.4c0,0-38.5-2.6-30.6,11.6c0,0,4.1,7.2,23,6.2
			c0,0-25.1,18.4,8.3,15.1c0,0-18.4,24.9,12.6,10.4c0,0-1.7,21,12.8,6.8c0,0,1.7,13.9,13,1.5c0,0,6.8,22.7,16,1.3
			c0,0,4.3,17.3,17.1,1.7c0,0,2.6,18,13.6,1.1c11-16.9-1.1-25.1-1.1-25.1L1361.1,118.6z"/>
		<path class="st6" d="M1366,123.8c0,0-10.4-8.3-13.9-1.8c-3.5,6.5,1.5,10.8,11.6,12.6c0,0-8.9-0.6-9.3,4.5
			c-0.4,5.2,4.3,10.6,16.9,11.3c0,0-6.2,7.2,0,12.6c6.2,5.5,11.1,2.2,11.1,2.2s4.9,20.1,14.1,14.7c7.2-4.2,7.6-5.6,7.6-5.6
			c0.2-1.4,4.5,20.6,24.2,8.9c0,0,4-1.3,3.9-7.6c0,0,7.9,14.4,8.8-7l0.8-21.5l-2.9,6L1366,123.8z"/>
		<path class="st8" d="M1449.9,137.1L1449.9,137.1c-0.5,1-1.4,1.7-2.3,2.1c-21.5,11.4-22.2,6.8-28.7,2.8c-6.5-4-22.4-20-27-18.7
			c-17.3,5.1-22.1-0.4-32.8-7.2c-10.8-6.8-12.8-4.2-12.8-4.2c4.5,2.9,8.9,6.1,12.9,9.6c10.2,13.3,19.3,10.8,19.3,10.8
			c-1.3,9.9,11.6,8.7,11.6,8.7c0.3,20.3,12.6,11,12.6,11c9,26.4,15.4,8.1,15.4,8.1c5.5,18.2,17.1-2,17.1-2c0.4,4.5,6.2,4.8,6.2,4.8
			S1461.2,152.8,1449.9,137.1z"/>
		<path class="st11" d="M1510.2,103.7c0,0-7.4,10.4-3.9,18.2c3.5,7.8,17.1,18.4,32.5,0C1538.7,121.9,1536.2,99.4,1510.2,103.7z"/>
		<path class="st12" d="M1509.9,103.8c0,0-10.2-26.2-2.2-33.6c7.9-7.4,22.1-13.8,41.4,7.7s-0.8,47.9-8.8,53.5
			C1540.2,131.4,1540.8,98.1,1509.9,103.8z"/>
		<path class="st2" d="M1476.3,101.4c0,0-14.9-17.5,1.6-25.6c14.1-4.9,18.4,17.6,13.6,21.9C1486.2,97.8,1481,99.1,1476.3,101.4z"/>
		<path class="st10" d="M1471.8,103.8c7.5-4.5,16.3-6.7,25.1-5.9"/>
		<ellipse class="st13" cx="1480.9" cy="91.7" rx="8.3" ry="7.2"/>
		<ellipse class="st14" cx="1481.3" cy="92.7" rx="5.4" ry="5.8"/>
		<ellipse transform="matrix(0.753 -0.658 0.658 0.753 307.5579 994.4208)" class="st2" cx="1478.4" cy="87.5" rx="3.6" ry="4.7"/>
		<path class="st5" d="M1419.6,207.4c0,0-2.9-2.6-13.1,1.8l-10.4,4.3l0,0c-1.6,0-15.9,2-16.5,4.2s10.8,5.7,15.5,5.5
			c4.8-0.2,23.7-9.5,25.9-10.8C1423.3,211.2,1419.6,207.4,1419.6,207.4z"/>
		<path class="st5" d="M1427.7,210.4c0,0-4.1-2-13.2,0.8c-9,2.9-21.7,11.2-25.9,16.9c-4.1,5.7-11.1,10-5.8,11.3
			c5.3,1.3,27-8.6,31.3-11.2S1430.1,215.8,1427.7,210.4z"/>
		<path class="st5" d="M1431.3,213.1c0,0-5.1-3.8-15.1,1.8c-10.2,5.6-32.3,25.7-33.4,29.4c-1.2,3.7-1.3,2.4-1.3,3.6
			s0.8,13.3,15.7,4.5C1411.8,243.8,1431.3,213.1,1431.3,213.1z"/>
		<path class="st5" d="M1397.1,254.7c0,0,13.3-0.4,19.4-4.7c5.9-4.1,12.9-18.9,14.9-24.4c1.1-4.1,1.1-8.5,0-12.5
			c0,0-23.5,20.4-27,25.5l-3.6,5.1l0,0C1400.8,243.7,1392.4,252.2,1397.1,254.7z"/>
		<path class="st6" d="M1368.6,150.2c-1.3,0.8-24.6,7.2-24.6,7.2"/>
		<line class="st10" x1="1372.6" y1="164.1" x2="1352.2" y2="172.6"/>
		<path class="st10" d="M1382.4,168.8c0,0-13.3,12.3-17.7,14.4"/>
		<path class="st10" d="M1385.6,173.8c0,0-5.6,13.9-8,16.1"/>
		<path class="st10" d="M1393.4,180.7c0,0-1.3,8.9-2.9,10.5"/>
		<path class="st10" d="M1407.5,181.7c0,3.6-0.3,7.2-1,10.8"/>
		<path class="st10" d="M1426,184.8c-0.1,3.2-1,6.3-2.3,9.3"/>
		<path class="st10" d="M1363.7,134.6c0,0,12.2,0.6,13.9-0.4"/>
		<path class="st10" d="M1371.4,150.5c6.2-1,12.5-2.2,18.5-3.9"/>
		<path class="st10" d="M1382.5,165.4c0,0,18.2-7.2,21-10.8"/>
		<path class="st10" d="M1404.2,174.5c3-2.2,5.3-5.1,6.9-8.5"/>
		<path class="st10" d="M1432.4,175.8c-0.5-3.6-1.5-7.1-2.9-10.4"/>
		<path class="st10" d="M1324.7,245.6c0,0,49.3-9,64-17.6"/>
		<path class="st10" d="M1321.1,264.2c0,0,55.4-18,64.5-23.6"/>
		<path class="st10" d="M1337.8,271.6c16.2-3.8,31.7-9.5,46.6-16.9"/>
		<path class="st6" d="M1549.2,185.5c0.6-3.7,0.5-7.5-0.3-11.2"/>
		<path class="st6" d="M1572.6,179.5c0,0-0.8-15-4.4-19.4"/>
		<path class="st6" d="M1585.5,167.7c-1.8-4.3-4.2-8.5-7.4-12"/>
		<line class="st10" x1="1595.4" y1="153.4" x2="1583.4" y2="149.3"/>
		<path class="st10" d="M1497.8,264.7c0,0-2.6-1.8-2.4-4.2"/>
		<line class="st10" x1="1460.8" y1="268.6" x2="1458.9" y2="264.2"/>
		<path class="st10" d="M1491.9,267.4c0,0-3.6-4.1-2.8-6.2"/>
		<path class="st10" d="M1475.6,237.2c4.1-2.2,7.6-5.4,10.4-9.2"/>
		<path class="st10" d="M1460.8,125.1c0,0,2.3,7.4,17.7,9.6"/>
		<path class="st10" d="M1499.1,134.7c4.1,0.2,8.3,0,12.4-0.6"/>
		<ellipse class="st8" cx="1458.3" cy="142.2" rx="9" ry="7.2"/>
	</g>
</g>
<g>
	<path class="st15" d="M1615.2,612.8H84.8c-23,0-41.7-18.6-41.7-41.7V376.7c0-23,18.6-41.7,41.7-41.7h1530.4
		c23,0,41.7,18.6,41.7,41.7v194.5C1656.8,594.2,1638.2,612.8,1615.2,612.8z"/>
	<g>
		<g class="st1">
			<text transform="matrix(1 0 0 1 100.8358 508.6173)" class="st2 st3 st4">Specific Statement 2: Eagle can fly</text>
		</g>
		<g>
			<text transform="matrix(1 0 0 1 95.8358 505.6173)" class="st3 st4">Specific Statement 2: Eagle can fly</text>
		</g>
	</g>
	<g>
		<path class="st16" d="M1545.4,563.9c0,0-3.1,18.5,12.3,21.6c9.1,1.9,18.6,1.9,27.7,0l9.2,12.3c0,0-12.3-6.2-15.4-6.2h-15.4
			l12.3,9.2c0,0,3.1,9.2,6.2,12.3H1570c0,0-9.2-18.5-15.4-21.6c-6.2-3.1-12.3,12.3-12.3,12.3l-9.2,3.1c0,0-3.1-12.3,3.1-15.4
			c2.8-1.7,6-2.7,9.2-3.1c0,0-15.4-18.5-9.2-27.7S1545.4,563.9,1545.4,563.9z"/>
		<path class="st16" d="M1517.7,594.7c9.2,3.1,24.6,18.5,24.6,18.5c3.1-6.2,0-9.2,0-9.2c-9.2-15.4-9.2-6.2-24.6-15.4
			c-15.4-9.2-6.2-27.7-6.2-27.7h-12.3c0,0,6.2,18.5,6.2,21.6s0,6.2-15.4,6.2c-9.2,0-12.3,15.4-12.3,15.4s15.4-12.3,24.6-9.2l9.2,3.1
			l9.2,12.3l3.1,12.3l3.1-9.2L1517.7,594.7z"/>
		<path class="st17" d="M1530,357.8c-3.1-3.1-27.7,6.2-27.7,6.2l12.3,3.1c-30.8,3.1-24.6,43-24.6,43v6.2c0,6.2,18.5,30.8,12.3,37
			c-18.5,18.5-30.8,67.7-52.3,70.7c-21.6,3.1-40-15.4-49.2-24.6c-9.2-9.2-21.6-6.2-27.7-6.2c-3.1,6.2-3.1,15.4,6.2,24.6
			c-12.3-6.2-27.7,0-27.7,0s0,12.3,9.2,18.5h-12.3c0,24.6,40,46.1,76.9,37c37-9.2,40-9.2,61.5-15.4c43,0,70.7-12.3,70.7-12.3
			c43-43,37-73.8,24.6-83.1s-12.3-15.4-9.2-21.6c3.1-6.2,12.3-6.2,15.4-40s-43-58.4-58.4-58.4l9.2,9.2c-9.2-6.2-27.7,0-27.7,0
			S1526.9,354.7,1530,357.8z"/>
		<path class="st18" d="M1520.8,511.7l24.6-33.9c0,0,12.3,21.6,15.4,30.8c0,0,6.2-27.7,6.2-30.8s18.5,15.4,18.5,24.6
			c3.5-7.8,5.5-16.1,6.2-24.6c0,0,6.2,6.2-3.1,27.7c-3.1,15.4-3.1,12.3-15.4,30.8c0,0-15.4,18.5-24.6,21.6l-3.1,6.2
			c-4.3,1.7-9.3,0.5-12.3-3.1c-10.3,5.6-22.2,7.8-33.9,6.2c-18.5-3.1-15.4-3.1-24.6-6.2l-18.5-6.2L1520.8,511.7z"/>
		<path class="st19" d="M1443.9,530c0,0-6.2-15.4,27.7-46.1c33.9-30.8,46.1-27.7,46.1-27.7s40-3.1,15.4,43s-73.8,67.7-73.8,67.7
			s-21.6,6.2-9.2-9.2c0,0-33.9,24.6-9.2-12.3C1440.8,545.4,1425.4,548.5,1443.9,530z"/>
		<path class="st20" d="M1523.8,370.1c0,0,12.3,9.2,21.6,9.2"/>
		
			<ellipse transform="matrix(0.1889 -0.982 0.982 0.1889 858.2003 1821.1742)" class="st21" cx="1531.5" cy="391.1" rx="14.8" ry="10.8"/>
		
			<ellipse transform="matrix(0.121 -0.9927 0.9927 0.121 952.4057 1867.5901)" class="st22" cx="1530.7" cy="396" rx="9.1" ry="8.7"/>
		
			<ellipse transform="matrix(0.1889 -0.982 0.982 0.1889 849.955 1826.8662)" class="st23" cx="1530.9" cy="398.9" rx="5.8" ry="5.6"/>
		
			<ellipse transform="matrix(0.1889 -0.982 0.982 0.1889 851.7397 1826.3107)" class="st18" cx="1531.4" cy="397.6" rx="3.6" ry="3.5"/>
		
			<ellipse transform="matrix(0.6267 -0.7792 0.7792 0.6267 262.2708 1335.8809)" class="st24" cx="1525.5" cy="394.2" rx="2.4" ry="3.8"/>
		<path class="st20" d="M1560.8,379.3c0,0,18.5-6.2,21.6-12.3"/>
		
			<ellipse transform="matrix(0.997 -7.689606e-02 7.689606e-02 0.997 -25.0158 122.0856)" class="st25" cx="1572.8" cy="385.9" rx="6.4" ry="9.6"/>
		
			<ellipse transform="matrix(0.1889 -0.982 0.982 0.1889 892.756 1863.7012)" class="st23" cx="1574.6" cy="391.4" rx="3.6" ry="3.5"/>
		<path class="st16" d="M1545.4,413.2c0,0,15.4-18.5,21.6-18.5c6.2,0,15.4-9.2,46.1,12.3c30.8,21.6,24.6,43,24.6,43l-24.6-15.4
			c0,0-24.6,3.1-40,6.2c-9.3,1.6-18.7-1.9-24.6-9.2C1548.5,431.6,1542.3,416.3,1545.4,413.2z"/>
		<path class="st16" d="M1563.9,425.5c0,0,27.7-12.3,49.2,9.2"/>
		<path class="st20" d="M1379.3,517.7c0,0,37,18.5,43,18.5"/>
		<path class="st20" d="M1360.8,536.2c0,0,43,18.5,55.3,15.4"/>
		<path class="st19" d="M1443.9,530c0,0,37-30.8,43-37"/>
		<line class="st20" x1="1440.8" y1="545.4" x2="1471.6" y2="523.9"/>
		<path class="st19" d="M1453.1,554.7c0,0,18.5-12.3,27.7-24.6"/>
	</g>
</g>
<line class="st26" x1="39" y1="684.9" x2="1661" y2="684.9"/>
<rect x="601.7" y="630.9" class="st27" width="481" height="108.1"/>
<text transform="matrix(1 -7.940244e-05 7.940244e-05 1 636.2858 703.1449)" class="st28 st3 st29">Therefore </text>
<g class="st30">
	<path class="st31" d="M1616.8,1038.4H86.4c-23,0-41.7-18.6-41.7-41.7v-216c0-23,18.6-41.7,41.7-41.7h1530.4
		c23,0,41.7,18.6,41.7,41.7v216.1C1658.4,1019.7,1639.8,1038.4,1616.8,1038.4z"/>
	<g class="st32">
		<g class="st1">
			<text transform="matrix(1 0 0 1 100.8358 914.3174)" class="st2 st3 st4">General Conclusion: penguin can fly</text>
		</g>
		<g>
			<text transform="matrix(1 0 0 1 95.8358 911.3174)" class="st3 st4">General Conclusion: penguin can fly</text>
		</g>
	</g>
	<g class="st32">
		<path class="st33" d="M1557.5,789.4c0-19.8-18.9-35.8-42.2-35.8s-41,16.1-42.2,35.8c-1.6,27.9,18.9,30,42.2,30
			S1557.5,809.2,1557.5,789.4z"/>
		<path class="st34" d="M1485.6,799.3c0,0,0.5,8.8,18.2,6.5c17.6-2.3,18.5-3.5,18.2-10.7c-0.3-7.1-10.8-11.5-26.3-6.7
			C1480.1,793.2,1485.6,799.3,1485.6,799.3z"/>
		<path class="st33" d="M1494,817.5c0,0-19.4-4-35.9,15.1s-23.8,45.5-29.3,73.7s-26.8,58.1-25.2,68c1.4,9.9,19,26.3,38.8-5.4
			c12-20.1,18.1-43.1,17.6-66.5l53.4-54.1l39,34.1l15.8,47.7l13.2,2.2c0,0,21.5,49.5,38.8,50.6c17.2,1.1,31.1-7.3,8.1-36.2
			c-23.1-28.8-21.7-11.8-42.9-82c-6.1-24.9-30.8-52.5-58.7-50.9C1498.8,815,1494,817.5,1494,817.5z"/>
		<path class="st35" d="M1480.7,1000.5c0,0-4.4,7.7-9.9,8.8l-5.4,1.1c-1.8,0.3-33,7.7-34.8,14.7c-1.8,7-1.8,21.2,36.3,20.1
			c38.2-1.1,35-13.8,34.7-28.9C1501.2,1001,1480.7,1000.5,1480.7,1000.5z"/>
		<path class="st35" d="M1540.6,1005.6c0,0-14.7,14.7-15.8,23.5c-1.1,8.8-5.9,14,15.8,17.3c21.7,3.3,44,6.5,52.8-12.8
			c8.8-19.4-33.4-15.1-44.3-30.4C1538.1,988,1540.6,1005.6,1540.6,1005.6z"/>
		<path class="st36" d="M1585.3,950.8c-11-82.9-34-116.2-72-116.5c-38.2-0.3-60.2,48.9-60.5,110.2c-0.2,61.4,32.6,70.4,70.8,70.5
			C1561.8,1015.1,1590.3,1009.4,1585.3,950.8z"/>
		<path class="st37" d="M1585.5,954.6c-11.3-77.7-34.4-108.8-72.6-108.8s-60.1,45.9-60.1,103.5c0,57.5,33,65.8,71.1,65.8
			C1562.1,1015.1,1590.7,1009.5,1585.5,954.6z"/>
		
			<ellipse transform="matrix(0.681 -0.7323 0.7323 0.681 -82.7883 1366.2006)" class="st2" cx="1526.7" cy="778.1" rx="6.2" ry="8.5"/>
		<ellipse transform="matrix(0.5 -0.866 0.866 0.5 67.1861 1674.0928)" class="st2" cx="1483.4" cy="778.9" rx="8.5" ry="4.4"/>
		<ellipse transform="matrix(0.5 -0.866 0.866 0.5 67.2353 1674.1412)" class="st33" cx="1483.5" cy="778.8" rx="5.4" ry="2.9"/>
		
			<ellipse transform="matrix(0.843 -0.5379 0.5379 0.843 -179.0352 944.205)" class="st33" cx="1528" cy="778.8" rx="3.5" ry="4.8"/>
	</g>
</g>
</svg>
