<?xml version="1.0" encoding="utf-8"?>
<!-- Generator: Adobe Illustrator 24.0.3, SVG Export Plug-In . SVG Version: 6.00 Build 0)  -->
<svg version="1.1" id="Layer_1" xmlns="http://www.w3.org/2000/svg" xmlns:xlink="http://www.w3.org/1999/xlink" x="0px" y="0px"
	 viewBox="0 0 1700 1080" style="enable-background:new 0 0 1700 1080;" xml:space="preserve">
<style type="text/css">
	.st0{display:none;enable-background:new    ;}
	.st1{font-family:'GillSans';}
	.st2{font-size:80px;}
	.st3{display:none;}
	.st4{display:inline;fill:#C68456;stroke:#231F20;stroke-linecap:round;stroke-miterlimit:10;}
	.st5{display:inline;fill:#FBEDB0;stroke:#231F20;stroke-linecap:round;stroke-miterlimit:10;}
	.st6{fill:#C68456;stroke:#231F20;stroke-width:0.7634;stroke-linecap:round;stroke-miterlimit:10;}
	.st7{fill:#FBEDB0;stroke:#231F20;stroke-width:0.7634;stroke-linecap:round;stroke-miterlimit:10;}
	.st8{display:none;stroke:#000000;stroke-linejoin:round;}
	.st9{fill:#5B5B5B;}
	.st10{fill:#4453A3;stroke:#000000;stroke-width:1.5124;stroke-linecap:round;stroke-miterlimit:10;}
	.st11{fill:#F9EB18;stroke:#000000;stroke-width:1.5124;stroke-linecap:round;stroke-miterlimit:10;}
	.st12{fill:#848A8A;stroke:#000000;stroke-width:1.5124;stroke-linecap:round;stroke-miterlimit:10;}
	.st13{fill:#DA1F29;stroke:#000000;stroke-width:1.5124;stroke-linecap:round;stroke-miterlimit:10;}
	.st14{fill:#D1C9C2;stroke:#000000;stroke-width:1.5124;stroke-linecap:round;stroke-miterlimit:10;}
	.st15{fill:none;stroke:#000000;stroke-width:1.5124;stroke-linecap:round;stroke-miterlimit:10;}
	.st16{fill:#2A1B1B;stroke:#000000;stroke-width:1.5124;stroke-linecap:round;stroke-miterlimit:10;}
	.st17{fill:#DFCD85;stroke:#000000;stroke-width:1.5124;stroke-linecap:round;stroke-miterlimit:10;}
	.st18{fill:#FFFFFF;stroke:#000000;stroke-width:1.5124;stroke-linecap:round;stroke-miterlimit:10;}
	.st19{fill:#8C523D;stroke:#000000;stroke-width:1.5124;stroke-linecap:round;stroke-miterlimit:10;}
	.st20{fill:#25291D;stroke:#000000;stroke-width:1.5124;stroke-linecap:round;stroke-miterlimit:10;}
	.st21{fill:#FFFFFF;stroke:#000000;stroke-width:1.5123;stroke-linecap:round;stroke-miterlimit:9.9999;}
	.st22{fill:#DA1F29;}
	.st23{display:inline;fill:#4453A3;stroke:#000000;stroke-width:0.8;stroke-linecap:round;stroke-miterlimit:10;}
	.st24{display:inline;fill:#F9EB18;stroke:#000000;stroke-width:0.8;stroke-linecap:round;stroke-miterlimit:10;}
	.st25{display:inline;fill:#848A8A;stroke:#000000;stroke-width:0.8;stroke-linecap:round;stroke-miterlimit:10;}
	.st26{display:inline;fill:#DA1F29;stroke:#000000;stroke-width:0.8;stroke-linecap:round;stroke-miterlimit:10;}
	.st27{display:inline;fill:#D1C9C2;stroke:#000000;stroke-width:0.8;stroke-linecap:round;stroke-miterlimit:10;}
	.st28{display:inline;fill:none;stroke:#000000;stroke-width:0.8;stroke-linecap:round;stroke-miterlimit:10;}
	.st29{display:inline;fill:#2A1B1B;stroke:#000000;stroke-width:0.8;stroke-linecap:round;stroke-miterlimit:10;}
	.st30{display:inline;fill:#DFCD85;stroke:#000000;stroke-width:0.8;stroke-linecap:round;stroke-miterlimit:10;}
	.st31{display:inline;fill:#FFFFFF;stroke:#000000;stroke-width:0.8;stroke-linecap:round;stroke-miterlimit:10;}
	.st32{display:inline;fill:#8C523D;stroke:#000000;stroke-width:0.8;stroke-linecap:round;stroke-miterlimit:10;}
	.st33{display:inline;fill:#25291D;stroke:#000000;stroke-width:0.8;stroke-linecap:round;stroke-miterlimit:10;}
	.st34{display:inline;fill:#FFFFFF;stroke:#000000;stroke-width:0.8;stroke-linecap:round;stroke-miterlimit:9.9999;}
	.st35{display:inline;fill:#DA1F29;}
	.st36{display:none;opacity:0.7;fill:none;stroke:#000000;stroke-width:7;stroke-miterlimit:10;enable-background:new    ;}
	.st37{display:inline;}
</style>
<text transform="matrix(1 0 0 1 910.9834 648.498)" class="st0 st1 st2">LOGICALLY TRUE</text>
<g class="st3">
	<path class="st4" d="M1034.4,305.1l-52.9-9.1l45.7-9.1L973,273l49.5-1.6L990,257.2l46.6,6.2l-26.8-16.1l85.3,11l254.6,1.1
		l40.6-12.1l-14.4,15.8l45.8-4.9l-23,16.9l39.9-4.9c0,0-39.9,41.2-117.2,51.6c-53.2,6.2-106.9,7.7-160.3,4.5L1034.4,305.1z"/>
	<path class="st5" d="M1180.5,193.6c-28.5-40.7-60.7-67.4-90.3-53.5c-29.7,13.8-32.7,56.3-17.2,103.5c14.8,45.4,60.7,67.4,90.3,53.5
		C1193,283.2,1207.8,232.7,1180.5,193.6z"/>
	<path class="st5" d="M1367.5,259.1c14.3-46.3,4.9-95.1-12.9-101.5c-30-10.9-62.9,8.6-90.1,48.9c-26,38.6-15.5,86.9,12.9,101.5
		C1305.8,322.7,1353.8,303.6,1367.5,259.1z"/>
	<path class="st5" d="M1296.8,218.5c7.8-66.8-0.9-122.6-43.4-135.3s-83.8,27.7-110.4,89.4c-25.7,59.4,0.9,122.6,43.4,135.3
		C1228.9,320.6,1289.2,282.7,1296.8,218.5z"/>
	<path class="st4" d="M1007.6,261.7c0,0-11.8,39.1,51.9,53.3s123.5,40.3,183.5,24.6c62.4-16.3,143.1-17.5,183-60.5
		c0,0-24.1,10.2-37.4,11.2c0,0,17.6-18.7,15.5-28.9c0,0-33.7,23.6-56.7,25.1c0,0,19.2-14.8,24-32.6c0,0-53.5,39.1-72.8,40.1
		c0,0,19.7-18.7,19.3-28.3c0,0-34.2,36.9-51.3,38.5c4.4-9.7,5.4-20.7,2.7-31c0,0-10.9,17.4-26.8,21.1l-15.8,3.7
		c0,0-23.6,1.3-34.8-15.5c2.1,9.2,7.7,17.2,15.5,22.5c0,0-29.6-8.8-38-17.9c0,0,4.6,15.5,13.1,19.7c0,0-34.7-9.9-45.7-23.5
		c-2.2,5.4-1.9,11.5,0.8,16.8c0,0-40.1-20.6-51.1-32.4c0,0,8,29.6,21.4,38.8c0,0-47.9-14.8-54.2-38.8c0,0,0,27.8,6.7,33.2
		c0,0-34.5-18.5-38.8-46.8c0,0-4.9,28.6,1.3,35C1023.1,289.2,1007.3,265.7,1007.6,261.7z"/>
	<path class="st5" d="M1276.1,225c0.6,6.4-2.5,12.6-8,16.1"/>
	<path class="st5" d="M1340.7,250.9c1.9-3.4,3.5-7,4.9-10.6"/>
	<path class="st5" d="M1163.8,260.3c-1.5-3.6-3.3-7.1-5.3-10.5"/>
	<path class="st5" d="M1163.6,197.1c-7.8,7.3-12,17.6-11.4,28.2"/>
	<path class="st5" d="M1116.2,266.6c3.4,5.5,7.1,10.7,11.2,15.7"/>
	<path class="st5" d="M1300.3,272.5c-4.1,5-8,10.2-11.4,15.6"/>
</g>
<g>
	<path class="st6" d="M1209.6,221l-40.4-6.9l34.9-6.9l-41.4-10.6l37.8-1.2l-24.8-10.8l35.6,4.7l-20.5-12.3l65.1,8.4l194.4,0.8
		l31-9.2l-11,12.1l35-3.7l-17.6,12.9l30.5-3.7c0,0-30.5,31.5-89.5,39.4c-40.6,4.7-81.6,5.9-122.4,3.4L1209.6,221z"/>
	<path class="st7" d="M1321.1,135.9c-21.8-31.1-46.3-51.5-68.9-40.8c-22.7,10.5-25,43-13.1,79c11.3,34.7,46.3,51.5,68.9,40.8
		C1330.7,204.3,1341.9,165.8,1321.1,135.9z"/>
	<path class="st7" d="M1463.9,186c10.9-35.3,3.7-72.6-9.8-77.5c-22.9-8.3-48,6.6-68.8,37.3c-19.8,29.5-11.8,66.3,9.8,77.5
		C1416.8,234.5,1453.4,219.9,1463.9,186z"/>
	<path class="st7" d="M1409.9,155c6-51-0.7-93.6-33.1-103.3s-64,21.1-84.3,68.2c-19.6,45.3,0.7,93.6,33.1,103.3
		C1358.1,232.9,1404.1,203.9,1409.9,155z"/>
	<path class="st6" d="M1189.1,187.9c0,0-9,29.8,39.6,40.7c48.6,10.8,94.3,30.8,140.1,18.8c47.6-12.4,109.2-13.4,139.7-46.2
		c0,0-18.4,7.8-28.6,8.5c0,0,13.4-14.3,11.8-22.1c0,0-25.7,18-43.3,19.2c0,0,14.7-11.3,18.3-24.9c0,0-40.8,29.8-55.6,30.6
		c0,0,15-14.3,14.7-21.6c0,0-26.1,28.2-39.2,29.4c3.4-7.4,4.1-15.8,2.1-23.7c0,0-8.3,13.3-20.5,16.1l-12.1,2.8c0,0-18,1-26.6-11.8
		c1.6,7,5.9,13.1,11.8,17.2c0,0-22.6-6.7-29-13.7c0,0,3.5,11.8,10,15c0,0-26.5-7.6-34.9-17.9c-1.7,4.1-1.5,8.8,0.6,12.8
		c0,0-30.6-15.7-39-24.7c0,0,6.1,22.6,16.3,29.6c0,0-36.6-11.3-41.4-29.6c0,0,0,21.2,5.1,25.3c0,0-26.3-14.1-29.6-35.7
		c0,0-3.7,21.8,1,26.7C1201,208.9,1188.9,191,1189.1,187.9z"/>
	<path class="st7" d="M1394.1,159.9c0.5,4.9-1.9,9.6-6.1,12.3"/>
	<path class="st7" d="M1443.4,179.7c1.5-2.6,2.7-5.3,3.7-8.1"/>
	<path class="st7" d="M1308.4,186.8c-1.1-2.7-2.5-5.4-4-8"/>
	<path class="st7" d="M1308.2,138.6c-6,5.6-9.2,13.4-8.7,21.5"/>
	<path class="st7" d="M1272,191.6c2.6,4.2,5.4,8.2,8.5,12"/>
	<path class="st7" d="M1412.6,196.2c-3.1,3.8-6.1,7.8-8.7,11.9"/>
</g>
<path class="st8" d="M696.1,191.1c0,0,113.8-70.7,187.5-61.5c0,0-36.9-30.7-70.7-36.9c0,0,110.7,3.1,166,55.3
	c0,0-104.5,18.4-116.8,92.2c0,0,3.1-64.6,24.6-86.1C886.7,154.2,769.9,157.3,696.1,191.1z"/>
<path class="st9" d="M704.6,185.5c0,0,117-72.7,192.8-63.2c0,0-37.9-31.6-72.7-37.9c0,0,113.8,3.2,170.7,56.9
	c0,0-107.4,18.9-120.1,94.8c0,0,3.2-66.4,25.3-88.5C900.6,147.5,780.5,150.7,704.6,185.5z"/>
<g>
	<path class="st10" d="M1102.6,498.9c13.2-5.9,26.7-11,40.3-15.3c18.7-5.7,43.5-10.2,48.4-15.5c4.9-5.3,2.6,15.5-17.4,27.8
		c-15.7,8.5-32.5,14.6-49.9,18.1c0,0,63.1-6.4,68.1-6.8c4.9-0.4-17.6,47.6-78.1,34c0,0,73,6.8,53.9,31c0,0-10,12.3-45,4.7
		c0,0,41.6,42.2-20.4,25.7c0,0,26.8,52.2-26.8,15.5c0,0-3.4,40.1-26.1,8.9c0,0-7.4,25.5-25-1.3c0,0-19.8,40.5-30.2-2.5
		c0,0-13.6,31.2-32.7-2.3c0,0-10.6,32.5-25.9-2.3c-15.3-34.8,9.6-46.7,9.6-46.7L1102.6,498.9z"/>
	<path class="st11" d="M943.2,576.4c0,0,19.3,59.7,51.8,11.5c0,0,19.3,32.1,44.4-11.5c0,0,37.4,10.2,24.4-22.3c0,0,73-3.2,18.7-27.2
		c0,0,31.2,7.6,32.3-11.3c1.1-18.9-19.7-13.6-19.7-13.6l-56.1,16.4l-90.9,35.7L943.2,576.4z"/>
	<path class="st12" d="M880.2,672.8c0,0-13.6,12.1-6.4,24.4c7.2,12.3,3.8,21,25,24.4c21.2,3.4,28.7,5.5,42.2,3.4
		c13.4-2.1,4.7,13.6-4.9,14.9c-9.6,1.3-12.5-5.3-21.7-4.5c-5.7,0.6-11.3,1.5-17,3.2c5.1,4.5,10.4,8.5,16.3,12.1
		c8.1,4.7-3.6,15.7-14.7,9.8c-6.4-3.4-11.2-9.6-12.9-16.8c-3.8-3.8-9.1-5.3-14.2-4.5l-8.5,1.5c0,0-15.1,3.2-11.5-3.2
		s8.3-9.1,20.4-12.9c6.8-2.5-21-28.5-20.4-49C852.3,655.2,880.2,672.8,880.2,672.8z"/>
	<path class="st12" d="M798.8,682c1.3,12.5,3.4,25,6.2,37.2c3.6,12.3,4.2,15.7-14.9,17.4c-19.1,1.7-14.2,11.9,0,11.5l14.2-0.6
		c0,0,8.9-0.6,18.9,27.2c4,15.1,23.1,10.8,25.1,5.9c2.1-4.9-15.7-12.1-19.1-24.4c-3.4-12.3-2.3-10.2-2.3-10.2s22.5,23.3,42,16.1
		c11-2.5,26.5-7.2,2.8-13.6c-23.6-6.4-16.8,1.9-44.2-15.1c-27.6-16.8,0-57.7,0-57.7L798.8,682z"/>
	<path class="st13" d="M914.1,500.4c6.6-1.1,13.4,1.5,17.6,6.8c9.5,9.1,30.6,24.4,41.6,18.5c11-5.9,51.6-30.4,59.9-30.4
		c8.3,0,27.2,13,38.6,9.6c11.2-3.4,40.8-14.4,57.5-13.6c0,0-21.9,8.7-28.4,12.3c-6.2,3.6,2.6,16.8-40.8,15.7c0,0,4.7,16.4-24,11.5
		c0,0-19.7,40.5-28,15.9c0,0-16.6,42.9-32.3,9.5c0,0-6.8,26.5-27.2,16.3C927.9,562.4,914.1,500.4,914.1,500.4z"/>
	<path class="st13" d="M948.1,527.2c-12.5-17.8-15.3-10.8-23.1-21.7c-7.6-11,3.4-27.8,3.4-27.8l8.1-8.7c0,0,35.9-70.5-6.8-113.4
		s-92.3-11.7-92.3-11.7c-0.6-6.6,8.3-28.4,8.3-28.4c-11.9,4-28.5,34-28.5,34l-1.7-14.7c0,0-3.2,10.8-6,18.5
		c-2.8,7.8-47.6,45.6-24.2,94.5c19.8,41.2,21,47.1,20.8,47.6c13.6,17.6,2.1,40.1-16.8,49.5c-3.2,4.5-21.2,29.1-44,33.5
		c-25.1,4.7-10.2,51-10.2,51s-40.3,14.7-125.1,39.9c-84.9,25.1-41.6,32.5-41.6,32.5c-72,40.1-6.8,35.4-6.8,35.4
		c-30.4,21,31.8,13.6,31.8,13.6s-19.3,14.7-9.6,21.2s69.2-15.9,101.5-33.5c32.5-17.6,61.8-52.2,83-50.9
		c21.2,1.3,20.4,13.2,29.3,13.2c20.2-0.4,39.9-5.7,57.7-15.1c5.3,3.2,11.3,4.9,17.6,4.9l5.9-2.8c5.9-2.8,5.3-11,11.5-13.6
		c6.2-2.6,5.9,2.5,26.7-17C977.4,598.7,960.6,545,948.1,527.2z"/>
	<path class="st14" d="M914.1,396.6c0,0-16.4-37.1-36.5-39.9c-20-2.6-43.7,13.6-52.6,37.4c-9.1,23.6,3.4,45.9,19.7,45.9
		c0,0-10.2,79.2,75.1,24.8C1004.6,410.4,914.1,396.6,914.1,396.6z"/>
	<path class="st11" d="M1078.7,556c2.1,1.9,44,21.2,44,21.2"/>
	<line class="st15" x1="1067" y1="580.7" x2="1102.6" y2="602.8"/>
	<path class="st15" d="M1047,586.4c0,0,21.2,27.2,28.7,31.9"/>
	<path class="st15" d="M1039.6,594.7c0,0,6.2,27.2,10,32.5"/>
	<path class="st15" d="M1023,605.3c0,0,0,17,2.1,20.4"/>
	<path class="st15" d="M995.7,602.8c-1.1,6.8-1.5,13.6-1.5,20.4"/>
	<path class="st15" d="M960.4,603c-0.8,6.2-0.4,12.5,1.3,18.5"/>
	<path class="st10" d="M637.3,460.9c-12.1-7.9-24.4-15.1-37.2-21.6c-17.8-8.5-41.2-17.2-45.2-23.1c-4-5.9-5.1,14.6,12.5,30.2
		c14.2,10.8,29.7,19.7,46.3,25.9c0,0-60.9-16.4-66-17.6c-5.1-1.1,9.8,49.9,71.5,46.3c0,0-73-5.1-58,21.9c0,0,7.8,13.6,43.7,11.7
		c0,0-47.6,35,15.7,28.7c0,0-35,47.1,24,19.7c0,0-3.2,40.1,24.4,12.9c0,0,3.2,26.5,24.8,2.8c0,0,12.9,43.3,30.2,2.3
		c0,0,8.3,33.1,32.5,3.2c0,0,5.1,34,25.9,1.9s-1.9-47.6-1.9-47.6L637.3,460.9z"/>
	<path class="st11" d="M646.8,470.7c0,0-19.7-15.7-26.5-3.4c-6.6,12.3,2.8,20.4,21.9,24c0,0-16.8-1.1-17.6,8.7s8.3,20,32.3,21.6
		c0,0-11.7,13.6,0,24c11.7,10.4,21.2,4.3,21.2,4.3s9.3,38.2,26.7,28c13.6-8.1,14.6-10.6,14.6-10.6c0.4-2.6,8.7,39.1,45.9,16.8
		c0,0,7.6-2.5,7.4-14.6c0,0,15.1,27.2,16.6-13.2l1.5-40.8l-5.5,11.3L646.8,470.7z"/>
	<path class="st13" d="M806.1,495.8L806.1,495.8c-1.1,1.7-2.6,3-4.3,4c-40.8,21.7-42.2,12.9-54.4,5.3c-12.3-7.6-42.5-37.8-51.2-35.5
		c-32.9,9.6-42-0.8-62.4-13.6c-20.4-12.9-24.4-8.1-24.4-8.1c8.7,5.5,16.8,11.5,24.6,18.3c19.3,25.3,36.7,20.4,36.7,20.4
		c-2.5,18.9,21.9,16.4,21.9,16.4c0.6,38.6,23.8,21,23.8,21c17,50.3,29.3,15.5,29.3,15.5c10.6,34.6,32.5-4,32.5-4
		c0.8,8.5,11.7,9.1,11.7,9.1S827.9,525.7,806.1,495.8z"/>
	<path class="st16" d="M920.9,432.5c0,0-14.2,19.7-7.4,34.6c6.6,14.9,32.5,35,61.6,0C974.9,466.9,970.2,424.2,920.9,432.5z"/>
	<path class="st17" d="M920.1,432.7c0,0-19.3-49.7-4.2-63.9c15.1-14.2,42-26.1,78.6,14.7c36.7,40.8-1.5,91.1-16.8,101.5
		C977.8,485.3,978.9,421.7,920.1,432.7z"/>
	<path class="st18" d="M856.2,428c0,0-28.4-33.3,3-48.6c26.7-9.3,35,33.5,25.9,41.6C875.1,421.2,865.3,423.6,856.2,428z"/>
	<path class="st15" d="M847.7,432.7c14.4-8.7,31-12.7,47.6-11.2"/>
	<ellipse class="st19" cx="865.1" cy="409.6" rx="15.7" ry="13.6"/>
	<ellipse class="st20" cx="865.9" cy="411.5" rx="10.2" ry="11"/>
	<ellipse transform="matrix(0.753 -0.658 0.658 0.753 -51.6884 665.2798)" class="st21" cx="860.3" cy="401.5" rx="6.8" ry="8.9"/>
	<path class="st10" d="M748.5,629.5c0,0-5.3-5.1-25,3.4l-19.7,8.3l0,0c-3,0-30.1,3.8-31.2,7.9c-1.1,4.2,20.4,10.8,29.5,10.4
		c9.1-0.4,45.2-18,49.3-20.4C755.7,636.7,748.5,629.5,748.5,629.5z"/>
	<path class="st10" d="M764.2,635.2c0,0-7.9-3.8-25.1,1.7S697.8,658,689.9,669c-7.9,10.8-21.2,19.1-11.2,21.6
		c10,2.5,51.2-16.3,59.4-21.2C746.2,664.3,768.5,645.4,764.2,635.2z"/>
	<path class="st10" d="M771,640.3c0,0-9.6-7.4-28.7,3.4c-19.1,10.8-61.3,48.8-63.5,56c-2.3,7.2-2.3,4.5-2.3,6.8
		c0,2.3,1.7,25.3,29.7,8.7C733.9,698.5,771,640.3,771,640.3z"/>
	<path class="st10" d="M705.9,719.3c0,0,25.3-0.9,36.7-8.9c11.3-7.9,24.6-35.9,28.4-46.3c2.1-7.8,2.1-16.1,0-23.8
		c0,0-44.6,38.8-51.2,48.4l-6.8,9.6l0,0C712.9,698.3,696.9,714.6,705.9,719.3z"/>
	<path class="st11" d="M651.5,520.8c-2.5,1.7-46.9,13.6-46.9,13.6"/>
	<line class="st15" x1="659.4" y1="547.3" x2="620.5" y2="563.3"/>
	<path class="st15" d="M678,556c0,0-25.3,23.3-33.7,27.2"/>
	<path class="st15" d="M684,565.4c0,0-10.6,26.3-15.3,30.4"/>
	<path class="st15" d="M698.9,578.8c0,0-2.5,16.8-5.3,20"/>
	<path class="st15" d="M725.8,580.5c0,6.8-0.8,13.6-1.9,20.4"/>
	<path class="st15" d="M760.9,586.6c-0.2,6-1.9,12.1-4.5,17.6"/>
	<path class="st15" d="M642.4,491.1c0,0,23.3,1.1,26.5-0.8"/>
	<path class="st15" d="M657,521.4c11.9-1.7,23.6-4.3,35.2-7.6"/>
	<path class="st15" d="M678.1,549.7c0,0,34.4-13.6,39.9-20.4"/>
	<path class="st15" d="M719.4,566.9c5.7-4.2,10.2-9.6,13.2-16.1"/>
	<path class="st15" d="M772.9,569.4c-0.9-6.8-2.8-13.4-5.5-19.7"/>
	<path class="st15" d="M568.3,702.1c0,0,93.6-17,121.6-33.5"/>
	<path class="st15" d="M561.5,737.3c0,0,105.3-34,122.7-45"/>
	<path class="st15" d="M593.1,751.4c30.6-7.2,60.3-18,88.7-32.1"/>
	<path class="st11" d="M994.8,587.7c1.3-7,1.1-14.4-0.6-21.4"/>
	<path class="st11" d="M1039.4,576.4c0,0-1.7-28.5-8.5-36.9"/>
	<path class="st11" d="M1064,554.1c-3.4-8.3-8.1-16.1-14-22.7"/>
	<line class="st15" x1="1082.5" y1="526.8" x2="1059.8" y2="519.1"/>
	<path class="st15" d="M897.3,738.4c0,0-5.1-3.4-4.5-7.9"/>
	<line class="st15" x1="826.9" y1="745.8" x2="823.3" y2="737.4"/>
	<path class="st15" d="M885.9,743.5c0,0-6.8-7.9-5.3-11.9"/>
	<path class="st15" d="M855.1,686.2c7.8-4.2,14.6-10.2,19.7-17.4"/>
	<path class="st15" d="M826.9,473.2c0,0,4.5,14.2,33.5,18.3"/>
	<path class="st15" d="M899.7,491.3c7.9,0.4,15.7,0,23.4-1.1"/>
	<ellipse class="st22" cx="822" cy="505.7" rx="17" ry="13.6"/>
</g>
<g class="st3">
	<path class="st23" d="M556.4,811.6c7-3.1,14.1-5.8,21.3-8.1c9.9-3,23-5.4,25.6-8.2s1.4,8.2-9.2,14.7c-8.3,4.5-17.2,7.7-26.4,9.6
		c0,0,33.4-3.4,36-3.6c2.6-0.2-9.3,25.2-41.3,18c0,0,38.6,3.6,28.5,16.4c0,0-5.3,6.5-23.8,2.5c0,0,22,22.3-10.8,13.6
		c0,0,14.2,27.6-14.2,8.2c0,0-1.8,21.2-13.8,4.7c0,0-3.9,13.5-13.2-0.7c0,0-10.5,21.4-16-1.3c0,0-7.2,16.5-17.3-1.2
		c0,0-5.6,17.2-13.7-1.2s5.1-24.7,5.1-24.7L556.4,811.6z"/>
	<path class="st24" d="M472,852.6c0,0,10.2,31.6,27.4,6.1c0,0,10.2,17,23.5-6.1c0,0,19.8,5.4,12.9-11.8c0,0,38.6-1.7,9.9-14.4
		c0,0,16.5,4,17.1-6c0.5-10-10.4-7.2-10.4-7.2l-29.7,8.7l-48.1,18.9L472,852.6z"/>
	<path class="st25" d="M438.8,903.6c0,0-7.2,6.4-3.4,12.9c3.8,6.5,2,11.1,13.2,12.9c11.2,1.8,15.2,2.9,22.3,1.8
		c7.1-1.1,2.5,7.2-2.6,7.9s-6.6-2.8-11.5-2.4c-3,0.3-6,0.8-9,1.7c2.7,2.4,5.5,4.5,8.6,6.4c4.3,2.5-1.9,8.3-7.8,5.2
		c-3.4-1.8-5.9-5.1-6.8-8.9c-2-2-4.8-2.8-7.5-2.4l-4.5,0.8c0,0-8,1.7-6.1-1.7s4.4-4.8,10.8-6.8c3.6-1.3-11.1-15.1-10.8-25.9
		C424,894.3,438.8,903.6,438.8,903.6z"/>
	<path class="st25" d="M395.7,908.5c0.7,6.6,1.8,13.2,3.3,19.7c1.9,6.5,2.2,8.3-7.9,9.2c-10.1,0.8-7.5,6.3,0,6.1l7.5-0.3
		c0,0,4.7-0.3,10,14.4c2.1,8,12.2,5.7,13.3,3.1c1.1-2.6-8.3-6.4-10.1-12.9s-1.2-5.4-1.2-5.4s11.9,12.3,22.2,8.5
		c5.8-1.3,14-3.8,1.5-7.2s-8.9,1-23.4-8c-14.6-8.9,0-30.5,0-30.5L395.7,908.5z"/>
	<path class="st26" d="M456.6,812.4c3.5-0.6,7.1,0.8,9.3,3.6c5,4.8,16.2,12.9,22,9.8c5.8-3,27.3-16.1,31.7-16.1
		c4.4,0,14.4,6.9,20.4,5.1c5.9-1.8,21.6-7.6,30.4-7.2c0,0-11.6,4.6-15,6.5c-3.3,1.9,1.4,8.9-21.6,8.3c0,0,2.5,8.7-12.7,6.1
		c0,0-10.4,21.4-14.8,8.4c0,0-8.8,22.7-17.1,5c0,0-3.6,14-14.4,8.6C464,845.2,456.6,812.4,456.6,812.4z"/>
	<path class="st26" d="M474.7,826.6c-6.6-9.4-8.1-5.7-12.2-11.5c-4-5.8,1.8-14.7,1.8-14.7l4.3-4.6c0,0,19-37.3-3.6-60
		s-48.8-6.2-48.8-6.2c-0.3-3.5,4.4-15,4.4-15c-6.3,2.1-15.1,18-15.1,18l-0.9-7.8c0,0-1.7,5.7-3.2,9.8s-25.2,24.1-12.8,50
		c10.5,21.8,11.1,24.9,11,25.2c7.2,9.3,1.1,21.2-8.9,26.2c-1.7,2.4-11.2,15.4-23.3,17.7c-13.3,2.5-5.4,27-5.4,27
		s-21.3,7.8-66.2,21.1s-22,17.2-22,17.2c-38.1,21.2-3.6,18.7-3.6,18.7c-16.1,11.1,16.8,7.2,16.8,7.2s-10.2,7.8-5.1,11.2
		c5.1,3.5,36.6-8.4,53.7-17.7c17.2-9.3,32.7-27.6,43.9-26.9c11.2,0.7,10.8,7,15.5,7c10.7-0.2,21.1-3,30.5-8c2.8,1.7,6,2.6,9.3,2.6
		l3.1-1.5c3.1-1.5,2.8-5.8,6.1-7.2c3.3-1.4,3.1,1.3,14.1-9C490.2,864.4,481.3,836,474.7,826.6z"/>
	<path class="st27" d="M456.6,757.5c0,0-8.7-19.6-19.3-21.1c-10.6-1.4-23.1,7.2-27.8,19.8c-4.8,12.5,1.8,24.3,10.4,24.3
		c0,0-5.4,41.9,39.7,13.1S456.6,757.5,456.6,757.5z"/>
	<path class="st24" d="M543.8,841.8c1.1,1,23.3,11.2,23.3,11.2"/>
	<line class="st28" x1="537.5" y1="854.9" x2="556.4" y2="866.6"/>
	<path class="st28" d="M527,857.9c0,0,11.2,14.4,15.2,16.9"/>
	<path class="st28" d="M523.1,862.3c0,0,3.3,14.4,5.3,17.2"/>
	<path class="st28" d="M514.3,867.9c0,0,0,9,1.1,10.8"/>
	<path class="st28" d="M499.9,866.6c-0.6,3.6-0.8,7.2-0.8,10.8"/>
	<path class="st28" d="M481.1,866.7c-0.4,3.3-0.2,6.6,0.7,9.8"/>
	<path class="st23" d="M310.3,791.5c-6.4-4.2-12.9-8-19.7-11.4c-9.4-4.5-21.8-9.1-23.9-12.2c-2.1-3.1-2.7,7.7,6.6,16
		c7.5,5.7,15.7,10.4,24.5,13.7c0,0-32.2-8.7-34.9-9.3c-2.7-0.6,5.2,26.4,37.8,24.5c0,0-38.6-2.7-30.7,11.6c0,0,4.1,7.2,23.1,6.2
		c0,0-25.2,18.5,8.3,15.2c0,0-18.5,24.9,12.7,10.4c0,0-1.7,21.2,12.9,6.8c0,0,1.7,14,13.1,1.5c0,0,6.8,22.9,16,1.2
		c0,0,4.4,17.5,17.2,1.7c0,0,2.7,18,13.7,1s-1-25.2-1-25.2L310.3,791.5z"/>
	<path class="st24" d="M315.3,796.7c0,0-10.4-8.3-14-1.8c-3.5,6.5,1.5,10.8,11.6,12.7c0,0-8.9-0.6-9.3,4.6s4.4,10.6,17.1,11.4
		c0,0-6.2,7.2,0,12.7s11.2,2.3,11.2,2.3s4.9,20.2,14.1,14.8c7.2-4.3,7.7-5.6,7.7-5.6c0.2-1.4,4.6,20.7,24.3,8.9c0,0,4-1.3,3.9-7.7
		c0,0,8,14.4,8.8-7l0.8-21.6l-2.9,6L315.3,796.7z"/>
	<path class="st26" d="M399.6,810L399.6,810c-0.6,0.9-1.4,1.6-2.3,2.1c-21.6,11.5-22.3,6.8-28.8,2.8s-22.5-20-27.1-18.8
		c-17.4,5.1-22.2-0.4-33-7.2s-12.9-4.3-12.9-4.3c4.6,2.9,8.9,6.1,13,9.7c10.2,13.4,19.4,10.8,19.4,10.8c-1.3,10,11.6,8.7,11.6,8.7
		c0.3,20.4,12.6,11.1,12.6,11.1c9,26.6,15.5,8.2,15.5,8.2c5.6,18.3,17.2-2.1,17.2-2.1c0.4,4.5,6.2,4.8,6.2,4.8S411,825.8,399.6,810z
		"/>
	<path class="st29" d="M460.2,776.5c0,0-7.5,10.4-3.9,18.3c3.5,7.9,17.2,18.5,32.6,0C488.8,794.7,486.3,772.1,460.2,776.5z"/>
	<path class="st30" d="M459.9,776.6c0,0-10.2-26.3-2.2-33.8s22.2-13.8,41.6,7.8c19.4,21.6-0.8,48.2-8.9,53.7
		C490.4,804.4,491,770.8,459.9,776.6z"/>
	<path class="st31" d="M426.1,774.1c0,0-15-17.6,1.6-25.7c14.1-4.9,18.5,17.7,13.7,22C436,770.5,430.8,771.8,426.1,774.1z"/>
	<path class="st28" d="M421.6,776.6c7.6-4.6,16.4-6.7,25.2-5.9"/>
	<ellipse class="st32" cx="430.8" cy="764.4" rx="8.3" ry="7.2"/>
	<ellipse class="st33" cx="431.2" cy="765.4" rx="5.4" ry="5.8"/>
	<ellipse transform="matrix(0.753 -0.658 0.658 0.753 -394.3551 469.5422)" class="st34" cx="428.3" cy="760.1" rx="3.6" ry="4.7"/>
	<path class="st23" d="M369.1,880.7c0,0-2.8-2.7-13.2,1.8l-10.4,4.4l0,0c-1.6,0-15.9,2-16.5,4.2s10.8,5.7,15.6,5.5
		s23.9-9.5,26.1-10.8C372.9,884.5,369.1,880.7,369.1,880.7z"/>
	<path class="st23" d="M377.3,883.7c0,0-4.2-2-13.3,0.9c-9.1,2.9-21.8,11.2-26,17c-4.2,5.7-11.2,10.1-5.9,11.4
		c5.3,1.3,27.1-8.6,31.4-11.2C367.9,899.1,379.7,889.1,377.3,883.7z"/>
	<path class="st23" d="M380.9,886.4c0,0-5.1-3.9-15.2,1.8s-32.4,25.8-33.6,29.6s-1.2,2.4-1.2,3.6c0,1.2,0.9,13.4,15.7,4.6
		C361.3,917.2,380.9,886.4,380.9,886.4z"/>
	<path class="st23" d="M346.6,928.2c0,0,13.4-0.5,19.4-4.7s13-19,15-24.5c1.1-4.1,1.1-8.5,0-12.6c0,0-23.6,20.5-27.1,25.6l-3.6,5.1
		l0,0C350.3,917.1,341.8,925.7,346.6,928.2z"/>
	<path class="st24" d="M317.8,823.2c-1.3,0.9-24.8,7.2-24.8,7.2"/>
	<line class="st28" x1="321.9" y1="837.2" x2="301.3" y2="845.7"/>
	<path class="st28" d="M331.8,841.8c0,0-13.4,12.3-17.8,14.4"/>
	<path class="st28" d="M335,846.8c0,0-5.6,13.9-8.1,16.1"/>
	<path class="st28" d="M342.9,853.9c0,0-1.3,8.9-2.8,10.6"/>
	<path class="st28" d="M357,854.8c0,3.6-0.4,7.2-1,10.8"/>
	<path class="st28" d="M375.6,858c-0.1,3.2-1,6.4-2.4,9.3"/>
	<path class="st28" d="M313,807.5c0,0,12.3,0.6,14-0.4"/>
	<path class="st28" d="M320.7,823.5c6.3-0.9,12.5-2.3,18.6-4"/>
	<path class="st28" d="M331.9,838.5c0,0,18.2-7.2,21.1-10.8"/>
	<path class="st28" d="M353.7,847.6c3-2.2,5.4-5.1,7-8.5"/>
	<path class="st28" d="M381.9,848.9c-0.5-3.6-1.5-7.1-2.9-10.4"/>
	<path class="st28" d="M273.7,919.1c0,0,49.5-9,64.3-17.7"/>
	<path class="st28" d="M270.1,937.7c0,0,55.7-18,64.9-23.8"/>
	<path class="st28" d="M286.9,945.2c16.2-3.8,31.9-9.5,46.9-17"/>
	<path class="st24" d="M499.4,858.6c0.7-3.7,0.6-7.6-0.3-11.3"/>
	<path class="st24" d="M522.9,852.6c0,0-0.9-15.1-4.5-19.5"/>
	<path class="st24" d="M535.9,840.8c-1.8-4.4-4.3-8.5-7.4-12"/>
	<line class="st28" x1="545.8" y1="826.4" x2="533.8" y2="822.3"/>
	<path class="st28" d="M447.8,938.3c0,0-2.7-1.8-2.4-4.2"/>
	<line class="st28" x1="410.5" y1="942.2" x2="408.7" y2="937.8"/>
	<path class="st28" d="M441.8,941c0,0-3.6-4.2-2.8-6.3"/>
	<path class="st28" d="M425.5,910.7c4.1-2.2,7.7-5.4,10.4-9.2"/>
	<path class="st28" d="M410.5,798c0,0,2.4,7.5,17.7,9.7"/>
	<path class="st28" d="M449,807.6c4.2,0.2,8.3,0,12.4-0.6"/>
	<ellipse class="st35" cx="408" cy="815.2" rx="9" ry="7.2"/>
</g>
<path class="st3" d="M751,478v-17.1h147V478H751z M751,533.8v-17.2h147v17.1L751,533.8z"/>
<line class="st36" x1="96" y1="660.1" x2="1583" y2="660.1"/>
<g>
	<path d="M274,90.7c0,0,17.9-16.8,26.7,0l8.6,3.5c0,0-15,1.7-20.8,8.6c0,0-1.2,16.2-19.5,20.9s-48.4,3.7-48.4,3.7l31.8-19.1
		l-11.3-5.8l8.4-1.1l-9.2-5.5l7.8-0.6c0,0-18.3-17.7-18.3-26.4C229.9,68.9,267.8,91.5,274,90.7z"/>
	<path d="M507.9,92.6c0,0-17.9-21-26.7,0l-8.6,4.4c0,0,15,2,20.8,10.8c0,0,1.2,20.2,19.5,26.1c18.3,5.9,48.4,4.6,48.4,4.6
		l-31.9-23.9l11.3-7.2l-8.4-1.3l9.2-6.9l-7.8-0.8c0,0,18.3-22,18.3-33C552.1,65.5,514.1,93.6,507.9,92.6z"/>
	<path d="M379.7,83.1c0,0-6-12.1,6.6-15.8l2.7-8.2l3.1,8.4c0,0,11.7,3.5,6.6,15.6c0,0,14.2-7.6,21.7-5.8c7.6,1.8,12.5,8.4,25,10.7
		c12.5,2.3,12.5,2.3,12.5,2.3s-5.3,4.6-14.8,5.8c0,0,3.7,3,5.8,2.2c2.1-0.8-10.1,3.9-16,4.8c0,0,3.3,3.3,5.2,3.1
		c1.8-0.2-11.3,1.8-14.2,1.8c0,0-1.4,2.3,1.8,2.6c3.3,0.4-14.4,5.5-24.4,4.9c0,0-2,4.3-2.6,4.9c-0.6,0.6,6,23.8,6,23.8
		s-3.9,3.5-7.4-1.2c0,0,0.8,16.5-9,13c-9.9-3.5-6.1-13.1-6.1-13.1s-6.6,4.3-8.4,1.8c-1.8-2.5,6.7-24.3,6.7-24.3s-3.7-3.7-3.1-4.9
		c0,0-11.5,0.2-15.4-2.5c-3.9-2.6,0-2.6,0-2.6s-14.5,0.3-8.8-2.6c5.8-2.9-18.5-3.9-8.6-6.2s-24.3-3.9-9.5-6c0,0-12.1-2.6-14.8-6.1
		c0,0,18.6-1.7,37.7-11.5C357.9,77.9,363.7,74.5,379.7,83.1z"/>
	<path d="M396.5,201.5c0,0,3.3-10.1,9.9-10.2s9.2-0.4,11.7,5.2l8.6,3.3l-9.5,1.8c0,0-0.6,4.9-2.9,8c0,0,0.4,15.4-19.5,24.6l-1.4,3.9
		l3.1,6.7l-5.8-5.3v-4.3h-1.8l-2.5,4.9l2.5,4.7l-5.3-4.1v-4.6c0,0-6.1,0-11.3-1.7l-30.6,14.4c0,0,20.9-26.4,37.7-36.9
		C396.5,201.5,396.5,201.5,396.5,201.5z"/>
	<path d="M434.4,235.3c0,0,4.8-6.6,7.8-6.7c0,0,1.1-10.8,14.8-7.3c13.7,3.6,14.3,2.5,14.3,2.5s-5.2-24.1-23.1-34
		c0,0,22.6,11.9,24.6,13.6l-2.1-6.6l13.4,13.9v-5.5l10.4,13.9c0,0,46.2-10.5,56.1-22.1c0,0-8.6,16.5-14.5,20.5c0,0,5.8,1.2,8.9-1.8
		c0,0-5.3,8.2-10.4,10.5c0,0,5.5,0.7,8-0.7c0,0-13.6,8-16.1,8.3c0,0,17.8,14.4,23.6,29.2c0,0-18.3-12.2-33.8-12.9
		c0,0-25.5,13.9-47.5,0c0,0-9.9-8.9-16.3-10.7c0,0-7.8,1.8-9.5-5.3L434.4,235.3z"/>
	<path d="M225.8,185.4c0,0,7.4-3.2,10.2-1.8c0,0,6.4-8.8,16.4,1.2c10,10,11,9.4,11,9.4s7.7-23.4-2.7-41c0,0,13.4,21.7,14.3,24.1
		l1.5-6.7l4.5,18.8l2.8-4.7l1.9,17.3c0,0,45.2,14.4,59.5,9.5c0,0-15.8,9.9-22.9,10.3c0,0,4.3,3.9,8.6,3c0,0-8.8,4.4-14.3,3.9
		c0,0,4.4,3.3,7.2,3.4c0,0-15.7,0-18.1-1c0,0,8.1,21.4,5.6,37.1c0,0-9.6-19.8-22.6-28.2c0,0-29-0.9-41-24.1c0,0-4-12.7-8.7-17.4
		c0,0-7.6-2.5-5.5-9.5L225.8,185.4z"/>
</g>
<g class="st3">
	<path class="st37" d="M482,432.3c0,0,20.4-19.2,30.5,0l9.8,4c0,0-17.1,1.9-23.7,9.8c0,0-1.4,18.5-22.3,23.9s-55.3,4.2-55.3,4.2
		l36.3-21.8l-12.9-6.6l9.6-1.2l-10.5-6.3l8.9-0.7c0,0-20.9-20.2-20.9-30.2C431.6,407.5,475,433.3,482,432.3z"/>
	<path class="st37" d="M749.3,434.5c0,0-20.4-24-30.5,0l-9.8,5c0,0,17.1,2.3,23.7,12.3c0,0,1.4,23.1,22.3,29.8s55.3,5.3,55.3,5.3
		L774,459.7l12.9-8.2l-9.6-1.5l10.5-7.9l-8.9-0.9c0,0,20.9-25.1,20.9-37.7C799.7,403.6,756.3,435.7,749.3,434.5z"/>
	<path class="st37" d="M602.8,423.7c0,0-6.8-13.8,7.5-18l3.1-9.4l3.5,9.6c0,0,13.4,4,7.5,17.8c0,0,16.2-8.7,24.8-6.6
		c8.7,2.1,14.3,9.6,28.6,12.2c14.3,2.6,14.3,2.6,14.3,2.6s-6.1,5.2-16.9,6.6c0,0,4.2,3.4,6.6,2.5c2.3-0.9-11.5,4.5-18.3,5.5
		c0,0,3.8,3.8,5.9,3.5s-12.9,2.1-16.2,2.1c0,0-1.6,2.6,2.1,3c3.8,0.5-16.4,6.3-27.9,5.6c0,0-2.3,4.9-3,5.6s6.8,27.2,6.8,27.2
		s-4.5,4-8.4-1.4c0,0,0.9,18.8-10.3,14.8s-7-15-7-15s-7.5,4.9-9.6,2.1s7.7-27.7,7.7-27.7s-4.2-4.2-3.5-5.6c0,0-13.1,0.2-17.6-2.8
		s0-3,0-3s-16.6,0.3-10.1-3c6.6-3.3-21.1-4.5-9.8-7.1s-27.7-4.5-10.8-6.8c0,0-13.8-3-16.9-7c0,0,21.3-1.9,43.1-13.1
		C577.9,417.8,584.5,413.8,602.8,423.7z"/>
	<path class="st37" d="M622,558.9c0,0,3.8-11.5,11.3-11.7s10.5-0.5,13.4,5.9l9.8,3.8l-10.8,2.1c0,0-0.7,5.6-3.3,9.1
		c0,0,0.5,17.6-22.3,28.1l-1.6,4.5l3.5,7.7l-6.6-6.1v-4.9h-2.1l-2.9,5.6l2.9,5.4l-6-4.7v-5.2c0,0-7,0-12.9-1.9L559.5,613
		c0,0,23.9-30.2,43.1-42.2C622,558.9,622,558.9,622,558.9z"/>
	<path class="st37" d="M665.3,597.6c0,0,5.5-7.5,8.9-7.7c0,0,1.3-12.3,16.9-8.3c15.6,4.1,16.3,2.8,16.3,2.8s-5.9-27.5-26.4-38.8
		c0,0,25.8,13.6,28.1,15.5l-2.4-7.5l15.3,15.9v-6.3l11.9,15.9c0,0,52.8-12,64.1-25.2c0,0-9.8,18.9-16.6,23.4c0,0,6.6,1.4,10.2-2
		c0,0-6.1,9.4-11.9,12c0,0,6.3,0.8,9.1-0.8c0,0-15.5,9.1-18.4,9.5c0,0,20.3,16.4,27,33.3c0,0-20.9-13.9-38.6-14.7
		c0,0-29.1,15.9-54.2,0c0,0-11.3-10.2-18.6-12.2c0,0-8.9,2-10.9-6.1L665.3,597.6z"/>
	<path class="st37" d="M427,540.5c0,0,8.5-3.7,11.6-2.1c0,0,7.3-10,18.7,1.4c11.4,11.4,12.6,10.7,12.6,10.7s8.8-26.7-3.1-46.8
		c0,0,15.3,24.8,16.3,27.5l1.7-7.7l5.1,21.5l3.2-5.4l2.2,19.8c0,0,51.6,16.4,68,10.8c0,0-18.1,11.3-26.2,11.8c0,0,4.9,4.5,9.8,3.4
		c0,0-10,5-16.3,4.4c0,0,5,3.8,8.2,3.9c0,0-17.9,0-20.7-1.1c0,0,9.2,24.4,6.4,42.4c0,0-11-22.6-25.8-32.2c0,0-33.1-1-46.8-27.5
		c0,0-4.6-14.5-9.9-19.9c0,0-8.7-2.8-6.3-10.8L427,540.5z"/>
</g>
</svg>
