<?xml version="1.0" encoding="utf-8"?>
<!-- Generator: Adobe Illustrator 24.0.3, SVG Export Plug-In . SVG Version: 6.00 Build 0)  -->
<svg version="1.1" id="Layer_1" xmlns="http://www.w3.org/2000/svg" xmlns:xlink="http://www.w3.org/1999/xlink" x="0px" y="0px"
	 viewBox="0 0 1700 1080" style="enable-background:new 0 0 1700 1080;" xml:space="preserve">
<style type="text/css">
	.st0{display:none;enable-background:new    ;}
	.st1{font-family:'GillSans';}
	.st2{font-size:80px;}
	.st3{display:none;}
	.st4{display:inline;fill:#C68456;stroke:#231F20;stroke-linecap:round;stroke-miterlimit:10;}
	.st5{display:inline;fill:#FBEDB0;stroke:#231F20;stroke-linecap:round;stroke-miterlimit:10;}
	.st6{fill:#C68456;stroke:#231F20;stroke-width:0.6864;stroke-linecap:round;stroke-miterlimit:10;}
	.st7{fill:#FBEDB0;stroke:#231F20;stroke-width:0.6864;stroke-linecap:round;stroke-miterlimit:10;}
	.st8{display:none;stroke:#000000;stroke-linejoin:round;}
	.st9{fill:#5B5B5B;}
	.st10{fill:#4453A3;stroke:#000000;stroke-width:0.7443;stroke-linecap:round;stroke-miterlimit:10;}
	.st11{fill:#F9EB18;stroke:#000000;stroke-width:0.7443;stroke-linecap:round;stroke-miterlimit:10;}
	.st12{fill:#848A8A;stroke:#000000;stroke-width:0.7443;stroke-linecap:round;stroke-miterlimit:10;}
	.st13{fill:#DA1F29;stroke:#000000;stroke-width:0.7443;stroke-linecap:round;stroke-miterlimit:10;}
	.st14{fill:#D1C9C2;stroke:#000000;stroke-width:0.7443;stroke-linecap:round;stroke-miterlimit:10;}
	.st15{fill:none;stroke:#000000;stroke-width:0.7443;stroke-linecap:round;stroke-miterlimit:10;}
	.st16{fill:#2A1B1B;stroke:#000000;stroke-width:0.7443;stroke-linecap:round;stroke-miterlimit:10;}
	.st17{fill:#DFCD85;stroke:#000000;stroke-width:0.7443;stroke-linecap:round;stroke-miterlimit:10;}
	.st18{fill:#FFFFFF;stroke:#000000;stroke-width:0.7443;stroke-linecap:round;stroke-miterlimit:10;}
	.st19{fill:#8C523D;stroke:#000000;stroke-width:0.7443;stroke-linecap:round;stroke-miterlimit:10;}
	.st20{fill:#25291D;stroke:#000000;stroke-width:0.7443;stroke-linecap:round;stroke-miterlimit:10;}
	.st21{fill:#FFFFFF;stroke:#000000;stroke-width:0.7443;stroke-linecap:round;stroke-miterlimit:9.9999;}
	.st22{fill:#DA1F29;}
	.st23{display:inline;fill:#4453A3;stroke:#000000;stroke-width:0.8;stroke-linecap:round;stroke-miterlimit:10;}
	.st24{display:inline;fill:#F9EB18;stroke:#000000;stroke-width:0.8;stroke-linecap:round;stroke-miterlimit:10;}
	.st25{display:inline;fill:#848A8A;stroke:#000000;stroke-width:0.8;stroke-linecap:round;stroke-miterlimit:10;}
	.st26{display:inline;fill:#DA1F29;stroke:#000000;stroke-width:0.8;stroke-linecap:round;stroke-miterlimit:10;}
	.st27{display:inline;fill:#D1C9C2;stroke:#000000;stroke-width:0.8;stroke-linecap:round;stroke-miterlimit:10;}
	.st28{display:inline;fill:none;stroke:#000000;stroke-width:0.8;stroke-linecap:round;stroke-miterlimit:10;}
	.st29{display:inline;fill:#2A1B1B;stroke:#000000;stroke-width:0.8;stroke-linecap:round;stroke-miterlimit:10;}
	.st30{display:inline;fill:#DFCD85;stroke:#000000;stroke-width:0.8;stroke-linecap:round;stroke-miterlimit:10;}
	.st31{display:inline;fill:#FFFFFF;stroke:#000000;stroke-width:0.8;stroke-linecap:round;stroke-miterlimit:10;}
	.st32{display:inline;fill:#8C523D;stroke:#000000;stroke-width:0.8;stroke-linecap:round;stroke-miterlimit:10;}
	.st33{display:inline;fill:#25291D;stroke:#000000;stroke-width:0.8;stroke-linecap:round;stroke-miterlimit:10;}
	.st34{display:inline;fill:#FFFFFF;stroke:#000000;stroke-width:0.8;stroke-linecap:round;stroke-miterlimit:9.9999;}
	.st35{display:inline;fill:#DA1F29;}
	.st36{opacity:0.7;fill:none;stroke:#000000;stroke-width:13.7176;stroke-miterlimit:10;enable-background:new    ;}
</style>
<text transform="matrix(1 0 0 1 910.9834 648.498)" class="st0 st1 st2">LOGICALLY TRUE</text>
<g class="st3">
	<path class="st4" d="M1034.4,305.1l-52.9-9.1l45.7-9.1L973,273l49.5-1.6L990,257.2l46.6,6.2l-26.8-16.1l85.3,11l254.6,1.1
		l40.6-12.1l-14.4,15.8l45.8-4.9l-23,16.9l39.9-4.9c0,0-39.9,41.2-117.2,51.6c-53.2,6.2-106.9,7.7-160.3,4.5L1034.4,305.1z"/>
	<path class="st5" d="M1180.5,193.6c-28.5-40.7-60.7-67.4-90.3-53.5c-29.7,13.8-32.7,56.3-17.2,103.5c14.8,45.4,60.7,67.4,90.3,53.5
		C1193,283.2,1207.8,232.7,1180.5,193.6z"/>
	<path class="st5" d="M1367.5,259.1c14.3-46.3,4.9-95.1-12.9-101.5c-30-10.9-62.9,8.6-90.1,48.9c-26,38.6-15.5,86.9,12.9,101.5
		C1305.8,322.7,1353.8,303.6,1367.5,259.1z"/>
	<path class="st5" d="M1296.8,218.5c7.8-66.8-0.9-122.6-43.4-135.3s-83.8,27.7-110.4,89.4c-25.7,59.4,0.9,122.6,43.4,135.3
		C1228.9,320.6,1289.2,282.7,1296.8,218.5z"/>
	<path class="st4" d="M1007.6,261.7c0,0-11.8,39.1,51.9,53.3s123.5,40.3,183.5,24.6c62.4-16.3,143.1-17.5,183-60.5
		c0,0-24.1,10.2-37.4,11.2c0,0,17.6-18.7,15.5-28.9c0,0-33.7,23.6-56.7,25.1c0,0,19.2-14.8,24-32.6c0,0-53.5,39.1-72.8,40.1
		c0,0,19.7-18.7,19.3-28.3c0,0-34.2,36.9-51.3,38.5c4.4-9.7,5.4-20.7,2.7-31c0,0-10.9,17.4-26.8,21.1l-15.8,3.7
		c0,0-23.6,1.3-34.8-15.5c2.1,9.2,7.7,17.2,15.5,22.5c0,0-29.6-8.8-38-17.9c0,0,4.6,15.5,13.1,19.7c0,0-34.7-9.9-45.7-23.5
		c-2.2,5.4-1.9,11.5,0.8,16.8c0,0-40.1-20.6-51.1-32.4c0,0,8,29.6,21.4,38.8c0,0-47.9-14.8-54.2-38.8c0,0,0,27.8,6.7,33.2
		c0,0-34.5-18.5-38.8-46.8c0,0-4.9,28.6,1.3,35C1023.1,289.2,1007.3,265.7,1007.6,261.7z"/>
	<path class="st5" d="M1276.1,225c0.6,6.4-2.5,12.6-8,16.1"/>
	<path class="st5" d="M1340.7,250.9c1.9-3.4,3.5-7,4.9-10.6"/>
	<path class="st5" d="M1163.8,260.3c-1.5-3.6-3.3-7.1-5.3-10.5"/>
	<path class="st5" d="M1163.6,197.1c-7.8,7.3-12,17.6-11.4,28.2"/>
	<path class="st5" d="M1116.2,266.6c3.4,5.5,7.1,10.7,11.2,15.7"/>
	<path class="st5" d="M1300.3,272.5c-4.1,5-8,10.2-11.4,15.6"/>
</g>
<g>
	<path class="st6" d="M1220.8,201.6l-36.3-6.2l31.4-6.2l-37.2-9.5l34-1.1l-22.3-9.7l32,4.3l-18.4-11.1l58.6,7.6l174.8,0.8l27.9-8.3
		l-9.9,10.8l31.4-3.4l-15.8,11.6l27.4-3.4c0,0-27.4,28.3-80.4,35.4c-36.5,4.3-73.4,5.3-110,3.1L1220.8,201.6z"/>
	<path class="st7" d="M1321.1,125c-19.6-27.9-41.7-46.3-62-36.7c-20.4,9.5-22.4,38.6-11.8,71c10.2,31.2,41.7,46.3,62,36.7
		C1329.7,186.5,1339.8,151.9,1321.1,125z"/>
	<path class="st7" d="M1449.5,170.1c9.8-31.8,3.4-65.3-8.9-69.7c-20.6-7.5-43.2,5.9-61.8,33.6c-17.8,26.5-10.6,59.7,8.9,69.7
		C1407.1,213.7,1440.1,200.5,1449.5,170.1z"/>
	<path class="st7" d="M1400.9,142.2c5.4-45.9-0.6-84.2-29.8-92.9c-29.2-8.7-57.5,19-75.8,61.4c-17.6,40.8,0.6,84.2,29.8,92.9
		C1354.3,212.2,1395.7,186.2,1400.9,142.2z"/>
	<path class="st6" d="M1202.4,171.8c0,0-8.1,26.8,35.6,36.6s84.8,27.7,126,16.9c42.8-11.2,98.2-12,125.6-41.5c0,0-16.5,7-25.7,7.7
		c0,0,12.1-12.8,10.6-19.8c0,0-23.1,16.2-38.9,17.2c0,0,13.2-10.2,16.5-22.4c0,0-36.7,26.8-50,27.5c0,0,13.5-12.8,13.2-19.4
		c0,0-23.5,25.3-35.2,26.4c3-6.7,3.7-14.2,1.9-21.3c0,0-7.5,11.9-18.4,14.5l-10.8,2.5c0,0-16.2,0.9-23.9-10.6
		c1.4,6.3,5.3,11.8,10.6,15.4c0,0-20.3-6-26.1-12.3c0,0,3.2,10.6,9,13.5c0,0-23.8-6.8-31.4-16.1c-1.5,3.7-1.3,7.9,0.5,11.5
		c0,0-27.5-14.1-35.1-22.2c0,0,5.5,20.3,14.7,26.6c0,0-32.9-10.2-37.2-26.6c0,0,0,19.1,4.6,22.8c0,0-23.7-12.7-26.6-32.1
		c0,0-3.4,19.6,0.9,24C1213.1,190.7,1202.2,174.5,1202.4,171.8z"/>
	<path class="st7" d="M1386.7,146.6c0.4,4.4-1.7,8.6-5.5,11.1"/>
	<path class="st7" d="M1431.1,164.4c1.3-2.3,2.4-4.8,3.4-7.3"/>
	<path class="st7" d="M1309.6,170.8c-1-2.5-2.3-4.9-3.6-7.2"/>
	<path class="st7" d="M1309.5,127.4c-5.4,5-8.2,12.1-7.8,19.4"/>
	<path class="st7" d="M1277,175.1c2.3,3.8,4.9,7.3,7.7,10.8"/>
	<path class="st7" d="M1403.3,179.3c-2.8,3.4-5.5,7-7.8,10.7"/>
</g>
<path class="st8" d="M696.1,191.1c0,0,113.8-70.7,187.5-61.5c0,0-36.9-30.7-70.7-36.9c0,0,110.7,3.1,166,55.3
	c0,0-104.5,18.4-116.8,92.2c0,0,3.1-64.6,24.6-86.1C886.7,154.2,769.9,157.3,696.1,191.1z"/>
<path class="st9" d="M731.7,184.7c0,0,105.2-65.4,173.3-56.9c0,0-34.1-28.4-65.4-34.1c0,0,102.3,2.9,153.5,51.1
	c0,0-96.6,17-108,85.2c0,0,2.9-59.7,22.7-79.6C907.8,150.6,799.9,153.4,731.7,184.7z"/>
<g>
	<path class="st10" d="M539.7,371c6.5-2.9,13.1-5.4,19.8-7.5c9.2-2.8,21.4-5,23.8-7.6c2.4-2.6,1.3,7.6-8.6,13.7
		c-7.7,4.2-16,7.2-24.6,8.9c0,0,31.1-3.2,33.5-3.3c2.4-0.2-8.7,23.4-38.4,16.7c0,0,35.9,3.3,26.5,15.3c0,0-4.9,6-22.1,2.3
		c0,0,20.5,20.7-10,12.7c0,0,13.2,25.7-13.2,7.6c0,0-1.7,19.7-12.8,4.4c0,0-3.6,12.6-12.3-0.7c0,0-9.8,19.9-14.9-1.2
		c0,0-6.7,15.4-16.1-1.1c0,0-5.2,16-12.7-1.1s4.7-23,4.7-23L539.7,371z"/>
	<path class="st11" d="M461.2,409.2c0,0,9.5,29.4,25.5,5.7c0,0,9.5,15.8,21.9-5.7c0,0,18.4,5,12-11c0,0,35.9-1.6,9.2-13.4
		c0,0,15.4,3.7,15.9-5.6c0.6-9.3-9.7-6.7-9.7-6.7l-27.6,8.1l-44.7,17.6L461.2,409.2z"/>
	<path class="st12" d="M430.3,456.6c0,0-6.7,6-3.2,12s1.9,10.3,12.3,12c10.4,1.7,14.1,2.7,20.7,1.7c6.6-1,2.3,6.7-2.4,7.3
		s-6.1-2.6-10.7-2.2c-2.8,0.3-5.6,0.7-8.4,1.6c2.5,2.2,5.1,4.2,8,6c4,2.3-1.8,7.7-7.3,4.8c-3.2-1.7-5.5-4.7-6.3-8.3
		c-1.9-1.9-4.5-2.6-7-2.2l-4.2,0.7c0,0-7.4,1.6-5.7-1.6c1.8-3.2,4.1-4.5,10-6.3c3.3-1.2-10.3-14-10-24.1
		C416.5,448,430.3,456.6,430.3,456.6z"/>
	<path class="st12" d="M390.2,461.2c0.7,6.1,1.7,12.3,3.1,18.3c1.8,6,2,7.7-7.3,8.6c-9.4,0.8-7,5.9,0,5.7l7-0.3
		c0,0,4.4-0.3,9.3,13.4c2,7.4,11.4,5.3,12.4,2.9c1-2.4-7.7-6-9.4-12s-1.1-5-1.1-5s11.1,11.4,20.7,7.9c5.4-1.2,13-3.5,1.4-6.7
		c-11.6-3.2-8.3,0.9-21.8-7.4c-13.6-8.3,0-28.4,0-28.4L390.2,461.2z"/>
	<path class="st13" d="M446.9,371.8c3.3-0.6,6.6,0.7,8.7,3.3c4.7,4.5,15.1,12,20.5,9.1s25.4-15,29.5-15s13.4,6.4,19,4.7
		c5.5-1.7,20.1-7.1,28.3-6.7c0,0-10.8,4.3-14,6c-3.1,1.8,1.3,8.3-20.1,7.7c0,0,2.3,8.1-11.8,5.7c0,0-9.7,19.9-13.8,7.8
		c0,0-8.2,21.1-15.9,4.7c0,0-3.3,13-13.4,8C453.7,402.3,446.9,371.8,446.9,371.8z"/>
	<path class="st13" d="M463.6,385c-6.1-8.7-7.5-5.3-11.4-10.7c-3.7-5.4,1.7-13.7,1.7-13.7l4-4.3c0,0,17.7-34.7-3.3-55.8
		s-45.4-5.8-45.4-5.8c-0.3-3.3,4.1-14,4.1-14c-5.9,2-14,16.7-14,16.7l-0.8-7.3c0,0-1.6,5.3-3,9.1c-1.4,3.8-23.4,22.4-11.9,46.5
		c9.8,20.3,10.3,23.2,10.2,23.4c6.7,8.7,1,19.7-8.3,24.4c-1.6,2.2-10.4,14.3-21.7,16.5c-12.4,2.3-5,25.1-5,25.1s-19.8,7.3-61.6,19.6
		c-41.8,12.4-20.5,16-20.5,16c-35.4,19.7-3.3,17.4-3.3,17.4c-15,10.3,15.6,6.7,15.6,6.7s-9.5,7.3-4.7,10.4s34.1-7.8,50-16.5
		c16-8.7,30.4-25.7,40.8-25c10.4,0.7,10,6.5,14.4,6.5c10-0.2,19.6-2.8,28.4-7.4c2.6,1.6,5.6,2.4,8.7,2.4l2.9-1.4
		c2.9-1.4,2.6-5.4,5.7-6.7c3.1-1.3,2.9,1.2,13.1-8.4C478.1,420.1,469.8,393.7,463.6,385z"/>
	<path class="st14" d="M446.9,320.7c0,0-8.1-18.2-18-19.6c-9.9-1.3-21.5,6.7-25.9,18.4c-4.5,11.6,1.7,22.6,9.7,22.6
		c0,0-5,39,36.9,12.2C491.5,327.5,446.9,320.7,446.9,320.7z"/>
	<path class="st11" d="M527.9,399.1c1,0.9,21.7,10.4,21.7,10.4"/>
	<line class="st15" x1="522.2" y1="411.3" x2="539.7" y2="422.2"/>
	<path class="st15" d="M512.3,414.1c0,0,10.4,13.4,14.1,15.7"/>
	<path class="st15" d="M508.7,418.2c0,0,3.1,13.4,4.9,16"/>
	<path class="st15" d="M500.5,423.4c0,0,0,8.4,1,10"/>
	<path class="st15" d="M487.1,422.2c-0.6,3.3-0.7,6.7-0.7,10"/>
	<path class="st15" d="M469.7,422.3c-0.4,3.1-0.2,6.1,0.7,9.1"/>
	<path class="st10" d="M310.7,352.3c-6-3.9-12-7.4-18.3-10.6c-8.7-4.2-20.3-8.5-22.2-11.4s-2.5,7.2,6.1,14.9
		c7,5.3,14.6,9.7,22.8,12.7c0,0-30-8.1-32.5-8.7c-2.5-0.6,4.8,24.6,35.2,22.8c0,0-35.9-2.5-28.6,10.8c0,0,3.8,6.7,21.5,5.8
		c0,0-23.4,17.2,7.7,14.1c0,0-17.2,23.2,11.8,9.7c0,0-1.6,19.7,12,6.3c0,0,1.6,13,12.2,1.4c0,0,6.3,21.3,14.9,1.1
		c0,0,4.1,16.3,16,1.6c0,0,2.5,16.7,12.7,0.9c10.2-15.8-0.9-23.4-0.9-23.4L310.7,352.3z"/>
	<path class="st11" d="M315.4,357.2c0,0-9.7-7.7-13-1.7c-3.3,6,1.4,10,10.8,11.8c0,0-8.3-0.6-8.7,4.3c-0.4,4.8,4.1,9.9,15.9,10.6
		c0,0-5.8,6.7,0,11.8s10.4,2.1,10.4,2.1s4.6,18.8,13.1,13.8c6.7-4,7.2-5.2,7.2-5.2c0.2-1.3,4.3,19.3,22.6,8.3c0,0,3.7-1.2,3.6-7.2
		c0,0,7.4,13.4,8.2-6.5l0.7-20.1l-2.7,5.6L315.4,357.2z"/>
	<path class="st13" d="M393.8,369.5L393.8,369.5c-0.6,0.8-1.3,1.5-2.1,2c-20.1,10.7-20.7,6.3-26.8,2.6c-6-3.7-20.9-18.6-25.2-17.5
		c-16.2,4.7-20.7-0.4-30.7-6.7c-10-6.3-12-4-12-4c4.3,2.7,8.3,5.7,12.1,9c9.5,12.5,18,10,18,10c-1.2,9.3,10.8,8.1,10.8,8.1
		c0.3,19,11.7,10.3,11.7,10.3C358,408.1,364,391,364,391c5.2,17,16-2,16-2c0.4,4.2,5.8,4.5,5.8,4.5S404.5,384.2,393.8,369.5z"/>
	<path class="st16" d="M450.3,338.4c0,0-7,9.7-3.6,17c3.3,7.3,16,17.2,30.3,0C476.9,355.3,474.5,334.3,450.3,338.4z"/>
	<path class="st17" d="M449.9,338.5c0,0-9.5-24.5-2-31.4c7.4-7,20.7-12.8,38.7,7.3c18,20.1-0.7,44.8-8.3,50
		C478.3,364.3,478.8,333.1,449.9,338.5z"/>
	<path class="st18" d="M418.4,336.1c0,0-14-16.4,1.5-23.9c13.1-4.6,17.2,16.5,12.7,20.5C427.7,332.8,422.9,334,418.4,336.1z"/>
	<path class="st15" d="M414.2,338.5c7.1-4.3,15.3-6.2,23.4-5.5"/>
	<ellipse class="st19" cx="422.8" cy="327.1" rx="7.7" ry="6.7"/>
	<ellipse class="st20" cx="423.2" cy="328" rx="5" ry="5.4"/>
	<ellipse transform="matrix(0.753 -0.658 0.658 0.753 -108.7487 356.4682)" class="st21" cx="420.5" cy="323.1" rx="3.3" ry="4.4"/>
	<path class="st10" d="M365.4,435.3c0,0-2.6-2.5-12.3,1.7l-9.7,4.1l0,0c-1.5,0-14.8,1.9-15.4,3.9c-0.6,2,10,5.3,14.5,5.1
		c4.5-0.2,22.2-8.8,24.3-10C368.9,438.8,365.4,435.3,365.4,435.3z"/>
	<path class="st10" d="M373.1,438.1c0,0-3.9-1.9-12.4,0.8c-8.5,2.7-20.3,10.4-24.2,15.8c-3.9,5.3-10.4,9.4-5.5,10.6
		c4.9,1.2,25.2-8,29.2-10.4C364.3,452.4,375.3,443.1,373.1,438.1z"/>
	<path class="st10" d="M376.5,440.6c0,0-4.7-3.6-14.1,1.7s-30.1,24-31.3,27.5c-1.1,3.5-1.1,2.2-1.1,3.3c0,1.1,0.8,12.5,14.6,4.3
		C358.2,469.3,376.5,440.6,376.5,440.6z"/>
	<path class="st10" d="M344.5,479.5c0,0,12.5-0.5,18-4.4c5.6-3.9,12.1-17.7,14-22.8c1-3.8,1-7.9,0-11.7c0,0-22,19.1-25.2,23.8
		l-3.3,4.7l0,0C347.9,469.2,340,477.2,344.5,479.5z"/>
	<path class="st11" d="M317.7,381.8c-1.2,0.8-23.1,6.7-23.1,6.7"/>
	<line class="st15" x1="321.6" y1="394.8" x2="302.4" y2="402.7"/>
	<path class="st15" d="M330.7,399.1c0,0-12.5,11.4-16.6,13.4"/>
	<path class="st15" d="M333.7,403.8c0,0-5.2,12.9-7.5,15"/>
	<path class="st15" d="M341,410.4c0,0-1.2,8.3-2.6,9.9"/>
	<path class="st15" d="M354.2,411.2c0,3.3-0.4,6.7-0.9,10"/>
	<path class="st15" d="M371.5,414.2c-0.1,3-0.9,6-2.2,8.7"/>
	<path class="st15" d="M313.2,367.2c0,0,11.4,0.6,13-0.4"/>
	<path class="st15" d="M320.4,382.1c5.9-0.8,11.6-2.1,17.3-3.7"/>
	<path class="st15" d="M330.8,396c0,0,16.9-6.7,19.6-10"/>
	<path class="st15" d="M351.1,404.5c2.8-2,5-4.7,6.5-7.9"/>
	<path class="st15" d="M377.4,405.7c-0.5-3.3-1.4-6.6-2.7-9.7"/>
	<path class="st15" d="M276.7,471c0,0,46.1-8.4,59.8-16.5"/>
	<path class="st15" d="M273.4,488.3c0,0,51.8-16.7,60.4-22.1"/>
	<path class="st15" d="M288.9,495.3c15.1-3.5,29.7-8.8,43.6-15.8"/>
	<path class="st11" d="M486.6,414.7c0.7-3.4,0.6-7.1-0.3-10.5"/>
	<path class="st11" d="M508.6,409.2c0,0-0.8-14-4.2-18.1"/>
	<path class="st11" d="M520.7,398.2c-1.7-4.1-4-7.9-6.9-11.2"/>
	<line class="st15" x1="529.8" y1="384.8" x2="518.6" y2="381"/>
	<path class="st15" d="M438.6,488.9c0,0-2.5-1.7-2.2-3.9"/>
	<line class="st15" x1="404" y1="492.5" x2="402.2" y2="488.4"/>
	<path class="st15" d="M433,491.4c0,0-3.3-3.9-2.6-5.9"/>
	<path class="st15" d="M417.9,463.2c3.8-2,7.2-5,9.7-8.6"/>
	<path class="st15" d="M404,358.4c0,0,2.2,7,16.5,9"/>
	<path class="st15" d="M439.8,367.3c3.9,0.2,7.7,0,11.5-0.6"/>
	<ellipse class="st22" cx="401.6" cy="374.4" rx="8.4" ry="6.7"/>
</g>
<g class="st3">
	<path class="st23" d="M556.4,811.6c7-3.1,14.1-5.8,21.3-8.1c9.9-3,23-5.4,25.6-8.2s1.4,8.2-9.2,14.7c-8.3,4.5-17.2,7.7-26.4,9.6
		c0,0,33.4-3.4,36-3.6c2.6-0.2-9.3,25.2-41.3,18c0,0,38.6,3.6,28.5,16.4c0,0-5.3,6.5-23.8,2.5c0,0,22,22.3-10.8,13.6
		c0,0,14.2,27.6-14.2,8.2c0,0-1.8,21.2-13.8,4.7c0,0-3.9,13.5-13.2-0.7c0,0-10.5,21.4-16-1.3c0,0-7.2,16.5-17.3-1.2
		c0,0-5.6,17.2-13.7-1.2s5.1-24.7,5.1-24.7L556.4,811.6z"/>
	<path class="st24" d="M472,852.6c0,0,10.2,31.6,27.4,6.1c0,0,10.2,17,23.5-6.1c0,0,19.8,5.4,12.9-11.8c0,0,38.6-1.7,9.9-14.4
		c0,0,16.5,4,17.1-6c0.5-10-10.4-7.2-10.4-7.2l-29.7,8.7l-48.1,18.9L472,852.6z"/>
	<path class="st25" d="M438.8,903.6c0,0-7.2,6.4-3.4,12.9c3.8,6.5,2,11.1,13.2,12.9c11.2,1.8,15.2,2.9,22.3,1.8
		c7.1-1.1,2.5,7.2-2.6,7.9s-6.6-2.8-11.5-2.4c-3,0.3-6,0.8-9,1.7c2.7,2.4,5.5,4.5,8.6,6.4c4.3,2.5-1.9,8.3-7.8,5.2
		c-3.4-1.8-5.9-5.1-6.8-8.9c-2-2-4.8-2.8-7.5-2.4l-4.5,0.8c0,0-8,1.7-6.1-1.7s4.4-4.8,10.8-6.8c3.6-1.3-11.1-15.1-10.8-25.9
		C424,894.3,438.8,903.6,438.8,903.6z"/>
	<path class="st25" d="M395.7,908.5c0.7,6.6,1.8,13.2,3.3,19.7c1.9,6.5,2.2,8.3-7.9,9.2c-10.1,0.8-7.5,6.3,0,6.1l7.5-0.3
		c0,0,4.7-0.3,10,14.4c2.1,8,12.2,5.7,13.3,3.1c1.1-2.6-8.3-6.4-10.1-12.9s-1.2-5.4-1.2-5.4s11.9,12.3,22.2,8.5
		c5.8-1.3,14-3.8,1.5-7.2s-8.9,1-23.4-8c-14.6-8.9,0-30.5,0-30.5L395.7,908.5z"/>
	<path class="st26" d="M456.6,812.4c3.5-0.6,7.1,0.8,9.3,3.6c5,4.8,16.2,12.9,22,9.8c5.8-3,27.3-16.1,31.7-16.1
		c4.4,0,14.4,6.9,20.4,5.1c5.9-1.8,21.6-7.6,30.4-7.2c0,0-11.6,4.6-15,6.5c-3.3,1.9,1.4,8.9-21.6,8.3c0,0,2.5,8.7-12.7,6.1
		c0,0-10.4,21.4-14.8,8.4c0,0-8.8,22.7-17.1,5c0,0-3.6,14-14.4,8.6C464,845.2,456.6,812.4,456.6,812.4z"/>
	<path class="st26" d="M474.7,826.6c-6.6-9.4-8.1-5.7-12.2-11.5c-4-5.8,1.8-14.7,1.8-14.7l4.3-4.6c0,0,19-37.3-3.6-60
		s-48.8-6.2-48.8-6.2c-0.3-3.5,4.4-15,4.4-15c-6.3,2.1-15.1,18-15.1,18l-0.9-7.8c0,0-1.7,5.7-3.2,9.8s-25.2,24.1-12.8,50
		c10.5,21.8,11.1,24.9,11,25.2c7.2,9.3,1.1,21.2-8.9,26.2c-1.7,2.4-11.2,15.4-23.3,17.7c-13.3,2.5-5.4,27-5.4,27
		s-21.3,7.8-66.2,21.1s-22,17.2-22,17.2c-38.1,21.2-3.6,18.7-3.6,18.7c-16.1,11.1,16.8,7.2,16.8,7.2s-10.2,7.8-5.1,11.2
		c5.1,3.5,36.6-8.4,53.7-17.7c17.2-9.3,32.7-27.6,43.9-26.9c11.2,0.7,10.8,7,15.5,7c10.7-0.2,21.1-3,30.5-8c2.8,1.7,6,2.6,9.3,2.6
		l3.1-1.5c3.1-1.5,2.8-5.8,6.1-7.2c3.3-1.4,3.1,1.3,14.1-9C490.2,864.4,481.3,836,474.7,826.6z"/>
	<path class="st27" d="M456.6,757.5c0,0-8.7-19.6-19.3-21.1c-10.6-1.4-23.1,7.2-27.8,19.8c-4.8,12.5,1.8,24.3,10.4,24.3
		c0,0-5.4,41.9,39.7,13.1S456.6,757.5,456.6,757.5z"/>
	<path class="st24" d="M543.8,841.8c1.1,1,23.3,11.2,23.3,11.2"/>
	<line class="st28" x1="537.5" y1="854.9" x2="556.4" y2="866.6"/>
	<path class="st28" d="M527,857.9c0,0,11.2,14.4,15.2,16.9"/>
	<path class="st28" d="M523.1,862.3c0,0,3.3,14.4,5.3,17.2"/>
	<path class="st28" d="M514.3,867.9c0,0,0,9,1.1,10.8"/>
	<path class="st28" d="M499.9,866.6c-0.6,3.6-0.8,7.2-0.8,10.8"/>
	<path class="st28" d="M481.1,866.7c-0.4,3.3-0.2,6.6,0.7,9.8"/>
	<path class="st23" d="M310.3,791.5c-6.4-4.2-12.9-8-19.7-11.4c-9.4-4.5-21.8-9.1-23.9-12.2c-2.1-3.1-2.7,7.7,6.6,16
		c7.5,5.7,15.7,10.4,24.5,13.7c0,0-32.2-8.7-34.9-9.3c-2.7-0.6,5.2,26.4,37.8,24.5c0,0-38.6-2.7-30.7,11.6c0,0,4.1,7.2,23.1,6.2
		c0,0-25.2,18.5,8.3,15.2c0,0-18.5,24.9,12.7,10.4c0,0-1.7,21.2,12.9,6.8c0,0,1.7,14,13.1,1.5c0,0,6.8,22.9,16,1.2
		c0,0,4.4,17.5,17.2,1.7c0,0,2.7,18,13.7,1s-1-25.2-1-25.2L310.3,791.5z"/>
	<path class="st24" d="M315.3,796.7c0,0-10.4-8.3-14-1.8c-3.5,6.5,1.5,10.8,11.6,12.7c0,0-8.9-0.6-9.3,4.6s4.4,10.6,17.1,11.4
		c0,0-6.2,7.2,0,12.7s11.2,2.3,11.2,2.3s4.9,20.2,14.1,14.8c7.2-4.3,7.7-5.6,7.7-5.6c0.2-1.4,4.6,20.7,24.3,8.9c0,0,4-1.3,3.9-7.7
		c0,0,8,14.4,8.8-7l0.8-21.6l-2.9,6L315.3,796.7z"/>
	<path class="st26" d="M399.6,810L399.6,810c-0.6,0.9-1.4,1.6-2.3,2.1c-21.6,11.5-22.3,6.8-28.8,2.8s-22.5-20-27.1-18.8
		c-17.4,5.1-22.2-0.4-33-7.2s-12.9-4.3-12.9-4.3c4.6,2.9,8.9,6.1,13,9.7c10.2,13.4,19.4,10.8,19.4,10.8c-1.3,10,11.6,8.7,11.6,8.7
		c0.3,20.4,12.6,11.1,12.6,11.1c9,26.6,15.5,8.2,15.5,8.2c5.6,18.3,17.2-2.1,17.2-2.1c0.4,4.5,6.2,4.8,6.2,4.8S411,825.8,399.6,810z
		"/>
	<path class="st29" d="M460.2,776.5c0,0-7.5,10.4-3.9,18.3c3.5,7.9,17.2,18.5,32.6,0C488.8,794.7,486.3,772.1,460.2,776.5z"/>
	<path class="st30" d="M459.9,776.6c0,0-10.2-26.3-2.2-33.8s22.2-13.8,41.6,7.8c19.4,21.6-0.8,48.2-8.9,53.7
		C490.4,804.4,491,770.8,459.9,776.6z"/>
	<path class="st31" d="M426.1,774.1c0,0-15-17.6,1.6-25.7c14.1-4.9,18.5,17.7,13.7,22C436,770.5,430.8,771.8,426.1,774.1z"/>
	<path class="st28" d="M421.6,776.6c7.6-4.6,16.4-6.7,25.2-5.9"/>
	<ellipse class="st32" cx="430.8" cy="764.4" rx="8.3" ry="7.2"/>
	<ellipse class="st33" cx="431.2" cy="765.4" rx="5.4" ry="5.8"/>
	<ellipse transform="matrix(0.753 -0.658 0.658 0.753 -394.3551 469.5422)" class="st34" cx="428.3" cy="760.1" rx="3.6" ry="4.7"/>
	<path class="st23" d="M369.1,880.7c0,0-2.8-2.7-13.2,1.8l-10.4,4.4l0,0c-1.6,0-15.9,2-16.5,4.2s10.8,5.7,15.6,5.5
		s23.9-9.5,26.1-10.8C372.9,884.5,369.1,880.7,369.1,880.7z"/>
	<path class="st23" d="M377.3,883.7c0,0-4.2-2-13.3,0.9c-9.1,2.9-21.8,11.2-26,17c-4.2,5.7-11.2,10.1-5.9,11.4
		c5.3,1.3,27.1-8.6,31.4-11.2C367.9,899.1,379.7,889.1,377.3,883.7z"/>
	<path class="st23" d="M380.9,886.4c0,0-5.1-3.9-15.2,1.8s-32.4,25.8-33.6,29.6s-1.2,2.4-1.2,3.6c0,1.2,0.9,13.4,15.7,4.6
		C361.3,917.2,380.9,886.4,380.9,886.4z"/>
	<path class="st23" d="M346.6,928.2c0,0,13.4-0.5,19.4-4.7s13-19,15-24.5c1.1-4.1,1.1-8.5,0-12.6c0,0-23.6,20.5-27.1,25.6l-3.6,5.1
		l0,0C350.3,917.1,341.8,925.7,346.6,928.2z"/>
	<path class="st24" d="M317.8,823.2c-1.3,0.9-24.8,7.2-24.8,7.2"/>
	<line class="st28" x1="321.9" y1="837.2" x2="301.3" y2="845.7"/>
	<path class="st28" d="M331.8,841.8c0,0-13.4,12.3-17.8,14.4"/>
	<path class="st28" d="M335,846.8c0,0-5.6,13.9-8.1,16.1"/>
	<path class="st28" d="M342.9,853.9c0,0-1.3,8.9-2.8,10.6"/>
	<path class="st28" d="M357,854.8c0,3.6-0.4,7.2-1,10.8"/>
	<path class="st28" d="M375.6,858c-0.1,3.2-1,6.4-2.4,9.3"/>
	<path class="st28" d="M313,807.5c0,0,12.3,0.6,14-0.4"/>
	<path class="st28" d="M320.7,823.5c6.3-0.9,12.5-2.3,18.6-4"/>
	<path class="st28" d="M331.9,838.5c0,0,18.2-7.2,21.1-10.8"/>
	<path class="st28" d="M353.7,847.6c3-2.2,5.4-5.1,7-8.5"/>
	<path class="st28" d="M381.9,848.9c-0.5-3.6-1.5-7.1-2.9-10.4"/>
	<path class="st28" d="M273.7,919.1c0,0,49.5-9,64.3-17.7"/>
	<path class="st28" d="M270.1,937.7c0,0,55.7-18,64.9-23.8"/>
	<path class="st28" d="M286.9,945.2c16.2-3.8,31.9-9.5,46.9-17"/>
	<path class="st24" d="M499.4,858.6c0.7-3.7,0.6-7.6-0.3-11.3"/>
	<path class="st24" d="M522.9,852.6c0,0-0.9-15.1-4.5-19.5"/>
	<path class="st24" d="M535.9,840.8c-1.8-4.4-4.3-8.5-7.4-12"/>
	<line class="st28" x1="545.8" y1="826.4" x2="533.8" y2="822.3"/>
	<path class="st28" d="M447.8,938.3c0,0-2.7-1.8-2.4-4.2"/>
	<line class="st28" x1="410.5" y1="942.2" x2="408.7" y2="937.8"/>
	<path class="st28" d="M441.8,941c0,0-3.6-4.2-2.8-6.3"/>
	<path class="st28" d="M425.5,910.7c4.1-2.2,7.7-5.4,10.4-9.2"/>
	<path class="st28" d="M410.5,798c0,0,2.4,7.5,17.7,9.7"/>
	<path class="st28" d="M449,807.6c4.2,0.2,8.3,0,12.4-0.6"/>
	<ellipse class="st35" cx="408" cy="815.2" rx="9" ry="7.2"/>
</g>
<path d="M813.6,379.1v-15.5h133.1v15.5H813.6z M813.6,429.6V414h133.1v15.5L813.6,429.6z"/>
<line class="st36" x1="87" y1="583" x2="1637.7" y2="583"/>
<g>
	<path d="M312.6,92.2c0,0,16.1-15.1,24,0l7.7,3.1c0,0-13.5,1.5-18.7,7.7c0,0-1.1,14.6-17.6,18.8c-16.5,4.3-43.5,3.3-43.5,3.3
		l28.6-17.2l-10.2-5.2l7.6-0.9l-8.3-5l7-0.6c0,0-16.5-15.9-16.5-23.8C272.9,72.6,307,92.9,312.6,92.2z"/>
	<path d="M523,93.9c0,0-16.1-18.9-24,0l-7.7,3.9c0,0,13.5,1.8,18.7,9.7c0,0,1.1,18.2,17.6,23.5c16.5,5.3,43.5,4.2,43.5,4.2
		l-28.7-21.5l10.2-6.5l-7.6-1.2l8.3-6.2l-7-0.7c0,0,16.5-19.8,16.5-29.7C562.6,69.5,528.5,94.8,523,93.9z"/>
	<path d="M407.6,85.3c0,0-5.4-10.9,5.9-14.2l2.4-7.4l2.8,7.6c0,0,10.5,3.1,5.9,14c0,0,12.8-6.8,19.5-5.2c6.8,1.7,11.3,7.6,22.5,9.6
		c11.3,2,11.3,2,11.3,2s-4.8,4.1-13.3,5.2c0,0,3.3,2.7,5.2,2c1.9-0.7-9.1,3.5-14.4,4.3c0,0,3,3,4.6,2.8c1.7-0.2-10.2,1.7-12.8,1.7
		c0,0-1.3,2,1.7,2.4c3,0.4-12.9,5-22,4.4c0,0-1.8,3.9-2.4,4.4c-0.6,0.6,5.4,21.4,5.4,21.4s-3.5,3.1-6.6-1.1c0,0,0.7,14.8-8.1,11.7
		c-8.9-3.1-5.5-11.8-5.5-11.8s-5.9,3.9-7.6,1.7c-1.7-2.2,6.1-21.8,6.1-21.8s-3.3-3.3-2.8-4.4c0,0-10.3,0.2-13.9-2.2
		c-3.5-2.4,0-2.4,0-2.4s-13.1,0.2-8-2.4c5.2-2.6-16.6-3.5-7.7-5.6s-21.8-3.5-8.5-5.4c0,0-10.9-2.4-13.3-5.5c0,0,16.8-1.5,33.9-10.3
		C388,80.7,393.2,77.6,407.6,85.3z"/>
	<path d="M422.7,191.9c0,0,3-9.1,8.9-9.2c5.9-0.2,8.3-0.4,10.5,4.6l7.7,3l-8.5,1.7c0,0-0.6,4.4-2.6,7.2c0,0,0.4,13.9-17.6,22.1
		l-1.3,3.5l2.8,6.1l-5.2-4.8v-3.9h-1.7l-2.3,4.4l2.3,4.3l-4.7-3.7V223c0,0-5.5,0-10.2-1.5l-27.5,12.9c0,0,18.8-23.8,33.9-33.2
		C422.7,191.9,422.7,191.9,422.7,191.9z"/>
	<path d="M456.8,222.2c0,0,4.3-5.9,7-6.1c0,0,1-9.7,13.3-6.5c12.3,3.2,12.8,2.2,12.8,2.2s-4.6-21.7-20.8-30.5
		c0,0,20.3,10.7,22.1,12.2l-1.9-5.9l12,12.5v-5l9.4,12.5c0,0,41.6-9.4,50.5-19.8c0,0-7.7,14.9-13.1,18.4c0,0,5.2,1.1,8-1.6
		c0,0-4.8,7.4-9.4,9.4c0,0,5,0.6,7.2-0.6c0,0-12.2,7.2-14.5,7.5c0,0,16,12.9,21.3,26.2c0,0-16.5-10.9-30.4-11.6
		c0,0-22.9,12.5-42.7,0c0,0-8.9-8-14.6-9.6c0,0-7,1.6-8.6-4.8L456.8,222.2z"/>
	<path d="M269.2,177.4c0,0,6.7-2.9,9.1-1.7c0,0,5.7-7.9,14.7,1.1s9.9,8.4,9.9,8.4s6.9-21-2.4-36.8c0,0,12,19.5,12.8,21.7l1.3-6.1
		l4,16.9l2.5-4.3l1.7,15.6c0,0,40.6,12.9,53.5,8.5c0,0-14.3,8.9-20.6,9.3c0,0,3.9,3.5,7.7,2.7c0,0-7.9,3.9-12.8,3.5
		c0,0,3.9,3,6.5,3.1c0,0-14.1,0-16.3-0.9c0,0,7.2,19.2,5,33.4c0,0-8.7-17.8-20.3-25.4c0,0-26.1-0.8-36.8-21.7c0,0-3.6-11.4-7.8-15.7
		c0,0-6.8-2.2-5-8.5L269.2,177.4z"/>
</g>
<g>
	<path d="M1250.3,343.2c0,0,14.6-13.7,21.8,0l7,2.9c0,0-12.2,1.4-16.9,7c0,0-1,13.2-15.9,17.1c-14.9,3.9-39.5,3-39.5,3l25.9-15.6
		l-9.2-4.7l6.9-0.9l-7.5-4.5l6.4-0.5c0,0-14.9-14.4-14.9-21.6C1214.4,325.5,1245.3,344,1250.3,343.2z"/>
	<path d="M1441.1,344.8c0,0-14.6-17.1-21.8,0l-7,3.6c0,0,12.2,1.6,16.9,8.8c0,0,1,16.5,15.9,21.3c14.9,4.8,39.5,3.8,39.5,3.8
		l-25.9-19.4l9.2-5.9l-6.9-1.1l7.5-5.6l-6.4-0.6c0,0,14.9-17.9,14.9-26.9C1477.1,322.8,1446.1,345.7,1441.1,344.8z"/>
	<path d="M1336.6,337.1c0,0-4.9-9.8,5.4-12.8l2.2-6.7l2.5,6.9c0,0,9.6,2.9,5.4,12.7c0,0,11.6-6.2,17.7-4.7
		c6.2,1.5,10.2,6.9,20.4,8.7c10.2,1.9,10.2,1.9,10.2,1.9s-4.4,3.7-12.1,4.7c0,0,3,2.4,4.7,1.8c1.6-0.6-8.2,3.2-13.1,3.9
		c0,0,2.7,2.7,4.2,2.5c1.5-0.2-9.2,1.5-11.6,1.5c0,0-1.1,1.9,1.5,2.1c2.7,0.4-11.7,4.5-19.9,4c0,0-1.6,3.5-2.1,4
		c-0.5,0.5,4.9,19.4,4.9,19.4s-3.2,2.9-6-1c0,0,0.6,13.4-7.4,10.6c-8-2.9-5-10.7-5-10.7s-5.4,3.5-6.9,1.5s5.5-19.8,5.5-19.8
		s-3-3-2.5-4c0,0-9.4,0.1-12.6-2s0-2.1,0-2.1s-11.8,0.2-7.2-2.1c4.7-2.4-15.1-3.2-7-5.1c8.1-1.9-19.8-3.2-7.7-4.9
		c0,0-9.8-2.1-12.1-5c0,0,15.2-1.4,30.8-9.4C1318.8,332.9,1323.5,330,1336.6,337.1z"/>
	<path d="M1350.3,433.6c0,0,2.7-8.2,8.1-8.4c5.4-0.1,7.5-0.4,9.6,4.2l7,2.7l-7.7,1.5c0,0-0.5,4-2.4,6.5c0,0,0.4,12.6-15.9,20.1
		l-1.1,3.2l2.5,5.5l-4.7-4.4v-3.5h-1.5l-2.1,4l2.1,3.9l-4.3-3.4v-3.7c0,0-5,0-9.2-1.4l-24.9,11.7c0,0,17.1-21.6,30.8-30.1
		C1350.3,433.6,1350.3,433.6,1350.3,433.6z"/>
	<path d="M1381.2,461.2c0,0,3.9-5.4,6.4-5.5c0,0,0.9-8.8,12.1-5.9c11.1,2.9,11.6,2,11.6,2s-4.2-19.6-18.8-27.7
		c0,0,18.4,9.7,20.1,11.1l-1.7-5.4l10.9,11.3v-4.5l8.5,11.3c0,0,37.7-8.6,45.8-18c0,0-7,13.5-11.8,16.7c0,0,4.7,1,7.3-1.4
		c0,0-4.4,6.7-8.5,8.6c0,0,4.5,0.6,6.5-0.6c0,0-11.1,6.5-13.1,6.8c0,0,14.5,11.7,19.3,23.8c0,0-14.9-9.9-27.6-10.5
		c0,0-20.8,11.3-38.7,0c0,0-8.1-7.3-13.3-8.7c0,0-6.4,1.4-7.8-4.4L1381.2,461.2z"/>
	<path d="M1211.1,420.5c0,0,6.1-2.6,8.3-1.5c0,0,5.2-7.1,13.3,1c8.1,8.1,9,7.6,9,7.6s6.3-19.1-2.2-33.4c0,0,10.9,17.7,11.6,19.6
		l1.2-5.5l3.6,15.3l2.3-3.9l1.6,14.1c0,0,36.8,11.7,48.5,7.7c0,0-12.9,8.1-18.7,8.4c0,0,3.5,3.2,7,2.4c0,0-7.1,3.6-11.6,3.1
		c0,0,3.6,2.7,5.9,2.8c0,0-12.8,0-14.8-0.8c0,0,6.6,17.4,4.6,30.3c0,0-7.9-16.1-18.4-23c0,0-23.6-0.7-33.4-19.6
		c0,0-3.3-10.3-7.1-14.2c0,0-6.2-2-4.5-7.7L1211.1,420.5z"/>
</g>
</svg>
