<?xml version="1.0" encoding="utf-8"?>
<!-- Generator: Adobe Illustrator 24.0.3, SVG Export Plug-In . SVG Version: 6.00 Build 0)  -->
<svg version="1.1" id="Layer_1" xmlns="http://www.w3.org/2000/svg" xmlns:xlink="http://www.w3.org/1999/xlink" x="0px" y="0px"
	 viewBox="0 0 1700 1080" style="enable-background:new 0 0 1700 1080;" xml:space="preserve">
<style type="text/css">
	.st0{fill:#C68456;stroke:#231F20;stroke-width:1.3999;stroke-linecap:round;stroke-miterlimit:10;}
	.st1{fill:#FBEDB0;stroke:#231F20;stroke-width:1.3999;stroke-linecap:round;stroke-miterlimit:10;}
	.st2{fill:#4453A3;stroke:#000000;stroke-width:1.1199;stroke-linecap:round;stroke-miterlimit:10;}
	.st3{fill:#F9EB18;stroke:#000000;stroke-width:1.1199;stroke-linecap:round;stroke-miterlimit:10;}
	.st4{fill:#848A8A;stroke:#000000;stroke-width:1.1199;stroke-linecap:round;stroke-miterlimit:10;}
	.st5{fill:#DA1F29;stroke:#000000;stroke-width:1.1199;stroke-linecap:round;stroke-miterlimit:10;}
	.st6{fill:#D1C9C2;stroke:#000000;stroke-width:1.1199;stroke-linecap:round;stroke-miterlimit:10;}
	.st7{fill:none;stroke:#000000;stroke-width:1.1199;stroke-linecap:round;stroke-miterlimit:10;}
	.st8{fill:#2A1B1B;stroke:#000000;stroke-width:1.1199;stroke-linecap:round;stroke-miterlimit:10;}
	.st9{fill:#DFCD85;stroke:#000000;stroke-width:1.1199;stroke-linecap:round;stroke-miterlimit:10;}
	.st10{fill:#FFFFFF;stroke:#000000;stroke-width:1.1199;stroke-linecap:round;stroke-miterlimit:10;}
	.st11{fill:#8C523D;stroke:#000000;stroke-width:1.1199;stroke-linecap:round;stroke-miterlimit:10;}
	.st12{fill:#25291D;stroke:#000000;stroke-width:1.1199;stroke-linecap:round;stroke-miterlimit:10;}
	.st13{fill:#FFFFFF;stroke:#000000;stroke-width:1.1199;stroke-linecap:round;stroke-miterlimit:9.9999;}
	.st14{fill:#DA1F29;}
	.st15{fill:#896264;}
	.st16{fill:#3A9B3F;}
	.st17{fill:#FFFFFF;}
	.st18{font-family:'CarterOne';}
	.st19{font-size:70px;}
	.st20{font-size:98.9101px;}
	.st21{enable-background:new    ;}
	.st22{opacity:0.7;}
	.st23{fill:#0D1E23;}
	.st24{font-size:92.5749px;}
	.st25{font-size:119.5298px;}
	.st26{fill:#227799;}
</style>
<g>
	<path class="st0" d="M193.2,614.8l-40.7-7l35.1-7l-41.7-10.6l38.1-1.3l-25.1-10.9l35.8,4.8l-20.6-12.3l65.7,8.4l195.8,0.8l31.2-9.2
		l-11.1,12.2l35.1-3.8l-17.6,13L504,588c0,0-30.7,31.6-90.2,39.8c-40.9,4.8-82.2,5.9-123.3,3.5L193.2,614.8z"/>
	<path class="st1" d="M305.5,528.9c-21.8-31.4-46.6-51.8-69.4-41.2c-22.8,10.6-25.1,43.3-13.2,79.5c11.3,35,46.6,51.8,69.4,41.2
		C315.1,597.8,326.6,559,305.5,528.9z"/>
	<path class="st1" d="M449.4,579.3c10.9-35.6,3.8-73.1-9.9-78c-23.1-8.4-48.3,6.6-69.3,37.7c-20,29.7-11.9,66.8,9.9,78
		S438.7,613.5,449.4,579.3z"/>
	<path class="st1" d="M394.9,548.1c6-51.4-0.7-94.4-33.3-104c-32.6-9.8-64.4,21.3-84.8,68.7c-19.7,45.6,0.7,94.4,33.3,104
		C342.7,626.7,389.1,597.4,394.9,548.1z"/>
	<path class="st0" d="M172.6,581.3c0,0-9.1,30.1,39.9,41c49,10.9,94.9,30.9,141.1,18.9c48-12.6,110-13.4,140.7-46.5
		c0,0-18.5,7.8-28.8,8.7c0,0,13.6-14.4,11.9-22.3c0,0-25.9,18.1-43.5,19.3c0,0,14.8-11.3,18.5-25.1c0,0-41.2,30.1-56,30.8
		c0,0,15.1-14.4,14.8-21.8c0,0-26.3,28.4-39.5,29.7c3.4-7.4,4.2-16,2.1-23.8c0,0-8.4,13.4-20.6,16.2l-12.2,2.9c0,0-18.1,1-26.7-11.9
		c1.7,7,5.9,13.3,11.9,17.2c0,0-22.7-6.7-29.3-13.7c0,0,3.5,11.9,10.1,15.1c0,0-26.7-7.6-35.1-18.1c-1.7,4.2-1.4,8.8,0.6,12.9
		c0,0-30.8-15.8-39.3-24.9c0,0,6.2,22.7,16.5,29.8c0,0-36.8-11.3-41.7-29.8c0,0,0,21.4,5.2,25.5c0,0-26.5-14.1-29.8-36
		c0,0-3.8,22,1,26.9C184.5,602.4,172.4,584.4,172.6,581.3z"/>
	<path class="st1" d="M379.1,553c0.4,4.9-2,9.7-6.2,12.3"/>
	<path class="st1" d="M428.7,573c1.4-2.7,2.7-5.3,3.8-8.1"/>
	<path class="st1" d="M292.7,580.2c-1.1-2.8-2.5-5.5-4.1-8.1"/>
	<path class="st1" d="M292.6,531.6c-6,5.6-9.2,13.6-8.8,21.7"/>
	<path class="st1" d="M256.1,585.1c2.7,4.2,5.5,8.3,8.7,12"/>
	<path class="st1" d="M397.6,589.7c-3.2,3.8-6.2,7.8-8.8,12"/>
</g>
<g>
	<path class="st2" d="M481.3,222.1c8.4-3.8,16.8-7,25.6-9.7c11.9-3.6,27.6-6.4,30.7-9.8c3.1-3.4,1.7,9.8-10.9,17.6
		c-9.9,5.3-20.6,9.2-31.6,11.5c0,0,40-4.1,43.1-4.3c3.2-0.3-11.2,30.2-49.4,21.6c0,0,46.2,4.3,34.2,19.7c0,0-6.3,7.8-28.6,2.9
		c0,0,26.3,26.7-13,16.4c0,0,17.1,33-16.9,9.8c0,0-2.1,25.3-16.5,5.6c0,0-4.6,16.1-15.8-0.8c0,0-12.5,25.8-19.2-1.5
		c0,0-8.7,19.7-20.7-1.4c0,0-6.7,20.6-16.5-1.4s6.2-29.5,6.2-29.5L481.3,222.1z"/>
	<path class="st3" d="M380.2,271.2c0,0,12.2,37.8,32.8,7.3c0,0,12.2,20.4,28.1-7.3c0,0,23.7,6.4,15.4-14.1c0,0,46.3-2,11.9-17.2
		c0,0,19.7,4.8,20.4-7.3s-12.5-8.7-12.5-8.7l-35.6,10.5l-57.5,22.5L380.2,271.2z"/>
	<path class="st4" d="M340.5,332.3c0,0-8.7,7.7-4.1,15.4c4.6,7.8,2.4,13.3,15.8,15.4c13.4,2.1,18.2,3.5,26.7,2.1
		c8.4-1.3,3.1,8.7-3.2,9.5c-6.2,0.8-8-3.4-13.7-2.8c-3.6,0.3-7.3,1-10.8,2c3.2,2.8,6.6,5.5,10.2,7.7c5.2,2.9-2.4,9.9-9.2,6.2
		c-4.1-2.2-7.1-6-8.1-10.6c-2.4-2.4-5.7-3.4-9-2.8l-5.5,1c0,0-9.7,2-7.3-2c2.4-3.9,5.3-5.7,13-8.1c4.3-1.5-13.3-18.1-13-31.1
		C322.7,321.1,340.5,332.3,340.5,332.3z"/>
	<path class="st4" d="M288.8,338.3c0.8,8,2.1,15.8,3.9,23.5c2.2,7.8,2.7,9.9-9.5,10.9c-12.2,1-9,7.6,0,7.3l9-0.3
		c0,0,5.6-0.3,11.9,17.2c2.5,9.7,14.6,6.9,16,3.6c1.4-3.2-9.9-7.7-12.2-15.4c-2.1-7.8-1.4-6.4-1.4-6.4s14.3,14.7,26.6,10.2
		c7-1.5,16.8-4.6,1.8-8.7c-15-4.1-10.6,1.1-28-9.5c-17.5-10.6,0-36.5,0-36.5L288.8,338.3z"/>
	<path class="st5" d="M361.9,223.1c4.2-0.7,8.5,1,11.2,4.3c6,5.7,19.5,15.4,26.3,11.8c6.9-3.6,32.6-19.3,37.9-19.3
		s17.2,8.3,24.4,6.2c7.1-2.1,25.9-9.1,36.4-8.7c0,0-14,5.5-17.9,7.8c-3.9,2.4,1.7,10.6-25.9,9.9c0,0,3.1,10.5-15.3,7.3
		c0,0-12.5,25.6-17.8,10.1c0,0-10.5,27.2-20.4,6c0,0-4.3,16.8-17.2,10.2C370.6,262.4,361.9,223.1,361.9,223.1z"/>
	<path class="st5" d="M383.5,240c-8-11.3-9.8-6.9-14.6-13.7c-4.9-7,2.1-17.6,2.1-17.6l5.2-5.5c0,0,22.8-44.7-4.3-71.8
		s-58.4-7.4-58.4-7.4c-0.3-4.2,5.3-17.9,5.3-17.9c-7.6,2.5-18.1,21.6-18.1,21.6l-1.1-9.2c0,0-2,6.9-3.8,11.8S265.6,159,280.6,190
		c12.6,26.2,13.3,29.8,13.2,30.2c8.7,11.2,1.3,25.5-10.6,31.4c-2,2.8-13.4,18.5-28,21.1c-16,2.9-6.4,32.3-6.4,32.3
		s-25.5,9.4-79.4,25.2c-53.9,15.8-26.5,20.6-26.5,20.6c-45.6,25.3-4.3,22.4-4.3,22.4c-19.3,13.3,20,8.7,20,8.7s-12.3,9.2-6.2,13.4
		c6.2,4.2,43.8-10.1,64.4-21.3c20.6-11.2,39.2-33,52.6-32.2c13.4,0.8,13,8.4,18.6,8.4c12.7-0.3,25.3-3.5,36.5-9.7
		c3.4,2.1,7.1,3.2,11.1,3.2l3.6-1.8c3.6-1.8,3.4-7,7.3-8.7c3.9-1.7,3.6,1.5,16.9-10.8C401.9,285.4,391.4,251.3,383.5,240z"/>
	<path class="st6" d="M361.9,157.3c0,0-10.5-23.5-23.1-25.2c-12.7-1.7-27.6,8.7-33.3,23.7c-5.7,15,2.2,29.1,12.5,29.1
		c0,0-6.4,50.3,47.5,15.7S361.9,157.3,361.9,157.3z"/>
	<path class="st3" d="M466.2,258.2c1.4,1.3,27.9,13.4,27.9,13.4"/>
	<line class="st7" x1="458.8" y1="273.9" x2="481.3" y2="288"/>
	<path class="st7" d="M446.2,277.5c0,0,13.4,17.2,18.2,20.3"/>
	<path class="st7" d="M441.4,282.8c0,0,3.9,17.2,6.4,20.6"/>
	<path class="st7" d="M430.9,289.6c0,0,0,10.8,1.4,13"/>
	<path class="st7" d="M413.7,288c-0.7,4.3-1,8.7-0.8,13"/>
	<path class="st7" d="M391.2,288c-0.6,3.9-0.3,7.8,0.8,11.8"/>
	<path class="st2" d="M186.5,198c-7.6-5-15.5-9.5-23.7-13.7c-11.2-5.5-26.2-10.9-28.6-14.7c-2.5-3.8-3.2,9.2,8,19.2
		c9,6.9,18.8,12.5,29.4,16.4c0,0-38.6-10.5-41.9-11.2c-3.2-0.7,6.2,31.6,45.4,29.4c0,0-46.3-3.2-36.8,14c0,0,4.9,8.7,27.6,7.4
		c0,0-30.2,22.1,9.9,18.2c0,0-22.1,29.8,15.3,12.5c0,0-2,25.3,15.4,8.3c0,0,2,16.7,15.7,1.8c0,0,8.3,27.4,19.2,1.4
		c0,0,5.2,21,20.6,2c0,0,3.2,21.6,16.5,1.3c13.2-20.3-1.3-30.2-1.3-30.2L186.5,198z"/>
	<path class="st3" d="M192.5,204.3c0,0-12.5-9.9-16.7-2.2c-4.2,7.7,1.8,13,14,15.1c0,0-10.6-0.7-11.2,5.5
		c-0.4,6.2,5.2,12.7,20.4,13.7c0,0-7.4,8.7,0,15.3c7.4,6.6,13.4,2.7,13.4,2.7s5.9,24.1,16.9,17.6c8.7-5,9.2-6.7,9.2-6.7
		c0.3-1.7,5.5,24.8,29.1,10.6c0,0,4.9-1.5,4.6-9.2c0,0,9.5,17.2,10.5-8.4l1-25.9l-3.5,7.3L192.5,204.3z"/>
	<path class="st5" d="M293.6,220.1L293.6,220.1c-0.7,1.1-1.7,2-2.8,2.5c-25.9,13.7-26.7,8.1-34.6,3.4c-7.8-4.8-26.9-23.9-32.5-22.5
		c-20.9,6.2-26.6-0.6-39.5-8.7c-13-8.1-15.4-5.2-15.4-5.2c5.5,3.5,10.6,7.3,15.5,11.6c12.3,16.1,23.2,13,23.2,13
		c-1.5,11.9,14,10.5,14,10.5c0.3,24.4,15.1,13.3,15.1,13.3c10.8,31.9,18.6,9.8,18.6,9.8c6.4,21.8,20.4-2.5,20.4-2.5
		c0.4,5.5,7.4,5.7,7.4,5.7S307.2,239,293.6,220.1z"/>
	<path class="st8" d="M366.1,180.1c0,0-9,12.5-4.8,21.8c4.2,9.5,20.6,22.1,39.1,0C400.4,201.9,397.5,174.8,366.1,180.1z"/>
	<path class="st9" d="M365.8,180.2c0,0-12.3-31.5-2.7-40.5c9.7-9,26.6-16.5,49.8,9.4s-1,57.7-10.6,64.4
		C402.4,213.4,402.9,173.2,365.8,180.2z"/>
	<path class="st10" d="M325.2,177.2c0,0-17.9-21.1,2-30.8c16.9-5.9,22.1,21.1,16.4,26.3C337.1,173,331,174.5,325.2,177.2z"/>
	<path class="st7" d="M319.9,180.2c9.1-5.5,19.6-8,30.2-7.1"/>
	<ellipse class="st11" cx="330.8" cy="165.5" rx="9.9" ry="8.7"/>
	<ellipse class="st12" cx="331.4" cy="166.8" rx="6.4" ry="7"/>
	<ellipse transform="matrix(0.753 -0.658 0.658 0.753 -24.6138 255.3996)" class="st13" cx="327.9" cy="160.5" rx="4.3" ry="5.6"/>
	<path class="st2" d="M257,304.8c0,0-3.4-3.2-15.8,2.1l-12.5,5.3l0,0c-1.8,0-19,2.4-19.9,5c-0.8,2.7,13,6.9,18.8,6.6
		c5.7-0.3,28.6-11.3,31.2-13S257,304.8,257,304.8z"/>
	<path class="st2" d="M266.8,308.5c0,0-5-2.4-15.8,1.1c-10.9,3.5-26.2,13.4-31.2,20.3c-5,6.9-13.4,12-7,13.6
		c6.3,1.5,32.5-10.4,37.7-13.4C255.6,326.9,269.6,314.9,266.8,308.5z"/>
	<path class="st2" d="M271.2,311.7c0,0-6-4.6-18.2,2.1c-12.2,6.7-38.9,30.9-40.3,35.4c-1.4,4.5-1.4,2.9-1.4,4.3
		c0,1.4,1,16.1,18.8,5.5C247.7,348.6,271.2,311.7,271.2,311.7z"/>
	<path class="st2" d="M230,361.8c0,0,16.1-0.6,23.2-5.6c7.1-5,15.5-22.8,17.9-29.4c1.3-4.9,1.3-10.1,0-15.1c0,0-28.3,24.6-32.5,30.7
		l-4.3,6l0,0C234.5,348.5,224.3,358.9,230,361.8z"/>
	<path class="st3" d="M195.6,236.1c-1.5,1-29.7,8.7-29.7,8.7"/>
	<line class="st7" x1="200.5" y1="252.7" x2="175.9" y2="263"/>
	<path class="st7" d="M212.4,258.3c0,0-16,14.7-21.3,17.2"/>
	<path class="st7" d="M216.2,264.4c0,0-6.7,16.7-9.7,19.3"/>
	<path class="st7" d="M225.5,272.8c0,0-1.5,10.6-3.4,12.6"/>
	<path class="st7" d="M242.5,273.9c0,4.3-0.4,8.7-1.3,13"/>
	<path class="st7" d="M264.9,277.7c-0.1,3.9-1.1,7.7-2.8,11.2"/>
	<path class="st7" d="M189.8,217.2c0,0,14.7,0.7,16.7-0.6"/>
	<path class="st7" d="M199.1,236.4c7.6-1.1,15-2.7,22.3-4.8"/>
	<path class="st7" d="M212.4,254.3c0,0,21.8-8.7,25.3-13"/>
	<path class="st7" d="M238.6,265.2c3.5-2.7,6.4-6.2,8.4-10.2"/>
	<path class="st7" d="M272.4,266.7c-0.7-4.3-1.8-8.5-3.5-12.5"/>
	<path class="st7" d="M142.8,350.9c0,0,59.4-10.8,77-21.1"/>
	<path class="st7" d="M138.5,373.1c0,0,66.6-21.6,77.7-28.4"/>
	<path class="st7" d="M158.5,382.1c19.5-4.6,38.2-11.5,56.1-20.3"/>
	<path class="st3" d="M413.1,278.5c0.8-4.5,0.7-9.1-0.3-13.6"/>
	<path class="st3" d="M441.3,271.2c0,0-1.1-18.1-5.5-23.4"/>
	<path class="st3" d="M456.8,257.1c-2.1-5.3-5.2-10.1-9-14.4"/>
	<line class="st7" x1="468.6" y1="239.9" x2="454.3" y2="235"/>
	<path class="st7" d="M351.3,373.8c0,0-3.2-2.1-2.9-5"/>
	<line class="st7" x1="306.6" y1="378.6" x2="304.4" y2="373.3"/>
	<path class="st7" d="M344.1,377.1c0,0-4.3-5-3.4-7.6"/>
	<path class="st7" d="M324.5,340.8c4.9-2.7,9.2-6.4,12.5-11.1"/>
	<path class="st7" d="M306.6,205.9c0,0,2.8,9,21.3,11.6"/>
	<path class="st7" d="M352.8,217.3c5,0.3,9.9,0,14.8-0.7"/>
	<ellipse class="st14" cx="303.5" cy="226.4" rx="10.8" ry="8.7"/>
</g>
<g>
	<g>
		<rect x="587" y="396" class="st15" width="218.1" height="55.1"/>
	</g>
	<g>
		<polygon class="st15" points="930.1,422.6 788.2,512.6 788.2,332.7 		"/>
	</g>
</g>
<g>
	<path class="st16" d="M938.6,1010.2h-850c-21.9,0-39.7-17.8-39.7-39.7V728.9c0-21.9,17.8-39.7,39.7-39.7h850.1
		c21.9,0,39.7,17.8,39.7,39.7v241.5C978.3,992.4,960.6,1010.2,938.6,1010.2z"/>
	<text transform="matrix(1 0 0 1 112.3087 779.7804)" class="st17 st18 st19">Conclusion: </text>
	<text transform="matrix(1 0 0 1 112.3087 863.7805)" class="st17 st18 st19">Parrot lays eggs. </text>
	<text transform="matrix(1 0 0 1 112.3087 947.7805)" class="st17 st18 st19">(Specific Conclusion)</text>
</g>
<text transform="matrix(1 0 0 1 1016.5659 457.9032)" class="st18 st20">And its also, </text>
<g class="st21">
	<g class="st22">
		<text transform="matrix(1 0 0 1 1011.1049 777.7455)" class="st23 st18 st24">REALISTICALLY </text>
		<text transform="matrix(1 0 0 1 1187.9294 925.7432)" class="st23 st18 st25">TRUE</text>
	</g>
	<g>
		<g>
			<g>
				<text transform="matrix(1 0 0 1 1004.1049 773.7455)" class="st26 st18 st24">REALISTICALLY </text>
				<text transform="matrix(1 0 0 1 1180.9294 921.7432)" class="st26 st18 st25">TRUE</text>
			</g>
		</g>
	</g>
</g>
</svg>
