<?xml version="1.0" encoding="utf-8"?>
<!-- Generator: Adobe Illustrator 24.0.3, SVG Export Plug-In . SVG Version: 6.00 Build 0)  -->
<svg version="1.1" id="Layer_1" xmlns="http://www.w3.org/2000/svg" xmlns:xlink="http://www.w3.org/1999/xlink" x="0px" y="0px"
	 viewBox="0 0 1700 1080" style="enable-background:new 0 0 1700 1080;" xml:space="preserve">
<style type="text/css">
	.st0{fill:#4A9351;}
	.st1{fill:none;stroke:#113F0F;stroke-width:14.0713;stroke-miterlimit:10;}
	.st2{fill:#FFFFFF;}
	.st3{font-family:'CarterOne';}
	.st4{font-size:68.55px;}
	.st5{fill:#5CE81A;}
	.st6{enable-background:new    ;}
	.st7{opacity:0.53;}
	.st8{font-size:124.3298px;}
	.st9{letter-spacing:5;}
</style>
<rect class="st0" width="1700" height="1080"/>
<g>
	<line class="st1" x1="208" y1="280" x2="1559" y2="280"/>
</g>
<g>
	<text transform="matrix(1 0 0 1 683.1202 793.2783)" class="st2 st3 st4">Realistically true</text>
	<g>
		<path class="st5" d="M518.9,753.9c3,4,5.7,7.9,8.3,11.7l7.5,11.1c1.2,1.8,2.4,3.6,3.6,5.3c1.2,1.7,2.4,3.4,3.6,5
			c1.2,1.6,2.4,3.2,3.4,4.6c1.2,1.4,2.4,2.9,3.4,4.1c1.1,1.3,2.2,2.4,3.3,3.4c1.1,0.9,2,1.7,2.9,2.2c0.8,0.4,1.6,0.7,1.7,0.5
			c0.3-0.1,0.1-0.5-0.4-0.9s-1.3-0.7-1.8-0.7s-0.5-0.3-0.4-0.4c0.5-0.4,2.4-1.6,4.3-3.4c2.1-1.7,4.5-4.1,6.8-6.6
			c1.2-1.2,2.5-2.6,3.7-4c1.2-1.3,2.4-2.9,3.8-4.2c1.3-1.4,2.6-2.9,3.8-4.5s2.6-3,4-4.6c2.6-3.2,5.4-6.3,8-9.5
			c5.5-6.5,11.3-13,17.6-19.5c3.2-3.3,6.5-6.5,9.9-9.6c3.4-3.2,7-6.3,11.1-9.3l2.4,1.1c-3.4,8.2-6.8,16.2-10.5,24.2
			c-3.8,8-7.6,15.9-11.9,23.7c-4.2,7.8-8.8,15.3-13.8,22.6c-2.6,3.7-5.3,7.2-8.2,10.7c-2.9,3.4-5.9,6.7-9.5,9.7
			c-3.4,3-7.4,5.7-11.7,7.5c-2.2,0.8-4.6,1.6-7.1,1.7s-5,0-7.5-0.7c-2.4-0.7-4.6-1.8-6.6-3.3c-2-1.4-3.7-3-5.3-4.7
			c-3.2-3.6-5.5-7.5-7.5-11.5c-7.9-16.3-11.5-33.8-13.6-51.4L518.9,753.9z"/>
	</g>
</g>
<g>
	<text transform="matrix(1 0 0 1 683.1202 527.9106)" class="st2 st3 st4">Logically true</text>
	<g>
		<path class="st5" d="M518.9,488.5c3,4,5.7,7.9,8.3,11.7l7.5,11.1c1.2,1.8,2.4,3.6,3.6,5.3c1.2,1.7,2.4,3.4,3.6,5
			c1.2,1.6,2.4,3.2,3.4,4.6c1.2,1.4,2.4,2.9,3.4,4.1c1.1,1.3,2.2,2.4,3.3,3.4c1.1,0.9,2,1.7,2.9,2.2c0.8,0.4,1.6,0.7,1.7,0.5
			c0.3-0.1,0.1-0.5-0.4-0.9s-1.3-0.7-1.8-0.7s-0.5-0.3-0.4-0.4c0.5-0.4,2.4-1.6,4.3-3.4c2.1-1.7,4.5-4.1,6.8-6.6
			c1.2-1.2,2.5-2.6,3.7-4c1.2-1.3,2.4-2.9,3.8-4.2c1.3-1.4,2.6-2.9,3.8-4.5s2.6-3,4-4.6c2.6-3.2,5.4-6.3,8-9.5
			c5.5-6.5,11.3-13,17.6-19.5c3.2-3.3,6.5-6.5,9.9-9.6c3.4-3.2,7-6.3,11.1-9.3l2.4,1.1c-3.4,8.2-6.8,16.2-10.5,24.2
			c-3.8,8-7.6,15.9-11.9,23.7c-4.2,7.8-8.8,15.3-13.8,22.6c-2.6,3.7-5.3,7.2-8.2,10.7c-2.9,3.4-5.9,6.7-9.5,9.7
			c-3.4,3-7.4,5.7-11.7,7.5c-2.2,0.8-4.6,1.6-7.1,1.7s-5,0-7.5-0.7c-2.4-0.7-4.6-1.8-6.6-3.3c-2-1.4-3.7-3-5.3-4.7
			c-3.2-3.6-5.5-7.5-7.5-11.5c-7.9-16.3-11.5-33.8-13.6-51.4L518.9,488.5z"/>
	</g>
</g>
<g class="st6">
	<g class="st7">
		<text transform="matrix(1 0 0 1 207.9998 194.5142)" class="st2 st3 st8 st9">Deductive Reasoning</text>
	</g>
	<g>
		<text transform="matrix(1 0 0 1 199.6194 189.7262)" class="st3 st8 st9">Deductive Reasoning</text>
	</g>
</g>
</svg>
