<?xml version="1.0" encoding="utf-8"?>
<!-- Generator: Adobe Illustrator 24.0.3, SVG Export Plug-In . SVG Version: 6.00 Build 0)  -->
<svg version="1.1" id="Layer_1" xmlns="http://www.w3.org/2000/svg" xmlns:xlink="http://www.w3.org/1999/xlink" x="0px" y="0px"
	 viewBox="0 0 1700 1080" style="enable-background:new 0 0 1700 1080;" xml:space="preserve">
<style type="text/css">
	.st0{fill:#DA3732;stroke:#000000;stroke-width:0.8;stroke-linejoin:round;}
	.st1{fill:#DE543E;}
	.st2{fill:#AB2925;}
	.st3{fill:#E27F68;}
	.st4{fill:#A5C058;}
	.st5{fill:#006837;}
	.st6{fill:#72974F;}
	.st7{fill:#D7DC84;}
	.st8{fill:#E27F68;stroke:#000000;stroke-width:0.8;stroke-linecap:round;stroke-linejoin:round;}
	.st9{stroke:#000000;stroke-width:0.8;stroke-linecap:round;stroke-linejoin:round;}
	.st10{fill:#A82925;}
</style>
<g id="apple">
	<path class="st0" d="M697.8,378.9c0,0-103.2,27.5-75.6,171.9c27.5,144.4,68.8,206.3,144.4,226.9c55,13.8,13.8-13.8,116.9,13.8
		c103.2,27.6,185.7-220,185.7-275s-27.5-151.3-116.9-144.4c-89.4,6.9-130.7,0-130.7,0S718.5,365.2,697.8,378.9z"/>
	<path class="st1" d="M776.9,430.5c0,0,75.6,41.3,116.9,34.4c41.3-6.9,82.5-41.3,96.3-13.8s27.5,41.3,0,110
		c-27.5,68.8-110,199.4-220.1,192.6c-110-6.9-165.1-247.6-116.9-323.2S776.9,430.5,776.9,430.5z"/>
	<path class="st2" d="M756.3,416.8c0,0,130.7-34.4,130.7,0s-34.4,34.4-34.4,34.4S804.4,416.8,756.3,416.8z"/>
	<path class="st3" d="M1021.1,468.3c0,0-41.3-110-254.5-55c0,0,137.5,41.3,130.7,68.8c-6.9,27.5-89.4,0-165.1-6.9
		c-75.6-6.9-27.5,233.8,6.9,268.2c-55-48.1-137.5-185.7-82.5-316.3c55-75.6,185.7-34.4,240.7-41.3
		C952.3,378.9,1014.2,399.6,1021.1,468.3z"/>
	<g>
		<path class="st4" d="M660,251.7c0,0,34.4,130.7,75.6,144.4c41.3,13.8,82.5,13.8,96.3,27.5l13.8-13.8c0,0-27.5-27.5-27.5-34.4
			s-13.8-82.5-68.8-96.3C719.1,271.9,689.2,262.7,660,251.7z"/>
		<path class="st5" d="M660,251.7c6.9,21.3,13.8,42.4,22.5,62.9c7.9,20.7,18.3,40.3,30.8,58.6c5.8,8.9,14,15.9,23.7,20.2
			c10.5,3.4,21.2,6.1,32,8.3l32.9,6.4c5.5,1.2,11,2.5,16.5,4.3c5.9,1.7,11.3,4.7,15.9,8.7h-4.8l13.8-13.8v4.8
			c-7.8-7.9-15.2-16.2-22.1-24.9c-1.8-2.3-3.4-4.8-4.8-7.4c-0.4-0.8-0.7-1.7-1-2.5c-0.2-0.6-0.3-1.1-0.3-1.7v-1c0-1-0.3-2.5-0.5-3.7
			c-0.9-5.3-2.1-10.5-3.6-15.6c-5.5-20.8-16-40-30.5-55.8c-7.5-7.7-16.6-13.6-26.8-17.1c-4.9-1.9-10.4-3.1-15.6-4.6
			s-10.6-3-15.8-4.5C701.1,267.1,680.2,260.2,660,251.7z M660,251.7c20.6,6.9,41.7,13.3,62.9,18.8l16,4.1c5.3,1.4,10.6,2.3,16,4.3
			c10.8,3.4,20.7,9.3,28.9,17.2c15.8,16.1,27.1,35.9,32.9,57.7c1.6,5.4,3,10.8,4,16.4c0.3,1.5,0.5,3,0.6,4.5v1l0,0
			c0.1,0.4,0.3,0.9,0.6,1.3c1.3,2.2,2.7,4.3,4.3,6.3c6.8,8.4,14.1,16.4,21.8,24l2.3,2.4l-2.3,2.4l-13.8,13.8l-2.3,2.3l-2.5-2.3
			c-3.8-3.3-8.3-5.8-13.2-7.2c-5.2-1.7-10.5-3.1-15.8-4.3l-32.7-6.9c-11-2.3-21.9-5.3-32.6-8.7c-5.7-2-10.8-5.3-15-9.6
			c-4.1-4-7.8-8.4-11.1-13.2c-12.3-18.9-22.2-39.2-29.6-60.5C671.6,294.6,665.2,273.3,660,251.7z"/>
	</g>
	<path class="st6" d="M684.1,268.9c0,0,82.5,20.6,103.2,48.1c14.9,19.8,27.5,68.8,27.5,68.8s-34.4-55-48.1-68.8
		C752.9,303.3,697.8,268.9,684.1,268.9z"/>
	<path class="st7" d="M684.1,289.5l116.9,110c0,0-75.6-13.8-82.5-34.4C711.6,344.6,684.1,289.5,684.1,289.5z"/>
	<path class="st5" d="M701.3,293c12.4,9.3,24.3,19,36.2,29c11.8,10,23.4,20.1,34.9,30.3c11.5,10.2,22.8,20.6,33.9,31.5l16.5,16.2
		c5.4,5.6,10.9,11,16.1,16.7c-6.3-4.6-12.2-9.5-18.3-14.2l-17.9-14.7c-11.8-9.9-23.4-20.2-34.9-30.4c-11.5-10.2-22.8-20.6-33.9-31.6
		S711.6,304.3,701.3,293z"/>
	<path class="st5" d="M749.4,313.6c2.3,3.1,3.5,6.8,3.4,10.7c0.1,3.8-1.1,7.6-3.4,10.6c-2.3-3-3.5-6.8-3.4-10.6
		C745.9,320.4,747.1,316.7,749.4,313.6z"/>
	<path class="st5" d="M768,353c-3.1,3.6-7.1,6.2-11.6,7.6c-4.4,1.6-9.2,2-13.8,1.1c3.1-3.6,7.1-6.2,11.6-7.6
		C758.6,352.5,763.4,352.2,768,353z"/>
	<path class="st5" d="M794.5,376.9c-4,4.1-8.8,7.3-14.2,9.4c-5.4,2.2-11.1,3.2-16.9,3c8.3-8.2,19.7-12.7,31.4-12.4H794.5z"/>
	<path class="st5" d="M722.2,313.6c-1.7,2.1-4.2,3.3-6.9,3.4c-2.7,0-5.2-1.3-6.9-3.4c1.6-2.1,4.2-3.4,6.9-3.4
		C718,310.3,720.5,311.5,722.2,313.6z"/>
	<path class="st5" d="M778.8,362.8c-5.2-6.1-5.9-14.8-1.9-21.7c2.5,2.9,4.1,6.5,4.4,10.3C781.8,355.4,780.9,359.4,778.8,362.8z"/>
	<path class="st8" d="M898.8,241.4c0,0-87.4,155.8-55.6,185.7c7.9-29.8,23.8-155.8,95.3-163.3C938.5,263.8,898.8,256.4,898.8,241.4z
		"/>
	<path class="st9" d="M763.2,409.9c0,0,55,6.9,89.4,27.5s82.5,6.9,82.5,6.9s-41.3,6.9-61.9-6.9C852.6,423.6,790.7,396.1,763.2,409.9
		z"/>
	<path class="st10" d="M759.7,764.1c0,0,55-20.6,110-6.9c55,13.8,185.7-130.7,185.7-233.8C1048.5,674.7,937,758,924.7,764.1
		c-13.8,6.9-34.4,20.6-59.1,14.4C833.1,770.3,766.6,757.2,759.7,764.1z"/>
	<path class="st2" d="M897.3,255.2c3.7,3.7,8.5,6.2,13.8,6.9h-6.9C900.4,262,897.3,259,897.3,255.2z"/>
</g>
</svg>
