<?xml version="1.0" encoding="utf-8"?>
<!-- Generator: Adobe Illustrator 24.0.3, SVG Export Plug-In . SVG Version: 6.00 Build 0)  -->
<svg version="1.1" id="Layer_1" xmlns="http://www.w3.org/2000/svg" xmlns:xlink="http://www.w3.org/1999/xlink" x="0px" y="0px"
	 viewBox="0 0 1700 1080" style="enable-background:new 0 0 1700 1080;" xml:space="preserve">
<style type="text/css">
	.st0{fill:#DA3732;stroke:#000000;stroke-width:0.6186;stroke-linejoin:round;}
	.st1{fill:#DE543E;}
	.st2{fill:#AB2925;}
	.st3{fill:#E27F68;}
	.st4{fill:#A5C058;}
	.st5{fill:#006837;}
	.st6{fill:#72974F;}
	.st7{fill:#D7DC84;}
	.st8{fill:#E27F68;stroke:#000000;stroke-width:0.6186;stroke-linecap:round;stroke-linejoin:round;}
	.st9{stroke:#000000;stroke-width:0.6186;stroke-linecap:round;stroke-linejoin:round;}
	.st10{fill:#A82925;}
	.st11{fill:#DA3732;stroke:#000000;stroke-width:0.7732;stroke-linejoin:round;}
	.st12{fill:#442222;stroke:#000000;stroke-width:0.7732;stroke-linejoin:round;}
	.st13{fill:#819120;stroke:#000000;stroke-width:0.7732;stroke-linejoin:round;}
	.st14{fill:#8E6A21;stroke:#000000;stroke-width:0.7732;stroke-linejoin:round;}
	.st15{fill:#9933CC;stroke:#000000;stroke-width:0.6186;stroke-miterlimit:10;}
	.st16{fill:#FFCC33;stroke:#000000;stroke-width:0.6186;stroke-linecap:round;stroke-linejoin:round;}
	.st17{fill:#E08122;stroke:#000000;stroke-width:0.6186;stroke-miterlimit:10;}
	.st18{fill:#669933;stroke:#000000;stroke-width:0.3093;stroke-miterlimit:10;}
	.st19{fill:#7A5D3D;stroke:#000000;stroke-width:0.7732;stroke-miterlimit:10;}
	.st20{fill:#FFCC33;}
	.st21{fill:#FFEC00;}
	.st22{fill:#A37D57;}
	.st23{fill:#DA3732;stroke:#000000;stroke-width:0.7516;stroke-linejoin:round;}
	.st24{fill:#442222;stroke:#000000;stroke-width:0.7516;stroke-linejoin:round;}
	.st25{fill:#819120;stroke:#000000;stroke-width:0.7516;stroke-linejoin:round;}
	.st26{fill:#8E6A21;stroke:#000000;stroke-width:0.7516;stroke-linejoin:round;}
	.st27{fill:#9933CC;stroke:#000000;stroke-width:0.6013;stroke-miterlimit:10;}
	.st28{fill:#FFCC33;stroke:#000000;stroke-width:0.6013;stroke-linecap:round;stroke-linejoin:round;}
	.st29{fill:#E08122;stroke:#000000;stroke-width:0.6013;stroke-miterlimit:10;}
	.st30{fill:#669933;stroke:#000000;stroke-width:0.3006;stroke-miterlimit:10;}
	.st31{fill:#7A5D3D;stroke:#000000;stroke-width:0.7516;stroke-miterlimit:10;}
	.st32{fill:#8E775F;stroke:#000000;stroke-width:0.7151;stroke-miterlimit:10;}
	.st33{fill:#BA9B79;}
	.st34{font-family:'CarterOne';}
	.st35{font-size:105.0321px;}
	.st36{opacity:0.7;fill:none;stroke:#000000;stroke-width:13.243;stroke-miterlimit:10;enable-background:new    ;}
	.st37{fill:#8E775F;stroke:#000000;stroke-width:1.5574;stroke-miterlimit:10;}
	.st38{fill:#DA3732;stroke:#000000;stroke-width:0.5295;stroke-linejoin:round;}
	.st39{fill:#E27F68;stroke:#000000;stroke-width:0.5295;stroke-linecap:round;stroke-linejoin:round;}
	.st40{stroke:#000000;stroke-width:0.5295;stroke-linecap:round;stroke-linejoin:round;}
</style>
<g id="apple">
	<path class="st0" d="M364.2,93.6c0,0-45.1,12-33,75.1c12.1,63.1,30,90.1,63.1,99.1c24,6,6-6,51,6c45.1,12,81.1-96.1,81.1-120.2
		s-12-66.1-51-63.1c-39,3-57.1,0-57.1,0S373.1,87.6,364.2,93.6z"/>
	<path class="st1" d="M398.7,116.1c0,0,33,18,51,15c18-3,36-18,42.1-6s12,18,0,48.1c-12,30-48.1,87.1-96.1,84.1
		c-48-3-72.1-108.2-51-141.2S398.7,116.1,398.7,116.1z"/>
	<path class="st2" d="M389.7,110.2c0,0,57.1-15,57.1,0s-15,15-15,15S410.7,110.2,389.7,110.2z"/>
	<path class="st3" d="M505.4,132.7c0,0-18-48.1-111.1-24c0,0,60.1,18,57.1,30c-3,12-39,0-72.1-3s-12,102.1,3,117.1
		c-24-21-60.1-81.1-36-138.2c24-33,81.1-15,105.2-18C475.3,93.6,502.4,102.7,505.4,132.7z"/>
	<g>
		<path class="st4" d="M347.6,38c0,0,15,57.1,33,63.1c18,6,36,6,42.1,12l6-6c0,0-12-12-12-15c0-3-6-36-30-42.1
			C373.5,46.8,360.4,42.8,347.6,38z"/>
		<path class="st5" d="M347.6,38c3,9.3,6,18.5,9.8,27.4c3.5,9,8,17.6,13.5,25.6c2.6,3.9,6.1,7,10.4,8.8c4.6,1.5,9.3,2.7,14,3.6
			l14.4,2.8c2.4,0.5,4.8,1.1,7.2,1.9c2.6,0.8,4.9,2,7,3.8h-2.1l6-6v2.1c-3.4-3.4-6.6-7-9.7-10.9c-0.8-1-1.5-2.1-2.1-3.2
			c-0.2-0.4-0.3-0.7-0.4-1.1c-0.1-0.2-0.2-0.5-0.2-0.8v-0.4c0-0.5-0.2-1.1-0.2-1.6c-0.4-2.3-0.9-4.6-1.6-6.8
			c-2.4-9.1-7-17.5-13.3-24.4c-3.2-3.4-7.3-6-11.8-7.4c-2.2-0.8-4.6-1.3-6.8-2c-2.2-0.7-4.6-1.3-6.9-2
			C365.6,44.7,356.4,41.7,347.6,38z M347.6,38c9,3,18.2,5.8,27.4,8.2l7,1.8c2.3,0.6,4.6,1,7,1.9c4.7,1.5,9,4,12.6,7.5
			c6.9,7,11.8,15.7,14.4,25.2c0.7,2.3,1.3,4.7,1.8,7.1c0.2,0.6,0.2,1.3,0.2,1.9c0,0,0,0.4,0,0.5l0,0c0.1,0.2,0.2,0.4,0.2,0.5
			c0.5,1,1.2,1.9,1.9,2.8c2.9,3.6,6.2,7.2,9.5,10.5l1,1.1l-1,1.1l-6,6l-1,1l-1.1-1c-1.7-1.5-3.6-2.6-5.8-3.2
			c-2.2-0.8-4.6-1.4-6.9-1.9l-14.3-3c-4.8-1-9.6-2.3-14.2-3.8c-2.5-0.9-4.7-2.3-6.6-4.2c-1.8-1.8-3.4-3.7-4.9-5.8
			c-5.3-8.3-9.7-17.1-12.9-26.4C352.7,56.7,349.9,47.4,347.6,38z"/>
	</g>
	<path class="st6" d="M358.1,45.5c0,0,36,9,45.1,21c6.5,8.7,12,30,12,30s-15-24-21-30C388.1,60.6,364.2,45.5,358.1,45.5z"/>
	<path class="st7" d="M358.1,54.6l51,48.1c0,0-33-6-36-15C370.2,78.6,358.1,54.6,358.1,54.6z"/>
	<path class="st5" d="M365.6,56c5.4,4,10.7,8.4,15.8,12.7c5.2,4.3,10.2,8.7,15.2,13.2c5,4.5,10,9,14.8,13.8l7.2,7.1
		c2.3,2.4,4.7,4.8,7,7.3c-2.7-2-5.3-4.2-8-6.2l-7.8-6.4c-5.2-4.3-10.2-8.8-15.2-13.3s-10-9-14.8-13.8C375.1,65.6,370.2,61,365.6,56z
		"/>
	<path class="st5" d="M386.7,65.1c1,1.3,1.5,3,1.5,4.6c0.1,1.7-0.5,3.3-1.5,4.6c-1-1.3-1.5-2.9-1.5-4.6
		C385.2,68,385.7,66.4,386.7,65.1z"/>
	<path class="st5" d="M394.8,82.3c-1.4,1.5-3.1,2.7-5.1,3.3c-1.9,0.7-4,0.9-6,0.5c1.4-1.5,3.1-2.7,5.1-3.3
		C390.7,82.1,392.8,81.9,394.8,82.3z"/>
	<path class="st5" d="M406.4,92.7c-1.8,1.8-3.9,3.2-6.2,4.1c-2.3,1-4.9,1.4-7.4,1.3C396.4,94.5,401.4,92.5,406.4,92.7L406.4,92.7z"
		/>
	<path class="st5" d="M374.8,65.1c-0.8,0.9-1.9,1.5-3,1.5c-1.2,0-2.3-0.5-3-1.5c0.7-0.9,1.9-1.5,3-1.5
		C373,63.6,374.1,64.1,374.8,65.1z"/>
	<path class="st5" d="M399.6,86.6c-2.2-2.6-2.6-6.4-0.9-9.4c1.1,1.2,1.8,2.9,1.9,4.5C400.8,83.3,400.4,85,399.6,86.6z"/>
	<path class="st8" d="M451.9,33.5c0,0-38.2,68-24.3,81.1c3.5-13.1,10.4-68,41.6-71.3C469.3,43.3,451.9,40.1,451.9,33.5z"/>
	<path class="st9" d="M392.7,107.1c0,0,24,3,39,12c15,9,36,3,36,3s-18,3-27.1-3C431.8,113.2,404.7,101.1,392.7,107.1z"/>
	<path class="st10" d="M391.2,261.9c0,0,24-9,48.1-3c24,6,81.1-57.1,81.1-102.1c-3,66.1-51.7,102.5-57.1,105.2c-6,3-15,9-25.8,6.3
		C423.3,264.6,394.2,258.8,391.2,261.9z"/>
	<path class="st2" d="M451.3,39.6c1.6,1.6,3.7,2.7,6,3h-3C452.6,42.6,451.3,41.2,451.3,39.6z"/>
</g>
<g id="fruits">
	<path class="st11" d="M1287.8,76.5c0,0-39.8,12-23.9,35.9c10.1,14.4,26.3,23.2,43.8,23.9c0,0,43.8-12,43.8-27.9
		s-15.9-47.8-35.9-51.8C1300.1,53.5,1295.7,56.7,1287.8,76.5z"/>
	<polygon class="st12" points="1279.8,64.6 1287.8,76.5 1287.8,60.6 	"/>
	<path class="st13" d="M1399,105.1c0,0-23.4-34.3-41.4-12c-10.7,14-14.2,32.2-9.5,49.1c0,0,23.9,30.8,39.3,26
		c15.4-4.8,39.8-23.9,39-42.5C1425.8,109.7,1420.4,106.7,1399,105.1z"/>
	<polygon class="st14" points="1407.9,93.9 1399,105.1 1414.2,100.3 	"/>
	<circle class="st15" cx="1327.6" cy="144.3" r="12"/>
	<circle class="st15" cx="1315.7" cy="128.3" r="12"/>
	<circle class="st15" cx="1307.7" cy="148.3" r="12"/>
	<circle class="st15" cx="1339.6" cy="124.4" r="12"/>
	<circle class="st15" cx="1323.6" cy="108.4" r="12"/>
	<circle class="st15" cx="1303.7" cy="108.4" r="12"/>
	<circle class="st15" cx="1347.5" cy="144.3" r="12"/>
	<circle class="st15" cx="1331.6" cy="160.2" r="12"/>
	<circle class="st15" cx="1315.7" cy="160.2" r="12"/>
	<circle class="st15" cx="1295.7" cy="132.4" r="12"/>
	<circle class="st15" cx="1295.7" cy="148.3" r="12"/>
	<circle class="st15" cx="1291.7" cy="160.2" r="12"/>
	<circle class="st15" cx="1315.7" cy="140.3" r="12"/>
	<circle class="st15" cx="1335.5" cy="136.3" r="12"/>
	<circle class="st15" cx="1315.7" cy="124.4" r="12"/>
	<path class="st16" d="M1451.1,104.4c-2.4-5-3.7-10.4-4-15.9c0-8,12-15.9,12-8s-4,23.9,4,31.9c8,8,2.3,24.6,0,27.9
		c-6.9,9.7-14.7,19.9-19.5,26.1c-3.2,4.2-7.6,7.4-12.4,9.4c-16.2,6.5-54.2,17.6-87.6-3.6c0,0-4-4,4-8c8-4,27.9,0,43.8-4
		c15.9-4,35.9-23.9,43.8-35.9C1443,112.4,1451.1,112.4,1451.1,104.4z"/>
	<ellipse class="st17" cx="1233.9" cy="154.2" rx="47.8" ry="43.8"/>
	<ellipse class="st18" cx="1220" cy="130.3" rx="6" ry="4"/>
	<ellipse class="st18" cx="1212.1" cy="134.3" rx="6" ry="4"/>
	<ellipse class="st18" cx="1212.1" cy="130.3" rx="6" ry="4"/>
	<path class="st19" d="M1170.2,174.2H1481l0,0v19.7c0,35.3-28.6,63.9-63.9,63.9h-182.8c-35.3,0-63.9-28.6-63.9-63.9l0,0
		L1170.2,174.2L1170.2,174.2z"/>
	<path class="st20" d="M1241.9,126.3c15.2,6,25.8,19.7,27.9,35.9c0,0,8-19.9-8-31.9C1248.7,120.5,1241.9,126.3,1241.9,126.3z"/>
	<path class="st21" d="M1453.1,130.3c0,0-12,31.9-19.9,35.9c0,0,19.9-15.9,23.9-27.9c2.5-6.4,2.5-13.5,0-19.9L1453.1,130.3z"/>
	<path class="st22" d="M1471,186.1h-39.8c0,0-4,59.8-15.9,63.7C1415.3,249.8,1471,237.9,1471,186.1z"/>
</g>
<g id="fruits_1_">
	<path class="st23" d="M1296.8,330.9c0,0-38.7,11.6-23.2,34.9c9.8,14,25.6,22.5,42.6,23.2c0,0,42.6-11.6,42.6-27.1
		c0-15.5-15.5-46.4-34.9-50.4C1308.8,308.5,1304.6,311.5,1296.8,330.9z"/>
	<polygon class="st24" points="1289.1,319.3 1296.8,330.9 1296.8,315.4 	"/>
	<path class="st25" d="M1404.9,358.7c0,0-22.8-33.4-40.2-11.6c-10.4,13.6-13.8,31.3-9.2,47.7c0,0,23.2,29.9,38.2,25.3
		c15-4.7,38.7-23.2,38-41.3C1431,363.1,1425.7,360.2,1404.9,358.7z"/>
	<polygon class="st26" points="1413.6,347.8 1404.9,358.7 1419.7,353.9 	"/>
	<circle class="st27" cx="1335.5" cy="396.7" r="11.6"/>
	<circle class="st27" cx="1323.9" cy="381.2" r="11.6"/>
	<circle class="st27" cx="1316.2" cy="400.6" r="11.6"/>
	<circle class="st27" cx="1347.2" cy="377.4" r="11.6"/>
	<circle class="st27" cx="1331.7" cy="361.8" r="11.6"/>
	<circle class="st27" cx="1312.3" cy="361.8" r="11.6"/>
	<circle class="st27" cx="1354.9" cy="396.7" r="11.6"/>
	<circle class="st27" cx="1339.4" cy="412.2" r="11.6"/>
	<circle class="st27" cx="1323.9" cy="412.2" r="11.6"/>
	<circle class="st27" cx="1304.6" cy="385.1" r="11.6"/>
	<circle class="st27" cx="1304.6" cy="400.6" r="11.6"/>
	<circle class="st27" cx="1300.6" cy="412.2" r="11.6"/>
	<circle class="st27" cx="1323.9" cy="392.9" r="11.6"/>
	<circle class="st27" cx="1343.3" cy="389" r="11.6"/>
	<circle class="st27" cx="1323.9" cy="377.4" r="11.6"/>
	<path class="st28" d="M1455.6,358c-2.3-4.9-3.6-10.1-3.9-15.5c0-7.7,11.6-15.5,11.6-7.7s-3.9,23.2,3.9,31c7.7,7.7,2.3,23.9,0,27.1
		c-6.7,9.4-14.3,19.4-18.9,25.3c-3.2,4.1-7.4,7.2-12.1,9.2c-15.8,6.3-52.7,17.1-85.2-3.5c0,0-3.9-3.9,3.9-7.7
		c7.7-3.9,27.1,0,42.6-3.9c15.5-3.9,34.9-23.2,42.6-34.9C1447.7,365.7,1455.6,365.7,1455.6,358z"/>
	<ellipse class="st29" cx="1244.5" cy="406.4" rx="46.4" ry="42.6"/>
	<ellipse class="st30" cx="1231" cy="383.2" rx="5.8" ry="3.9"/>
	<ellipse class="st30" cx="1223.2" cy="387" rx="5.8" ry="3.9"/>
	<ellipse class="st30" cx="1223.2" cy="383.2" rx="5.8" ry="3.9"/>
	<path class="st31" d="M1182.6,425.8h302.1l0,0V445c0,34.3-27.8,62.2-62.2,62.2h-177.7c-34.3,0-62.2-27.8-62.2-62.2l0,0
		L1182.6,425.8L1182.6,425.8z"/>
	<path class="st20" d="M1252.2,379.3c14.7,5.9,25.1,19.2,27.1,34.9c0,0,7.7-19.4-7.7-31C1258.9,373.6,1252.2,379.3,1252.2,379.3z"/>
	<path class="st21" d="M1457.5,383.2c0,0-11.6,31-19.4,34.9c0,0,19.4-15.5,23.2-27.1c2.4-6.2,2.4-13.2,0-19.4L1457.5,383.2z"/>
	<path class="st22" d="M1474.9,437.4h-38.7c0,0-3.9,58.1-15.5,61.9C1420.8,499.3,1474.9,487.7,1474.9,437.4z"/>
</g>
<path d="M785.5,158.3v-14.1h121.2v14.1H785.5z M785.5,204.2V190h121.2v14.1L785.5,204.2z"/>
<g>
	<polygon class="st32" points="420.3,421.8 358.1,456 421.8,496.2 480.6,459 	"/>
	<polygon class="st33" points="324,374.5 420.3,317.4 420.3,422.5 324,479.7 	"/>
	<path d="M418.7,320.1v101.5l-93.2,55.3V375.5L418.7,320.1 M421.8,314.7l-99.4,59v108.7l99.4-59V314.7z"/>
	<polygon class="st33" points="423.3,422.5 423.3,317.4 519.6,374.5 519.6,479.7 	"/>
	<path d="M424.9,320.1l93.2,55.3v101.5l-93.2-55.3V320.1 M421.8,314.7v108.7l99.4,59V373.7L421.8,314.7z"/>
	<polygon class="st33" points="423.3,433.5 519.6,376.4 519.6,481.5 423.3,538.6 	"/>
	<path d="M518.1,379.1v101.5l-93.2,55.3V434.5L518.1,379.1 M521.2,373.7l-99.3,59v108.7l99.4-59L521.2,373.7L521.2,373.7z"/>
	<polygon class="st33" points="324,481.5 324,376.4 420.3,433.5 420.3,538.6 	"/>
	<path d="M325.5,379.1l93.2,55.3v101.5l-93.2-55.3V379.1 M322.4,373.7v108.7l99.4,59V432.7L322.4,373.7z"/>
</g>
<text transform="matrix(1 0 0 1 649.6736 458.9869)" class="st34 st35">is full of</text>
<line class="st36" x1="48" y1="593.1" x2="1670" y2="593.1"/>
<g>
	<polygon class="st37" points="867.9,835 752.7,898.4 870.9,973.2 980.1,904 	"/>
	<polygon class="st33" points="689.3,747.2 867.9,641.1 867.9,836.3 689.3,942.4 	"/>
	<path d="M865.1,646.1v188.4l-173,102.8V748.9L865.1,646.1 M870.9,636L686.3,745.6v201.8l184.6-109.6V636z"/>
	<polygon class="st33" points="873.9,836.3 873.9,641.1 1052.5,747.2 1052.5,942.4 	"/>
	<path d="M876.7,646.1l173,102.8v188.4l-173-102.8V646.1 M870.9,636v201.8l184.6,109.6V745.6L870.9,636z"/>
	<g id="apple_1_">
		<path class="st38" d="M732,656.4c0,0-36.9,9.8-27.1,61.7c9.8,51.9,24.6,74,51.9,81.3c19.6,5,4.8-4.8,41.9,5
			c37.1,9.8,66.5-79,66.5-98.6s-9.8-54.2-41.9-51.9c-15.6,1.7-31.3,1.7-46.9,0C776.4,653.8,739.5,651.4,732,656.4z"/>
		<path class="st1" d="M760.3,674.9c0,0,27.1,14.8,41.9,12.3c14.8-2.5,29.6-14.8,34.6-5s9.8,14.8,0,39.4s-39.4,71.5-79,69.1
			c-39.4-2.2-59.2-88.9-42.1-116C733.2,647.8,760.3,674.9,760.3,674.9z"/>
		<path class="st2" d="M753,670c0,0,46.9-12.3,46.9,0c0,6.7-5.3,12.1-12,12.1c-0.2,0-0.2,0-0.3,0C777.3,675.1,765.3,670.9,753,670z"
			/>
		<path class="st3" d="M847.8,688.5c0,0-14.8-39.4-91.1-19.8c0,0,49.2,14.8,46.9,24.6c-2.5,9.8-32.1,0-59.2-2.5
			c-27.1-2.5-9.8,83.8,2.5,96.1c-19.8-17.3-49.4-66.5-29.6-113.4c19.8-27.1,66.5-12.3,86.4-14.8
			C823.7,656.3,845.4,663.9,847.8,688.5z"/>
		<g>
			<path class="st4" d="M718.4,610.8c0,0,12.3,46.9,27.1,51.9c14.8,5.1,29.6,5,34.6,9.8l4.8-4.8c0,0-9.8-9.8-9.8-12.3
				s-4.8-29.6-24.6-34.6C739.8,618.1,729,614.8,718.4,610.8z"/>
			<path class="st5" d="M718.4,610.8c2.3,7.6,5.1,15.1,8.3,22.6c2.8,7.5,6.5,14.5,11.1,21c2,3.1,5,5.8,8.4,7.3
				c3.7,1.2,7.6,2.2,11.5,3l11.5,2.3c4.2,0.6,8.1,2.2,11.5,4.7H779l4.8-4.8v1.7c-2.8-2.8-5.5-5.8-7.9-8.9c-0.6-0.8-1.2-1.7-1.7-2.6
				c-0.2-0.3-0.3-0.6-0.5-0.9c0-0.5,0-0.9,0-0.9c0-0.5,0-0.9,0-1.4c-0.3-2-0.8-3.9-1.4-5.8c-2-7.5-6.1-14.3-11.4-19.8
				c-2.6-2.6-5.9-4.7-9.5-5.8c-3.6-1.2-7.6-2-11.5-3.3C733.2,616.4,725.7,613.9,718.4,610.8z M718.4,610.8c7.5,2.6,15,4.8,22.6,6.7
				c3.7,1.1,7.6,1.7,11.5,3c3.9,1.2,7.5,3.3,10.3,6.2c5.6,5.8,9.7,13.1,11.8,20.9c0.6,1.9,1.1,3.9,1.4,5.8c0,0.5,0,1.1,0,1.6
				c0,0.2,0,0.3,0,0.5s0,0.3,0,0.5c0.5,0.8,0.9,1.6,1.6,2.3c2.5,3,5,5.9,7.8,8.6l0.9,0.9l-0.9,0.9l-4.8,4.8l-0.9,0.9l-0.9-0.9
				c-3.1-2.2-6.7-3.6-10.4-4l-11.5-2.5c-3.9-0.8-7.8-1.9-11.5-3.1c-3.9-1.7-7.2-4.7-9.3-8.3c-4.4-6.7-7.9-14-10.7-21.6
				C722.8,626.2,720.5,618.7,718.4,610.8z"/>
		</g>
		<path class="st6" d="M727.1,617c0,0,29.6,7.3,36.9,17.3c4.4,7.8,7.8,16,9.8,24.8c-5.3-8.6-11.1-16.8-17.3-24.6
			C751.8,629.3,732,617,727.1,617z"/>
		<path class="st7" d="M727.1,624.5l41.9,39.4c0,0-27.1-5-29.6-12.3C737,644.3,727.1,624.5,727.1,624.5z"/>
		<path class="st5" d="M733.2,625.6c8.9,6.7,17.3,14,25.4,21.3s16.4,15,23.8,23c-8.9-6.7-17.3-14-25.4-21.3
			C749,641.5,740.9,633.8,733.2,625.6z"/>
		<path class="st5" d="M750.5,633c0.8,1.1,1.2,2.5,1.2,3.9s-0.5,2.6-1.2,3.7c-0.8-1.1-1.2-2.5-1.2-3.7
			C749.3,635.4,749.7,634.1,750.5,633z"/>
		<path class="st5" d="M757.2,647.1c-1.1,1.2-2.5,2.2-4.2,2.8c-1.6,0.5-3.3,0.6-5,0.5c1.1-1.2,2.5-2.2,4.2-2.8
			C753.8,647.1,755.5,646.9,757.2,647.1z"/>
		<path class="st5" d="M766.7,655.6c-3,3-7,4.5-11.2,4.5c1.4-1.6,3.3-2.6,5.1-3.4C762.5,655.9,764.7,655.6,766.7,655.6z"/>
		<path class="st5" d="M740.7,633c-0.6,0.8-1.6,1.2-2.5,1.2s-1.9-0.5-2.5-1.2c0.6-0.8,1.6-1.1,2.5-1.2
			C739.1,631.8,740.1,632.3,740.7,633z"/>
		<path class="st5" d="M761.3,650.6c-0.9-1.1-1.4-2.3-1.6-3.7s0.2-2.8,0.9-4c0.9,1.1,1.4,2.5,1.6,3.7
			C762.3,648,762,649.4,761.3,650.6z"/>
		<path class="st39" d="M804.1,607.2c0,0-31.1,55.8-19.6,66.3c3-10.6,8.6-55.8,34.3-58.4C818.3,615.1,804.1,612.5,804.1,607.2z"/>
		<path class="st40" d="M755.5,667.5c11.2,1.4,22,4.8,32.1,9.8c12.3,7.3,29.6,2.5,29.6,2.5s-14.8,2.5-22.3-2.5
			C787.4,672.3,765.3,662.5,755.5,667.5z"/>
		<path class="st10" d="M754.2,794.4c12.6-4.4,26.3-5.3,39.4-2.6c19.8,4.8,66.5-46.9,66.5-83.8c-1.6,34.4-18.8,66.3-46.9,86.4
			c-5,2.5-12.3,7.3-21.2,5.1C780.6,796.7,756.7,791.7,754.2,794.4z"/>
		<path class="st2" d="M803.5,612c1.2,1.4,3,2.2,4.8,2.5h-2.5C804.6,614.5,803.5,613.4,803.5,612L803.5,612z"/>
	</g>
	<g id="apple-2">
		<path class="st38" d="M807,708.3c0,0-36.9,9.8-27.1,61.7c9.8,51.9,24.6,74,51.9,81.3c19.6,5,4.8-4.8,41.9,5
			c36.9,9.8,66.5-79,66.5-98.6c0-19.6-9.8-54.2-41.9-51.9c-15.6,1.7-31.3,1.7-46.9,0C851.3,705.6,814.4,703.4,807,708.3z"/>
		<path class="st1" d="M835.4,726.8c0,0,27.1,14.8,41.9,12.3c14.8-2.5,29.6-14.8,34.6-5c5,9.8,9.8,14.8,0,39.4
			c-9.8,24.6-39.4,71.5-79,69.1c-39.4-2.2-59.2-88.9-42.1-116C808.1,699.7,835.4,726.8,835.4,726.8z"/>
		<path class="st2" d="M827.9,722c0,0,46.9-12.3,46.9,0c0,6.7-5.3,12.1-12,12.1c-0.2,0-0.2,0-0.3,0C852.2,727,840.4,722.8,827.9,722
			z"/>
		<path class="st3" d="M922.8,740.4c0,0-14.8-39.4-91.1-19.8c0,0,49.2,14.8,46.9,24.6c-2.5,9.8-32.1,0-59.2-2.5s-9.8,83.8,2.5,96.1
			c-19.8-17.3-49.4-66.5-29.6-113.4c19.8-27.1,66.5-12.3,86.4-14.8C898.6,708.1,920.4,715.7,922.8,740.4z"/>
		<g>
			<path class="st4" d="M793.5,662.8c0,0,12.3,46.9,27.1,51.9c14.8,5.1,29.6,5,34.6,9.8l4.8-4.8c0,0-9.8-9.8-9.8-12.3
				s-4.8-29.6-24.6-34.6C814.7,670,803.9,666.7,793.5,662.8z"/>
			<path class="st5" d="M793.5,662.8c2.3,7.6,5.1,15.1,8.3,22.6c2.8,7.5,6.5,14.5,11.1,21c2,3.1,5,5.8,8.4,7.3
				c3.7,1.2,7.6,2.2,11.5,3l11.5,2.3c4.2,0.6,8.1,2.2,11.5,4.7h-1.7l4.8-4.8v1.7c-2.8-2.8-5.5-5.8-7.9-8.9c-0.6-0.8-1.2-1.7-1.7-2.6
				c-0.2-0.3-0.3-0.6-0.5-0.9c0-0.5,0-0.9,0-0.9c0-0.5,0-0.9,0-1.4c-0.3-2-0.8-3.9-1.4-5.8c-2-7.5-6.1-14.3-11.4-19.8
				c-2.6-2.8-5.9-4.8-9.5-6.1c-3.6-1.2-7.6-2-11.5-3.3C808.1,668.2,800.7,665.8,793.5,662.8z M793.5,662.8c7.5,2.6,15,4.8,22.6,6.7
				c3.7,1.1,7.6,1.7,11.5,3s7.5,3.3,10.3,6.2c5.6,5.8,9.7,13.1,11.8,20.9c0.6,1.9,1.1,3.9,1.4,5.8c0,0.5,0,1.1,0,1.6
				c0,0.2,0,0.3,0,0.5s0,0.3,0,0.5c0.5,0.8,0.9,1.6,1.6,2.3c2.5,3,5,5.9,7.8,8.6l0.9,0.9l-0.9,0.9l-4.8,4.8l-0.9,0.9l-0.9-0.9
				c-3.1-2.2-6.7-3.6-10.4-4l-11.5-2.5c-3.9-0.8-7.8-1.9-11.5-3.1c-3.9-1.7-7.2-4.7-9.3-8.3c-4.4-6.7-7.9-14-10.7-21.6
				C797.7,678.1,795.4,670.6,793.5,662.8z"/>
		</g>
		<path class="st6" d="M802.1,668.9c0,0,29.6,7.3,36.9,17.3c4.4,7.8,7.8,16,9.8,24.8c-5.3-8.6-11.1-16.8-17.3-24.6
			C826.7,681.2,807,668.9,802.1,668.9z"/>
		<path class="st7" d="M802.1,676.3l41.9,39.4c0,0-27.1-5-29.6-12.3C811.9,696.1,802.1,676.3,802.1,676.3z"/>
		<path class="st5" d="M808.3,677.4c8.9,6.7,17.3,14,25.4,21.3c8.1,7.3,16.4,15,23.8,23c-8.9-6.7-17.3-14-25.4-21.3
			C824,693.3,815.8,685.7,808.3,677.4z"/>
		<path class="st5" d="M825.6,684.9c0.8,1.1,1.2,2.5,1.2,3.9s-0.5,2.6-1.2,3.7c-0.8-1.1-1.2-2.5-1.2-3.7
			C824.3,687.4,824.6,686,825.6,684.9z"/>
		<path class="st5" d="M832.1,699.1c-1.1,1.2-2.5,2.2-4.2,2.8c-1.6,0.5-3.3,0.6-5,0.5c1.1-1.2,2.5-2.2,4.2-2.8
			C828.8,698.9,830.4,698.8,832.1,699.1z"/>
		<path class="st5" d="M841.6,707.6c-3.1,3-7.3,4.7-11.5,4.5c1.4-1.6,3.3-2.6,5.1-3.4C837.3,707.8,839.4,707.5,841.6,707.6z"/>
		<path class="st5" d="M815.8,684.9c-0.6,0.8-1.6,1.2-2.5,1.2c-0.9,0-1.9-0.5-2.5-1.2c0.6-0.8,1.6-1.1,2.5-1.2
			C814.2,683.7,815.1,684.1,815.8,684.9z"/>
		<path class="st5" d="M836.3,702.5c-0.9-1.1-1.4-2.3-1.6-3.7c-0.2-1.4,0.2-2.8,0.9-4c0.9,1.1,1.4,2.5,1.6,3.7
			C837.3,699.9,836.9,701.3,836.3,702.5z"/>
		<path class="st39" d="M879,659.1c0,0-31.1,55.8-19.6,66.3c3-10.6,8.6-55.8,34.3-58.4C893.3,667,879,664.4,879,659.1z"/>
		<path class="st40" d="M830.6,719.5c11.2,1.4,22,4.8,32.1,9.8c12.3,7.3,29.6,2.5,29.6,2.5s-14.8,2.5-22.3-2.5
			C862.5,724.3,840.2,714.5,830.6,719.5z"/>
		<path class="st10" d="M829.2,846.4c12.6-4.4,26.3-5.3,39.4-2.6c19.8,4.8,66.5-46.9,66.5-83.8c-1.6,34.4-18.8,66.3-46.9,86.4
			c-5,2.5-12.3,7.3-21.2,5.1C855.5,848.6,831.7,843.6,829.2,846.4z"/>
		<path class="st2" d="M878.5,663.9c1.2,1.4,3,2.2,4.8,2.5h-2.5C879.6,666.4,878.5,665.3,878.5,663.9
			C878.5,664,878.5,664,878.5,663.9z"/>
	</g>
	<g id="apple-3">
		<path class="st38" d="M899.2,679.5c0,0-36.9,9.8-27.1,61.7c9.8,51.9,24.6,74,51.9,81.3c19.6,5,4.8-4.8,41.9,5
			c36.9,9.8,66.5-79,66.5-98.6c0-19.6-9.8-54.2-41.9-51.9c-15.6,1.7-31.3,1.7-46.9,0C943.6,676.8,906.7,674.6,899.2,679.5z"/>
		<path class="st1" d="M927.6,698c0,0,27.1,14.8,41.9,12.3c14.8-2.5,29.6-14.8,34.6-5c5,9.8,9.8,14.8,0,39.4
			c-9.8,24.6-39.4,71.5-79,69.1c-39.6-2.3-59.2-88.9-42.1-116C900.5,670.9,927.6,698,927.6,698z"/>
		<path class="st2" d="M920.3,693c0,0,46.9-12.3,46.9,0c0,6.7-5.3,12.1-12,12.1c-0.2,0-0.2,0-0.3,0
			C944.6,698.1,932.6,693.9,920.3,693z"/>
		<path class="st3" d="M1015.1,711.5c0,0-14.8-39.4-91.1-19.8c0,0,49.2,14.8,46.9,24.6c-2.5,9.8-32.1,0-59.2-2.5
			c-27.1-2.5-9.8,83.8,2.5,96.1c-19.8-17.3-49.4-66.5-29.6-113.4c19.8-27.1,66.5-12.3,86.4-14.8
			C991,679.3,1012.6,686.9,1015.1,711.5z"/>
		<g>
			<path class="st4" d="M885.7,633.8c0,0,12.3,46.9,27.1,51.9c14.8,5.1,29.6,5,34.6,9.8l4.8-4.8c0,0-9.8-9.8-9.8-12.3
				c0-2.5-4.8-29.6-24.6-34.6C906.9,641.1,896.3,637.9,885.7,633.8z"/>
			<path class="st5" d="M885.7,633.8c2.3,7.6,5.1,15.1,8.3,22.6c2.8,7.5,6.5,14.5,11.1,21c2,3.1,5,5.8,8.4,7.3
				c3.7,1.2,7.6,2.2,11.5,3l11.5,2.3c4.2,0.6,8.1,2.2,11.5,4.7h-1.6l4.8-4.8v1.7c-2.8-2.8-5.5-5.8-7.9-8.9c-0.6-0.8-1.2-1.7-1.7-2.6
				c-0.2-0.3-0.3-0.6-0.5-0.9c0-0.5,0-0.9,0-0.9c0-0.5,0-0.9,0-1.4c-0.3-2-0.8-3.9-1.4-5.8c-2-7.5-6.1-14.3-11.4-19.8
				c-2.6-2.8-5.9-4.8-9.5-6.1c-3.6-1.2-7.6-2-11.5-3.3C900.5,639.4,893,636.9,885.7,633.8z M885.7,633.8c7.5,2.6,15,4.8,22.6,6.7
				c3.7,1.1,7.6,1.7,11.5,3c3.9,1.2,7.5,3.3,10.3,6.2c5.6,5.8,9.7,13.1,11.8,20.9c0.6,1.9,1.1,3.9,1.4,5.8c0,0.5,0,1.1,0,1.6
				c0,0.2,0,0.3,0,0.5s0,0.3,0,0.5c0.5,0.8,0.9,1.6,1.6,2.3c2.5,3,5,5.9,7.8,8.6l0.9,0.9l-0.9,0.9l-4.8,4.8l-0.9,0.9l-0.9-0.9
				c-3.1-2.2-6.7-3.6-10.4-4l-11.5-2.5c-3.9-0.8-7.8-1.9-11.5-3.1c-3.9-1.7-7.2-4.7-9.3-8.3c-4.4-6.7-7.9-14-10.7-21.6
				C890.1,649.2,887.7,641.8,885.7,633.8z"/>
		</g>
		<path class="st6" d="M894.4,640.1c0,0,29.6,7.3,36.9,17.3c4.4,7.8,7.8,16,9.8,24.8c-5.3-8.6-11.1-16.8-17.3-24.6
			C919,652.4,899.2,640.1,894.4,640.1z"/>
		<path class="st7" d="M894.4,647.5l41.9,39.4c0,0-27.1-5-29.6-12.3S894.4,647.5,894.4,647.5z"/>
		<path class="st5" d="M900.5,648.6c8.9,6.7,17.3,14,25.4,21.3c8.1,7.3,16.4,15,23.8,23c-8.9-6.7-17.3-14-25.4-21.3
			C916.2,664.5,908,656.9,900.5,648.6z"/>
		<path class="st5" d="M917.8,656.1c0.8,1.1,1.2,2.5,1.2,3.9s-0.5,2.6-1.2,3.7c-0.8-1.1-1.2-2.5-1.2-3.7
			C916.5,658.6,917,657.2,917.8,656.1z"/>
		<path class="st5" d="M924.5,670.1c-1.1,1.2-2.5,2.2-4.2,2.8c-1.6,0.5-3.3,0.6-5,0.5c1.1-1.2,2.5-2.2,4.2-2.8
			C921,670.1,922.8,670,924.5,670.1z"/>
		<path class="st5" d="M934,678.8c-3.1,3-7.3,4.7-11.5,4.5c1.4-1.6,3.3-2.6,5.1-3.4C929.6,679,931.8,678.7,934,678.8z"/>
		<path class="st5" d="M908,656.1c-0.6,0.8-1.6,1.2-2.5,1.2c-0.9,0-1.9-0.5-2.5-1.2c0.6-0.8,1.6-1.1,2.5-1.2
			C906.4,654.9,907.3,655.3,908,656.1z"/>
		<path class="st5" d="M928.5,673.7c-0.9-1.1-1.4-2.3-1.6-3.7c-0.2-1.4,0.2-2.8,0.9-4c0.9,1.1,1.4,2.5,1.6,3.7
			C929.5,671,929.3,672.4,928.5,673.7z"/>
		<path class="st39" d="M971.4,630.2c0,0-31.1,55.8-19.6,66.3c3-10.6,8.6-55.8,34.3-58.4C985.5,638.2,971.4,635.5,971.4,630.2z"/>
		<path class="st40" d="M922.8,690.5c11.2,1.4,22,4.8,32.1,9.8c12.3,7.3,29.6,2.5,29.6,2.5s-14.8,2.5-22.3-2.5
			C954.7,695.3,932.6,685.7,922.8,690.5z"/>
		<path class="st10" d="M921.5,817.6c12.6-4.4,26.3-5.3,39.4-2.6c19.8,4.8,66.5-46.9,66.5-83.8c-1.6,34.4-18.8,66.3-46.9,86.4
			c-5,2.5-12.3,7.3-21.2,5.1C947.8,819.8,924,814.8,921.5,817.6z"/>
		<path class="st2" d="M970.7,635.1c1.2,1.4,3,2.2,4.8,2.5h-2.5C971.8,637.6,970.7,636.5,970.7,635.1L970.7,635.1z"/>
	</g>
	<polygon class="st33" points="873.9,856.8 1052.5,750.6 1052.5,945.8 873.9,1052 	"/>
	<path d="M1049.7,755.8v188.4l-173,102.8V858.6L1049.7,755.8 M1055.5,745.6L870.9,855.3v201.8l184.6-109.6V745.6z"/>
	<polygon class="st33" points="689.3,945.8 689.3,750.6 867.9,856.8 867.9,1052 	"/>
	<path d="M692.1,755.8l173,102.8V1047l-173-102.8V755.8 M686.3,745.6v201.8l184.6,109.6v-202L686.3,745.6z"/>
</g>
</svg>
