<?xml version="1.0" encoding="utf-8"?>
<!-- Generator: Adobe Illustrator 24.0.3, SVG Export Plug-In . SVG Version: 6.00 Build 0)  -->
<svg version="1.1" id="Layer_1" xmlns="http://www.w3.org/2000/svg" xmlns:xlink="http://www.w3.org/1999/xlink" x="0px" y="0px"
	 viewBox="0 0 1700 1080" style="enable-background:new 0 0 1700 1080;" xml:space="preserve">
<style type="text/css">
	.st0{display:none;opacity:0.51;fill:#999923;}
	.st1{display:none;}
	.st2{display:inline;fill:#8E775F;stroke:#000000;stroke-miterlimit:10;}
	.st3{display:inline;fill:#BA9B79;}
	.st4{display:inline;}
	.st5{fill:#DA3732;stroke:#000000;stroke-width:0.34;stroke-linejoin:round;}
	.st6{fill:#DE543E;}
	.st7{fill:#AB2925;}
	.st8{fill:#E27F68;}
	.st9{fill:#A5C058;}
	.st10{fill:#006837;}
	.st11{fill:#72974F;}
	.st12{fill:#D7DC84;}
	.st13{fill:#E27F68;stroke:#000000;stroke-width:0.34;stroke-linecap:round;stroke-linejoin:round;}
	.st14{stroke:#000000;stroke-width:0.34;stroke-linecap:round;stroke-linejoin:round;}
	.st15{fill:#A82925;}
	.st16{opacity:0.51;fill:#226999;}
	.st17{fill:#DA3732;stroke:#000000;stroke-width:0.8;stroke-linejoin:round;}
	.st18{fill:#E27F68;stroke:#000000;stroke-width:0.8;stroke-linecap:round;stroke-linejoin:round;}
	.st19{stroke:#000000;stroke-width:0.8;stroke-linecap:round;stroke-linejoin:round;}
	.st20{fill:#DA3732;stroke:#000000;stroke-linejoin:round;}
	.st21{fill:#442222;stroke:#000000;stroke-linejoin:round;}
	.st22{fill:#819120;stroke:#000000;stroke-linejoin:round;}
	.st23{fill:#8E6A21;stroke:#000000;stroke-linejoin:round;}
	.st24{fill:#9933CC;stroke:#000000;stroke-width:0.8;stroke-miterlimit:10;}
	.st25{fill:#FFCC33;stroke:#000000;stroke-width:0.8;stroke-linecap:round;stroke-linejoin:round;}
	.st26{fill:#E08122;stroke:#000000;stroke-width:0.8;stroke-miterlimit:10;}
	.st27{fill:#669933;stroke:#000000;stroke-width:0.4;stroke-miterlimit:10;}
	.st28{fill:#7A5D3D;stroke:#000000;stroke-miterlimit:10;}
	.st29{fill:#FFCC33;}
	.st30{fill:#FFEC00;}
	.st31{fill:#A37D57;}
	.st32{enable-background:new    ;}
	.st33{opacity:0.5;}
	.st34{fill:#FFFFFF;}
	.st35{font-family:'CarterOne';}
	.st36{font-size:65.7659px;}
	.st37{fill:#051526;}
	.st38{display:none;enable-background:new    ;}
	.st39{font-family:'GillSans';}
	.st40{font-size:85px;}
	.st41{display:none;fill:#C1272D;enable-background:new    ;}
	.st42{opacity:0.51;fill:#999923;}
	.st43{fill:#8E775F;stroke:#000000;stroke-miterlimit:10;}
	.st44{fill:#BA9B79;}
	.st45{fill:#606060;}
	.st46{font-size:65.2379px;}
	.st47{fill:#232105;}
	.st48{display:none;opacity:0.7;fill:none;stroke:#000000;stroke-width:13.243;stroke-miterlimit:10;enable-background:new    ;}
</style>
<path class="st0" d="M1636.2,1035.8H105.8c-23,0-41.7-18.6-41.7-41.7v-252c0-23,18.6-41.7,41.7-41.7h1530.4
	c23,0,41.7,18.6,41.7,41.7v252C1677.8,1017.1,1659.2,1035.8,1636.2,1035.8z"/>
<g class="st1">
	<polygon class="st2" points="817.2,840.6 766.3,868.6 818.5,901.6 866.7,871.1 	"/>
	<polygon class="st3" points="738.3,801.8 817.2,755 817.2,841.2 738.3,888 	"/>
	<path class="st4" d="M816,757.2v83.2l-76.4,45.4v-83.2L816,757.2 M818.5,752.7L737,801.1v89.1l81.5-48.4V752.7z"/>
	<polygon class="st3" points="819.8,841.2 819.8,755 898.7,801.8 898.7,888 	"/>
	<path class="st4" d="M821,757.2l76.4,45.4v83.2L821,840.4V757.2 M818.5,752.7v89.1l81.5,48.4v-89.1L818.5,752.7z"/>
	<g id="apple_1_" class="st4">
		<path class="st5" d="M757.2,761.7c0,0-16.3,4.4-12,27.2c4.4,22.9,10.9,32.7,22.9,35.9c8.7,2.2,2.2-2.2,18.5,2.2
			s29.3-34.8,29.3-43.6s-4.4-23.9-18.5-22.9c-6.9,0.7-13.8,0.7-20.7,0C776.8,760.6,760.4,759.6,757.2,761.7z"/>
		<path class="st6" d="M769.7,769.9c0,0,12,6.5,18.5,5.5c6.5-1.1,13.1-6.5,15.3-2.2c2.2,4.4,4.3,6.5,0,17.4s-17.4,31.6-34.8,30.6
			c-17.4-1-26.2-39.3-18.5-51.2C757.7,757.9,769.7,769.9,769.7,769.9z"/>
		<path class="st7" d="M766.4,767.7c0,0,20.7-5.5,20.7,0c0,2.9-2.3,5.3-5.3,5.4c-0.1,0-0.1,0-0.2,0
			C777.2,770,771.9,768.1,766.4,767.7z"/>
		<path class="st8" d="M808.3,775.9c0,0-6.5-17.4-40.3-8.7c0,0,21.8,6.5,20.7,10.9s-14.2,0-26.1-1.1c-12-1.1-4.4,37,1.1,42.5
			c-8.7-7.6-21.8-29.4-13.1-50.1c8.7-12,29.4-5.5,38.2-6.5S807.2,765,808.3,775.9z"/>
		<g>
			<path class="st9" d="M751.2,741.6c0,0,5.5,20.7,12,22.9s13.1,2.2,15.3,4.4l2.2-2.2c0,0-4.4-4.4-4.4-5.5s-2.2-13.1-10.9-15.3
				C760.6,744.8,755.8,743.3,751.2,741.6z"/>
			<path class="st10" d="M751.2,741.6c1,3.4,2.3,6.7,3.6,10s2.9,6.4,4.9,9.3c0.9,1.4,2.2,2.5,3.7,3.2c1.7,0.5,3.4,1,5.1,1.3l5.1,1
				c1.8,0.3,3.6,1,5.1,2.1H778l2.2-2.2v0.8c-1.2-1.2-2.4-2.6-3.5-3.9c-0.3-0.4-0.6-0.8-0.8-1.2c-0.1-0.1-0.1-0.3-0.2-0.4
				c0-0.2,0-0.4,0-0.4c0-0.2,0-0.4,0-0.6c-0.1-0.9-0.3-1.7-0.6-2.5c-0.9-3.3-2.6-6.3-5-8.8c-1.2-1.2-2.6-2-4.2-2.5
				c-1.6-0.5-3.4-0.9-5.1-1.5C757.7,744,754.4,742.9,751.2,741.6z M751.2,741.6c3.3,1.1,6.6,2.1,10,3c1.7,0.5,3.4,0.8,5.1,1.3
				c1.7,0.5,3.3,1.5,4.6,2.7c2.5,2.6,4.3,5.7,5.2,9.2c0.3,0.8,0.5,1.7,0.6,2.5c0,0.2,0,0.5,0,0.7c0,0.1,0,0.1,0,0.2
				c0,0.1,0,0.1,0,0.2c0.2,0.4,0.4,0.7,0.7,1c1.1,1.3,2.2,2.6,3.4,3.8l0.4,0.4l-0.4,0.4l-2.2,2.2l-0.4,0.4l-0.4-0.4
				c-1.4-1-2.9-1.6-4.6-1.8l-5.1-1.1c-1.7-0.4-3.4-0.8-5.1-1.4c-1.7-0.8-3.1-2-4.1-3.6c-2-3-3.5-6.2-4.7-9.6
				C753.1,748.4,752.1,745.1,751.2,741.6z"/>
		</g>
		<path class="st11" d="M755,744.3c0,0,13.1,3.3,16.3,7.6c1.9,3.4,3.4,7.1,4.4,11c-2.3-3.8-4.9-7.4-7.6-10.9
			C765.9,749.8,757.2,744.3,755,744.3z"/>
		<path class="st12" d="M755,747.6l18.5,17.4c0,0-12-2.2-13.1-5.5C759.3,756.4,755,747.6,755,747.6z"/>
		<path class="st10" d="M757.7,748.1c3.9,2.9,7.6,6.2,11.2,9.4c3.6,3.2,7.2,6.6,10.5,10.2c-3.9-2.9-7.6-6.2-11.2-9.4
			C764.7,755.1,761,751.7,757.7,748.1z"/>
		<path class="st10" d="M765.3,751.4c0.3,0.5,0.5,1.1,0.5,1.7c0,0.6-0.2,1.2-0.5,1.7c-0.4-0.5-0.5-1.1-0.6-1.7
			C764.8,752.5,765,751.9,765.3,751.4z"/>
		<path class="st10" d="M768.3,757.6c-0.5,0.6-1.1,1-1.8,1.2s-1.5,0.3-2.2,0.2c0.5-0.5,1.1-1,1.8-1.2S767.5,757.5,768.3,757.6z"/>
		<path class="st10" d="M772.5,761.4c-1.3,1.3-3.1,2-5,2c0.6-0.7,1.4-1.2,2.3-1.5C770.7,761.5,771.6,761.4,772.5,761.4z"/>
		<path class="st10" d="M761,751.4c-0.3,0.3-0.7,0.5-1.1,0.6c-0.4,0-0.8-0.2-1.1-0.6c0.3-0.3,0.7-0.5,1.1-0.5S760.7,751.1,761,751.4
			z"/>
		<path class="st10" d="M770.1,759.2c-0.4-0.5-0.6-1-0.7-1.7c0-0.6,0.1-1.2,0.4-1.8c0.4,0.5,0.6,1.1,0.7,1.7
			C770.5,758,770.4,758.6,770.1,759.2z"/>
		<path class="st13" d="M789,740c0,0-13.8,24.6-8.7,29.3c1.3-4.7,3.8-24.6,15.1-25.8C795.3,743.5,789,742.3,789,740z"/>
		<path class="st14" d="M767.6,766.6c4.9,0.6,9.7,2.1,14.2,4.4c5.4,3.3,13.1,1.1,13.1,1.1s-6.5,1.1-9.8-1.1
			C781.7,768.8,771.9,764.5,767.6,766.6z"/>
		<path class="st15" d="M767,822.7c5.6-2,11.6-2.4,17.4-1.2c8.7,2.2,29.4-20.7,29.4-37c-0.7,15.2-8.3,29.3-20.7,38.2
			c-2.2,1.1-5.5,3.3-9.4,2.3C778.6,823.7,768.1,821.5,767,822.7z"/>
		<path class="st7" d="M788.8,742.1c0.6,0.6,1.3,1,2.2,1.1h-1.1C789.2,743.2,788.8,742.8,788.8,742.1
			C788.8,742.2,788.8,742.1,788.8,742.1z"/>
	</g>
	<g id="apple-2" class="st4">
		<path class="st5" d="M790.3,784.6c0,0-16.3,4.4-12,27.2c4.4,22.9,10.9,32.7,22.9,35.9c8.7,2.2,2.2-2.2,18.5,2.2
			s29.3-34.8,29.3-43.6c0-8.7-4.4-23.9-18.5-22.9c-6.9,0.7-13.8,0.7-20.7,0C809.9,783.5,793.5,782.5,790.3,784.6z"/>
		<path class="st6" d="M802.8,792.8c0,0,12,6.5,18.5,5.5c6.5-1.1,13.1-6.5,15.3-2.2c2.2,4.4,4.3,6.5,0,17.4s-17.4,31.6-34.8,30.6
			c-17.4-1-26.2-39.3-18.5-51.2C790.8,780.9,802.8,792.8,802.8,792.8z"/>
		<path class="st7" d="M799.5,790.7c0,0,20.7-5.5,20.7,0c0,2.9-2.3,5.3-5.3,5.4c-0.1,0-0.1,0-0.2,0
			C810.3,792.9,805,791.1,799.5,790.7z"/>
		<path class="st8" d="M841.4,798.8c0,0-6.5-17.4-40.3-8.7c0,0,21.8,6.5,20.7,10.9s-14.2,0-26.1-1.1c-12-1.1-4.4,37,1.1,42.5
			c-8.7-7.6-21.8-29.4-13.1-50.1c8.7-12,29.4-5.5,38.2-6.5C830.8,784.6,840.4,787.9,841.4,798.8z"/>
		<g>
			<path class="st9" d="M784.3,764.5c0,0,5.5,20.7,12,22.9s13.1,2.2,15.3,4.4l2.2-2.2c0,0-4.4-4.4-4.4-5.5s-2.2-13.1-10.9-15.3
				C793.7,767.7,788.9,766.3,784.3,764.5z"/>
			<path class="st10" d="M784.3,764.5c1,3.4,2.3,6.7,3.6,10s2.9,6.4,4.9,9.3c0.9,1.4,2.2,2.5,3.7,3.2c1.7,0.5,3.4,1,5.1,1.3l5.1,1
				c1.8,0.3,3.6,1,5.1,2.1H811l2.2-2.2v0.8c-1.2-1.2-2.4-2.6-3.5-3.9c-0.3-0.4-0.6-0.8-0.8-1.2c-0.1-0.1-0.1-0.3-0.2-0.4
				c0-0.2,0-0.4,0-0.4c0-0.2,0-0.4,0-0.6c-0.1-0.9-0.3-1.7-0.6-2.5c-0.9-3.3-2.6-6.3-5-8.8c-1.2-1.2-2.6-2.1-4.2-2.7
				c-1.6-0.5-3.4-0.9-5.1-1.5C790.8,767,787.5,765.9,784.3,764.5z M784.3,764.5c3.3,1.1,6.6,2.1,10,3c1.7,0.5,3.4,0.8,5.1,1.3
				c1.7,0.5,3.3,1.5,4.6,2.7c2.5,2.6,4.3,5.7,5.2,9.2c0.3,0.8,0.5,1.7,0.6,2.5c0,0.2,0,0.5,0,0.7c0,0.1,0,0.1,0,0.2
				c0,0.1,0,0.1,0,0.2c0.2,0.4,0.4,0.7,0.7,1c1.1,1.3,2.2,2.6,3.4,3.8l0.4,0.4l-0.4,0.4l-2.2,2.2l-0.4,0.4l-0.4-0.4
				c-1.4-1-2.9-1.6-4.6-1.8l-5.1-1.1c-1.7-0.4-3.4-0.8-5.1-1.4c-1.7-0.8-3.1-2-4.1-3.6c-2-3-3.5-6.2-4.7-9.6
				C786.2,771.3,785.2,768,784.3,764.5z"/>
		</g>
		<path class="st11" d="M788.1,767.3c0,0,13.1,3.3,16.3,7.6c1.9,3.4,3.4,7.1,4.4,11c-2.3-3.8-4.9-7.4-7.6-10.9
			C799,772.7,790.3,767.3,788.1,767.3z"/>
		<path class="st12" d="M788.1,770.6l18.5,17.4c0,0-12-2.2-13.1-5.5C792.4,779.3,788.1,770.6,788.1,770.6z"/>
		<path class="st10" d="M790.8,771c3.9,2.9,7.6,6.2,11.2,9.4c3.6,3.2,7.2,6.6,10.5,10.2c-3.9-2.9-7.6-6.2-11.2-9.4
			C797.8,778,794.2,774.7,790.8,771z"/>
		<path class="st10" d="M798.5,774.3c0.3,0.5,0.5,1.1,0.5,1.7c0,0.6-0.2,1.2-0.5,1.7c-0.4-0.5-0.5-1.1-0.6-1.7
			C797.9,775.4,798.1,774.8,798.5,774.3z"/>
		<path class="st10" d="M801.4,780.5c-0.5,0.6-1.1,1-1.8,1.2s-1.5,0.3-2.2,0.2c0.5-0.5,1.1-1,1.8-1.2S800.7,780.4,801.4,780.5z"/>
		<path class="st10" d="M805.6,784.3c-1.4,1.3-3.2,2-5.1,2c0.6-0.7,1.4-1.2,2.3-1.5C803.7,784.4,804.6,784.3,805.6,784.3z"/>
		<path class="st10" d="M794.1,774.3c-0.3,0.3-0.7,0.5-1.1,0.6c-0.4,0-0.8-0.2-1.1-0.6c0.3-0.3,0.7-0.5,1.1-0.5
			C793.5,773.8,793.8,774,794.1,774.3z"/>
		<path class="st10" d="M803.2,782.1c-0.4-0.5-0.6-1-0.7-1.7c0-0.6,0.1-1.2,0.4-1.8c0.4,0.5,0.6,1.1,0.7,1.7
			C803.6,781,803.5,781.6,803.2,782.1z"/>
		<path class="st13" d="M822.1,762.9c0,0-13.8,24.6-8.7,29.3c1.3-4.7,3.8-24.6,15.1-25.8C828.4,766.4,822.1,765.3,822.1,762.9z"/>
		<path class="st14" d="M800.7,789.6c4.9,0.6,9.7,2.1,14.2,4.4c5.4,3.3,13.1,1.1,13.1,1.1s-6.5,1.1-9.8-1.1
			C814.8,791.8,805,787.4,800.7,789.6z"/>
		<path class="st15" d="M800.1,845.6c5.6-2,11.6-2.4,17.4-1.2c8.7,2.2,29.4-20.7,29.4-37c-0.7,15.2-8.3,29.3-20.7,38.2
			c-2.2,1.1-5.5,3.3-9.4,2.3C811.7,846.6,801.2,844.4,800.1,845.6z"/>
		<path class="st7" d="M821.9,765.1c0.6,0.6,1.3,1,2.2,1.1H823C822.3,766.2,821.9,765.7,821.9,765.1L821.9,765.1z"/>
	</g>
	<g id="apple-3" class="st4">
		<path class="st5" d="M831,771.9c0,0-16.3,4.4-12,27.2c4.4,22.9,10.9,32.7,22.9,35.9c8.7,2.2,2.2-2.2,18.5,2.2s29.3-34.8,29.3-43.6
			s-4.4-23.9-18.5-22.9c-6.9,0.7-13.8,0.7-20.7,0C850.6,770.8,834.3,769.7,831,771.9z"/>
		<path class="st6" d="M843.6,780.1c0,0,12,6.5,18.5,5.5c6.5-1.1,13.1-6.5,15.3-2.2c2.2,4.4,4.3,6.5,0,17.4s-17.4,31.6-34.8,30.6
			c-17.4-1-26.2-39.3-18.5-51.2C831.6,768.1,843.6,780.1,843.6,780.1z"/>
		<path class="st7" d="M840.3,777.9c0,0,20.7-5.5,20.7,0c0,2.9-2.3,5.3-5.3,5.4c-0.1,0-0.1,0-0.2,0
			C851,780.2,845.7,778.3,840.3,777.9z"/>
		<path class="st8" d="M882.2,786.1c0,0-6.5-17.4-40.3-8.7c0,0,21.8,6.5,20.7,10.9s-14.2,0-26.1-1.1c-12-1.1-4.4,37,1.1,42.5
			c-8.7-7.6-21.8-29.4-13.1-50.1c8.7-12,29.4-5.5,38.2-6.5C871.5,771.9,881.1,775.2,882.2,786.1z"/>
		<g>
			<path class="st9" d="M825,751.8c0,0,5.5,20.7,12,22.9s13.1,2.2,15.3,4.4l2.2-2.2c0,0-4.4-4.4-4.4-5.5s-2.2-13.1-10.9-15.3
				C834.4,755,829.7,753.5,825,751.8z"/>
			<path class="st10" d="M825,751.8c1,3.4,2.3,6.7,3.6,10s2.9,6.4,4.9,9.3c0.9,1.4,2.2,2.5,3.7,3.2c1.7,0.5,3.4,1,5.1,1.3l5.1,1
				c1.8,0.3,3.6,1,5.1,2.1h-0.8l2.2-2.2v0.8c-1.2-1.2-2.4-2.6-3.5-3.9c-0.3-0.4-0.6-0.8-0.8-1.2c-0.1-0.1-0.1-0.3-0.2-0.4
				c0-0.2,0-0.4,0-0.4c0-0.2,0-0.4,0-0.6c-0.1-0.9-0.3-1.7-0.6-2.5c-0.9-3.3-2.6-6.3-5-8.8c-1.2-1.2-2.6-2.1-4.2-2.7
				c-1.6-0.5-3.4-0.9-5.1-1.5C831.6,754.2,828.3,753.1,825,751.8z M825,751.8c3.3,1.1,6.6,2.1,10,3c1.7,0.5,3.4,0.8,5.1,1.3
				c1.7,0.5,3.3,1.5,4.6,2.7c2.5,2.6,4.3,5.7,5.2,9.2c0.3,0.8,0.5,1.7,0.6,2.5c0,0.2,0,0.5,0,0.7c0,0.1,0,0.1,0,0.2
				c0,0.1,0,0.1,0,0.2c0.2,0.4,0.4,0.7,0.7,1c1.1,1.3,2.2,2.6,3.4,3.8l0.4,0.4l-0.4,0.4l-2.2,2.2l-0.4,0.4l-0.4-0.4
				c-1.4-1-2.9-1.6-4.6-1.8l-5.1-1.1c-1.7-0.4-3.4-0.8-5.1-1.4c-1.7-0.8-3.1-2-4.1-3.6c-2-3-3.5-6.2-4.7-9.6
				C826.9,758.6,825.9,755.3,825,751.8z"/>
		</g>
		<path class="st11" d="M828.9,754.5c0,0,13.1,3.3,16.3,7.6c1.9,3.4,3.4,7.1,4.4,11c-2.3-3.8-4.9-7.4-7.6-10.9
			C839.7,759.9,831,754.5,828.9,754.5z"/>
		<path class="st12" d="M828.9,757.8l18.5,17.4c0,0-12-2.2-13.1-5.5C833.2,766.5,828.9,757.8,828.9,757.8z"/>
		<path class="st10" d="M831.6,758.3c3.9,2.9,7.6,6.2,11.2,9.4c3.6,3.2,7.2,6.6,10.5,10.2c-3.9-2.9-7.6-6.2-11.2-9.4
			C838.5,765.3,834.9,761.9,831.6,758.3z"/>
		<path class="st10" d="M839.2,761.6c0.3,0.5,0.5,1.1,0.5,1.7c0,0.6-0.2,1.2-0.5,1.7c-0.4-0.5-0.5-1.1-0.6-1.7
			C838.7,762.7,838.9,762.1,839.2,761.6z"/>
		<path class="st10" d="M842.1,767.8c-0.5,0.6-1.1,1-1.8,1.2s-1.5,0.3-2.2,0.2c0.5-0.5,1.1-1,1.8-1.2
			C840.7,767.8,841.4,767.7,842.1,767.8z"/>
		<path class="st10" d="M846.3,771.6c-1.4,1.3-3.2,2-5.1,2c0.6-0.7,1.4-1.2,2.3-1.5C844.4,771.7,845.4,771.6,846.3,771.6z"/>
		<path class="st10" d="M834.9,761.6c-0.3,0.3-0.7,0.5-1.1,0.6c-0.4,0-0.8-0.2-1.1-0.6c0.3-0.3,0.7-0.5,1.1-0.5
			S834.6,761.3,834.9,761.6z"/>
		<path class="st10" d="M844,769.4c-0.4-0.5-0.6-1-0.7-1.7c0-0.6,0.1-1.2,0.4-1.8c0.4,0.5,0.6,1.1,0.7,1.7
			C844.4,768.2,844.3,768.8,844,769.4z"/>
		<path class="st13" d="M862.8,750.2c0,0-13.8,24.6-8.7,29.3c1.3-4.7,3.8-24.6,15.1-25.8C869.1,753.7,862.8,752.5,862.8,750.2z"/>
		<path class="st14" d="M841.4,776.8c4.9,0.6,9.7,2.1,14.2,4.4c5.4,3.3,13.1,1.1,13.1,1.1s-6.5,1.1-9.8-1.1
			C855.6,779,845.7,774.6,841.4,776.8z"/>
		<path class="st15" d="M840.8,832.9c5.6-2,11.6-2.4,17.4-1.2c8.7,2.2,29.4-20.7,29.4-37c-0.7,15.2-8.3,29.3-20.7,38.2
			c-2.2,1.1-5.5,3.3-9.4,2.3C852.4,833.9,841.9,831.7,840.8,832.9z"/>
		<path class="st7" d="M862.6,752.3c0.6,0.6,1.3,1,2.2,1.1h-1.1C863.1,753.4,862.6,752.9,862.6,752.3L862.6,752.3z"/>
	</g>
	<polygon class="st3" points="819.8,850.2 898.7,803.4 898.7,889.6 819.8,936.4 	"/>
	<path class="st4" d="M897.5,805.6v83.2L821,934.2V851L897.5,805.6 M900,801.1l-81.5,48.4v89.1l81.5-48.4V801.1z"/>
	<polygon class="st3" points="738.3,889.6 738.3,803.4 817.2,850.2 817.2,936.4 	"/>
	<path class="st4" d="M739.5,805.6L816,851v83.2l-76.4-45.4L739.5,805.6 M737,801.1v89.1l81.5,48.4v-89.1L737,801.1z"/>
</g>
<g>
	<path class="st16" d="M1636.2,310.3H105.8c-23,0-41.7-18.6-41.7-41.7V74.2c0-23,18.6-41.7,41.7-41.7h1530.4
		c23,0,41.7,18.6,41.7,41.7v194.5C1677.8,291.7,1659.2,310.3,1636.2,310.3z"/>
	<g>
		<g id="apple">
			<path class="st17" d="M498.2,173.3c0,0-31.7,8.4-23.2,52.8c8.4,44.4,21.1,63.4,44.4,69.7c16.9,4.2,4.2-4.2,35.9,4.2
				c31.7,8.4,57-67.6,57-84.5s-8.4-46.5-35.9-44.4s-40.1,0-40.1,0S504.5,169.1,498.2,173.3z"/>
			<path class="st6" d="M522.4,189.2c0,0,23.2,12.7,35.9,10.6c12.7-2.1,25.3-12.7,29.6-4.2c4.3,8.5,8.4,12.7,0,33.8
				c-8.4,21.1-33.8,61.3-67.6,59.1c-33.8-2.1-50.7-76-35.9-99.3S522.4,189.2,522.4,189.2z"/>
			<path class="st7" d="M516.1,184.9c0,0,40.1-10.6,40.1,0s-10.5,10.6-10.5,10.6S530.9,184.9,516.1,184.9z"/>
			<path class="st8" d="M597.4,200.8c0,0-12.7-33.8-78.1-16.9c0,0,42.2,12.7,40.1,21.1c-2.1,8.4-27.5,0-50.7-2.1s-8.4,71.8,2.1,82.4
				c-16.9-14.8-42.2-57-25.3-97.2c16.9-23.2,57-10.6,73.9-12.7C576.3,173.3,595.3,179.7,597.4,200.8z"/>
			<g>
				<path class="st9" d="M486.5,134.2c0,0,10.6,40.1,23.2,44.4c12.7,4.2,25.3,4.2,29.6,8.4l4.2-4.2c0,0-8.4-8.4-8.4-10.6
					c0-2.1-4.2-25.3-21.1-29.6C504.7,140.4,495.5,137.6,486.5,134.2z"/>
				<path class="st10" d="M486.5,134.2c2.1,6.5,4.2,13,6.9,19.3c2.4,6.3,5.6,12.4,9.5,18c1.8,2.7,4.3,4.9,7.3,6.2
					c3.2,1,6.5,1.9,9.8,2.6l10.1,2c1.7,0.4,3.4,0.8,5.1,1.3c1.8,0.5,3.5,1.4,4.9,2.7h-1.5l4.2-4.2v1.5c-2.4-2.4-4.7-5-6.8-7.6
					c-0.5-0.7-1-1.5-1.5-2.3c-0.1-0.3-0.2-0.5-0.3-0.8c0-0.2-0.1-0.3-0.1-0.5v-0.3c0-0.3-0.1-0.8-0.1-1.1c-0.3-1.6-0.7-3.2-1.1-4.8
					c-1.7-6.4-4.9-12.3-9.4-17.1c-2.3-2.4-5.1-4.2-8.2-5.2c-1.5-0.6-3.2-1-4.8-1.4c-1.6-0.5-3.3-0.9-4.9-1.4
					C499.2,139,492.7,136.9,486.5,134.2z M486.5,134.2c6.3,2.1,12.8,4.1,19.3,5.8l4.9,1.2c1.6,0.4,3.3,0.7,4.9,1.3
					c3.3,1,6.4,2.9,8.9,5.3c4.8,4.9,8.3,11,10.1,17.7c0.5,1.7,0.9,3.3,1.2,5c0.1,0.5,0.1,0.9,0.2,1.4v0.3l0,0c0,0.1,0.1,0.3,0.2,0.4
					c0.4,0.7,0.8,1.3,1.3,1.9c2.1,2.6,4.3,5,6.7,7.4l0.7,0.7l-0.7,0.7l-4.2,4.2l-0.7,0.7l-0.8-0.7c-1.2-1-2.6-1.8-4.1-2.2
					c-1.6-0.5-3.2-1-4.9-1.3l-10.1-2.1c-3.4-0.7-6.7-1.6-10-2.7c-1.7-0.6-3.3-1.6-4.6-3c-1.3-1.2-2.4-2.6-3.4-4.1
					c-3.8-5.8-6.8-12-9.1-18.6C490.1,147.4,488.1,140.9,486.5,134.2z"/>
			</g>
			<path class="st11" d="M493.9,139.5c0,0,25.3,6.3,31.7,14.8c4.6,6.1,8.4,21.1,8.4,21.1s-10.6-16.9-14.8-21.1
				C515,150.1,498.2,139.5,493.9,139.5z"/>
			<path class="st12" d="M493.9,145.9l35.9,33.8c0,0-23.2-4.2-25.3-10.6C502.4,162.8,493.9,145.9,493.9,145.9z"/>
			<path class="st10" d="M499.2,146.9c3.8,2.9,7.5,5.9,11.1,8.9c3.6,3.1,7.2,6.2,10.7,9.3s7,6.3,10.4,9.7l5.1,5
				c1.6,1.7,3.3,3.4,4.9,5.1c-1.9-1.4-3.8-2.9-5.6-4.4l-5.5-4.5c-3.6-3-7.2-6.2-10.7-9.3s-7-6.3-10.4-9.7
				C505.8,153.7,502.4,150.4,499.2,146.9z"/>
			<path class="st10" d="M514,153.2c0.7,0.9,1.1,2.1,1.1,3.3s-0.3,2.3-1.1,3.3c-0.7-0.9-1.1-2.1-1.1-3.3
				C512.9,155.3,513.3,154.2,514,153.2z"/>
			<path class="st10" d="M519.7,165.4c-1,1.1-2.2,1.9-3.6,2.3c-1.4,0.5-2.8,0.6-4.2,0.3c1-1.1,2.2-1.9,3.6-2.3
				C516.8,165.2,518.3,165.1,519.7,165.4z"/>
			<path class="st10" d="M527.8,172.7c-1.2,1.3-2.7,2.3-4.4,2.9c-1.6,0.7-3.4,1-5.2,0.9C520.9,174,524.3,172.6,527.8,172.7
				L527.8,172.7z"/>
			<path class="st10" d="M505.6,153.2c-0.5,0.6-1.3,1-2.1,1.1c-0.8,0-1.6-0.4-2.1-1.1c0.5-0.7,1.3-1,2.1-1.1
				C504.3,152.2,505.1,152.6,505.6,153.2z"/>
			<path class="st10" d="M523,168.4c-1.6-1.9-1.8-4.5-0.6-6.7c0.8,0.9,1.3,2,1.4,3.2S523.7,167.3,523,168.4z"/>
			<path class="st18" d="M559.9,131.1c0,0-26.8,47.9-17.1,57c2.4-9.2,7.3-47.9,29.3-50.1C572.1,138,559.9,135.7,559.9,131.1z"/>
			<path class="st19" d="M518.2,182.8c0,0,16.9,2.1,27.5,8.4c10.6,6.3,25.3,2.1,25.3,2.1s-12.7,2.1-19-2.1
				C545.7,187,526.7,178.6,518.2,182.8z"/>
			<path class="st15" d="M517.2,291.6c0,0,16.9-6.3,33.8-2.1c16.9,4.2,57-40.1,57-71.8c-2.1,46.5-36.3,72-40.1,73.9
				c-4.2,2.1-10.6,6.3-18.2,4.4C539.7,293.5,519.3,289.5,517.2,291.6z"/>
			<path class="st7" d="M559.4,135.3c1.1,1.1,2.6,1.9,4.2,2.1h-2.1C560.3,137.4,559.4,136.5,559.4,135.3z"/>
		</g>
		<g id="fruits">
			<path class="st20" d="M1201.4,173.3c0,0-28,8.4-16.8,25.2c7.1,10.1,18.5,16.3,30.8,16.8c0,0,30.8-8.4,30.8-19.6
				c0-11.2-11.2-33.6-25.2-36.4C1210,157.1,1207,159.3,1201.4,173.3z"/>
			<polygon class="st21" points="1195.8,164.9 1201.4,173.3 1201.4,162.1 			"/>
			<path class="st22" d="M1279.6,193.4c0,0-16.5-24.1-29.1-8.4c-7.5,9.8-10,22.6-6.7,34.5c0,0,16.8,21.7,27.6,18.3
				c10.8-3.4,28-16.8,27.5-29.9C1298.4,196.6,1294.6,194.5,1279.6,193.4z"/>
			<polygon class="st23" points="1285.9,185.5 1279.6,193.4 1290.3,190 			"/>
			<circle class="st24" cx="1229.4" cy="220.9" r="8.4"/>
			<circle class="st24" cx="1221" cy="209.7" r="8.4"/>
			<circle class="st24" cx="1215.4" cy="223.7" r="8.4"/>
			<circle class="st24" cx="1237.8" cy="206.9" r="8.4"/>
			<circle class="st24" cx="1226.6" cy="195.7" r="8.4"/>
			<circle class="st24" cx="1212.6" cy="195.7" r="8.4"/>
			<circle class="st24" cx="1243.4" cy="220.9" r="8.4"/>
			<circle class="st24" cx="1232.2" cy="232.1" r="8.4"/>
			<circle class="st24" cx="1221" cy="232.1" r="8.4"/>
			<circle class="st24" cx="1207" cy="212.5" r="8.4"/>
			<circle class="st24" cx="1207" cy="223.7" r="8.4"/>
			<circle class="st24" cx="1204.2" cy="232.1" r="8.4"/>
			<circle class="st24" cx="1221" cy="218.1" r="8.4"/>
			<circle class="st24" cx="1235" cy="215.3" r="8.4"/>
			<circle class="st24" cx="1221" cy="206.9" r="8.4"/>
			<path class="st25" d="M1316.2,192.9c-1.7-3.5-2.6-7.3-2.8-11.2c0-5.6,8.4-11.2,8.4-5.6s-2.8,16.8,2.8,22.4
				c5.6,5.6,1.6,17.3,0,19.6c-4.8,6.8-10.3,14-13.7,18.3c-2.3,3-5.3,5.2-8.8,6.6c-11.4,4.6-38.1,12.4-61.6-2.5c0,0-2.8-2.8,2.8-5.6
				c5.6-2.8,19.6,0,30.8-2.8c11.2-2.8,25.2-16.8,30.8-25.2C1310.6,198.5,1316.2,198.5,1316.2,192.9z"/>
			<ellipse class="st26" cx="1163.6" cy="227.9" rx="33.6" ry="30.8"/>
			<ellipse class="st27" cx="1153.8" cy="211.1" rx="4.2" ry="2.8"/>
			<ellipse class="st27" cx="1148.2" cy="213.9" rx="4.2" ry="2.8"/>
			<ellipse class="st27" cx="1148.2" cy="211.1" rx="4.2" ry="2.8"/>
			<path class="st28" d="M1118.8,241.9h218.5l0,0v13.8c0,24.8-20.1,45-45,45h-128.5c-24.8,0-45-20.1-45-45l0,0V241.9L1118.8,241.9z"
				/>
			<path class="st29" d="M1169.2,208.3c10.6,4.2,18.1,13.9,19.6,25.2c0,0,5.6-14-5.6-22.4C1174,204.2,1169.2,208.3,1169.2,208.3z"/>
			<path class="st30" d="M1317.6,211.1c0,0-8.4,22.4-14,25.2c0,0,14-11.2,16.8-19.6c1.7-4.5,1.7-9.5,0-14L1317.6,211.1z"/>
			<path class="st31" d="M1330.2,250.3h-28c0,0-2.8,42-11.2,44.8C1291,295.1,1330.2,286.7,1330.2,250.3z"/>
		</g>
		<path d="M828.6,224.4v-9.9h85.2v9.9H828.6z M828.6,256.8v-10h85.2v9.9L828.6,256.8z"/>
	</g>
	<g class="st32">
		<g class="st33">
			<text transform="matrix(1 0 0 1 219.0439 114.0884)" class="st34 st35 st36">Specific Statement 1:  Apple is a fruit. </text>
		</g>
		<g>
			<text transform="matrix(1 0 0 1 216.0439 112.0884)" class="st37 st35 st36">Specific Statement 1:  Apple is a fruit. </text>
		</g>
	</g>
</g>
<text transform="matrix(1 0 0 1 81.9834 1010.498)" class="st38 st39 st40">General Conclusion: The box is full of apples. </text>
<text transform="matrix(1 -7.940244e-05 7.940244e-05 1 636.9855 720.513)" class="st41 st39 st40">Leads to a </text>
<g>
	<path class="st42" d="M1636.4,625.9H106c-23,0-41.7-18.6-41.7-41.7V389.8c0-23,18.6-41.7,41.7-41.7h1530.4
		c23,0,41.7,18.6,41.7,41.7v194.5C1678,607.3,1659.4,625.9,1636.4,625.9z"/>
	<g id="fruits_1_">
		<path class="st20" d="M1213.4,477.7c0,0-28,8.4-16.8,25.2c7.1,10.1,18.5,16.3,30.8,16.8c0,0,30.8-8.4,30.8-19.6
			s-11.2-33.6-25.2-36.4C1222,461.5,1219,463.7,1213.4,477.7z"/>
		<polygon class="st21" points="1207.8,469.3 1213.4,477.7 1213.4,466.5 		"/>
		<path class="st22" d="M1291.6,497.8c0,0-16.5-24.1-29.1-8.4c-7.5,9.8-10,22.6-6.7,34.5c0,0,16.8,21.7,27.6,18.3
			c10.8-3.4,28-16.8,27.5-29.9C1310.4,501.1,1306.6,498.9,1291.6,497.8z"/>
		<polygon class="st23" points="1297.9,489.9 1291.6,497.8 1302.2,494.4 		"/>
		<circle class="st24" cx="1241.4" cy="525.3" r="8.4"/>
		<circle class="st24" cx="1233" cy="514.1" r="8.4"/>
		<circle class="st24" cx="1227.4" cy="528.1" r="8.4"/>
		<circle class="st24" cx="1249.8" cy="511.3" r="8.4"/>
		<circle class="st24" cx="1238.6" cy="500.1" r="8.4"/>
		<circle class="st24" cx="1224.6" cy="500.1" r="8.4"/>
		<circle class="st24" cx="1255.4" cy="525.3" r="8.4"/>
		<circle class="st24" cx="1244.2" cy="536.6" r="8.4"/>
		<circle class="st24" cx="1233" cy="536.6" r="8.4"/>
		<circle class="st24" cx="1219" cy="516.9" r="8.4"/>
		<circle class="st24" cx="1219" cy="528.1" r="8.4"/>
		<circle class="st24" cx="1216.2" cy="536.6" r="8.4"/>
		<circle class="st24" cx="1233" cy="522.5" r="8.4"/>
		<circle class="st24" cx="1247" cy="519.7" r="8.4"/>
		<circle class="st24" cx="1233" cy="511.3" r="8.4"/>
		<path class="st25" d="M1328.2,497.3c-1.7-3.5-2.6-7.3-2.8-11.2c0-5.6,8.4-11.2,8.4-5.6s-2.8,16.8,2.8,22.4
			c5.6,5.6,1.6,17.3,0,19.6c-4.8,6.8-10.3,14-13.7,18.3c-2.3,3-5.3,5.2-8.8,6.6c-11.4,4.6-38.1,12.4-61.6-2.5c0,0-2.8-2.8,2.8-5.6
			c5.6-2.8,19.6,0,30.8-2.8s25.2-16.8,30.8-25.2C1322.5,502.9,1328.2,502.9,1328.2,497.3z"/>
		<ellipse class="st26" cx="1175.5" cy="532.4" rx="33.6" ry="30.8"/>
		<ellipse class="st27" cx="1165.7" cy="515.5" rx="4.2" ry="2.8"/>
		<ellipse class="st27" cx="1160.1" cy="518.3" rx="4.2" ry="2.8"/>
		<ellipse class="st27" cx="1160.1" cy="515.5" rx="4.2" ry="2.8"/>
		<path class="st28" d="M1130.7,546.4h218.5l0,0v13.8c0,24.8-20.1,45-45,45h-128.5c-24.8,0-45-20.1-45-45l0,0V546.4L1130.7,546.4z"
			/>
		<path class="st29" d="M1181.1,512.7c10.6,4.2,18.1,13.9,19.6,25.2c0,0,5.6-14-5.6-22.4C1185.9,508.6,1181.1,512.7,1181.1,512.7z"
			/>
		<path class="st30" d="M1329.6,515.5c0,0-8.4,22.4-14,25.2c0,0,14-11.2,16.8-19.6c1.7-4.5,1.7-9.5,0-14L1329.6,515.5z"/>
		<path class="st31" d="M1342.2,554.8h-28c0,0-2.8,42-11.2,44.8C1303,599.6,1342.2,591.2,1342.2,554.8z"/>
	</g>
	<g>
		<polygon class="st43" points="540.5,527.5 493.2,553.5 541.6,584.1 586.4,555.8 		"/>
		<polygon class="st44" points="467.3,491.6 540.5,448.1 540.5,528 467.3,571.5 		"/>
		<path d="M539.3,450.2v77.1l-70.8,42v-77.1L539.3,450.2 M541.6,446.1l-75.5,44.8v82.6l75.5-44.9V446.1z"/>
		<polygon class="st44" points="542.8,528 542.8,448.1 616,491.6 616,571.5 		"/>
		<path d="M544,450.2l70.8,42v77.2l-70.8-42L544,450.2 M541.6,446.1v82.6l75.5,44.9V491L541.6,446.1z"/>
		<polygon class="st44" points="542.8,536.4 616,493 616,572.9 542.8,616.3 		"/>
		<path d="M614.8,495.1v77.1l-70.8,42v-77.1L614.8,495.1 M617.2,490.9l-75.5,44.9v82.6l75.5-44.9V490.9z"/>
		<polygon class="st44" points="467.3,572.9 467.3,493 540.5,536.4 540.5,616.3 		"/>
		<path d="M468.5,495.1l70.8,42v77.1l-70.8-42L468.5,495.1 M466.1,490.9v82.6l75.5,44.9v-82.6L466.1,490.9z"/>
	</g>
	<text transform="matrix(1 0 0 1 737.5589 555.7795)" class="st45 st35 st46">is full of</text>
	<g class="st32">
		<g class="st33">
			<text transform="matrix(1 0 0 1 205.0526 419.1555)" class="st34 st35 st36">Specific Statement 2:  The box is full of fruit. </text>
		</g>
		<g>
			<text transform="matrix(1 0 0 1 202.0526 417.1555)" class="st47 st35 st36">Specific Statement 2:  The box is full of fruit. </text>
		</g>
	</g>
</g>
<line class="st48" x1="78.5" y1="668" x2="1700.5" y2="668"/>
</svg>
