<?xml version="1.0" encoding="utf-8"?>
<!-- Generator: Adobe Illustrator 24.0.3, SVG Export Plug-In . SVG Version: 6.00 Build 0)  -->
<svg version="1.1" id="Layer_1" xmlns="http://www.w3.org/2000/svg" xmlns:xlink="http://www.w3.org/1999/xlink" x="0px" y="0px"
	 viewBox="0 0 1700 1080" style="enable-background:new 0 0 1700 1080;" xml:space="preserve">
<style type="text/css">
	.st0{opacity:0.7;fill:none;stroke:#000000;stroke-width:13.243;stroke-miterlimit:10;enable-background:new    ;}
	.st1{opacity:0.51;fill:#226999;}
	.st2{fill:#DA3732;stroke:#000000;stroke-width:0.8;stroke-linejoin:round;}
	.st3{fill:#DE543E;}
	.st4{fill:#AB2925;}
	.st5{fill:#E27F68;}
	.st6{fill:#A5C058;}
	.st7{fill:#006837;}
	.st8{fill:#72974F;}
	.st9{fill:#D7DC84;}
	.st10{fill:#E27F68;stroke:#000000;stroke-width:0.8;stroke-linecap:round;stroke-linejoin:round;}
	.st11{stroke:#000000;stroke-width:0.8;stroke-linecap:round;stroke-linejoin:round;}
	.st12{fill:#A82925;}
	.st13{fill:#DA3732;stroke:#000000;stroke-linejoin:round;}
	.st14{fill:#442222;stroke:#000000;stroke-linejoin:round;}
	.st15{fill:#819120;stroke:#000000;stroke-linejoin:round;}
	.st16{fill:#8E6A21;stroke:#000000;stroke-linejoin:round;}
	.st17{fill:#9933CC;stroke:#000000;stroke-width:0.8;stroke-miterlimit:10;}
	.st18{fill:#FFCC33;stroke:#000000;stroke-width:0.8;stroke-linecap:round;stroke-linejoin:round;}
	.st19{fill:#E08122;stroke:#000000;stroke-width:0.8;stroke-miterlimit:10;}
	.st20{fill:#669933;stroke:#000000;stroke-width:0.4;stroke-miterlimit:10;}
	.st21{fill:#7A5D3D;stroke:#000000;stroke-miterlimit:10;}
	.st22{fill:#FFCC33;}
	.st23{fill:#FFEC00;}
	.st24{fill:#A37D57;}
	.st25{enable-background:new    ;}
	.st26{opacity:0.5;}
	.st27{fill:#FFFFFF;}
	.st28{font-family:'CarterOne';}
	.st29{font-size:65.7659px;}
	.st30{fill:#051526;}
	.st31{fill:#C1272D;}
	.st32{font-size:85px;}
	.st33{display:none;}
	.st34{display:inline;opacity:0.51;fill:#259949;}
	.st35{display:inline;}
	.st36{fill:#8E775F;stroke:#000000;stroke-width:1.1598;stroke-miterlimit:10;}
	.st37{fill:#BA9B79;}
	.st38{fill:#DA3732;stroke:#000000;stroke-width:0.3943;stroke-linejoin:round;}
	.st39{fill:#E27F68;stroke:#000000;stroke-width:0.3943;stroke-linecap:round;stroke-linejoin:round;}
	.st40{stroke:#000000;stroke-width:0.3943;stroke-linecap:round;stroke-linejoin:round;}
	.st41{display:inline;enable-background:new    ;}
	.st42{fill:#232105;}
	.st43{opacity:0.51;fill:#999923;}
	.st44{fill:#8E775F;stroke:#000000;stroke-miterlimit:10;}
	.st45{fill:#606060;}
	.st46{font-size:65.2379px;}
</style>
<line class="st0" x1="51.7" y1="698.3" x2="1673.7" y2="698.3"/>
<g>
	<path class="st1" d="M1636.2,310.3H105.8c-23,0-41.7-18.6-41.7-41.7V74.2c0-23,18.6-41.7,41.7-41.7h1530.4
		c23,0,41.7,18.6,41.7,41.7v194.5C1677.8,291.7,1659.2,310.3,1636.2,310.3z"/>
	<g>
		<g id="apple">
			<path class="st2" d="M498.2,173.3c0,0-31.7,8.4-23.2,52.8c8.4,44.4,21.1,63.4,44.4,69.7c16.9,4.2,4.2-4.2,35.9,4.2
				c31.7,8.4,57-67.6,57-84.5s-8.4-46.5-35.9-44.4s-40.1,0-40.1,0S504.5,169.1,498.2,173.3z"/>
			<path class="st3" d="M522.4,189.2c0,0,23.2,12.7,35.9,10.6c12.7-2.1,25.3-12.7,29.6-4.2c4.3,8.5,8.4,12.7,0,33.8
				c-8.4,21.1-33.8,61.3-67.6,59.1c-33.8-2.1-50.7-76-35.9-99.3S522.4,189.2,522.4,189.2z"/>
			<path class="st4" d="M516.1,184.9c0,0,40.1-10.6,40.1,0s-10.5,10.6-10.5,10.6S530.9,184.9,516.1,184.9z"/>
			<path class="st5" d="M597.4,200.8c0,0-12.7-33.8-78.1-16.9c0,0,42.2,12.7,40.1,21.1c-2.1,8.4-27.5,0-50.7-2.1s-8.4,71.8,2.1,82.4
				c-16.9-14.8-42.2-57-25.3-97.2c16.9-23.2,57-10.6,73.9-12.7C576.3,173.3,595.3,179.7,597.4,200.8z"/>
			<g>
				<path class="st6" d="M486.5,134.2c0,0,10.6,40.1,23.2,44.4c12.7,4.2,25.3,4.2,29.6,8.4l4.2-4.2c0,0-8.4-8.4-8.4-10.6
					c0-2.1-4.2-25.3-21.1-29.6C504.7,140.4,495.5,137.6,486.5,134.2z"/>
				<path class="st7" d="M486.5,134.2c2.1,6.5,4.2,13,6.9,19.3c2.4,6.3,5.6,12.4,9.5,18c1.8,2.7,4.3,4.9,7.3,6.2
					c3.2,1,6.5,1.9,9.8,2.6l10.1,2c1.7,0.4,3.4,0.8,5.1,1.3c1.8,0.5,3.5,1.4,4.9,2.7h-1.5l4.2-4.2v1.5c-2.4-2.4-4.7-5-6.8-7.6
					c-0.5-0.7-1-1.5-1.5-2.3c-0.1-0.3-0.2-0.5-0.3-0.8c0-0.2-0.1-0.3-0.1-0.5v-0.3c0-0.3-0.1-0.8-0.1-1.1c-0.3-1.6-0.7-3.2-1.1-4.8
					c-1.7-6.4-4.9-12.3-9.4-17.1c-2.3-2.4-5.1-4.2-8.2-5.2c-1.5-0.6-3.2-1-4.8-1.4c-1.6-0.5-3.3-0.9-4.9-1.4
					C499.2,139,492.7,136.9,486.5,134.2z M486.5,134.2c6.3,2.1,12.8,4.1,19.3,5.8l4.9,1.2c1.6,0.4,3.3,0.7,4.9,1.3
					c3.3,1,6.4,2.9,8.9,5.3c4.8,4.9,8.3,11,10.1,17.7c0.5,1.7,0.9,3.3,1.2,5c0.1,0.5,0.1,0.9,0.2,1.4v0.3l0,0c0,0.1,0.1,0.3,0.2,0.4
					c0.4,0.7,0.8,1.3,1.3,1.9c2.1,2.6,4.3,5,6.7,7.4l0.7,0.7l-0.7,0.7l-4.2,4.2l-0.7,0.7l-0.8-0.7c-1.2-1-2.6-1.8-4.1-2.2
					c-1.6-0.5-3.2-1-4.9-1.3l-10.1-2.1c-3.4-0.7-6.7-1.6-10-2.7c-1.7-0.6-3.3-1.6-4.6-3c-1.3-1.2-2.4-2.6-3.4-4.1
					c-3.8-5.8-6.8-12-9.1-18.6C490.1,147.4,488.1,140.9,486.5,134.2z"/>
			</g>
			<path class="st8" d="M493.9,139.5c0,0,25.3,6.3,31.7,14.8c4.6,6.1,8.4,21.1,8.4,21.1s-10.6-16.9-14.8-21.1
				C515,150.1,498.2,139.5,493.9,139.5z"/>
			<path class="st9" d="M493.9,145.9l35.9,33.8c0,0-23.2-4.2-25.3-10.6C502.4,162.8,493.9,145.9,493.9,145.9z"/>
			<path class="st7" d="M499.2,146.9c3.8,2.9,7.5,5.9,11.1,8.9c3.6,3.1,7.2,6.2,10.7,9.3s7,6.3,10.4,9.7l5.1,5
				c1.6,1.7,3.3,3.4,4.9,5.1c-1.9-1.4-3.8-2.9-5.6-4.4l-5.5-4.5c-3.6-3-7.2-6.2-10.7-9.3s-7-6.3-10.4-9.7
				C505.8,153.7,502.4,150.4,499.2,146.9z"/>
			<path class="st7" d="M514,153.2c0.7,0.9,1.1,2.1,1.1,3.3s-0.3,2.3-1.1,3.3c-0.7-0.9-1.1-2.1-1.1-3.3
				C512.9,155.3,513.3,154.2,514,153.2z"/>
			<path class="st7" d="M519.7,165.4c-1,1.1-2.2,1.9-3.6,2.3c-1.4,0.5-2.8,0.6-4.2,0.3c1-1.1,2.2-1.9,3.6-2.3
				C516.8,165.2,518.3,165.1,519.7,165.4z"/>
			<path class="st7" d="M527.8,172.7c-1.2,1.3-2.7,2.3-4.4,2.9c-1.6,0.7-3.4,1-5.2,0.9C520.9,174,524.3,172.6,527.8,172.7
				L527.8,172.7z"/>
			<path class="st7" d="M505.6,153.2c-0.5,0.6-1.3,1-2.1,1.1c-0.8,0-1.6-0.4-2.1-1.1c0.5-0.7,1.3-1,2.1-1.1
				C504.3,152.2,505.1,152.6,505.6,153.2z"/>
			<path class="st7" d="M523,168.4c-1.6-1.9-1.8-4.5-0.6-6.7c0.8,0.9,1.3,2,1.4,3.2S523.7,167.3,523,168.4z"/>
			<path class="st10" d="M559.9,131.1c0,0-26.8,47.9-17.1,57c2.4-9.2,7.3-47.9,29.3-50.1C572.1,138,559.9,135.7,559.9,131.1z"/>
			<path class="st11" d="M518.2,182.8c0,0,16.9,2.1,27.5,8.4c10.6,6.3,25.3,2.1,25.3,2.1s-12.7,2.1-19-2.1
				C545.7,187,526.7,178.6,518.2,182.8z"/>
			<path class="st12" d="M517.2,291.6c0,0,16.9-6.3,33.8-2.1c16.9,4.2,57-40.1,57-71.8c-2.1,46.5-36.3,72-40.1,73.9
				c-4.2,2.1-10.6,6.3-18.2,4.4C539.7,293.5,519.3,289.5,517.2,291.6z"/>
			<path class="st4" d="M559.4,135.3c1.1,1.1,2.6,1.9,4.2,2.1h-2.1C560.3,137.4,559.4,136.5,559.4,135.3z"/>
		</g>
		<g id="fruits">
			<path class="st13" d="M1201.4,173.3c0,0-28,8.4-16.8,25.2c7.1,10.1,18.5,16.3,30.8,16.8c0,0,30.8-8.4,30.8-19.6
				c0-11.2-11.2-33.6-25.2-36.4C1210,157.1,1207,159.3,1201.4,173.3z"/>
			<polygon class="st14" points="1195.8,164.9 1201.4,173.3 1201.4,162.1 			"/>
			<path class="st15" d="M1279.6,193.4c0,0-16.5-24.1-29.1-8.4c-7.5,9.8-10,22.6-6.7,34.5c0,0,16.8,21.7,27.6,18.3
				c10.8-3.4,28-16.8,27.5-29.9C1298.4,196.6,1294.6,194.5,1279.6,193.4z"/>
			<polygon class="st16" points="1285.9,185.5 1279.6,193.4 1290.3,190 			"/>
			<circle class="st17" cx="1229.4" cy="220.9" r="8.4"/>
			<circle class="st17" cx="1221" cy="209.7" r="8.4"/>
			<circle class="st17" cx="1215.4" cy="223.7" r="8.4"/>
			<circle class="st17" cx="1237.8" cy="206.9" r="8.4"/>
			<circle class="st17" cx="1226.6" cy="195.7" r="8.4"/>
			<circle class="st17" cx="1212.6" cy="195.7" r="8.4"/>
			<circle class="st17" cx="1243.4" cy="220.9" r="8.4"/>
			<circle class="st17" cx="1232.2" cy="232.1" r="8.4"/>
			<circle class="st17" cx="1221" cy="232.1" r="8.4"/>
			<circle class="st17" cx="1207" cy="212.5" r="8.4"/>
			<circle class="st17" cx="1207" cy="223.7" r="8.4"/>
			<circle class="st17" cx="1204.2" cy="232.1" r="8.4"/>
			<circle class="st17" cx="1221" cy="218.1" r="8.4"/>
			<circle class="st17" cx="1235" cy="215.3" r="8.4"/>
			<circle class="st17" cx="1221" cy="206.9" r="8.4"/>
			<path class="st18" d="M1316.2,192.9c-1.7-3.5-2.6-7.3-2.8-11.2c0-5.6,8.4-11.2,8.4-5.6s-2.8,16.8,2.8,22.4
				c5.6,5.6,1.6,17.3,0,19.6c-4.8,6.8-10.3,14-13.7,18.3c-2.3,3-5.3,5.2-8.8,6.6c-11.4,4.6-38.1,12.4-61.6-2.5c0,0-2.8-2.8,2.8-5.6
				c5.6-2.8,19.6,0,30.8-2.8c11.2-2.8,25.2-16.8,30.8-25.2C1310.6,198.5,1316.2,198.5,1316.2,192.9z"/>
			<ellipse class="st19" cx="1163.6" cy="227.9" rx="33.6" ry="30.8"/>
			<ellipse class="st20" cx="1153.8" cy="211.1" rx="4.2" ry="2.8"/>
			<ellipse class="st20" cx="1148.2" cy="213.9" rx="4.2" ry="2.8"/>
			<ellipse class="st20" cx="1148.2" cy="211.1" rx="4.2" ry="2.8"/>
			<path class="st21" d="M1118.8,241.9h218.5l0,0v13.8c0,24.8-20.1,45-45,45h-128.5c-24.8,0-45-20.1-45-45l0,0V241.9L1118.8,241.9z"
				/>
			<path class="st22" d="M1169.2,208.3c10.6,4.2,18.1,13.9,19.6,25.2c0,0,5.6-14-5.6-22.4C1174,204.2,1169.2,208.3,1169.2,208.3z"/>
			<path class="st23" d="M1317.6,211.1c0,0-8.4,22.4-14,25.2c0,0,14-11.2,16.8-19.6c1.7-4.5,1.7-9.5,0-14L1317.6,211.1z"/>
			<path class="st24" d="M1330.2,250.3h-28c0,0-2.8,42-11.2,44.8C1291,295.1,1330.2,286.7,1330.2,250.3z"/>
		</g>
		<path d="M828.6,224.4v-9.9h85.2v9.9H828.6z M828.6,256.8v-10h85.2v9.9L828.6,256.8z"/>
	</g>
	<g class="st25">
		<g class="st26">
			<text transform="matrix(1 0 0 1 219.0439 114.0884)" class="st27 st28 st29">Specific Statement 1:  Apple is a fruit. </text>
		</g>
		<g>
			<text transform="matrix(1 0 0 1 216.0439 112.0884)" class="st30 st28 st29">Specific Statement 1:  Apple is a fruit. </text>
		</g>
	</g>
</g>
<rect x="614.4" y="644.3" class="st27" width="481" height="108.1"/>
<text transform="matrix(1 -7.940244e-05 7.940244e-05 1 648.9858 716.5132)" class="st31 st28 st32">Leads to a </text>
<g class="st33">
	<path class="st34" d="M1636.2,1070.1H105.8c-23,0-41.7-18.6-41.7-41.7V812.4c0-23,18.6-41.7,41.7-41.7h1530.4
		c23,0,41.7,18.6,41.7,41.7v216.1C1677.8,1051.4,1659.2,1070.1,1636.2,1070.1z"/>
	<g class="st35">
		<polygon class="st36" points="868.3,956.2 809.2,988.7 869.8,1027 925.7,991.6 		"/>
		<polygon class="st37" points="776.7,911.2 868.3,857 868.3,956.9 776.7,1011.2 		"/>
		<path d="M866.9,859.5V956l-88.6,52.7v-96.5L866.9,859.5 M869.8,854.3l-94.5,56.1v103.3l94.5-56.1V854.3z"/>
		<polygon class="st37" points="871.3,956.9 871.3,857 962.8,911.2 962.8,1011.2 		"/>
		<path d="M872.7,859.5l88.6,52.7v96.5L872.7,956V859.5 M869.8,854.3v103.3l94.5,56.1V910.4L869.8,854.3z"/>
		<g id="apple_1_">
			<path class="st38" d="M798.7,864.7c0,0-18.9,5.1-13.9,31.5c5.1,26.6,12.6,37.9,26.6,41.6c10.1,2.6,2.6-2.6,21.5,2.6
				c18.9,5.1,34-40.4,34-50.6s-5.1-27.7-21.5-26.6c-8,0.8-16,0.8-24,0C821.4,863.4,802.4,862.3,798.7,864.7z"/>
			<path class="st3" d="M813.2,874.2c0,0,13.9,7.5,21.5,6.4c7.5-1.3,15.2-7.5,17.7-2.6c2.6,5.1,5,7.5,0,20.2
				c-5,12.6-20.2,36.6-40.4,35.5c-20.2-1.2-30.4-45.6-21.5-59.4C799.2,860.3,813.2,874.2,813.2,874.2z"/>
			<path class="st4" d="M809.3,871.7c0,0,24-6.4,24,0c0,3.4-2.7,6.1-6.1,6.3c-0.1,0-0.1,0-0.2,0
				C821.9,874.4,815.7,872.1,809.3,871.7z"/>
			<path class="st5" d="M857.9,881.2c0,0-7.5-20.2-46.7-10.1c0,0,25.3,7.5,24,12.6c-1.3,5.1-16.5,0-30.3-1.3
				c-13.9-1.3-5.1,42.9,1.3,49.3c-10.1-8.8-25.3-34.1-15.2-58.1c10.1-13.9,34.1-6.4,44.3-7.5S856.7,868.6,857.9,881.2z"/>
			<g>
				<path class="st6" d="M791.7,841.4c0,0,6.4,24,13.9,26.6c7.5,2.6,15.2,2.6,17.7,5.1l2.6-2.6c0,0-5.1-5.1-5.1-6.4
					c0-1.3-2.6-15.2-12.6-17.7C802.6,845.1,797,843.4,791.7,841.4z"/>
				<path class="st7" d="M791.7,841.4c1.2,3.9,2.7,7.8,4.2,11.6c1.5,3.8,3.4,7.4,5.7,10.8c1,1.6,2.6,2.9,4.3,3.7
					c2,0.6,3.9,1.2,5.9,1.5l5.9,1.2c2.1,0.3,4.2,1.2,5.9,2.4h-0.8l2.6-2.6v0.9c-1.4-1.4-2.8-3-4.1-4.5c-0.3-0.5-0.7-0.9-0.9-1.4
					c-0.1-0.1-0.1-0.3-0.2-0.5c0-0.2,0-0.5,0-0.5c0-0.2,0-0.5,0-0.7c-0.1-1-0.3-2-0.7-2.9c-1-3.8-3-7.3-5.8-10.2
					c-1.4-1.4-3-2.3-4.9-2.9c-1.9-0.6-3.9-1-5.9-1.7C799.2,844.2,795.4,842.9,791.7,841.4z M791.7,841.4c3.8,1.3,7.7,2.4,11.6,3.5
					c2,0.6,3.9,0.9,5.9,1.5c2,0.6,3.8,1.7,5.3,3.1c2.9,3,5,6.6,6,10.7c0.3,0.9,0.6,2,0.7,2.9c0,0.2,0,0.6,0,0.8c0,0.1,0,0.1,0,0.2
					s0,0.1,0,0.2c0.2,0.5,0.5,0.8,0.8,1.2c1.3,1.5,2.6,3,3.9,4.4l0.5,0.5l-0.5,0.5l-2.6,2.6l-0.5,0.5l-0.5-0.5
					c-1.6-1.2-3.4-1.9-5.3-2.1l-5.9-1.3c-2-0.5-3.9-0.9-5.9-1.6c-2-0.9-3.6-2.3-4.8-4.2c-2.3-3.5-4.1-7.2-5.5-11.1
					C793.9,849.3,792.8,845.5,791.7,841.4z"/>
			</g>
			<path class="st8" d="M796.1,844.5c0,0,15.2,3.8,18.9,8.8c2.2,3.9,3.9,8.2,5.1,12.8c-2.7-4.4-5.7-8.6-8.8-12.6
				C808.8,850.9,798.7,844.5,796.1,844.5z"/>
			<path class="st9" d="M796.1,848.4l21.5,20.2c0,0-13.9-2.6-15.2-6.4C801.1,858.6,796.1,848.4,796.1,848.4z"/>
			<path class="st7" d="M799.2,849c4.5,3.4,8.8,7.2,13,10.9c4.2,3.7,8.4,7.7,12.2,11.8c-4.5-3.4-8.8-7.2-13-10.9
				C807.4,857.1,803.1,853.1,799.2,849z"/>
			<path class="st7" d="M808.1,852.8c0.3,0.6,0.6,1.3,0.6,2c0,0.7-0.2,1.4-0.6,2c-0.5-0.6-0.6-1.3-0.7-2
				C807.5,854.1,807.7,853.4,808.1,852.8z"/>
			<path class="st7" d="M811.5,860c-0.6,0.7-1.3,1.2-2.1,1.4c-0.8,0.2-1.7,0.3-2.6,0.2c0.6-0.6,1.3-1.2,2.1-1.4
				C809.8,860,810.6,859.9,811.5,860z"/>
			<path class="st7" d="M816.4,864.4c-1.5,1.5-3.6,2.3-5.8,2.3c0.7-0.8,1.6-1.4,2.7-1.7C814.3,864.5,815.4,864.4,816.4,864.4z"/>
			<path class="st7" d="M803.1,852.8c-0.3,0.3-0.8,0.6-1.3,0.7c-0.5,0-0.9-0.2-1.3-0.7c0.3-0.3,0.8-0.6,1.3-0.6
				S802.7,852.4,803.1,852.8z"/>
			<path class="st7" d="M813.6,861.8c-0.5-0.6-0.7-1.2-0.8-2c0-0.7,0.1-1.4,0.5-2.1c0.5,0.6,0.7,1.3,0.8,2
				C814.1,860.4,814,861.1,813.6,861.8z"/>
			<path class="st39" d="M835.5,839.6c0,0-16,28.5-10.1,34c1.5-5.5,4.4-28.5,17.5-29.9C842.9,843.6,835.5,842.2,835.5,839.6z"/>
			<path class="st40" d="M810.7,870.4c5.7,0.7,11.2,2.4,16.5,5.1c6.3,3.8,15.2,1.3,15.2,1.3s-7.5,1.3-11.4-1.3
				C827.1,873,815.7,868,810.7,870.4z"/>
			<path class="st12" d="M810,935.5c6.5-2.3,13.5-2.8,20.2-1.4c10.1,2.6,34.1-24,34.1-42.9c-0.8,17.6-9.6,34-24,44.3
				c-2.6,1.3-6.4,3.8-10.9,2.7C823.5,936.6,811.3,934.1,810,935.5z"/>
			<path class="st4" d="M835.3,842c0.7,0.7,1.5,1.2,2.6,1.3h-1.3C835.8,843.3,835.3,842.8,835.3,842
				C835.3,842.1,835.3,842,835.3,842z"/>
		</g>
		<g id="apple-2">
			<path class="st38" d="M837.1,891.3c0,0-18.9,5.1-13.9,31.5c5.1,26.6,12.6,37.9,26.6,41.6c10.1,2.6,2.6-2.6,21.5,2.6
				c18.9,5.1,34-40.4,34-50.6c0-10.1-5.1-27.7-21.5-26.6c-8,0.8-16,0.8-24,0C859.8,890,840.8,888.8,837.1,891.3z"/>
			<path class="st3" d="M851.6,900.8c0,0,13.9,7.5,21.5,6.4c7.5-1.3,15.2-7.5,17.7-2.6c2.6,5.1,5,7.5,0,20.2
				c-5,12.6-20.2,36.6-40.4,35.5c-20.2-1.2-30.4-45.6-21.5-59.4C837.6,887,851.6,900.8,851.6,900.8z"/>
			<path class="st4" d="M847.7,898.4c0,0,24-6.4,24,0c0,3.4-2.7,6.1-6.1,6.3c-0.1,0-0.1,0-0.2,0
				C860.3,900.9,854.1,898.8,847.7,898.4z"/>
			<path class="st5" d="M896.3,907.8c0,0-7.5-20.2-46.7-10.1c0,0,25.3,7.5,24,12.6c-1.3,5.1-16.5,0-30.3-1.3
				c-13.9-1.3-5.1,42.9,1.3,49.3c-10.1-8.8-25.3-34.1-15.2-58.1c10.1-13.9,34.1-6.4,44.3-7.5C884,891.3,895.2,895.1,896.3,907.8z"/>
			<g>
				<path class="st6" d="M830.1,868c0,0,6.4,24,13.9,26.6s15.2,2.6,17.7,5.1l2.6-2.6c0,0-5.1-5.1-5.1-6.4c0-1.3-2.6-15.2-12.6-17.7
					C841,871.7,835.4,870.1,830.1,868z"/>
				<path class="st7" d="M830.1,868c1.2,3.9,2.7,7.8,4.2,11.6c1.5,3.8,3.4,7.4,5.7,10.8c1,1.6,2.6,2.9,4.3,3.7
					c2,0.6,3.9,1.2,5.9,1.5l5.9,1.2c2.1,0.3,4.2,1.2,5.9,2.4h-0.9l2.6-2.6v0.9c-1.4-1.4-2.8-3-4.1-4.5c-0.3-0.5-0.7-0.9-0.9-1.4
					c-0.1-0.1-0.1-0.3-0.2-0.5c0-0.2,0-0.5,0-0.5c0-0.2,0-0.5,0-0.7c-0.1-1-0.3-2-0.7-2.9c-1-3.8-3-7.3-5.8-10.2
					c-1.4-1.4-3-2.4-4.9-3.1c-1.9-0.6-3.9-1-5.9-1.7C837.6,870.9,833.8,869.6,830.1,868z M830.1,868c3.8,1.3,7.7,2.4,11.6,3.5
					c2,0.6,3.9,0.9,5.9,1.5s3.8,1.7,5.3,3.1c2.9,3,5,6.6,6,10.7c0.3,0.9,0.6,2,0.7,2.9c0,0.2,0,0.6,0,0.8c0,0.1,0,0.1,0,0.2
					c0,0.1,0,0.1,0,0.2c0.2,0.5,0.5,0.8,0.8,1.2c1.3,1.5,2.6,3,3.9,4.4l0.5,0.5l-0.5,0.5l-2.6,2.6l-0.5,0.5l-0.5-0.5
					c-1.6-1.2-3.4-1.9-5.3-2.1l-5.9-1.3c-2-0.5-3.9-0.9-5.9-1.6c-2-0.9-3.6-2.3-4.8-4.2c-2.3-3.5-4.1-7.2-5.5-11.1
					C832.3,875.9,831.1,872,830.1,868z"/>
			</g>
			<path class="st8" d="M834.5,871.2c0,0,15.2,3.8,18.9,8.8c2.2,3.9,3.9,8.2,5.1,12.8c-2.7-4.4-5.7-8.6-8.8-12.6
				C847.1,877.5,837.1,871.2,834.5,871.2z"/>
			<path class="st9" d="M834.5,875l21.5,20.2c0,0-13.9-2.6-15.2-6.4C839.5,885.1,834.5,875,834.5,875z"/>
			<path class="st7" d="M837.6,875.5c4.5,3.4,8.8,7.2,13,10.9s8.4,7.7,12.2,11.8c-4.5-3.4-8.8-7.2-13-10.9
				C845.8,883.6,841.6,879.8,837.6,875.5z"/>
			<path class="st7" d="M846.6,879.3c0.3,0.6,0.6,1.3,0.6,2c0,0.7-0.2,1.4-0.6,2c-0.5-0.6-0.6-1.3-0.7-2
				C845.9,880.6,846.1,879.9,846.6,879.3z"/>
			<path class="st7" d="M849.9,886.5c-0.6,0.7-1.3,1.2-2.1,1.4c-0.8,0.2-1.7,0.3-2.6,0.2c0.6-0.6,1.3-1.2,2.1-1.4
				C848.2,886.5,849.1,886.4,849.9,886.5z"/>
			<path class="st7" d="M854.8,890.9c-1.6,1.5-3.7,2.3-5.9,2.3c0.7-0.8,1.6-1.4,2.7-1.7C852.6,891.1,853.6,890.9,854.8,890.9z"/>
			<path class="st7" d="M841.5,879.3c-0.3,0.3-0.8,0.6-1.3,0.7c-0.5,0-0.9-0.2-1.3-0.7c0.3-0.3,0.8-0.6,1.3-0.6
				C840.8,878.8,841.1,879,841.5,879.3z"/>
			<path class="st7" d="M852,888.4c-0.5-0.6-0.7-1.2-0.8-2c0-0.7,0.1-1.4,0.5-2.1c0.5,0.6,0.7,1.3,0.8,2
				C852.5,887.1,852.4,887.8,852,888.4z"/>
			<path class="st39" d="M873.9,866.1c0,0-16,28.5-10.1,34c1.5-5.5,4.4-28.5,17.5-29.9C881.2,870.2,873.9,868.9,873.9,866.1z"/>
			<path class="st40" d="M849.1,897.1c5.7,0.7,11.2,2.4,16.5,5.1c6.3,3.8,15.2,1.3,15.2,1.3s-7.5,1.3-11.4-1.3
				C865.5,899.6,854.1,894.5,849.1,897.1z"/>
			<path class="st12" d="M848.4,962c6.5-2.3,13.5-2.8,20.2-1.4c10.1,2.6,34.1-24,34.1-42.9c-0.8,17.6-9.6,34-24,44.3
				c-2.6,1.3-6.4,3.8-10.9,2.7C861.9,963.2,849.7,960.6,848.4,962z"/>
			<path class="st4" d="M873.7,868.7c0.7,0.7,1.5,1.2,2.6,1.3H875C874.2,869.9,873.7,869.4,873.7,868.7L873.7,868.7z"/>
		</g>
		<g id="apple-3">
			<path class="st38" d="M884.3,876.6c0,0-18.9,5.1-13.9,31.5c5.1,26.6,12.6,37.9,26.6,41.6c10.1,2.6,2.6-2.6,21.5,2.6
				c18.9,5.1,34-40.4,34-50.6c0-10.2-5.1-27.7-21.5-26.6c-8,0.8-16,0.8-24,0C907,875.3,888.1,874,884.3,876.6z"/>
			<path class="st3" d="M898.9,886.1c0,0,13.9,7.5,21.5,6.4c7.5-1.3,15.2-7.5,17.7-2.6c2.6,5.1,5,7.5,0,20.2
				c-5,12.6-20.2,36.6-40.4,35.5c-20.2-1.2-30.4-45.6-21.5-59.4C885,872.1,898.9,886.1,898.9,886.1z"/>
			<path class="st4" d="M895,883.5c0,0,24-6.4,24,0c0,3.4-2.7,6.1-6.1,6.3c-0.1,0-0.1,0-0.2,0C907.5,886.2,901.3,884,895,883.5z"/>
			<path class="st5" d="M943.6,893c0,0-7.5-20.2-46.7-10.1c0,0,25.3,7.5,24,12.6s-16.5,0-30.3-1.3c-13.9-1.3-5.1,42.9,1.3,49.3
				c-10.1-8.8-25.3-34.1-15.2-58.1c10.1-13.9,34.1-6.4,44.3-7.5C931.2,876.6,942.4,880.4,943.6,893z"/>
			<g>
				<path class="st6" d="M877.3,853.2c0,0,6.4,24,13.9,26.6c7.5,2.6,15.2,2.6,17.7,5.1l2.6-2.6c0,0-5.1-5.1-5.1-6.4
					s-2.6-15.2-12.6-17.7C888.2,857,882.8,855.2,877.3,853.2z"/>
				<path class="st7" d="M877.3,853.2c1.2,3.9,2.7,7.8,4.2,11.6c1.5,3.8,3.4,7.4,5.7,10.8c1,1.6,2.6,2.9,4.3,3.7
					c2,0.6,3.9,1.2,5.9,1.5l5.9,1.2c2.1,0.3,4.2,1.2,5.9,2.4h-0.9l2.6-2.6v0.9c-1.4-1.4-2.8-3-4.1-4.5c-0.3-0.5-0.7-0.9-0.9-1.4
					c-0.1-0.1-0.1-0.3-0.2-0.5c0-0.2,0-0.5,0-0.5c0-0.2,0-0.5,0-0.7c-0.1-1-0.3-2-0.7-2.9c-1-3.8-3-7.3-5.8-10.2
					c-1.4-1.4-3-2.4-4.9-3.1c-1.9-0.6-3.9-1-5.9-1.7C885,856,881.1,854.8,877.3,853.2z M877.3,853.2c3.8,1.3,7.7,2.4,11.6,3.5
					c2,0.6,3.9,0.9,5.9,1.5c2,0.6,3.8,1.7,5.3,3.1c2.9,3,5,6.6,6,10.7c0.3,0.9,0.6,2,0.7,2.9c0,0.2,0,0.6,0,0.8c0,0.1,0,0.1,0,0.2
					c0,0.1,0,0.1,0,0.2c0.2,0.5,0.5,0.8,0.8,1.2c1.3,1.5,2.6,3,3.9,4.4l0.5,0.5l-0.5,0.5l-2.6,2.6l-0.5,0.5l-0.5-0.5
					c-1.6-1.2-3.4-1.9-5.3-2.1l-5.9-1.3c-2-0.5-3.9-0.9-5.9-1.6c-2-0.9-3.6-2.3-4.8-4.2c-2.3-3.5-4.1-7.2-5.5-11.1
					C879.5,861.1,878.3,857.3,877.3,853.2z"/>
			</g>
			<path class="st8" d="M881.8,856.4c0,0,15.2,3.8,18.9,8.8c2.2,3.9,3.9,8.2,5.1,12.8c-2.7-4.4-5.7-8.6-8.8-12.6
				C894.3,862.6,884.3,856.4,881.8,856.4z"/>
			<path class="st9" d="M881.8,860.2l21.5,20.2c0,0-13.9-2.6-15.2-6.4C886.8,870.3,881.8,860.2,881.8,860.2z"/>
			<path class="st7" d="M885,860.8c4.5,3.4,8.8,7.2,13,10.9c4.2,3.7,8.4,7.7,12.2,11.8c-4.5-3.4-8.8-7.2-13-10.9
				C893,868.9,888.8,865,885,860.8z"/>
			<path class="st7" d="M893.8,864.6c0.3,0.6,0.6,1.3,0.6,2c0,0.7-0.2,1.4-0.6,2c-0.5-0.6-0.6-1.3-0.7-2
				C893.2,865.9,893.4,865.2,893.8,864.6z"/>
			<path class="st7" d="M897.1,871.8c-0.6,0.7-1.3,1.2-2.1,1.4c-0.8,0.2-1.7,0.3-2.6,0.2c0.6-0.6,1.3-1.2,2.1-1.4
				C895.5,871.8,896.3,871.7,897.1,871.8z"/>
			<path class="st7" d="M902,876.2c-1.6,1.5-3.7,2.3-5.9,2.3c0.7-0.8,1.6-1.4,2.7-1.7C899.8,876.3,901,876.2,902,876.2z"/>
			<path class="st7" d="M888.8,864.6c-0.3,0.3-0.8,0.6-1.3,0.7c-0.5,0-0.9-0.2-1.3-0.7c0.3-0.3,0.8-0.6,1.3-0.6
				S888.4,864.3,888.8,864.6z"/>
			<path class="st7" d="M899.3,873.7c-0.5-0.6-0.7-1.2-0.8-2c0-0.7,0.1-1.4,0.5-2.1c0.5,0.6,0.7,1.3,0.8,2
				C899.8,872.3,899.7,873,899.3,873.7z"/>
			<path class="st39" d="M921.1,851.4c0,0-16,28.5-10.1,34c1.5-5.5,4.4-28.5,17.5-29.9C928.4,855.4,921.1,854.1,921.1,851.4z"/>
			<path class="st40" d="M896.3,882.2c5.7,0.7,11.2,2.4,16.5,5.1c6.3,3.8,15.2,1.3,15.2,1.3s-7.5,1.3-11.4-1.3
				S901.3,879.7,896.3,882.2z"/>
			<path class="st12" d="M895.6,947.3c6.5-2.3,13.5-2.8,20.2-1.4c10.1,2.6,34.1-24,34.1-42.9c-0.8,17.6-9.6,34-24,44.3
				c-2.6,1.3-6.4,3.8-10.9,2.7C909.1,948.5,896.9,945.9,895.6,947.3z"/>
			<path class="st4" d="M920.9,853.8c0.7,0.7,1.5,1.2,2.6,1.3h-1.3C921.5,855.1,920.9,854.5,920.9,853.8L920.9,853.8z"/>
		</g>
		<polygon class="st37" points="871.3,967.4 962.8,913.1 962.8,1013.1 871.3,1067.3 		"/>
		<path d="M961.4,915.6v96.5l-88.7,52.7v-96.5L961.4,915.6 M964.3,910.4l-94.5,56.1v103.3l94.5-56.1V910.4z"/>
		<polygon class="st37" points="776.7,1013.1 776.7,913.1 868.3,967.4 868.3,1067.3 		"/>
		<path d="M778.1,915.6l88.7,52.7v96.5l-88.6-52.7v-96.5 M775.2,910.4v103.3l94.5,56.1V966.6L775.2,910.4z"/>
	</g>
	<g class="st41">
		<g class="st26">
			<text transform="matrix(1 0 0 1 187.0524 841.5584)" class="st27 st28 st29">General Conclusion:  The box is full of apples. </text>
		</g>
		<g>
			<text transform="matrix(1 0 0 1 184.0524 839.5584)" class="st42 st28 st29">General Conclusion:  The box is full of apples. </text>
		</g>
	</g>
</g>
<g>
	<path class="st43" d="M1636.4,625.9H106c-23,0-41.7-18.6-41.7-41.7V389.8c0-23,18.6-41.7,41.7-41.7h1530.4
		c23,0,41.7,18.6,41.7,41.7v194.5C1678,607.3,1659.4,625.9,1636.4,625.9z"/>
	<g id="fruits_1_">
		<path class="st13" d="M1213.4,477.7c0,0-28,8.4-16.8,25.2c7.1,10.1,18.5,16.3,30.8,16.8c0,0,30.8-8.4,30.8-19.6
			s-11.2-33.6-25.2-36.4C1222,461.5,1219,463.7,1213.4,477.7z"/>
		<polygon class="st14" points="1207.8,469.3 1213.4,477.7 1213.4,466.5 		"/>
		<path class="st15" d="M1291.6,497.8c0,0-16.5-24.1-29.1-8.4c-7.5,9.8-10,22.6-6.7,34.5c0,0,16.8,21.7,27.6,18.3
			c10.8-3.4,28-16.8,27.5-29.9C1310.4,501.1,1306.6,498.9,1291.6,497.8z"/>
		<polygon class="st16" points="1297.9,489.9 1291.6,497.8 1302.2,494.4 		"/>
		<circle class="st17" cx="1241.4" cy="525.3" r="8.4"/>
		<circle class="st17" cx="1233" cy="514.1" r="8.4"/>
		<circle class="st17" cx="1227.4" cy="528.1" r="8.4"/>
		<circle class="st17" cx="1249.8" cy="511.3" r="8.4"/>
		<circle class="st17" cx="1238.6" cy="500.1" r="8.4"/>
		<circle class="st17" cx="1224.6" cy="500.1" r="8.4"/>
		<circle class="st17" cx="1255.4" cy="525.3" r="8.4"/>
		<circle class="st17" cx="1244.2" cy="536.6" r="8.4"/>
		<circle class="st17" cx="1233" cy="536.6" r="8.4"/>
		<circle class="st17" cx="1219" cy="516.9" r="8.4"/>
		<circle class="st17" cx="1219" cy="528.1" r="8.4"/>
		<circle class="st17" cx="1216.2" cy="536.6" r="8.4"/>
		<circle class="st17" cx="1233" cy="522.5" r="8.4"/>
		<circle class="st17" cx="1247" cy="519.7" r="8.4"/>
		<circle class="st17" cx="1233" cy="511.3" r="8.4"/>
		<path class="st18" d="M1328.2,497.3c-1.7-3.5-2.6-7.3-2.8-11.2c0-5.6,8.4-11.2,8.4-5.6s-2.8,16.8,2.8,22.4
			c5.6,5.6,1.6,17.3,0,19.6c-4.8,6.8-10.3,14-13.7,18.3c-2.3,3-5.3,5.2-8.8,6.6c-11.4,4.6-38.1,12.4-61.6-2.5c0,0-2.8-2.8,2.8-5.6
			c5.6-2.8,19.6,0,30.8-2.8s25.2-16.8,30.8-25.2C1322.5,502.9,1328.2,502.9,1328.2,497.3z"/>
		<ellipse class="st19" cx="1175.5" cy="532.4" rx="33.6" ry="30.8"/>
		<ellipse class="st20" cx="1165.7" cy="515.5" rx="4.2" ry="2.8"/>
		<ellipse class="st20" cx="1160.1" cy="518.3" rx="4.2" ry="2.8"/>
		<ellipse class="st20" cx="1160.1" cy="515.5" rx="4.2" ry="2.8"/>
		<path class="st21" d="M1130.7,546.4h218.5l0,0v13.8c0,24.8-20.1,45-45,45h-128.5c-24.8,0-45-20.1-45-45l0,0V546.4L1130.7,546.4z"
			/>
		<path class="st22" d="M1181.1,512.7c10.6,4.2,18.1,13.9,19.6,25.2c0,0,5.6-14-5.6-22.4C1185.9,508.6,1181.1,512.7,1181.1,512.7z"
			/>
		<path class="st23" d="M1329.6,515.5c0,0-8.4,22.4-14,25.2c0,0,14-11.2,16.8-19.6c1.7-4.5,1.7-9.5,0-14L1329.6,515.5z"/>
		<path class="st24" d="M1342.2,554.8h-28c0,0-2.8,42-11.2,44.8C1303,599.6,1342.2,591.2,1342.2,554.8z"/>
	</g>
	<g>
		<polygon class="st44" points="540.5,527.5 493.2,553.5 541.6,584.1 586.4,555.8 		"/>
		<polygon class="st37" points="467.3,491.6 540.5,448.1 540.5,528 467.3,571.5 		"/>
		<path d="M539.3,450.2v77.1l-70.8,42v-77.1L539.3,450.2 M541.6,446.1l-75.5,44.8v82.6l75.5-44.9V446.1z"/>
		<polygon class="st37" points="542.8,528 542.8,448.1 616,491.6 616,571.5 		"/>
		<path d="M544,450.2l70.8,42v77.2l-70.8-42L544,450.2 M541.6,446.1v82.6l75.5,44.9V491L541.6,446.1z"/>
		<polygon class="st37" points="542.8,536.4 616,493 616,572.9 542.8,616.3 		"/>
		<path d="M614.8,495.1v77.1l-70.8,42v-77.1L614.8,495.1 M617.2,490.9l-75.5,44.9v82.6l75.5-44.9V490.9z"/>
		<polygon class="st37" points="467.3,572.9 467.3,493 540.5,536.4 540.5,616.3 		"/>
		<path d="M468.5,495.1l70.8,42v77.1l-70.8-42L468.5,495.1 M466.1,490.9v82.6l75.5,44.9v-82.6L466.1,490.9z"/>
	</g>
	<text transform="matrix(1 0 0 1 737.5589 555.7795)" class="st45 st28 st46">is full of</text>
	<g class="st25">
		<g class="st26">
			<text transform="matrix(1 0 0 1 205.0526 419.1555)" class="st27 st28 st29">Specific Statement 2:  The box is full of fruit. </text>
		</g>
		<g>
			<text transform="matrix(1 0 0 1 202.0526 417.1555)" class="st42 st28 st29">Specific Statement 2:  The box is full of fruit. </text>
		</g>
	</g>
</g>
</svg>
