<?xml version="1.0" encoding="utf-8"?>
<!-- Generator: Adobe Illustrator 24.0.3, SVG Export Plug-In . SVG Version: 6.00 Build 0)  -->
<svg version="1.1" id="Layer_1" xmlns="http://www.w3.org/2000/svg" xmlns:xlink="http://www.w3.org/1999/xlink" x="0px" y="0px"
	 viewBox="0 0 1700 1080" style="enable-background:new 0 0 1700 1080;" xml:space="preserve">
<style type="text/css">
	.st0{fill:#8E775F;stroke:#000000;stroke-width:1.3295;stroke-miterlimit:10;}
	.st1{fill:#BA9B79;}
	.st2{fill:#DA3732;stroke:#000000;stroke-width:0.452;stroke-linejoin:round;}
	.st3{fill:#DE543E;}
	.st4{fill:#AB2925;}
	.st5{fill:#E27F68;}
	.st6{fill:#A5C058;}
	.st7{fill:#006837;}
	.st8{fill:#72974F;}
	.st9{fill:#D7DC84;}
	.st10{fill:#E27F68;stroke:#000000;stroke-width:0.452;stroke-linecap:round;stroke-linejoin:round;}
	.st11{stroke:#000000;stroke-width:0.452;stroke-linecap:round;stroke-linejoin:round;}
	.st12{fill:#A82925;}
	.st13{display:none;}
	.st14{display:inline;fill:#3A9B3F;}
	.st15{display:inline;fill:#FFFFFF;}
	.st16{font-family:'CarterOne';}
	.st17{font-size:70px;}
	.st18{font-size:57.9635px;}
	.st19{display:none;enable-background:new    ;}
	.st20{display:inline;opacity:0.53;}
	.st21{fill:#0D280E;}
	.st22{font-size:119.5298px;}
	.st23{display:inline;}
	.st24{fill:#1B5E1F;}
	.st25{fill:#896264;}
</style>
<g>
	<polygon class="st0" points="228.5,351.6 114.5,414.2 231.3,487.9 339.1,419.8 	"/>
	<polygon class="st1" points="51.9,264.9 228.5,160.3 228.5,352.9 51.9,457.5 	"/>
	<path d="M225.5,165.2v186L54.8,452.6v-186L225.5,165.2 M231.3,155.2L49.1,263.4v199.2l182.1-108.1L231.3,155.2L231.3,155.2z"/>
	<polygon class="st1" points="234,352.9 234,160.3 410.6,264.9 410.6,457.5 	"/>
	<path d="M237,165.2l170.7,101.3v186L237,351.2V165.2 M231.3,155.2v199.2l182.1,108.1v-199L231.3,155.2z"/>
	<g id="apple_1_">
		<path class="st2" d="M94.2,175.3c0,0-36.4,9.7-26.7,60.9c9.7,51.1,24.3,73,51.2,80.3c19.4,4.9,4.8-4.8,41.3,4.9
			s65.5-77.9,65.5-97.3s-9.7-53.4-41.3-51.2c-15.4,1.6-30.8,1.6-46.3,0C137.9,172.8,101.5,170.5,94.2,175.3z"/>
		<path class="st3" d="M122.2,193.6c0,0,26.7,14.6,41.3,12.2c14.6-2.4,29.2-14.6,34.2-4.9c4.9,9.7,9.7,14.6,0,39s-39,70.5-77.9,68.3
			c-39-2.1-58.5-87.7-41.5-114.5S122.2,193.6,122.2,193.6z"/>
		<path class="st4" d="M114.8,188.7c0,0,46.3-12.2,46.3,0c0,6.5-5.2,12-11.8,12c-0.1,0-0.3,0-0.4,0
			C138.9,193.8,127,189.7,114.8,188.7z"/>
		<path class="st5" d="M208.5,206.9c0,0-14.6-39-90-19.4c0,0,48.7,14.6,46.3,24.3s-31.6,0-58.4-2.4s-9.7,82.7,2.4,94.9
			c-19.4-17-48.7-65.7-29.2-111.9c19.4-26.7,65.7-12.2,85.4-14.6C184.6,175.4,206.1,182.6,208.5,206.9z"/>
		<g>
			<path class="st6" d="M80.8,130.4c0,0,12.2,46.3,26.7,51.2s29.2,4.9,34.2,9.7l4.8-4.8c0,0-9.7-9.7-9.7-12.2
				c0-2.4-4.8-29.2-24.3-34.2C101.8,137.5,91.1,134.2,80.8,130.4z"/>
			<path class="st7" d="M80.8,130.4c2.4,7.6,5.1,15,8.1,22.2c2.8,7.3,6.5,14.2,10.9,20.7c2,3.2,4.9,5.6,8.4,7.2
				c3.7,1.2,7.6,2.1,11.4,2.9l11.4,2.3c4.1,0.5,8,2.1,11.4,4.7h-1.7l4.8-4.8v1.7c-2.8-2.8-5.3-5.7-7.8-8.8c-0.7-0.8-1.2-1.7-1.7-2.7
				c-0.1-0.3-0.3-0.5-0.4-0.8c0-0.4,0-0.8,0-0.9c0-0.4,0-0.9,0-1.3c-0.3-1.9-0.8-3.9-1.3-5.7c-2.1-7.3-6-14.1-11.2-19.5
				c-2.7-2.7-5.8-4.5-9.4-5.7s-7.6-2-11.4-3.2C95.4,135.8,87.9,133.3,80.8,130.4z M80.8,130.4c7.3,2.5,14.8,4.8,22.2,6.6
				c3.7,1.1,7.6,1.7,11.4,2.9c3.9,1.2,7.3,3.3,10.2,6.1c5.6,5.7,9.6,12.9,11.6,20.6c0.5,1.9,1.1,3.9,1.5,5.7c0,0.5,0,1.1,0,1.6
				c0,0.1,0,0.3,0,0.4c0,0.1,0,0.3,0,0.4c0.4,0.8,0.9,1.6,1.6,2.3c2.4,2.9,4.9,5.8,7.7,8.5l0.8,0.8l-0.8,0.8l-4.8,4.8l-0.8,0.8
				l-0.8-0.8c-3.1-2.1-6.6-3.6-10.2-4l-11.4-2.4c-3.9-0.8-7.6-1.9-11.4-3.1c-3.9-1.7-7-4.5-9.2-8.1c-4.4-6.6-7.8-13.8-10.5-21.4
				C85,145.5,82.7,138.2,80.8,130.4z"/>
		</g>
		<path class="st8" d="M89.4,136.5c0,0,29.2,7.3,36.4,17c4.4,7.7,7.6,16,9.7,24.5c-5.2-8.5-10.9-16.6-17-24.3
			C113.6,148.6,94.2,136.5,89.4,136.5z"/>
		<path class="st9" d="M89.4,143.8l41.3,39c0,0-26.7-4.9-29.2-12.2S89.4,143.8,89.4,143.8z"/>
		<path class="st7" d="M95.4,145c8.8,6.5,17,13.8,25.1,21c8,7.2,16.1,14.8,23.5,22.7c-8.8-6.5-17-13.8-25.1-21
			C110.9,160.5,102.8,153,95.4,145z"/>
		<path class="st7" d="M112.5,152.2c0.8,1.1,1.2,2.4,1.2,3.9c0,1.3-0.4,2.7-1.2,3.7c-0.8-1.1-1.2-2.4-1.2-3.7
			C111.2,154.7,111.7,153.4,112.5,152.2z"/>
		<path class="st7" d="M119,166.1c-1.1,1.2-2.5,2.1-4.1,2.8c-1.6,0.5-3.2,0.7-4.9,0.4c1.1-1.2,2.5-2.1,4.1-2.8
			C115.7,166,117.3,165.9,119,166.1z"/>
		<path class="st7" d="M128.3,174.6c-2.9,2.9-6.9,4.5-11,4.4c1.5-1.5,3.2-2.7,5.2-3.3C124.4,174.9,126.4,174.5,128.3,174.6z"/>
		<path class="st7" d="M102.8,152.2c-0.7,0.8-1.5,1.2-2.4,1.2s-1.9-0.5-2.5-1.2c0.7-0.7,1.6-1.2,2.5-1.2
			C101.2,151.1,102.2,151.5,102.8,152.2z"/>
		<path class="st7" d="M123.2,169.6c-0.9-1.1-1.5-2.4-1.6-3.7s0.3-2.8,0.9-4c0.8,1.1,1.3,2.4,1.6,3.7
			C124.1,167.1,123.7,168.4,123.2,169.6z"/>
		<path class="st10" d="M165.3,126.8c0,0-30.8,55-19.4,65.5c2.8-10.5,8.5-55,33.8-57.7C179.4,134.6,165.3,132,165.3,126.8z"/>
		<path class="st11" d="M117.4,186.3c11,1.5,21.7,4.8,31.6,9.7c12.1,7.3,29.2,2.4,29.2,2.4s-14.6,2.4-21.9-2.4
			C149.1,191.3,127,181.4,117.4,186.3z"/>
		<path class="st12" d="M116.1,311.6c12.5-4.4,25.9-5.3,39-2.7c19.4,4.8,65.7-46.3,65.7-82.7c-1.6,34-18.6,65.4-46.3,85.4
			c-4.9,2.4-12.2,7.3-21,5.1C142,313.8,118.5,308.9,116.1,311.6z"/>
		<path class="st4" d="M164.8,131.6c1.3,1.3,3.1,2.3,4.8,2.4h-2.4C165.8,134,164.8,132.9,164.8,131.6L164.8,131.6z"/>
	</g>
	<g id="apple-2">
		<path class="st2" d="M168.2,226.6c0,0-36.4,9.7-26.7,60.9c9.7,51.2,24.3,73,51.2,80.3c19.4,4.9,4.8-4.8,41.3,4.9
			c36.6,9.7,65.5-77.9,65.5-97.3s-9.7-53.4-41.3-51.2c-15.4,1.6-30.8,1.6-46.3,0C212,224,175.4,221.7,168.2,226.6z"/>
		<path class="st3" d="M196.2,244.8c0,0,26.7,14.6,41.3,12.2s29.2-14.6,34.2-4.9c4.9,9.7,9.7,14.6,0,39s-39,70.5-77.9,68.3
			s-58.5-87.7-41.5-114.5C169.4,218.1,196.2,244.8,196.2,244.8z"/>
		<path class="st4" d="M188.8,240c0,0,46.3-12.2,46.3,0c0,6.5-5.2,12-11.8,12c-0.1,0-0.3,0-0.4,0C212.9,245.1,201.1,240.8,188.8,240
			z"/>
		<path class="st5" d="M282.4,258.3c0,0-14.6-39-90-19.4c0,0,48.7,14.6,46.3,24.3c-2.4,9.7-31.6,0-58.4-2.4
			c-26.7-2.4-9.7,82.7,2.4,94.9c-19.4-17-48.7-65.7-29.2-111.9c19.4-26.7,65.7-12.2,85.4-14.6S280,233.9,282.4,258.3z"/>
		<g>
			<path class="st6" d="M154.8,181.5c0,0,12.2,46.3,26.7,51.2c14.6,5.1,29.2,4.9,34.2,9.7l4.8-4.8c0,0-9.7-9.7-9.7-12.2
				c0-2.4-4.8-29.2-24.3-34.2C175.8,188.7,165.2,185.5,154.8,181.5z"/>
			<path class="st7" d="M154.8,181.5c2.4,7.6,5.1,15,8.1,22.2c2.8,7.3,6.5,14.2,10.9,20.7c2,3.2,4.9,5.6,8.4,7.2
				c3.7,1.2,7.6,2.1,11.4,2.9l11.4,2.3c4.1,0.5,8,2.1,11.4,4.7h-1.7l4.8-4.8v1.7c-2.8-2.8-5.3-5.7-7.8-8.8c-0.7-0.8-1.2-1.7-1.7-2.7
				c-0.1-0.3-0.3-0.5-0.4-0.8c0-0.4,0-0.8,0-0.9c0-0.4,0-0.9,0-1.3c-0.3-1.9-0.8-3.9-1.3-5.7c-2.1-7.3-6-14.1-11.2-19.5
				c-2.7-2.7-5.8-4.8-9.4-6c-3.6-1.2-7.6-2-11.4-3.2C169.4,187,162,184.6,154.8,181.5z M154.8,181.5c7.3,2.5,14.8,4.8,22.2,6.6
				c3.7,1.1,7.6,1.7,11.4,2.9c3.9,1.2,7.3,3.3,10.2,6.1c5.6,5.7,9.6,12.9,11.6,20.6c0.5,1.9,1.1,3.9,1.5,5.7c0,0.5,0,1.1,0,1.6
				c0,0.1,0,0.3,0,0.4c0,0.1,0,0.3,0,0.4c0.4,0.8,0.9,1.6,1.6,2.3c2.4,2.9,4.9,5.8,7.7,8.5l0.8,0.8l-0.8,0.8l-4.8,4.8l-0.8,0.8
				l-0.8-0.8c-3.1-2.1-6.6-3.6-10.2-4l-11.4-2.4c-3.9-0.8-7.6-1.9-11.4-3.1c-3.9-1.7-7-4.5-9.2-8.1c-4.4-6.6-7.8-13.8-10.5-21.4
				C159.1,196.8,156.8,189.4,154.8,181.5z"/>
		</g>
		<path class="st8" d="M163.3,187.7c0,0,29.2,7.3,36.4,17c4.4,7.7,7.6,16,9.7,24.5c-5.2-8.5-10.9-16.6-17-24.3
			C187.6,199.8,168.2,187.7,163.3,187.7z"/>
		<path class="st9" d="M163.3,195.1l41.3,39c0,0-26.7-4.9-29.2-12.2C173,214.5,163.3,195.1,163.3,195.1z"/>
		<path class="st7" d="M169.4,196.2c8.8,6.5,17,13.8,25.1,21c8,7.2,16.1,14.8,23.5,22.7c-8.8-6.5-17-13.8-25.1-21
			S176.9,204.3,169.4,196.2z"/>
		<path class="st7" d="M186.4,203.5c0.8,1.1,1.2,2.4,1.2,3.9c0,1.3-0.4,2.7-1.2,3.7c-0.8-1.1-1.2-2.4-1.2-3.7
			C185.3,205.9,185.6,204.5,186.4,203.5z"/>
		<path class="st7" d="M193,217.4c-1.1,1.2-2.5,2.1-4.1,2.8c-1.6,0.5-3.2,0.7-4.9,0.4c1.1-1.2,2.5-2.1,4.1-2.8
			C189.6,217.3,191.4,217.2,193,217.4z"/>
		<path class="st7" d="M202.4,225.8c-3.1,2.9-7.2,4.5-11.4,4.4c1.5-1.5,3.2-2.7,5.2-3.3C198.1,226.1,200.3,225.7,202.4,225.8z"/>
		<path class="st7" d="M176.7,203.5c-0.7,0.8-1.5,1.2-2.4,1.2s-1.9-0.5-2.5-1.2c0.7-0.7,1.6-1.2,2.5-1.2
			C175.3,202.3,176.2,202.7,176.7,203.5z"/>
		<path class="st7" d="M197.1,220.9c-0.9-1.1-1.5-2.4-1.6-3.7s0.3-2.8,0.9-4c0.8,1.1,1.3,2.4,1.6,3.7
			C198,218.2,197.7,219.7,197.1,220.9z"/>
		<path class="st10" d="M239.2,178c0,0-30.8,55-19.4,65.5c2.8-10.5,8.5-55,33.8-57.7C253.3,185.8,239.2,183.3,239.2,178z"/>
		<path class="st11" d="M191.4,237.5c11,1.5,21.7,4.8,31.6,9.7c12.1,7.3,29.2,2.4,29.2,2.4s-14.6,2.4-21.9-2.4
			C223,242.4,201.1,232.6,191.4,237.5z"/>
		<path class="st12" d="M190,362.8c12.5-4.4,25.9-5.3,39-2.7c19.4,4.8,65.7-46.3,65.7-82.7c-1.6,34-18.6,65.4-46.3,85.4
			c-4.9,2.4-12.2,7.3-21,5.1C216.1,365,192.6,360.1,190,362.8z"/>
		<path class="st4" d="M238.8,182.7c1.3,1.3,3.1,2.3,4.8,2.4h-2.4C239.9,185.3,238.8,184.2,238.8,182.7
			C238.8,182.9,238.8,182.7,238.8,182.7z"/>
	</g>
	<g id="apple-3">
		<path class="st2" d="M259.3,198c0,0-36.4,9.7-26.7,60.9s24.3,73,51.2,80.3c19.4,4.9,4.8-4.8,41.3,4.9
			c36.6,9.7,65.5-77.9,65.5-97.3s-9.7-53.4-41.3-51.2c-15.4,1.6-30.8,1.6-46.3,0C303,195.5,266.5,193.2,259.3,198z"/>
		<path class="st3" d="M287.2,216.4c0,0,26.7,14.6,41.3,12.2c14.6-2.4,29.2-14.6,34.2-4.9c4.9,9.7,9.7,14.6,0,39
			c-9.7,24.3-39,70.5-77.9,68.3c-39-2.1-58.5-87.7-41.5-114.5C260.5,189.7,287.2,216.4,287.2,216.4z"/>
		<path class="st4" d="M279.9,211.5c0,0,46.3-12.2,46.3,0c0,6.5-5.2,12-11.8,12c-0.1,0-0.3,0-0.4,0
			C304,216.5,292.1,212.4,279.9,211.5z"/>
		<path class="st5" d="M373.5,229.7c0,0-14.6-39-90-19.4c0,0,48.7,14.6,46.3,24.3c-2.4,9.7-31.6,0-58.4-2.4
			c-26.7-2.4-9.7,82.7,2.4,94.9c-19.4-17-48.7-65.7-29.2-111.9c19.4-26.7,65.7-12.2,85.4-14.6C349.7,198,371.1,205.5,373.5,229.7z"
			/>
		<g>
			<path class="st6" d="M245.9,153.1c0,0,12.2,46.3,26.7,51.2c14.6,5.1,29.2,4.9,34.2,9.7l4.8-4.8c0,0-9.7-9.7-9.7-12.2
				c0-2.4-4.8-29.2-24.3-34.2C266.9,160.3,256.2,157,245.9,153.1z"/>
			<path class="st7" d="M245.9,153.1c2.4,7.6,5.1,15,8.1,22.2c2.8,7.3,6.5,14.2,10.9,20.7c2,3.2,4.9,5.6,8.4,7.2
				c3.7,1.2,7.6,2.1,11.4,2.9l11.4,2.3c4.1,0.5,8,2.1,11.4,4.7h-1.9l4.8-4.8v1.7c-2.8-2.8-5.3-5.7-7.8-8.8c-0.7-0.8-1.2-1.7-1.7-2.7
				c-0.1-0.3-0.3-0.5-0.4-0.8c0-0.4,0-0.8,0-0.9c0-0.4,0-0.9,0-1.3c-0.3-1.9-0.8-3.9-1.3-5.7c-2.1-7.3-6-14.1-11.2-19.5
				c-2.7-2.7-5.8-4.8-9.4-6s-7.6-2-11.4-3.2C260.5,158.5,253.1,156,245.9,153.1z M245.9,153.1c7.3,2.5,14.8,4.8,22.2,6.6
				c3.7,1.1,7.6,1.7,11.4,2.9c3.9,1.2,7.3,3.3,10.2,6.1c5.6,5.7,9.6,12.9,11.6,20.6c0.5,1.9,1.1,3.9,1.5,5.7c0,0.5,0,1.1,0,1.6
				c0,0.1,0,0.3,0,0.4c0,0.1,0,0.3,0,0.4c0.4,0.8,0.9,1.6,1.6,2.3c2.4,2.9,4.9,5.8,7.7,8.5l0.8,0.8l-0.8,0.8l-4.8,4.8l-0.8,0.8
				l-0.8-0.8c-3.1-2.1-6.6-3.6-10.2-4l-11.4-2.4c-3.9-0.8-7.6-1.9-11.4-3.1c-3.9-1.7-7-4.5-9.2-8.1c-4.4-6.6-7.8-13.8-10.5-21.4
				C250.1,168.4,247.9,160.9,245.9,153.1z"/>
		</g>
		<path class="st8" d="M254.4,159.2c0,0,29.2,7.3,36.4,17c4.4,7.7,7.6,16,9.7,24.5c-5.2-8.5-10.9-16.6-17-24.3
			C278.7,171.3,259.3,159.2,254.4,159.2z"/>
		<path class="st9" d="M254.4,166.7l41.3,39c0,0-26.7-4.9-29.2-12.2C264.1,186.1,254.4,166.7,254.4,166.7z"/>
		<path class="st7" d="M260.5,167.7c8.8,6.5,17,13.8,25.1,21c8,7.2,16.1,14.8,23.5,22.7c-8.8-6.5-17-13.8-25.1-21
			C275.9,183.3,267.9,175.8,260.5,167.7z"/>
		<path class="st7" d="M277.5,175c0.8,1.1,1.2,2.4,1.2,3.9c0,1.3-0.4,2.7-1.2,3.7c-0.8-1.1-1.2-2.4-1.2-3.7
			C276.3,177.4,276.7,176.1,277.5,175z"/>
		<path class="st7" d="M284,189c-1.1,1.2-2.5,2.1-4.1,2.8c-1.6,0.5-3.2,0.7-4.9,0.4c1.1-1.2,2.5-2.1,4.1-2.8
			C280.7,188.9,282.4,188.7,284,189z"/>
		<path class="st7" d="M293.5,197.4c-3.1,2.9-7.2,4.5-11.4,4.4c1.5-1.5,3.2-2.7,5.2-3.3C289.2,197.6,291.3,197.2,293.5,197.4z"/>
		<path class="st7" d="M267.8,175c-0.7,0.8-1.5,1.2-2.4,1.2s-1.9-0.5-2.5-1.2c0.7-0.7,1.6-1.2,2.5-1.2S267.3,174.2,267.8,175z"/>
		<path class="st7" d="M288.2,192.4c-0.9-1.1-1.5-2.4-1.6-3.7s0.3-2.8,0.9-4c0.8,1.1,1.3,2.4,1.6,3.7
			C289.1,189.8,288.8,191.3,288.2,192.4z"/>
		<path class="st10" d="M330.3,149.5c0,0-30.8,55-19.4,65.5c2.8-10.5,8.5-55,33.8-57.7C344.4,157.4,330.3,154.8,330.3,149.5z"/>
		<path class="st11" d="M282.4,209.1c11,1.5,21.7,4.8,31.6,9.7c12.1,7.3,29.2,2.4,29.2,2.4s-14.6,2.4-21.9-2.4
			S292.1,204.1,282.4,209.1z"/>
		<path class="st12" d="M281.1,334.3c12.5-4.4,25.9-5.3,39-2.7c19.4,4.8,65.7-46.3,65.7-82.7c-1.6,34-18.6,65.4-46.3,85.4
			c-4.9,2.4-12.2,7.3-21,5.1C307.2,336.6,283.6,331.6,281.1,334.3z"/>
		<path class="st4" d="M329.9,154.3c1.3,1.3,3.1,2.3,4.8,2.4h-2.4C331,156.8,329.9,155.8,329.9,154.3
			C329.9,154.4,329.9,154.3,329.9,154.3z"/>
	</g>
	<polygon class="st1" points="234,373.1 410.6,268.4 410.6,461 234,565.8 	"/>
	<path d="M407.7,273.4v186L237,560.7v-186L407.7,273.4 M413.4,263.4L231.3,371.5v199.2l182.1-108.1L413.4,263.4L413.4,263.4z"/>
	<polygon class="st1" points="51.9,461 51.9,268.4 228.5,373.1 228.5,565.8 	"/>
	<path d="M54.8,273.4l170.7,101.3v186L54.8,459.4V273.4 M49.1,263.4v199.2l182.1,108.1V371.5L49.1,263.4z"/>
</g>
<g class="st13">
	<path class="st14" d="M926.6,961h-850c-21.9,0-39.7-17.8-39.7-39.7V679.7c0-21.9,17.8-39.7,39.7-39.7h850.1
		c21.9,0,39.7,17.8,39.7,39.7v241.5C966.3,943.2,948.6,961,926.6,961z"/>
	<text transform="matrix(1 0 0 1 100.3637 730.4971)" class="st15 st16 st17">Conclusion: </text>
	<text transform="matrix(1 0 0 1 100.3637 814.4971)" class="st15 st16 st17">The box is full of apples. </text>
	<text transform="matrix(1 0 0 1 100.3637 898.4971)" class="st15 st16 st17">(General conclusion)</text>
</g>
<text transform="matrix(1 0 0 1 914.2402 354.2098)" class="st16 st18">According to the reasons, </text>
<text transform="matrix(1 0 0 1 880.8574 423.7659)" class="st16 st18">the conclusion makes sense. </text>
<g class="st19">
	<g class="st20">
		<text transform="matrix(1 0 0 1 1011.958 756.0576)" class="st21 st16 st22">LOGICALLY </text>
		<text transform="matrix(1 0 0 1 1182.958 899.4576)" class="st21 st16 st22">TRUE</text>
	</g>
	<g class="st23">
		<text transform="matrix(1 0 0 1 1006.958 752.0576)" class="st24 st16 st22">LOGICALLY </text>
		<text transform="matrix(1 0 0 1 1177.958 895.4576)" class="st24 st16 st22">TRUE</text>
	</g>
</g>
<g>
	<g>
		<rect x="455" y="355.3" class="st25" width="290.3" height="42.1"/>
	</g>
	<g>
		<polygon class="st25" points="850,375.6 731.1,444.3 731.1,307 		"/>
	</g>
</g>
</svg>
