<?xml version="1.0" encoding="utf-8"?>
<!-- Generator: Adobe Illustrator 24.0.3, SVG Export Plug-In . SVG Version: 6.00 Build 0)  -->
<svg version="1.1" id="Layer_1" xmlns="http://www.w3.org/2000/svg" xmlns:xlink="http://www.w3.org/1999/xlink" x="0px" y="0px"
	 viewBox="0 0 1700 1080" style="enable-background:new 0 0 1700 1080;" xml:space="preserve">
<style type="text/css">
	.st0{fill:#8E775F;stroke:#000000;stroke-width:1.3625;stroke-miterlimit:10;}
	.st1{fill:#BA9B79;}
	.st2{fill:#DA3732;stroke:#000000;stroke-width:0.4632;stroke-linejoin:round;}
	.st3{fill:#DE543E;}
	.st4{fill:#AB2925;}
	.st5{fill:#E27F68;}
	.st6{fill:#A5C058;}
	.st7{fill:#006837;}
	.st8{fill:#72974F;}
	.st9{fill:#D7DC84;}
	.st10{fill:#E27F68;stroke:#000000;stroke-width:0.4632;stroke-linecap:round;stroke-linejoin:round;}
	.st11{stroke:#000000;stroke-width:0.4632;stroke-linecap:round;stroke-linejoin:round;}
	.st12{fill:#A82925;}
	.st13{font-family:'CarterOne';}
	.st14{font-size:182.6358px;}
	.st15{fill:#444444;}
	.st16{font-size:118.5476px;}
	.st17{letter-spacing:5;}
	.st18{fill:#A54A4A;}
	.st19{font-size:70.2244px;}
	.st20{fill:#4ABC4A;}
	.st21{font-size:80.4184px;}
</style>
<g>
	<polygon class="st0" points="367.6,778.1 250.8,842.3 370.4,917.7 480.9,848 	"/>
	<polygon class="st1" points="186.6,689.2 367.6,582 367.6,779.4 186.6,886.7 	"/>
	<path d="M364.6,587.1v190.6l-175,103.8V691L364.6,587.1 M370.4,576.8L183.8,687.6v204.1l186.7-110.8V576.8H370.4z"/>
	<polygon class="st1" points="373.3,779.4 373.3,582 554.2,689.2 554.2,886.7 	"/>
	<path d="M376.3,587.1l174.9,103.8v190.6L376.3,777.7V587.1 M370.4,576.8v204.1l186.7,110.8v-204L370.4,576.8z"/>
	<g id="apple_1_">
		<path class="st2" d="M229.9,597.4c0,0-37.3,9.9-27.4,62.4c9.9,52.5,24.9,74.8,52.5,82.3c19.9,5,4.9-4.9,42.4,5
			c37.3,9.9,67.2-79.8,67.2-99.7s-9.9-54.8-42.4-52.5c-15.8,1.6-31.6,1.6-47.4,0C274.8,594.8,237.4,592.5,229.9,597.4z"/>
		<path class="st3" d="M258.7,616.2c0,0,27.4,15,42.4,12.5s30-15,35-5s9.9,15,0,39.9s-39.9,72.2-79.8,70
			c-39.9-2.3-59.9-89.9-42.5-117.3C231.2,588.7,258.7,616.2,258.7,616.2z"/>
		<path class="st4" d="M251.1,611.2c0,0,47.4-12.5,47.4,0c0,6.7-5.3,12.3-12.1,12.3c-0.1,0-0.3,0-0.4,0
			C275.7,616.4,263.6,612.1,251.1,611.2z"/>
		<path class="st5" d="M347.1,629.8c0,0-15-39.9-92.2-19.9c0,0,49.9,15,47.4,24.9s-32.4,0-59.8-2.5s-9.9,84.7,2.5,97.3
			c-19.9-17.4-49.9-67.3-30-114.7c19.9-27.4,67.3-12.5,87.5-15C322.6,597.4,344.7,604.9,347.1,629.8z"/>
		<g>
			<path class="st6" d="M216.2,551.4c0,0,12.5,47.4,27.4,52.5c14.9,5,30,5,35,9.9l4.9-4.9c0,0-9.9-9.9-9.9-12.5
				c0-2.5-4.9-30-24.9-35C237.7,558.7,226.8,555.3,216.2,551.4z"/>
			<path class="st7" d="M216.2,551.4c2.5,7.8,5.2,15.4,8.3,22.8c2.9,7.5,6.7,14.6,11.2,21.3c2,3.3,5,5.7,8.6,7.4
				c3.8,1.2,7.8,2.2,11.7,3l11.7,2.3c4.2,0.5,8.2,2.2,11.7,4.8h-1.8l4.9-4.9v1.8c-2.9-2.9-5.4-5.9-8-9c-0.7-0.8-1.2-1.8-1.8-2.7
				c-0.1-0.3-0.3-0.5-0.4-0.8c0-0.4,0-0.8,0-1c0-0.4,0-1,0-1.4c-0.3-1.9-0.8-4-1.4-5.9c-2.2-7.5-6.1-14.4-11.4-20
				c-2.7-2.7-6-4.6-9.7-5.9c-3.7-1.2-7.8-2-11.7-3.3C231.2,556.9,223.5,554.4,216.2,551.4z M216.2,551.4c7.5,2.6,15.1,4.9,22.8,6.8
				c3.8,1.1,7.8,1.8,11.7,3c4,1.2,7.5,3.4,10.5,6.3c5.7,5.9,9.8,13.2,11.9,21.1c0.5,1.9,1.1,4,1.5,5.9c0,0.5,0,1.1,0,1.6
				c0,0.1,0,0.3,0,0.4s0,0.3,0,0.4c0.4,0.8,1,1.6,1.6,2.3c2.5,3,5,6,7.9,8.7l0.8,0.8l-0.8,0.8l-4.9,4.9l-0.8,0.8l-0.8-0.8
				c-3.1-2.2-6.8-3.7-10.5-4.1l-11.7-2.5c-4-0.8-7.8-1.9-11.7-3.1c-4-1.8-7.2-4.6-9.4-8.3c-4.5-6.8-8-14.2-10.8-21.9
				C220.5,566.9,218.2,559.4,216.2,551.4z"/>
		</g>
		<path class="st8" d="M225,557.6c0,0,30,7.5,37.3,17.4c4.5,7.9,7.8,16.3,9.9,25.1c-5.3-8.7-11.2-17-17.4-24.9
			C249.8,570,229.9,557.6,225,557.6z"/>
		<path class="st9" d="M225,565.1l42.4,39.9c0,0-27.4-5-30-12.5C234.9,585.2,225,565.1,225,565.1z"/>
		<path class="st7" d="M231.2,566.4c9,6.7,17.4,14.2,25.8,21.5c8.2,7.4,16.5,15.1,24.1,23.3c-9-6.7-17.4-14.2-25.8-21.5
			C247.1,582.3,238.8,574.5,231.2,566.4z"/>
		<path class="st7" d="M248.8,573.7c0.8,1.1,1.2,2.5,1.2,4c0,1.4-0.4,2.7-1.2,3.8c-0.8-1.1-1.2-2.5-1.2-3.8
			C247.4,576.3,247.9,574.9,248.8,573.7z"/>
		<path class="st7" d="M255.4,588c-1.1,1.2-2.6,2.2-4.2,2.9c-1.6,0.5-3.3,0.7-5,0.4c1.1-1.2,2.6-2.2,4.2-2.9
			C252,587.9,253.7,587.7,255.4,588z"/>
		<path class="st7" d="M265,596.7c-3,3-7.1,4.6-11.3,4.5c1.5-1.5,3.3-2.7,5.3-3.4C260.9,597,262.9,596.6,265,596.7z"/>
		<path class="st7" d="M238.8,573.7c-0.7,0.8-1.5,1.2-2.5,1.2s-1.9-0.5-2.6-1.2c0.7-0.7,1.6-1.2,2.6-1.2
			C237.2,572.6,238.1,573,238.8,573.7z"/>
		<path class="st7" d="M259.7,591.6c-1-1.1-1.5-2.5-1.6-3.8c-0.1-1.4,0.3-2.9,1-4.1c0.8,1.1,1.4,2.5,1.6,3.8
			C260.6,589,260.2,590.3,259.7,591.6z"/>
		<path class="st10" d="M302.8,547.7c0,0-31.6,56.4-19.9,67.2c2.9-10.8,8.7-56.4,34.6-59.1C317.3,555.7,302.8,553,302.8,547.7z"/>
		<path class="st11" d="M253.8,608.7c11.3,1.5,22.2,4.9,32.4,9.9c12.4,7.5,30,2.5,30,2.5s-15,2.5-22.5-2.5
			C286.2,613.8,263.6,603.7,253.8,608.7z"/>
		<path class="st12" d="M252.4,737.1c12.8-4.5,26.6-5.4,39.9-2.7c19.9,4.9,67.3-47.4,67.3-84.7c-1.6,34.9-19.1,67-47.4,87.5
			c-5,2.5-12.5,7.5-21.5,5.2C279,739.4,254.9,734.3,252.4,737.1z"/>
		<path class="st4" d="M302.3,552.6c1.4,1.4,3.1,2.3,4.9,2.5h-2.5C303.4,555,302.3,554,302.3,552.6L302.3,552.6z"/>
	</g>
	<g id="apple-2">
		<path class="st2" d="M305.8,650c0,0-37.3,9.9-27.4,62.4c9.9,52.3,24.9,74.8,52.5,82.3c19.9,5,4.9-4.9,42.4,5s67.2-79.8,67.2-99.7
			s-9.9-54.8-42.4-52.5c-15.8,1.6-31.6,1.6-47.4,0C350.7,647.3,313.2,645,305.8,650z"/>
		<path class="st3" d="M334.5,668.7c0,0,27.4,15,42.4,12.5s30-15,35-5c5,9.9,9.9,15,0,39.9s-39.9,72.2-79.8,70
			s-59.9-89.9-42.5-117.3C307.1,641.3,334.5,668.7,334.5,668.7z"/>
		<path class="st4" d="M327,663.8c0,0,47.4-12.5,47.4,0c0,6.7-5.3,12.3-12.1,12.3c-0.1,0-0.3,0-0.4,0
			C351.6,668.9,339.5,664.6,327,663.8z"/>
		<path class="st5" d="M422.9,682.4c0,0-15-39.9-92.2-19.9c0,0,49.9,15,47.4,24.9s-32.4,0-59.8-2.5s-9.9,84.7,2.5,97.3
			c-19.9-17.4-49.9-67.3-30-114.7c19.9-27.4,67.3-12.5,87.5-15S420.4,657.5,422.9,682.4z"/>
		<g>
			<path class="st6" d="M292.1,603.8c0,0,12.5,47.4,27.4,52.5c15,5.2,30,5,35,9.9l4.9-4.9c0,0-9.9-9.9-9.9-12.5
				c0-2.5-4.9-30-24.9-35C313.6,611.2,302.7,607.9,292.1,603.8z"/>
			<path class="st7" d="M292.1,603.8c2.5,7.8,5.2,15.4,8.3,22.8c2.9,7.5,6.7,14.6,11.2,21.3c2,3.3,5,5.7,8.6,7.4
				c3.8,1.2,7.8,2.2,11.7,3l11.7,2.3c4.2,0.5,8.2,2.2,11.7,4.8h-1.8l4.9-4.9v1.8c-2.9-2.9-5.4-5.9-8-9c-0.7-0.8-1.2-1.8-1.8-2.7
				c-0.1-0.3-0.3-0.5-0.4-0.8c0-0.4,0-0.8,0-1c0-0.4,0-1,0-1.4c-0.3-1.9-0.8-4-1.4-5.9c-2.2-7.5-6.1-14.4-11.4-20
				c-2.7-2.7-6-4.9-9.7-6.1s-7.8-2-11.7-3.3C307.1,609.4,299.4,607,292.1,603.8z M292.1,603.8c7.5,2.6,15.1,4.9,22.8,6.8
				c3.8,1.1,7.8,1.8,11.7,3s7.5,3.4,10.5,6.3c5.7,5.9,9.8,13.2,11.9,21.1c0.5,1.9,1.1,4,1.5,5.9c0,0.5,0,1.1,0,1.6
				c0,0.1,0,0.3,0,0.4c0,0.1,0,0.3,0,0.4c0.4,0.8,1,1.6,1.6,2.3c2.5,3,5,6,7.9,8.7l0.8,0.8l-0.8,0.8l-4.9,4.9l-0.8,0.8l-0.8-0.8
				c-3.1-2.2-6.8-3.7-10.5-4.1l-11.7-2.5c-4-0.8-7.8-1.9-11.7-3.1c-4-1.8-7.2-4.6-9.4-8.3c-4.5-6.8-8-14.2-10.8-21.9
				C296.4,619.5,294.1,611.9,292.1,603.8z"/>
		</g>
		<path class="st8" d="M300.8,610.1c0,0,30,7.5,37.3,17.4c4.5,7.9,7.8,16.3,9.9,25.1c-5.3-8.7-11.2-17-17.4-24.9
			C325.7,622.5,305.8,610.1,300.8,610.1z"/>
		<path class="st9" d="M300.8,617.7l42.4,39.9c0,0-27.4-5-30-12.5C310.6,637.6,300.8,617.7,300.8,617.7z"/>
		<path class="st7" d="M307.1,618.8c9,6.7,17.4,14.2,25.8,21.5c8.2,7.4,16.5,15.1,24.1,23.3c-9-6.7-17.4-14.2-25.8-21.5
			C323,634.7,314.7,627.1,307.1,618.8z"/>
		<path class="st7" d="M324.5,626.3c0.8,1.1,1.2,2.5,1.2,4c0,1.4-0.4,2.7-1.2,3.8c-0.8-1.1-1.2-2.5-1.2-3.8
			C323.3,628.8,323.7,627.4,324.5,626.3z"/>
		<path class="st7" d="M331.2,640.6c-1.1,1.2-2.6,2.2-4.2,2.9c-1.6,0.5-3.3,0.7-5,0.4c1.1-1.2,2.6-2.2,4.2-2.9
			C327.8,640.5,329.5,640.3,331.2,640.6z"/>
		<path class="st7" d="M340.9,649.2c-3.1,3-7.4,4.6-11.7,4.5c1.5-1.5,3.3-2.7,5.3-3.4C336.5,649.5,338.7,649.1,340.9,649.2z"/>
		<path class="st7" d="M314.6,626.3c-0.7,0.8-1.5,1.2-2.5,1.2s-1.9-0.5-2.6-1.2c0.7-0.7,1.6-1.2,2.6-1.2S314,625.5,314.6,626.3z"/>
		<path class="st7" d="M335.4,644.1c-1-1.1-1.5-2.5-1.6-3.8c-0.1-1.4,0.3-2.9,1-4.1c0.8,1.1,1.4,2.5,1.6,3.8
			C336.4,641.4,336.1,642.9,335.4,644.1z"/>
		<path class="st10" d="M378.6,600.1c0,0-31.6,56.4-19.9,67.2c2.9-10.8,8.7-56.4,34.6-59.1C393,608.2,378.6,605.6,378.6,600.1z"/>
		<path class="st11" d="M329.5,661.2c11.3,1.5,22.2,4.9,32.4,9.9c12.4,7.5,30,2.5,30,2.5s-15,2.5-22.5-2.5S339.5,656.1,329.5,661.2z
			"/>
		<path class="st12" d="M328.2,789.5c12.8-4.5,26.6-5.4,39.9-2.7c19.9,4.9,67.3-47.4,67.3-84.7c-1.6,34.9-19.1,67-47.4,87.5
			c-5,2.5-12.5,7.5-21.5,5.2C354.9,791.8,330.8,786.8,328.2,789.5z"/>
		<path class="st4" d="M378.2,605c1.4,1.4,3.1,2.3,4.9,2.5h-2.5C379.3,607.6,378.2,606.5,378.2,605C378.2,605.2,378.2,605,378.2,605
			z"/>
	</g>
	<g id="apple-3">
		<path class="st2" d="M399.2,620.7c0,0-37.3,9.9-27.4,62.4s24.9,74.8,52.5,82.3c19.9,5,4.9-4.9,42.4,5s67.2-79.8,67.2-99.7
			s-9.9-54.8-42.4-52.5c-15.8,1.6-31.6,1.6-47.4,0C444,618.1,406.5,615.8,399.2,620.7z"/>
		<path class="st3" d="M427.8,639.5c0,0,27.4,15,42.4,12.5s30-15,35-5c5,9.9,9.9,15,0,39.9s-39.9,72.2-79.8,70
			c-39.9-2.3-59.9-89.9-42.5-117.3C400.4,612.1,427.8,639.5,427.8,639.5z"/>
		<path class="st4" d="M420.3,634.5c0,0,47.4-12.5,47.4,0c0,6.7-5.3,12.3-12.1,12.3c-0.1,0-0.3,0-0.4,0
			C444.9,639.7,432.8,635.4,420.3,634.5z"/>
		<path class="st5" d="M516.2,653.1c0,0-15-39.9-92.2-19.9c0,0,49.9,15,47.4,24.9s-32.4,0-59.8-2.5s-9.9,84.7,2.5,97.3
			c-19.9-17.4-49.9-67.3-30-114.7c19.9-27.4,67.3-12.5,87.5-15C491.8,620.7,513.8,628.3,516.2,653.1z"/>
		<g>
			<path class="st6" d="M385.4,574.7c0,0,12.5,47.4,27.4,52.5c15,5.2,30,5,35,9.9l4.9-4.9c0,0-9.9-9.9-9.9-12.5
				c0-2.5-4.9-30-24.9-35C406.9,582,396,578.6,385.4,574.7z"/>
			<path class="st7" d="M385.4,574.7c2.5,7.8,5.2,15.4,8.3,22.8c2.9,7.5,6.7,14.6,11.2,21.3c2,3.3,5,5.7,8.6,7.4
				c3.8,1.2,7.8,2.2,11.7,3l11.7,2.3c4.2,0.5,8.2,2.2,11.7,4.8h-1.9l4.9-4.9v1.8c-2.9-2.9-5.4-5.9-8-9c-0.7-0.8-1.2-1.8-1.8-2.7
				c-0.1-0.3-0.3-0.5-0.4-0.8c0-0.4,0-0.8,0-1c0-0.4,0-1,0-1.4c-0.3-1.9-0.8-4-1.4-5.9c-2.2-7.5-6.1-14.4-11.4-20
				c-2.7-2.7-6-4.9-9.7-6.1c-3.7-1.2-7.8-2-11.7-3.3C400.4,580.2,392.8,577.7,385.4,574.7z M385.4,574.7c7.5,2.6,15.1,4.9,22.8,6.8
				c3.8,1.1,7.8,1.8,11.7,3s7.5,3.4,10.5,6.3c5.7,5.9,9.8,13.2,11.9,21.1c0.5,1.9,1.1,4,1.5,5.9c0,0.5,0,1.1,0,1.6
				c0,0.1,0,0.3,0,0.4c0,0.1,0,0.3,0,0.4c0.4,0.8,1,1.6,1.6,2.3c2.5,3,5,6,7.9,8.7l0.8,0.8l-0.8,0.8l-4.9,4.9l-0.8,0.8l-0.8-0.8
				c-3.1-2.2-6.8-3.7-10.5-4.1l-11.7-2.5c-4-0.8-7.8-1.9-11.7-3.1c-4-1.8-7.2-4.6-9.4-8.3c-4.5-6.8-8-14.2-10.8-21.9
				C389.8,590.3,387.5,582.7,385.4,574.7z"/>
		</g>
		<path class="st8" d="M394.1,580.9c0,0,30,7.5,37.3,17.4c4.5,7.9,7.8,16.3,9.9,25.1c-5.3-8.7-11.2-17-17.4-24.9
			C419.1,593.3,399.2,580.9,394.1,580.9z"/>
		<path class="st9" d="M394.1,588.6l42.4,39.9c0,0-27.4-5-30-12.5S394.1,588.6,394.1,588.6z"/>
		<path class="st7" d="M400.4,589.6c9,6.7,17.4,14.2,25.8,21.5c8.2,7.4,16.5,15.1,24.1,23.3c-9-6.7-17.4-14.2-25.8-21.5
			C416.3,605.6,408,598,400.4,589.6z"/>
		<path class="st7" d="M417.8,597.1c0.8,1.1,1.2,2.5,1.2,4c0,1.4-0.4,2.7-1.2,3.8c-0.8-1.1-1.2-2.5-1.2-3.8
			C416.6,599.6,417,598.2,417.8,597.1z"/>
		<path class="st7" d="M424.5,611.4c-1.1,1.2-2.6,2.2-4.2,2.9c-1.6,0.5-3.3,0.7-5,0.4c1.1-1.2,2.6-2.2,4.2-2.9
			C421.1,611.3,422.9,611.2,424.5,611.4z"/>
		<path class="st7" d="M434.2,620c-3.1,3-7.4,4.6-11.7,4.5c1.5-1.5,3.3-2.7,5.3-3.4C429.8,620.3,432,619.9,434.2,620z"/>
		<path class="st7" d="M407.9,597.1c-0.7,0.8-1.5,1.2-2.5,1.2s-1.9-0.5-2.6-1.2c0.7-0.7,1.6-1.2,2.6-1.2
			C406.4,595.9,407.3,596.3,407.9,597.1z"/>
		<path class="st7" d="M428.7,615c-1-1.1-1.5-2.5-1.6-3.8s0.3-2.9,1-4.1c0.8,1.1,1.4,2.5,1.6,3.8C429.7,612.3,429.4,613.8,428.7,615
			z"/>
		<path class="st10" d="M471.9,571c0,0-31.6,56.4-19.9,67.2c2.9-10.8,8.7-56.4,34.6-59.1C486.4,579,471.9,576.4,471.9,571z"/>
		<path class="st11" d="M422.9,632c11.3,1.5,22.2,4.9,32.4,9.9c12.4,7.5,30,2.5,30,2.5s-15,2.5-22.5-2.5
			C455.3,637.1,432.8,627,422.9,632z"/>
		<path class="st12" d="M421.5,760.4c12.8-4.5,26.6-5.4,39.9-2.7c19.9,4.9,67.3-47.4,67.3-84.7c-1.6,34.9-19.1,67-47.4,87.5
			c-5,2.5-12.5,7.5-21.5,5.2C448.2,762.7,424.1,757.6,421.5,760.4z"/>
		<path class="st4" d="M471.5,575.9c1.4,1.4,3.1,2.3,4.9,2.5H474C472.6,578.5,471.5,577.4,471.5,575.9
			C471.5,576,471.5,575.9,471.5,575.9z"/>
	</g>
	<polygon class="st1" points="373.3,800.2 554.2,692.8 554.2,890.2 373.3,997.6 	"/>
	<path d="M551.2,698v190.6L376.3,992.4V801.8L551.2,698 M557.1,687.7L370.4,798.5v204.1l186.7-110.8V687.7z"/>
	<polygon class="st1" points="186.6,890.2 186.6,692.8 367.6,800.2 367.6,997.6 	"/>
	<path d="M189.6,698l174.9,103.8v190.6L189.6,888.6V698 M183.8,687.7v204.1l186.7,110.8V798.5L183.8,687.7z"/>
</g>
<text transform="matrix(1 0 0 1 228.9844 516.542)" class="st13 st14">So,</text>
<text transform="matrix(1 0 0 1 540.9697 156.1367)" class="st15 st13 st16 st17">HOWEVER</text>
<g>
	<g>
		<rect x="593.1" y="751.6" class="st18" width="290.3" height="42.1"/>
	</g>
	<g>
		<polygon class="st18" points="988.1,771.9 869.2,840.6 869.2,703.3 		"/>
	</g>
</g>
<text transform="matrix(1 0 0 1 173 316.1641)" class="st13 st19">There </text>
<text transform="matrix(1 0 0 1 382.7 316.1641)" class="st20 st13 st19">can possibly</text>
<text transform="matrix(1 0 0 1 824.6 316.1641)" class="st13 st19"> be other fruits inside !</text>
<text transform="matrix(1 0 0 1 1192.3739 659.8045)" class="st13 st21">May or </text>
<text transform="matrix(1 0 0 1 1104.5739 756.3045)" class="st13 st21">may not be </text>
<text transform="matrix(1 0 0 1 1013.574 852.8045)" class="st13 st21">realistically true</text>
</svg>
