<?xml version="1.0" encoding="utf-8"?>
<!-- Generator: Adobe Illustrator 24.0.3, SVG Export Plug-In . SVG Version: 6.00 Build 0)  -->
<svg version="1.1" id="Layer_1" xmlns="http://www.w3.org/2000/svg" xmlns:xlink="http://www.w3.org/1999/xlink" x="0px" y="0px"
	 viewBox="0 0 1700 1080" style="enable-background:new 0 0 1700 1080;" xml:space="preserve">
<style type="text/css">
	.st0{fill:#DA3732;stroke:#000000;stroke-linejoin:round;}
	.st1{fill:#442222;stroke:#000000;stroke-linejoin:round;}
	.st2{fill:#819120;stroke:#000000;stroke-linejoin:round;}
	.st3{fill:#8E6A21;stroke:#000000;stroke-linejoin:round;}
	.st4{fill:#9933CC;stroke:#000000;stroke-width:0.8;stroke-miterlimit:10;}
	.st5{fill:#FFCC33;stroke:#000000;stroke-width:0.8;stroke-linecap:round;stroke-linejoin:round;}
	.st6{fill:#E08122;stroke:#000000;stroke-width:0.8;stroke-miterlimit:10;}
	.st7{fill:#669933;stroke:#000000;stroke-width:0.4;stroke-miterlimit:10;}
	.st8{fill:#7A5D3D;stroke:#000000;stroke-miterlimit:10;}
	.st9{fill:#FFCC33;}
	.st10{fill:#FFEC00;}
	.st11{fill:#A37D57;}
</style>
<g id="fruits">
	<path class="st0" d="M792.2,336.7c0,0-83.8,25.2-50.3,75.5c21.2,30.2,55.3,48.8,92.2,50.3c0,0,92.2-25.2,92.2-58.7
		s-33.5-100.6-75.5-109C818,288.3,809,294.8,792.2,336.7z"/>
	<polygon class="st1" points="775.3,311.6 792.2,336.7 792.2,303.2 	"/>
	<path class="st2" d="M1026.2,396.8c0,0-49.4-72.3-87.1-25.2c-22.4,29.4-29.8,67.7-20,103.4c0,0,50.3,64.8,82.7,54.7
		c32.4-10.1,83.8-50.3,82.2-89.5C1082.6,406.6,1071.2,400.1,1026.2,396.8z"/>
	<polygon class="st3" points="1045,373.3 1026.2,396.8 1058.2,386.7 	"/>
	<circle class="st4" cx="876" cy="479.3" r="25.2"/>
	<circle class="st4" cx="850.8" cy="445.7" r="25.2"/>
	<circle class="st4" cx="834" cy="487.6" r="25.2"/>
	<circle class="st4" cx="901.2" cy="437.3" r="25.2"/>
	<circle class="st4" cx="867.7" cy="403.8" r="25.2"/>
	<circle class="st4" cx="825.7" cy="403.8" r="25.2"/>
	<circle class="st4" cx="918" cy="479.3" r="25.2"/>
	<circle class="st4" cx="884.3" cy="512.8" r="25.2"/>
	<circle class="st4" cx="850.8" cy="512.8" r="25.2"/>
	<circle class="st4" cx="809" cy="454.1" r="25.2"/>
	<circle class="st4" cx="809" cy="487.6" r="25.2"/>
	<circle class="st4" cx="800.5" cy="512.8" r="25.2"/>
	<circle class="st4" cx="850.8" cy="470.9" r="25.2"/>
	<circle class="st4" cx="892.8" cy="462.5" r="25.2"/>
	<circle class="st4" cx="850.8" cy="437.3" r="25.2"/>
	<path class="st5" d="M1135.8,395.4c-5-10.5-7.9-21.9-8.4-33.5c0-16.8,25.2-33.5,25.2-16.8s-8.4,50.3,8.4,67.1s4.9,51.8,0,58.7
		c-14.4,20.4-30.9,41.9-41.1,54.9c-6.8,8.8-15.9,15.7-26.2,19.8c-34.2,13.7-114,37.1-184.4-7.6c0,0-8.4-8.4,8.4-16.8
		c16.8-8.4,58.7,0,92.2-8.4c33.5-8.4,75.5-50.3,92.2-75.5C1118.8,412.2,1135.8,412.2,1135.8,395.4z"/>
	<ellipse class="st6" cx="679" cy="500.2" rx="100.6" ry="92.2"/>
	<ellipse class="st7" cx="649.7" cy="449.9" rx="12.6" ry="8.4"/>
	<ellipse class="st7" cx="632.8" cy="458.3" rx="12.6" ry="8.4"/>
	<ellipse class="st7" cx="632.8" cy="449.9" rx="12.6" ry="8.4"/>
	<path class="st8" d="M544.8,542.1h653.9l0,0v41.4c0,74.4-60.3,134.6-134.6,134.6H679.5c-74.4,0-134.6-60.3-134.6-134.6l0,0V542.1
		L544.8,542.1z"/>
	<path class="st9" d="M695.8,441.5c31.8,12.6,54.3,41.5,58.7,75.5c0,0,16.8-41.9-16.8-67.1C710,429.2,695.8,441.5,695.8,441.5z"/>
	<path class="st10" d="M1140.1,449.9c0,0-25.2,67.1-41.9,75.5c0,0,41.9-33.5,50.3-58.7c5.2-13.5,5.2-28.4,0-41.9L1140.1,449.9z"/>
	<path class="st11" d="M1177.8,567.3H1094c0,0-8.4,125.8-33.5,134.1C1060.4,701.4,1177.8,676.3,1177.8,567.3z"/>
</g>
</svg>
