<?xml version="1.0" encoding="utf-8"?>
<!-- Generator: Adobe Illustrator 24.0.3, SVG Export Plug-In . SVG Version: 6.00 Build 0)  -->
<svg version="1.1" id="Layer_1" xmlns="http://www.w3.org/2000/svg" xmlns:xlink="http://www.w3.org/1999/xlink" x="0px" y="0px"
	 viewBox="0 0 1700 1080" style="enable-background:new 0 0 1700 1080;" xml:space="preserve">
<style type="text/css">
	.st0{fill:#DA3732;stroke:#000000;stroke-linejoin:round;}
	.st1{fill:#442222;stroke:#000000;stroke-linejoin:round;}
	.st2{fill:#819120;stroke:#000000;stroke-linejoin:round;}
	.st3{fill:#8E6A21;stroke:#000000;stroke-linejoin:round;}
	.st4{fill:#9933CC;stroke:#000000;stroke-width:0.8;stroke-miterlimit:10;}
	.st5{fill:#FFCC33;stroke:#000000;stroke-width:0.8;stroke-linecap:round;stroke-linejoin:round;}
	.st6{fill:#E08122;stroke:#000000;stroke-width:0.8;stroke-miterlimit:10;}
	.st7{fill:#669933;stroke:#000000;stroke-width:0.4;stroke-miterlimit:10;}
	.st8{fill:#7A5D3D;stroke:#000000;stroke-miterlimit:10;}
	.st9{fill:#FFCC33;}
	.st10{fill:#FFEC00;}
	.st11{fill:#A37D57;}
	.st12{stroke:#000000;stroke-linejoin:round;}
	.st13{fill:#ECE1BA;stroke:#B39D6A;stroke-miterlimit:10;}
	.st14{opacity:0.72;fill:#ECE1BA;stroke:#B39D6A;stroke-width:0.81;stroke-linejoin:bevel;enable-background:new    ;}
</style>
<g id="fruits">
	<path class="st0" d="M345.2,368.3c0,0-69.9,21-41.9,62.9c17.7,25.2,46.1,40.7,76.9,41.9c0,0,76.9-21,76.9-48.9s-28-83.9-62.9-90.9
		C366.7,327.9,359.2,333.4,345.2,368.3z"/>
	<polygon class="st1" points="331.2,347.4 345.2,368.3 345.2,340.4 	"/>
	<path class="st2" d="M540.3,418.4c0,0-41.2-60.2-72.6-21c-18.7,24.5-24.9,56.4-16.7,86.2c0,0,41.9,54,68.9,45.6
		c27-8.5,69.9-41.9,68.6-74.6C587.3,426.5,577.8,421.2,540.3,418.4z"/>
	<polygon class="st3" points="556,398.8 540.3,418.4 566.9,410 	"/>
	<circle class="st4" cx="415.1" cy="487.1" r="21"/>
	<circle class="st4" cx="394.1" cy="459.2" r="21"/>
	<circle class="st4" cx="380.1" cy="494.1" r="21"/>
	<circle class="st4" cx="436" cy="452.2" r="21"/>
	<circle class="st4" cx="408.1" cy="424.2" r="21"/>
	<circle class="st4" cx="373.1" cy="424.2" r="21"/>
	<circle class="st4" cx="450" cy="487.1" r="21"/>
	<circle class="st4" cx="422.1" cy="515.1" r="21"/>
	<circle class="st4" cx="394.1" cy="515.1" r="21"/>
	<circle class="st4" cx="359.2" cy="466.2" r="21"/>
	<circle class="st4" cx="359.2" cy="494.1" r="21"/>
	<circle class="st4" cx="352.2" cy="515.1" r="21"/>
	<circle class="st4" cx="394.1" cy="480.1" r="21"/>
	<circle class="st4" cx="429.1" cy="473.2" r="21"/>
	<circle class="st4" cx="394.1" cy="452.2" r="21"/>
	<path class="st5" d="M631.7,417.2c-4.2-8.8-6.6-18.3-7-28c0-14,21-28,21-14s-7,41.9,7,55.9s4.1,43.2,0,48.9
		c-12,17-25.8,34.9-34.2,45.8c-5.7,7.4-13.2,13.1-21.9,16.5c-28.5,11.5-95,30.9-153.8-6.4c0,0-7-7,7-14s48.9,0,76.9-7
		s62.9-41.9,76.9-62.9S631.7,431.2,631.7,417.2z"/>
	<ellipse class="st6" cx="250.8" cy="504.6" rx="83.9" ry="76.9"/>
	<ellipse class="st7" cx="226.4" cy="462.7" rx="10.5" ry="7"/>
	<ellipse class="st7" cx="212.4" cy="469.7" rx="10.5" ry="7"/>
	<ellipse class="st7" cx="212.4" cy="462.7" rx="10.5" ry="7"/>
	<path class="st8" d="M139,539.5h545.1l0,0V574c0,62-50.3,112.2-112.2,112.2H251.3c-62,0-112.2-50.3-112.2-112.2l0,0L139,539.5
		L139,539.5z"/>
	<path class="st9" d="M264.8,455.7c26.5,10.5,45.3,34.6,48.9,62.9c0,0,14-34.9-14-55.9C276.7,445.4,264.8,455.7,264.8,455.7z"/>
	<path class="st10" d="M635.2,462.7c0,0-21,55.9-34.9,62.9c0,0,34.9-28,41.9-48.9c4.3-11.2,4.3-23.7,0-34.9L635.2,462.7z"/>
	<path class="st11" d="M666.7,560.5h-69.9c0,0-7,104.8-28,111.8C568.8,672.3,666.7,651.4,666.7,560.5z"/>
</g>
<title>Artboard 3</title>
<path class="st12" d="M740.2,550c0,0,145.1-90.2,239.2-78.4c0,0-47.1-39.2-90.2-47.1c0,0,141.2,3.9,211.8,70.6
	c0,0-133.3,23.5-149,117.6c0,0,3.9-82.3,31.4-109.8C983.3,503,834.3,506.9,740.2,550z"/>
<g>
	<path class="st13" d="M1385.7,513.6c0,0-24.6,24.3-36.3,20.9c-11.8-3.3-34.7-8.7-28.3-31.1C1327.5,481.1,1353.1,472,1385.7,513.6z"
		/>
	<path class="st14" d="M1330.4,515.3c7.8,4.6,16.6,7.1,25.7,7.3C1356.1,522.5,1333.2,516.1,1330.4,515.3z"/>
	<path class="st13" d="M1456.1,527.3c0,0-24.5,24.3-36.3,20.9c-11.8-3.3-34.7-8.7-28.3-31.1C1397.9,494.7,1423.6,485.7,1456.1,527.3
		z"/>
	<path class="st14" d="M1400.9,528.8c7.8,4.6,16.6,7.1,25.7,7.2C1426.6,536,1403.6,529.8,1400.9,528.8z"/>
	<path class="st13" d="M1409.6,422c0,0,20.4,27.9,15.4,39s-13.6,33.1-34.9,23.4S1363.6,448.2,1409.6,422z"/>
	<path class="st14" d="M1402.9,476.8c5.7-7.1,9.5-15.6,10.9-24.6C1413.8,452.2,1404.4,474.3,1402.9,476.8z"/>
	<path class="st13" d="M1336.6,399.7c0,0,20.4,27.9,15.4,39s-13.6,33.1-34.9,23.4C1295.9,452.5,1290.6,426,1336.6,399.7z"/>
	<path class="st14" d="M1329.9,454.7c5.7-7.1,9.5-15.6,10.9-24.6C1340.8,430.1,1331.1,452.1,1329.9,454.7z"/>
	<path class="st13" d="M1318.3,536.4c0,0-30.1,17-40.5,10.7s-31.2-17.5-19.3-37.4C1270.5,489.7,1298.1,487.6,1318.3,536.4z"/>
	<path class="st14" d="M1264.9,523.2c6.4,6.5,14.3,11.3,23.1,13.8C1288,537,1267.2,525,1264.9,523.2z"/>
	<path class="st13" d="M1301.3,474.8c0,0-30.1,16.9-40.5,10.6c-10.5-6.3-31.2-17.5-19.3-37.4C1253.5,428,1280.9,426.1,1301.3,474.8z
		"/>
	<path class="st14" d="M1247.7,461.7c6.3,6.6,14.3,11.3,23.1,13.7C1270.8,475.4,1250.1,463.4,1247.7,461.7z"/>
	<path class="st13" d="M1320.4,568c0,0,27.8-20.6,39-15.5s33.1,13.5,23.5,34.8C1373.3,608.7,1346.7,613.9,1320.4,568z"/>
	<path class="st14" d="M1375.3,574.5c-7.2-5.7-15.8-9.5-24.9-10.9C1350.4,563.6,1372.7,573.1,1375.3,574.5z"/>
	<path class="st13" d="M1440.3,490.6c0,0,5.6-34.1,17-38.5s33.1-13.4,41.2,8.4C1506.5,482.3,1491.2,505,1440.3,490.6z"/>
	<path class="st14" d="M1484.2,456.8c-9.1,0.9-17.8,4.1-25.2,9.4C1459,466.2,1481.4,457.5,1484.2,456.8z"/>
	<path class="st13" d="M1337.9,658.5c0,0,5.6-34.1,17-38.5s33.1-13.4,41.2,8.5S1388.9,673,1337.9,658.5z"/>
	<path class="st14" d="M1381.7,624.8c-9,0.9-17.5,4.2-24.9,9.4C1356.8,634.2,1378.8,625.6,1381.7,624.8z"/>
	<path class="st13" d="M1461.8,556.6c0,0,5.5-34.1,17-38.5s33.1-13.4,41.2,8.4C1528,548.4,1512.6,571.1,1461.8,556.6z"/>
	<path class="st14" d="M1505.6,522.9c-9.1,0.9-17.8,4.1-25.2,9.4C1480.4,532.3,1502.7,523.6,1505.6,522.9z"/>
	<path class="st13" d="M1491.7,584c0,0,33.8,6.8,37.7,18.4c3.9,11.6,12.2,33.6-10,40.8C1497.3,650.5,1475.2,634.3,1491.7,584z"/>
	<path class="st14" d="M1523.8,629c-0.5-9.2-3.4-18-8.5-25.7C1515.3,603.3,1523,626.1,1523.8,629z"/>
	<path class="st13" d="M1525,464.7c0,0,33.8,6.8,37.6,18.4s12.3,33.7-9.9,40.8C1530.6,531.1,1508.7,515.3,1525,464.7z"/>
	<path class="st14" d="M1557.1,509.7c-0.5-9.2-3.5-18-8.5-25.7C1548.6,484,1556.5,506.8,1557.1,509.7z"/>
	<path class="st13" d="M1202.7,509.7c0,0,33.8,6.4,37.6,18.4c3.8,11.9,12.3,33.6-9.9,40.8S1186.3,560.2,1202.7,509.7z"/>
	<path class="st14" d="M1234.8,554.7c-0.5-9.2-3.5-18-8.5-25.7C1226.3,529,1234,551.8,1234.8,554.7z"/>
	<path class="st13" d="M1503.6,389.3c0,0,33.8,6.8,37.6,18.4s12.3,33.6-9.9,40.8C1509.2,455.8,1487.3,439.6,1503.6,389.3z"/>
	<path class="st14" d="M1535.7,434.3c-0.5-9.2-3.5-18-8.5-25.7C1527.1,408.6,1535,431.4,1535.7,434.3z"/>
	<path class="st13" d="M1400.9,610c0,0,5.5-34,17-38.5c11.4-4.5,33.1-13.4,41.2,8.5S1451.7,624.5,1400.9,610z"/>
	<path class="st14" d="M1444.7,576.3c-9.1,0.9-17.8,4.3-25.2,9.6C1419.5,585.9,1441.8,577.1,1444.7,576.3z"/>
	<path class="st13" d="M1423.3,415.2c0,0,5.5-34.1,17-38.5c11.4-4.4,33.1-13.5,41.2,8.4C1489.4,406.9,1474.1,429.6,1423.3,415.2z"/>
	<path class="st14" d="M1467,381.4c-9.1,0.9-17.7,4.1-25.1,9.4C1441.9,390.8,1464.2,382.2,1467,381.4z"/>
	<path class="st13" d="M1355.4,347.4c0,0,34.2-4.9,41.6,4.7s22.9,27.6,4.4,41.8C1382.9,408.2,1356.8,400.3,1355.4,347.4z"/>
	<path class="st14" d="M1400.8,379c-3.6-8.4-9.3-15.7-16.6-21.1C1384.2,357.9,1399.1,376.5,1400.8,379z"/>
	<path class="st13" d="M1260.5,570.4c0,0,34.2-5,41.7,4.6s22.8,27.6,4.4,41.8C1288.1,631.1,1262.1,623.2,1260.5,570.4z"/>
	<path class="st14" d="M1306,602c-3.6-8.4-9.3-15.7-16.6-21.2C1289.3,580.8,1304.4,599.5,1306,602z"/>
</g>
</svg>
