<?xml version="1.0" encoding="utf-8"?>
<!-- Generator: Adobe Illustrator 24.0.3, SVG Export Plug-In . SVG Version: 6.00 Build 0)  -->
<svg version="1.1" id="Layer_1" xmlns="http://www.w3.org/2000/svg" xmlns:xlink="http://www.w3.org/1999/xlink" x="0px" y="0px"
	 viewBox="0 0 1700 1080" style="enable-background:new 0 0 1700 1080;" xml:space="preserve">
<style type="text/css">
	.st0{fill:#DA3732;stroke:#000000;stroke-linejoin:round;}
	.st1{fill:#442222;stroke:#000000;stroke-linejoin:round;}
	.st2{fill:#819120;stroke:#000000;stroke-linejoin:round;}
	.st3{fill:#8E6A21;stroke:#000000;stroke-linejoin:round;}
	.st4{fill:#9933CC;stroke:#000000;stroke-width:0.8;stroke-miterlimit:10;}
	.st5{fill:#FFCC33;stroke:#000000;stroke-width:0.8;stroke-linecap:round;stroke-linejoin:round;}
	.st6{fill:#E08122;stroke:#000000;stroke-width:0.8;stroke-miterlimit:10;}
	.st7{fill:#669933;stroke:#000000;stroke-width:0.4;stroke-miterlimit:10;}
	.st8{fill:#7A5D3D;stroke:#000000;stroke-miterlimit:10;}
	.st9{fill:#FFCC33;}
	.st10{fill:#FFEC00;}
	.st11{fill:#A37D57;}
	.st12{fill:#DA3732;stroke:#000000;stroke-width:1.5675;stroke-linejoin:round;}
	.st13{fill:#442222;stroke:#000000;stroke-width:1.5675;stroke-linejoin:round;}
	.st14{fill:#819120;stroke:#000000;stroke-width:1.5675;stroke-linejoin:round;}
	.st15{fill:#8E6A21;stroke:#000000;stroke-width:1.5675;stroke-linejoin:round;}
	.st16{fill:#9933CC;stroke:#000000;stroke-width:1.254;stroke-miterlimit:10;}
	.st17{fill:#FFCC33;stroke:#000000;stroke-width:1.254;stroke-linecap:round;stroke-linejoin:round;}
	.st18{fill:#E08122;stroke:#000000;stroke-width:1.254;stroke-miterlimit:10;}
	.st19{fill:#669933;stroke:#000000;stroke-width:0.627;stroke-miterlimit:10;}
	.st20{fill:#7A5D3D;stroke:#000000;stroke-width:1.5675;stroke-miterlimit:10;}
	.st21{stroke:#000000;stroke-linejoin:round;}
	.st22{fill:#DA3732;stroke:#000000;stroke-width:1.4898;stroke-linejoin:round;}
	.st23{fill:#DE543E;}
	.st24{fill:#AB2925;}
	.st25{fill:#E27F68;}
	.st26{fill:#A5C058;}
	.st27{fill:#006837;}
	.st28{fill:#72974F;}
	.st29{fill:#D7DC84;}
	.st30{fill:#E27F68;stroke:#000000;stroke-width:1.4898;stroke-linecap:round;stroke-linejoin:round;}
	.st31{stroke:#000000;stroke-width:1.4898;stroke-linecap:round;stroke-linejoin:round;}
	.st32{fill:#A82925;}
	.st33{display:none;}
	.st34{display:inline;fill:#DA3732;stroke:#000000;stroke-width:0.8;stroke-linejoin:round;}
	.st35{display:inline;fill:#DE543E;}
	.st36{display:inline;fill:#AB2925;}
	.st37{display:inline;fill:#E27F68;}
	.st38{display:inline;}
	.st39{display:inline;fill:#72974F;}
	.st40{display:inline;fill:#D7DC84;}
	.st41{display:inline;fill:#006837;}
	.st42{display:inline;fill:#E27F68;stroke:#000000;stroke-width:0.8;stroke-linecap:round;stroke-linejoin:round;}
	.st43{display:inline;stroke:#000000;stroke-width:0.8;stroke-linecap:round;stroke-linejoin:round;}
	.st44{display:inline;fill:#A82925;}
	.st45{display:none;opacity:0.7;fill:none;stroke:#000000;stroke-width:7;stroke-miterlimit:10;enable-background:new    ;}
	.st46{display:inline;fill:#336600;stroke:#000000;stroke-width:0.8;stroke-linecap:round;stroke-linejoin:round;}
	.st47{display:inline;fill:#EFE8BB;}
	.st48{display:inline;opacity:0.28;fill:#ADA471;enable-background:new    ;}
	.st49{display:inline;fill:#722A0D;stroke:#000000;stroke-width:0.8;stroke-linejoin:round;}
	.st50{display:inline;fill:#EFDF9C;}
	.st51{fill:#ECE1BA;stroke:#B39D6A;stroke-miterlimit:10;}
	.st52{opacity:0.72;fill:#ECE1BA;stroke:#B39D6A;stroke-width:0.81;stroke-linejoin:bevel;enable-background:new    ;}
</style>
<g id="fruits">
	<path class="st0" d="M341.6,110.9c0,0-40.7,12.2-24.4,36.6c10.3,14.6,26.8,23.7,44.7,24.4c0,0,44.7-12.2,44.7-28.5
		S390.3,94.6,370,90.5C354.1,87.4,349.7,90.6,341.6,110.9z"/>
	<polygon class="st1" points="333.5,98.7 341.6,110.9 341.6,94.7 	"/>
	<path class="st2" d="M455.2,140.1c0,0-24-35.1-42.3-12.2c-10.9,14.3-14.5,32.8-9.7,50.1c0,0,24.4,31.4,40.1,26.5
		c15.7-4.9,40.7-24.3,39.9-43.3C482.5,144.8,477,141.7,455.2,140.1z"/>
	<polygon class="st3" points="464.3,128.7 455.2,140.1 470.7,135.2 	"/>
	<circle class="st4" cx="382.3" cy="180.1" r="12.2"/>
	<circle class="st4" cx="370.1" cy="163.8" r="12.2"/>
	<circle class="st4" cx="361.9" cy="184.1" r="12.2"/>
	<circle class="st4" cx="394.5" cy="159.7" r="12.2"/>
	<circle class="st4" cx="378.2" cy="143.5" r="12.2"/>
	<circle class="st4" cx="357.9" cy="143.5" r="12.2"/>
	<circle class="st4" cx="402.6" cy="180.1" r="12.2"/>
	<circle class="st4" cx="386.3" cy="196.4" r="12.2"/>
	<circle class="st4" cx="370.1" cy="196.4" r="12.2"/>
	<circle class="st4" cx="349.7" cy="167.9" r="12.2"/>
	<circle class="st4" cx="349.7" cy="184.1" r="12.2"/>
	<circle class="st4" cx="345.7" cy="196.4" r="12.2"/>
	<circle class="st4" cx="370.1" cy="176" r="12.2"/>
	<circle class="st4" cx="390.4" cy="171.9" r="12.2"/>
	<circle class="st4" cx="370.1" cy="159.7" r="12.2"/>
	<path class="st5" d="M508.4,139.4c-2.4-5.1-3.8-10.6-4.1-16.3c0-8.1,12.2-16.3,12.2-8.1c0,8.1-4.1,24.4,4.1,32.5
		c8.1,8.1,2.4,25.1,0,28.5c-7,9.9-15,20.3-19.9,26.6c-3.3,4.3-7.7,7.6-12.7,9.6c-16.6,6.7-55.3,18-89.5-3.7c0,0-4.1-4.1,4.1-8.1
		c8.1-4.1,28.5,0,44.7-4.1c16.3-4.1,36.6-24.4,44.7-36.6C500.1,147.5,508.4,147.5,508.4,139.4z"/>
	<ellipse class="st6" cx="286.7" cy="190.3" rx="48.8" ry="44.7"/>
	<ellipse class="st7" cx="272.5" cy="165.8" rx="6.1" ry="4.1"/>
	<ellipse class="st7" cx="264.3" cy="169.9" rx="6.1" ry="4.1"/>
	<ellipse class="st7" cx="264.3" cy="165.8" rx="6.1" ry="4.1"/>
	<path class="st8" d="M221.6,210.6h317.2l0,0v20.1c0,36.1-29.2,65.3-65.3,65.3H286.9c-36.1,0-65.3-29.2-65.3-65.3l0,0L221.6,210.6
		L221.6,210.6z"/>
	<path class="st9" d="M294.8,161.8c15.4,6.1,26.3,20.1,28.5,36.6c0,0,8.1-20.3-8.1-32.5C301.8,155.8,294.8,161.8,294.8,161.8z"/>
	<path class="st10" d="M510.4,165.8c0,0-12.2,32.5-20.3,36.6c0,0,20.3-16.3,24.4-28.5c2.5-6.5,2.5-13.8,0-20.3L510.4,165.8z"/>
	<path class="st11" d="M528.7,222.8H488c0,0-4.1,61-16.3,65.1C471.8,287.9,528.7,275.7,528.7,222.8z"/>
</g>
<g id="fruits_1_">
	<path class="st12" d="M1297.8,486.6c0,0-63.8,19.1-38.2,57.4c16.1,22.9,42,37.2,70.1,38.2c0,0,70.1-19.1,70.1-44.7
		s-25.6-76.5-57.4-82.9C1317.4,449.7,1310.5,454.7,1297.8,486.6z"/>
	<polygon class="st13" points="1285.1,467.4 1297.8,486.6 1297.8,461 	"/>
	<path class="st14" d="M1475.9,532.3c0,0-37.6-55-66.3-19.1c-17.1,22.4-22.7,51.4-15.2,78.5c0,0,38.2,49.2,62.9,41.5
		c24.6-7.7,63.8-38.2,62.5-68C1518.7,539.7,1510.1,534.7,1475.9,532.3z"/>
	<polygon class="st15" points="1490.2,514.3 1475.9,532.3 1500.2,524.5 	"/>
	<circle class="st16" cx="1361.6" cy="594.9" r="19.1"/>
	<circle class="st16" cx="1342.5" cy="569.5" r="19.1"/>
	<circle class="st16" cx="1329.7" cy="601.3" r="19.1"/>
	<circle class="st16" cx="1380.8" cy="563" r="19.1"/>
	<circle class="st16" cx="1355.2" cy="537.5" r="19.1"/>
	<circle class="st16" cx="1323.4" cy="537.5" r="19.1"/>
	<circle class="st16" cx="1393.5" cy="594.9" r="19.1"/>
	<circle class="st16" cx="1367.9" cy="620.4" r="19.1"/>
	<circle class="st16" cx="1342.5" cy="620.4" r="19.1"/>
	<circle class="st16" cx="1310.5" cy="575.7" r="19.1"/>
	<circle class="st16" cx="1310.5" cy="601.3" r="19.1"/>
	<circle class="st16" cx="1304.3" cy="620.4" r="19.1"/>
	<circle class="st16" cx="1342.5" cy="588.6" r="19.1"/>
	<circle class="st16" cx="1374.3" cy="582.2" r="19.1"/>
	<circle class="st16" cx="1342.5" cy="563" r="19.1"/>
	<path class="st17" d="M1559.3,531.2c-3.8-8-6-16.6-6.4-25.6c0-12.7,19.1-25.6,19.1-12.7c0,12.9-6.4,38.2,6.4,50.9
		c12.9,12.7,3.8,39.3,0,44.7c-11,15.5-23.5,31.8-31.2,41.7c-5.2,6.7-12.1,11.9-19.9,15c-26,10.5-86.7,28.2-140.3-5.8
		c0,0-6.4-6.4,6.4-12.7c12.7-6.4,44.7,0,70.1-6.4c25.6-6.4,57.4-38.2,70.1-57.4C1546.3,543.9,1559.3,543.9,1559.3,531.2z"/>
	<ellipse class="st18" cx="1211.8" cy="610.9" rx="76.5" ry="70.1"/>
	<ellipse class="st19" cx="1189.5" cy="572.6" rx="9.6" ry="6.4"/>
	<ellipse class="st19" cx="1176.7" cy="579" rx="9.6" ry="6.4"/>
	<ellipse class="st19" cx="1176.7" cy="572.6" rx="9.6" ry="6.4"/>
	<path class="st20" d="M1109.7,642.7h497.2l0,0v31.5c0,56.6-45.8,102.4-102.4,102.4h-292.5c-56.6,0-102.4-45.8-102.4-102.4l0,0
		L1109.7,642.7L1109.7,642.7z"/>
	<path class="st9" d="M1224.5,566.2c24.1,9.6,41.2,31.5,44.7,57.4c0,0,12.7-31.8-12.7-50.9C1235.4,556.9,1224.5,566.2,1224.5,566.2z
		"/>
	<path class="st10" d="M1562.4,572.6c0,0-19.1,50.9-31.8,57.4c0,0,31.8-25.6,38.2-44.7c3.9-10.2,3.9-21.6,0-31.8L1562.4,572.6z"/>
	<path class="st11" d="M1591.1,661.8h-63.8c0,0-6.4,95.6-25.6,102C1501.9,763.8,1591.1,744.7,1591.1,661.8z"/>
</g>
<title>Artboard 3</title>
<path class="st21" d="M699.9,236.2c0,0,111.4-69.3,183.7-60.2c0,0-36.1-30.1-69.3-36.1c0,0,108.4,3,162.6,54.2
	c0,0-102.4,18.1-114.4,90.3c0,0,3-63.2,24.1-84.3C886.6,200.1,772.2,203.1,699.9,236.2z"/>
<g id="apple">
	<path class="st22" d="M192.6,467.1c0,0-83.2,22.2-61.1,138.7c22.2,116.6,55.5,166.5,116.6,183.1c44.3,11.2,11.2-11.2,94.4,11.2
		c83.2,22.2,149.9-177.7,149.9-222S470.2,455.9,398,461.5c-72.1,5.6-105.4,0-105.4,0S209.1,455.9,192.6,467.1z"/>
	<path class="st23" d="M256.4,508.6c0,0,61.1,33.3,94.4,27.7c33.3-5.6,66.7-33.3,77.7-11.2c11.2,22.2,22.2,33.3,0,88.8
		c-22.2,55.5-88.8,160.9-177.7,155.3s-133.1-199.8-94.4-260.9C195.4,447.6,256.4,508.6,256.4,508.6z"/>
	<path class="st24" d="M239.7,497.6c0,0,105.4-27.7,105.4,0c0,27.7-27.6,27.7-27.6,27.7S278.6,497.6,239.7,497.6z"/>
	<path class="st25" d="M453.5,539.2c0,0-33.3-88.8-205.4-44.3c0,0,111,33.3,105.4,55.5c-5.6,22.2-72.1,0-133.1-5.6
		c-61.1-5.6-22.2,188.6,5.6,216.4c-44.3-38.9-111-149.9-66.7-255.3c44.3-61.1,149.9-27.7,194.2-33.3
		C398,467.1,447.9,483.7,453.5,539.2z"/>
	<g>
		<path class="st26" d="M162,364.3c0,0,27.7,105.4,61.1,116.6c33.3,11.2,66.7,11.2,77.7,22.2l11.2-11.2c0,0-22.2-22.2-22.2-27.7
			s-11.2-66.7-55.5-77.7C209.7,380.7,185.7,373.3,162,364.3z"/>
		<path class="st27" d="M162,364.3c5.6,17.1,11.2,34.3,18.1,50.8c6.3,16.8,14.7,32.6,25,47.3c4.7,7.3,11.4,12.8,19.2,16.4
			c8.6,2.8,17.1,5,25.9,6.7l26.4,5.2c4.5,0.9,8.9,2,13.4,3.5c4.7,1.3,9.1,3.7,12.8,7.1h-3.9l11.2-11.2v3.9
			c-6.3-6.3-12.3-13-17.9-20.1c-1.5-1.9-2.8-3.9-3.9-6c-0.4-0.7-0.6-1.3-0.7-2c-0.2-0.4-0.2-0.9-0.2-1.3v-0.7c0-0.7-0.2-2-0.4-3
			c-0.7-4.3-1.7-8.4-3-12.7c-4.5-16.8-12.8-32.2-24.6-45.1c-6-6.3-13.4-11-21.6-13.8c-3.9-1.5-8.4-2.4-12.7-3.7
			c-4.3-1.3-8.6-2.4-12.8-3.7C195.2,376.8,178.4,371.2,162,364.3z M162,364.3c16.6,5.6,33.7,10.8,50.8,15.1l12.8,3.4
			c4.3,1.1,8.6,1.9,12.8,3.4c8.8,2.8,16.8,7.4,23.3,14c12.7,13,21.8,29.1,26.6,46.6c1.3,4.3,2.4,8.8,3.2,13.2
			c0.2,1.1,0.4,2.4,0.4,3.5v0.7l0,0c0.2,0.4,0.2,0.7,0.4,1.1c0.9,1.9,2.2,3.5,3.4,5c5.4,6.7,11.4,13.2,17.5,19.4l1.9,1.9l-1.9,1.9
			l-11.2,11.2l-1.9,1.9l-2-1.9c-3.2-2.6-6.7-4.7-10.6-5.8c-4.1-1.3-8.4-2.6-12.8-3.4l-26.4-5.6c-8.9-1.9-17.7-4.3-26.3-7.1
			c-4.7-1.7-8.8-4.3-12.1-7.8c-3.4-3.2-6.3-6.9-8.9-10.6c-9.9-15.3-17.9-31.7-23.8-48.8C171.5,399,166.3,381.8,162,364.3z"/>
	</g>
	<path class="st28" d="M181.4,378.3c0,0,66.7,16.6,83.2,38.9c11.9,16,22.2,55.5,22.2,55.5s-27.7-44.3-38.9-55.5
		C236.9,406,192.6,378.3,181.4,378.3z"/>
	<path class="st29" d="M181.4,394.9l94.4,88.8c0,0-61.1-11.2-66.7-27.7C203.7,439.4,181.4,394.9,181.4,394.9z"/>
	<path class="st27" d="M195.4,397.6c10.1,7.4,19.6,15.5,29.2,23.5s18.8,16.2,28.1,24.4c9.3,8.2,18.4,16.6,27.4,25.3l13.4,13
		c4.3,4.5,8.8,8.9,13,13.4c-5-3.7-9.9-7.6-14.7-11.5l-14.3-11.9c-9.5-8-18.8-16.2-28.1-24.6c-9.3-8.2-18.4-16.6-27.4-25.5
		C212.7,415.3,203.7,406.8,195.4,397.6z"/>
	<path class="st27" d="M234.3,414.4c1.9,2.4,2.8,5.6,2.8,8.6c0,3.2-0.9,6.1-2.8,8.6c-1.9-2.4-2.8-5.4-2.8-8.6
		C231.3,419.8,232.4,416.8,234.3,414.4z"/>
	<path class="st27" d="M249.2,446.1c-2.4,2.8-5.8,5-9.3,6.1c-3.5,1.3-7.4,1.7-11.2,0.9c2.4-2.8,5.8-5,9.3-6.1
		C241.5,445.7,245.5,445.5,249.2,446.1z"/>
	<path class="st27" d="M270.6,465.4c-3.2,3.4-7.1,6-11.4,7.6c-4.3,1.9-8.9,2.6-13.6,2.4c6.7-6.7,15.8-10.2,25.3-10.1H270.6z"/>
	<path class="st27" d="M212.1,414.4c-1.3,1.7-3.4,2.8-5.6,2.8s-4.3-1.1-5.6-2.8c1.3-1.7,3.4-2.8,5.6-2.8S210.8,412.7,212.1,414.4z"
		/>
	<path class="st27" d="M257.9,454.1c-4.1-4.8-4.8-11.9-1.5-17.5c2,2.2,3.4,5.2,3.5,8.4C260.4,448.1,259.6,451.3,257.9,454.1z"/>
	<path class="st30" d="M354.8,356.1c0,0-70.6,125.7-44.9,149.9c6.3-24,19.2-125.7,76.9-131.7C386.8,374.2,354.8,368.2,354.8,356.1z"
		/>
	<path class="st31" d="M245.3,492.1c0,0,44.3,5.6,72.1,22.2c27.7,16.6,66.7,5.6,66.7,5.6s-33.3,5.6-49.9-5.6
		C317.5,503,267.4,480.9,245.3,492.1z"/>
	<path class="st32" d="M242.5,777.9c0,0,44.3-16.6,88.8-5.6c44.3,11.2,149.9-105.4,149.9-188.6c-5.6,122.2-95.5,189.2-105.4,194.2
		c-11.2,5.6-27.7,16.6-47.7,11.7C301.7,782.9,248.1,772.3,242.5,777.9z"/>
	<path class="st24" d="M353.5,367.1c3,3,6.9,5,11.2,5.6h-5.6C356.1,372.7,353.5,370.3,353.5,367.1z"/>
</g>
<g id="apple_1_" class="st33">
	<path class="st34" d="M658.6,812c0,0-44.7,11.9-32.8,74.5s29.8,89.4,62.6,98.3c23.8,6,6-6,50.7,6c44.7,11.9,80.5-95.4,80.5-119.2
		S807.7,806,768.9,809c-38.7,3-56.6,0-56.6,0S667.5,806.1,658.6,812z"/>
	<path class="st35" d="M692.8,834.4c0,0,32.8,17.9,50.7,14.9s35.8-17.9,41.7-6c6,11.9,11.9,17.9,0,47.7s-47.7,86.4-95.4,83.4
		s-71.5-107.3-50.7-140.1C660.1,801.6,692.8,834.4,692.8,834.4z"/>
	<path class="st36" d="M683.9,828.4c0,0,56.6-14.9,56.6,0s-14.9,14.9-14.9,14.9S704.8,828.4,683.9,828.4z"/>
	<path class="st37" d="M798.6,850.8c0,0-17.9-47.7-110.3-23.8c0,0,59.6,17.9,56.6,29.8c-3,11.9-38.7,0-71.5-3s-11.9,101.3,3,116.2
		c-23.8-20.9-59.6-80.5-35.8-137.1C664.5,800.1,721.1,818,745,815C768.8,812,795.6,821,798.6,850.8z"/>
	<g class="st38">
		<path class="st26" d="M642.2,756.9c0,0,14.9,56.6,32.8,62.6c17.9,6,35.8,6,41.7,11.9l6-6c0,0-11.9-11.9-11.9-14.9
			s-6-35.8-29.8-41.7C667.8,765.6,654.8,761.7,642.2,756.9z"/>
		<path class="st27" d="M642.2,756.9c3,9.2,6,18.4,9.7,27.3c3.4,9,7.9,17.5,13.4,25.4c2.5,3.9,6.1,6.9,10.3,8.8
			c4.6,1.5,9.2,2.7,13.9,3.6l14.2,2.8c2.4,0.5,4.8,1.1,7.2,1.9c2.5,0.7,4.9,2,6.9,3.8h-2.1l6-6v2.1c-3.4-3.4-6.6-7-9.6-10.8
			c-0.8-1-1.5-2.1-2.1-3.2c-0.2-0.4-0.3-0.7-0.4-1.1c-0.1-0.2-0.1-0.5-0.1-0.7v-0.4c0-0.4-0.1-1.1-0.2-1.6c-0.4-2.3-0.9-4.5-1.6-6.8
			c-2.4-9-6.9-17.3-13.2-24.2c-3.2-3.4-7.2-5.9-11.6-7.4c-2.1-0.8-4.5-1.3-6.8-2s-4.6-1.3-6.9-2C660,763.6,650.9,760.6,642.2,756.9z
			 M642.2,756.9c8.9,3,18.1,5.8,27.3,8.1l6.9,1.8c2.3,0.6,4.6,1,6.9,1.8c4.7,1.5,9,4,12.5,7.5c6.8,7,11.7,15.6,14.3,25
			c0.7,2.3,1.3,4.7,1.7,7.1c0.1,0.6,0.2,1.3,0.2,1.9v0.4l0,0c0.1,0.2,0.1,0.4,0.2,0.6c0.5,1,1.2,1.9,1.8,2.7
			c2.9,3.6,6.1,7.1,9.4,10.4l1,1l-1,1l-6,6l-1,1l-1.1-1c-1.7-1.4-3.6-2.5-5.7-3.1c-2.2-0.7-4.5-1.4-6.9-1.8l-14.2-3
			c-4.8-1-9.5-2.3-14.1-3.8c-2.5-0.9-4.7-2.3-6.5-4.2c-1.8-1.7-3.4-3.7-4.8-5.7c-5.3-8.2-9.6-17-12.8-26.2
			C647.2,775.5,644.4,766.2,642.2,756.9z"/>
	</g>
	<path class="st39" d="M652.6,764.3c0,0,35.8,8.9,44.7,20.9c6.4,8.6,11.9,29.8,11.9,29.8s-14.9-23.8-20.9-29.8
		S658.6,764.3,652.6,764.3z"/>
	<path class="st40" d="M652.6,773.3l50.7,47.7c0,0-32.8-6-35.8-14.9C664.5,797.1,652.6,773.3,652.6,773.3z"/>
	<path class="st41" d="M660.1,774.8c5.4,4,10.5,8.3,15.7,12.6c5.1,4.3,10.1,8.7,15.1,13.1c5,4.4,9.9,8.9,14.7,13.6l7.2,7
		c2.3,2.4,4.7,4.8,7,7.2c-2.7-2-5.3-4.1-7.9-6.2l-7.7-6.4c-5.1-4.3-10.1-8.7-15.1-13.2c-5-4.4-9.9-8.9-14.7-13.7
		C669.4,784.3,664.5,779.7,660.1,774.8z"/>
	<path class="st41" d="M680.9,783.7c1,1.3,1.5,3,1.5,4.6c0,1.7-0.5,3.3-1.5,4.6c-1-1.3-1.5-2.9-1.5-4.6
		C679.4,786.7,679.9,785,680.9,783.7z"/>
	<path class="st41" d="M689,800.8c-1.3,1.5-3.1,2.7-5,3.3c-1.9,0.7-4,0.9-6,0.5c1.3-1.5,3.1-2.7,5-3.3
		C684.9,800.6,687,800.4,689,800.8z"/>
	<path class="st41" d="M700.5,811.1c-1.7,1.8-3.8,3.2-6.1,4.1c-2.3,1-4.8,1.4-7.3,1.3c3.6-3.6,8.5-5.5,13.6-5.4L700.5,811.1
		L700.5,811.1z"/>
	<path class="st41" d="M669.1,783.7c-0.7,0.9-1.8,1.5-3,1.5s-2.3-0.6-3-1.5c0.7-0.9,1.8-1.5,3-1.5
		C667.3,782.3,668.4,782.8,669.1,783.7z"/>
	<path class="st41" d="M693.7,805c-2.2-2.6-2.6-6.4-0.8-9.4c1.1,1.2,1.8,2.8,1.9,4.5C694.9,801.8,694.6,803.5,693.7,805z"/>
	<path class="st42" d="M745.6,752.4c0,0-37.9,67.5-24.1,80.5c3.4-12.9,10.3-67.5,41.3-70.7C762.9,762.1,745.6,758.9,745.6,752.4z"/>
	<path class="st43" d="M686.9,825.4c0,0,23.8,3,38.7,11.9s35.8,3,35.8,3s-17.9,3-26.8-3S698.8,819.5,686.9,825.4z"/>
	<path class="st44" d="M685.4,978.9c0,0,23.8-8.9,47.7-3c23.8,6,80.5-56.6,80.5-101.3c-3,65.6-51.3,101.6-56.6,104.3
		c-6,3-14.9,8.9-25.6,6.3C717.2,981.6,688.4,975.9,685.4,978.9z"/>
	<path class="st36" d="M745,758.4c1.6,1.6,3.7,2.7,6,3h-3C746.3,761.4,745,760,745,758.4z"/>
</g>
<path d="M691.4,583.3v-32.2H968v32.2H691.4z M691.4,688.2v-32.4H968V688L691.4,688.2z"/>
<line class="st45" x1="106.5" y1="701.4" x2="1593.5" y2="701.4"/>
<g class="st33">
	<path class="st46" d="M976.6,814c0,0,5.1-29.3-35.4-33.5C941.2,780.4,931.1,814,976.6,814z"/>
	<path class="st42" d="M996.3,762.9c0,0-37.1,66.1-23.6,78.8c3.4-12.7,10.1-66.1,40.4-69.3C1013.2,772.4,996.3,769.3,996.3,762.9z"
		/>
	<path class="st34" d="M914.4,815.8c0,0-43.8,11.7-32.1,72.9c11.7,61.3,26.3,90.4,58.3,99.2c23.3,5.8,8.8-8.8,52.5,2.9
		c43.8,11.7,78.8-93.4,78.8-116.7s-11.7-64.2-49.6-61.3s-55.4,0-55.4,0S923.1,810,914.4,815.8z"/>
	<path class="st47" d="M919.8,823.3c0,0-40,10.6-29.2,66.5s23.6,82.8,52.8,90.8c21.3,5.3,8.3-8.3,48.2,2.4
		c39.9,10.6,71.9-85.2,71.9-106.4s-10.6-58.7-45.2-56c-34.6,2.7-50.6,0-50.6,0S927.8,818,919.8,823.3z"/>
	<path class="st48" d="M962.6,883.1c0,0-9.6,2.6-7,16s6.4,19.2,13.4,21.1c5.1,1.3,2.5-2.2,12.1,0.3c9.6,2.6,16-19.5,16-24.6
		s-2.6-14.1-10.9-13.4c-4,0.4-8.1,0.4-12.1,0C974.1,882.4,964.5,881.8,962.6,883.1z"/>
	<path class="st49" d="M970.9,892.7c0,0-11.7,5.8-8.8,8.8S967.9,907.3,970.9,892.7z"/>
	<path class="st49" d="M982.1,892.7c0,0,11.7,5.8,8.8,8.8C987.9,904.4,985,907.3,982.1,892.7z"/>
	<path class="st50" d="M1029.2,822.7c0,0,26.3,8.8,29.2,52.5c2.9,43.8-40.8,96.3-46.7,102.1C1020.5,959.8,1073,875.2,1029.2,822.7z"
		/>
</g>
<g>
	<path class="st51" d="M1214.5,212.8c0,0-13.4,13.2-19.8,11.4c-6.4-1.8-18.9-4.7-15.4-16.9C1182.8,195.1,1196.8,190.1,1214.5,212.8z
		"/>
	<path class="st52" d="M1184.4,213.7c4.2,2.5,9.1,3.9,14,3.9C1198.4,217.6,1185.9,214.1,1184.4,213.7z"/>
	<path class="st51" d="M1252.8,220.2c0,0-13.3,13.2-19.7,11.4c-6.4-1.8-18.9-4.7-15.4-16.9C1221.2,202.5,1235.1,197.6,1252.8,220.2z
		"/>
	<path class="st52" d="M1222.8,221c4.2,2.5,9.1,3.8,14,3.9C1236.7,224.9,1224.3,221.6,1222.8,221z"/>
	<path class="st51" d="M1227.5,162.9c0,0,11.1,15.2,8.4,21.2s-7.4,18-19,12.8S1202.5,177.2,1227.5,162.9z"/>
	<path class="st52" d="M1223.8,192.7c3.1-3.9,5.2-8.5,5.9-13.4C1229.8,179.3,1224.6,191.4,1223.8,192.7z"/>
	<path class="st51" d="M1187.8,150.8c0,0,11.1,15.2,8.4,21.2s-7.4,18-19,12.8C1165.6,179.5,1162.8,165.1,1187.8,150.8z"/>
	<path class="st52" d="M1184.1,180.7c3.1-3.9,5.2-8.5,5.9-13.4C1190.1,167.3,1184.8,179.3,1184.1,180.7z"/>
	<path class="st51" d="M1177.8,225.1c0,0-16.4,9.2-22,5.8c-5.7-3.4-17-9.5-10.5-20.4C1151.8,199.7,1166.9,198.6,1177.8,225.1z"/>
	<path class="st52" d="M1148.8,218c3.5,3.6,7.8,6.2,12.6,7.5C1161.3,225.5,1150,219,1148.8,218z"/>
	<path class="st51" d="M1168.6,191.7c0,0-16.4,9.2-22,5.8s-17-9.5-10.5-20.4C1142.6,166.2,1157.5,165.1,1168.6,191.7z"/>
	<path class="st52" d="M1139.4,184.5c3.5,3.6,7.8,6.1,12.6,7.5C1152,192,1140.7,185.4,1139.4,184.5z"/>
	<path class="st51" d="M1178.9,242.4c0,0,15.1-11.2,21.2-8.4s18,7.3,12.8,18.9S1193.3,267.3,1178.9,242.4z"/>
	<path class="st52" d="M1208.8,245.9c-3.9-3.1-8.6-5.2-13.5-5.9C1195.3,240,1207.4,245.1,1208.8,245.9z"/>
	<path class="st51" d="M1244.2,200.2c0,0,3-18.6,9.3-21c6.2-2.4,18-7.3,22.4,4.6C1280.2,195.7,1271.9,208.1,1244.2,200.2z"/>
	<path class="st52" d="M1268.1,181.8c-4.9,0.5-9.7,2.3-13.7,5.1C1254.4,187,1266.5,182.2,1268.1,181.8z"/>
	<path class="st51" d="M1188.5,291.6c0,0,3-18.6,9.3-21c6.2-2.4,18-7.3,22.4,4.6C1224.5,287.2,1216.3,299.5,1188.5,291.6z"/>
	<path class="st52" d="M1212.3,273.2c-4.9,0.5-9.5,2.3-13.5,5.1C1198.8,278.4,1210.7,273.7,1212.3,273.2z"/>
	<path class="st51" d="M1255.9,236.2c0,0,3-18.6,9.2-21s18-7.3,22.4,4.6S1283.6,244,1255.9,236.2z"/>
	<path class="st52" d="M1279.7,217.8c-4.9,0.5-9.7,2.3-13.7,5.1C1266,222.9,1278.1,218.2,1279.7,217.8z"/>
	<path class="st51" d="M1272.2,251.1c0,0,18.4,3.7,20.5,10s6.6,18.3-5.4,22.2S1263.2,278.4,1272.2,251.1z"/>
	<path class="st52" d="M1289.6,275.5c-0.3-5-1.9-9.8-4.6-14C1285,261.5,1289.2,273.9,1289.6,275.5z"/>
	<path class="st51" d="M1290.3,186.1c0,0,18.4,3.7,20.5,10s6.7,18.3-5.4,22.2S1281.4,213.7,1290.3,186.1z"/>
	<path class="st52" d="M1307.8,210.6c-0.3-5-1.9-9.8-4.6-14C1303.1,196.7,1307.4,209.1,1307.8,210.6z"/>
	<path class="st51" d="M1114.9,210.6c0,0,18.4,3.5,20.5,10s6.7,18.3-5.4,22.2S1106,238.1,1114.9,210.6z"/>
	<path class="st52" d="M1132.4,235.1c-0.3-5-1.9-9.8-4.6-14C1127.8,221.1,1131.9,233.5,1132.4,235.1z"/>
	<path class="st51" d="M1278.6,145.1c0,0,18.4,3.7,20.5,10s6.7,18.3-5.4,22.2C1281.7,181.3,1269.8,172.5,1278.6,145.1z"/>
	<path class="st52" d="M1296.1,169.6c-0.3-5-1.9-9.8-4.6-14C1291.5,155.6,1295.7,168,1296.1,169.6z"/>
	<path class="st51" d="M1222.8,265.2c0,0,3-18.5,9.2-21c6.2-2.4,18-7.3,22.4,4.6C1258.7,260.8,1250.4,273.1,1222.8,265.2z"/>
	<path class="st52" d="M1246.6,246.9c-4.9,0.5-9.7,2.3-13.7,5.2C1232.9,252.1,1245,247.3,1246.6,246.9z"/>
	<path class="st51" d="M1235,159.2c0,0,3-18.6,9.2-21s18-7.3,22.4,4.6C1270.9,154.7,1262.6,167.1,1235,159.2z"/>
	<path class="st52" d="M1258.7,140.8c-4.9,0.5-9.6,2.2-13.7,5.1C1245.1,146,1257.2,141.2,1258.7,140.8z"/>
	<path class="st51" d="M1198,122.3c0,0,18.6-2.7,22.6,2.6c4.1,5.2,12.4,15,2.4,22.7C1213,155.4,1198.8,151.1,1198,122.3z"/>
	<path class="st52" d="M1222.7,139.5c-1.9-4.6-5.1-8.5-9-11.5C1213.7,128,1221.8,138.2,1222.7,139.5z"/>
	<path class="st51" d="M1146.4,243.7c0,0,18.6-2.7,22.7,2.5s12.4,15,2.4,22.7C1161.4,276.7,1147.3,272.4,1146.4,243.7z"/>
	<path class="st52" d="M1171.1,260.8c-2-4.6-5.1-8.5-9-11.5C1162.1,249.3,1170.2,259.5,1171.1,260.8z"/>
</g>
</svg>
