<?xml version="1.0" encoding="utf-8"?>
<!-- Generator: Adobe Illustrator 24.0.3, SVG Export Plug-In . SVG Version: 6.00 Build 0)  -->
<svg version="1.1" id="Layer_1" xmlns="http://www.w3.org/2000/svg" xmlns:xlink="http://www.w3.org/1999/xlink" x="0px" y="0px"
	 viewBox="0 0 1700 1080" style="enable-background:new 0 0 1700 1080;" xml:space="preserve">
<style type="text/css">
	.st0{fill:#DA3732;stroke:#000000;stroke-linejoin:round;}
	.st1{fill:#442222;stroke:#000000;stroke-linejoin:round;}
	.st2{fill:#819120;stroke:#000000;stroke-linejoin:round;}
	.st3{fill:#8E6A21;stroke:#000000;stroke-linejoin:round;}
	.st4{fill:#9933CC;stroke:#000000;stroke-width:0.8;stroke-miterlimit:10;}
	.st5{fill:#FFCC33;stroke:#000000;stroke-width:0.8;stroke-linecap:round;stroke-linejoin:round;}
	.st6{fill:#E08122;stroke:#000000;stroke-width:0.8;stroke-miterlimit:10;}
	.st7{fill:#669933;stroke:#000000;stroke-width:0.4;stroke-miterlimit:10;}
	.st8{fill:#7A5D3D;stroke:#000000;stroke-miterlimit:10;}
	.st9{fill:#FFCC33;}
	.st10{fill:#FFEC00;}
	.st11{fill:#A37D57;}
	.st12{fill:#DA3732;stroke:#000000;stroke-width:0.85;stroke-linejoin:round;}
	.st13{fill:#442222;stroke:#000000;stroke-width:0.85;stroke-linejoin:round;}
	.st14{fill:#819120;stroke:#000000;stroke-width:0.85;stroke-linejoin:round;}
	.st15{fill:#8E6A21;stroke:#000000;stroke-width:0.85;stroke-linejoin:round;}
	.st16{fill:#9933CC;stroke:#000000;stroke-width:0.68;stroke-miterlimit:10;}
	.st17{fill:#FFCC33;stroke:#000000;stroke-width:0.68;stroke-linecap:round;stroke-linejoin:round;}
	.st18{fill:#E08122;stroke:#000000;stroke-width:0.68;stroke-miterlimit:10;}
	.st19{fill:#669933;stroke:#000000;stroke-width:0.34;stroke-miterlimit:10;}
	.st20{fill:#7A5D3D;stroke:#000000;stroke-width:0.85;stroke-miterlimit:10;}
	.st21{stroke:#000000;stroke-linejoin:round;}
	.st22{fill:#DA3732;stroke:#000000;stroke-width:0.7721;stroke-linejoin:round;}
	.st23{fill:#DE543E;}
	.st24{fill:#AB2925;}
	.st25{fill:#E27F68;}
	.st26{fill:#A5C058;}
	.st27{fill:#006837;}
	.st28{fill:#72974F;}
	.st29{fill:#D7DC84;}
	.st30{fill:#E27F68;stroke:#000000;stroke-width:0.7721;stroke-linecap:round;stroke-linejoin:round;}
	.st31{stroke:#000000;stroke-width:0.7721;stroke-linecap:round;stroke-linejoin:round;}
	.st32{fill:#A82925;}
	.st33{display:none;}
	.st34{display:inline;fill:#DA3732;stroke:#000000;stroke-width:0.8;stroke-linejoin:round;}
	.st35{display:inline;fill:#DE543E;}
	.st36{display:inline;fill:#AB2925;}
	.st37{display:inline;fill:#E27F68;}
	.st38{display:inline;}
	.st39{display:inline;fill:#72974F;}
	.st40{display:inline;fill:#D7DC84;}
	.st41{display:inline;fill:#006837;}
	.st42{display:inline;fill:#E27F68;stroke:#000000;stroke-width:0.8;stroke-linecap:round;stroke-linejoin:round;}
	.st43{display:inline;stroke:#000000;stroke-width:0.8;stroke-linecap:round;stroke-linejoin:round;}
	.st44{display:inline;fill:#A82925;}
	.st45{opacity:0.7;fill:none;stroke:#000000;stroke-width:16.306;stroke-miterlimit:10;enable-background:new    ;}
	.st46{display:inline;fill:#336600;stroke:#000000;stroke-width:0.8;stroke-linecap:round;stroke-linejoin:round;}
	.st47{display:inline;fill:#EFE8BB;}
	.st48{display:inline;opacity:0.28;fill:#ADA471;enable-background:new    ;}
	.st49{display:inline;fill:#722A0D;stroke:#000000;stroke-width:0.8;stroke-linejoin:round;}
	.st50{display:inline;fill:#EFDF9C;}
	.st51{fill:#ECE1BA;stroke:#B39D6A;stroke-miterlimit:10;}
	.st52{opacity:0.72;fill:#ECE1BA;stroke:#B39D6A;stroke-width:0.81;stroke-linejoin:bevel;enable-background:new    ;}
</style>
<g id="fruits">
	<path class="st0" d="M341.6,77.9c0,0-40.7,12.2-24.4,36.6c10.3,14.6,26.8,23.7,44.7,24.4c0,0,44.7-12.2,44.7-28.5
		S390.3,61.6,370,57.5C354.1,54.4,349.7,57.6,341.6,77.9z"/>
	<polygon class="st1" points="333.5,65.7 341.6,77.9 341.6,61.7 	"/>
	<path class="st2" d="M455.2,107.1c0,0-24-35.1-42.3-12.2c-10.9,14.3-14.5,32.8-9.7,50.1c0,0,24.4,31.4,40.1,26.5
		c15.7-4.9,40.7-24.3,39.9-43.3C482.5,111.8,477,108.7,455.2,107.1z"/>
	<polygon class="st3" points="464.3,95.7 455.2,107.1 470.7,102.2 	"/>
	<circle class="st4" cx="382.3" cy="147.1" r="12.2"/>
	<circle class="st4" cx="370.1" cy="130.8" r="12.2"/>
	<circle class="st4" cx="361.9" cy="151.1" r="12.2"/>
	<circle class="st4" cx="394.5" cy="126.7" r="12.2"/>
	<circle class="st4" cx="378.2" cy="110.5" r="12.2"/>
	<circle class="st4" cx="357.9" cy="110.5" r="12.2"/>
	<circle class="st4" cx="402.6" cy="147.1" r="12.2"/>
	<circle class="st4" cx="386.3" cy="163.4" r="12.2"/>
	<circle class="st4" cx="370.1" cy="163.4" r="12.2"/>
	<circle class="st4" cx="349.7" cy="134.9" r="12.2"/>
	<circle class="st4" cx="349.7" cy="151.1" r="12.2"/>
	<circle class="st4" cx="345.7" cy="163.4" r="12.2"/>
	<circle class="st4" cx="370.1" cy="143" r="12.2"/>
	<circle class="st4" cx="390.4" cy="138.9" r="12.2"/>
	<circle class="st4" cx="370.1" cy="126.7" r="12.2"/>
	<path class="st5" d="M508.4,106.4c-2.4-5.1-3.8-10.6-4.1-16.3c0-8.1,12.2-16.3,12.2-8.1c0,8.1-4.1,24.4,4.1,32.5
		c8.1,8.1,2.4,25.1,0,28.5c-7,9.9-15,20.3-19.9,26.6c-3.3,4.3-7.7,7.6-12.7,9.6c-16.6,6.7-55.3,18-89.5-3.7c0,0-4.1-4.1,4.1-8.1
		c8.1-4.1,28.5,0,44.7-4.1c16.3-4.1,36.6-24.4,44.7-36.6C500.1,114.5,508.4,114.5,508.4,106.4z"/>
	<ellipse class="st6" cx="286.7" cy="157.3" rx="48.8" ry="44.7"/>
	<ellipse class="st7" cx="272.5" cy="132.8" rx="6.1" ry="4.1"/>
	<ellipse class="st7" cx="264.3" cy="136.9" rx="6.1" ry="4.1"/>
	<ellipse class="st7" cx="264.3" cy="132.8" rx="6.1" ry="4.1"/>
	<path class="st8" d="M221.6,177.6h317.2l0,0v20.1c0,36.1-29.2,65.3-65.3,65.3H286.9c-36.1,0-65.3-29.2-65.3-65.3l0,0L221.6,177.6
		L221.6,177.6z"/>
	<path class="st9" d="M294.8,128.8c15.4,6.1,26.3,20.1,28.5,36.6c0,0,8.1-20.3-8.1-32.5C301.8,122.8,294.8,128.8,294.8,128.8z"/>
	<path class="st10" d="M510.4,132.8c0,0-12.2,32.5-20.3,36.6c0,0,20.3-16.3,24.4-28.5c2.5-6.5,2.5-13.8,0-20.3L510.4,132.8z"/>
	<path class="st11" d="M528.7,189.8H488c0,0-4.1,61-16.3,65.1C471.8,254.9,528.7,242.7,528.7,189.8z"/>
</g>
<g id="fruits_1_">
	<path class="st12" d="M1233.2,372.6c0,0-34.6,10.4-20.7,31.1c8.8,12.4,22.8,20.1,38,20.7c0,0,38-10.4,38-24.2s-13.9-41.5-31.1-45
		C1243.8,352.6,1240.1,355.3,1233.2,372.6z"/>
	<polygon class="st13" points="1226.3,362.2 1233.2,372.6 1233.2,358.7 	"/>
	<path class="st14" d="M1329.8,397.4c0,0-20.4-29.8-36-10.4c-9.3,12.2-12.3,27.9-8.2,42.6c0,0,20.7,26.7,34.1,22.5
		c13.3-4.2,34.6-20.7,33.9-36.9C1353,401.4,1348.3,398.7,1329.8,397.4z"/>
	<polygon class="st15" points="1337.5,387.6 1329.8,397.4 1342.9,393.1 	"/>
	<circle class="st16" cx="1267.8" cy="431.3" r="10.4"/>
	<circle class="st16" cx="1257.4" cy="417.5" r="10.4"/>
	<circle class="st16" cx="1250.5" cy="434.8" r="10.4"/>
	<circle class="st16" cx="1278.2" cy="414" r="10.4"/>
	<circle class="st16" cx="1264.3" cy="400.2" r="10.4"/>
	<circle class="st16" cx="1247.1" cy="400.2" r="10.4"/>
	<circle class="st16" cx="1285.1" cy="431.3" r="10.4"/>
	<circle class="st16" cx="1271.2" cy="445.1" r="10.4"/>
	<circle class="st16" cx="1257.4" cy="445.1" r="10.4"/>
	<circle class="st16" cx="1240.1" cy="420.9" r="10.4"/>
	<circle class="st16" cx="1240.1" cy="434.8" r="10.4"/>
	<circle class="st16" cx="1236.7" cy="445.1" r="10.4"/>
	<circle class="st16" cx="1257.4" cy="427.9" r="10.4"/>
	<circle class="st16" cx="1274.7" cy="424.4" r="10.4"/>
	<circle class="st16" cx="1257.4" cy="414" r="10.4"/>
	<path class="st17" d="M1375,396.8c-2-4.3-3.2-9-3.5-13.9c0-6.9,10.4-13.9,10.4-6.9s-3.5,20.7,3.5,27.6s2,21.3,0,24.2
		c-5.9,8.4-12.7,17.3-16.9,22.6c-2.8,3.7-6.5,6.5-10.8,8.2c-14.1,5.7-47,15.3-76.1-3.1c0,0-3.5-3.5,3.5-6.9c6.9-3.5,24.2,0,38-3.5
		c13.9-3.5,31.1-20.7,38-31.1C1367.9,403.7,1375,403.7,1375,396.8z"/>
	<ellipse class="st18" cx="1186.5" cy="440" rx="41.5" ry="38"/>
	<ellipse class="st19" cx="1174.5" cy="419.2" rx="5.2" ry="3.5"/>
	<ellipse class="st19" cx="1167.5" cy="422.7" rx="5.2" ry="3.5"/>
	<ellipse class="st19" cx="1167.5" cy="419.2" rx="5.2" ry="3.5"/>
	<path class="st20" d="M1131.2,457.2h269.6l0,0v17.1c0,30.7-24.8,55.5-55.5,55.5h-158.6c-30.7,0-55.5-24.8-55.5-55.5l0,0
		L1131.2,457.2L1131.2,457.2z"/>
	<path class="st9" d="M1193.4,415.7c13.1,5.2,22.4,17.1,24.2,31.1c0,0,6.9-17.3-6.9-27.6C1199.4,410.7,1193.4,415.7,1193.4,415.7z"
		/>
	<path class="st10" d="M1376.7,419.2c0,0-10.4,27.6-17.3,31.1c0,0,17.3-13.9,20.7-24.2c2.1-5.5,2.1-11.7,0-17.3L1376.7,419.2z"/>
	<path class="st11" d="M1392.2,467.6h-34.6c0,0-3.5,51.8-13.9,55.3C1343.9,522.9,1392.2,512.5,1392.2,467.6z"/>
</g>
<title>Artboard 3</title>
<path class="st21" d="M699.9,203.2c0,0,111.4-69.3,183.7-60.2c0,0-36.1-30.1-69.3-36.1c0,0,108.4,3,162.6,54.2
	c0,0-102.4,18.1-114.4,90.3c0,0,3-63.2,24.1-84.3C886.6,167.1,772.2,170.1,699.9,203.2z"/>
<g id="apple">
	<path class="st22" d="M336.6,376.9c0,0-43.1,11.5-31.7,71.9c11.5,60.4,28.8,86.3,60.4,94.9c23,5.8,5.8-5.8,48.9,5.8
		c43.1,11.5,77.7-92.1,77.7-115S480.5,371.1,443,374c-37.3,2.9-54.6,0-54.6,0S345.2,371.1,336.6,376.9z"/>
	<path class="st23" d="M369.7,398.4c0,0,31.7,17.3,48.9,14.4s34.5-17.3,40.2-5.8c5.8,11.5,11.5,17.3,0,46
		c-11.5,28.8-46,83.4-92.1,80.5c-46-2.9-69-103.6-48.9-135.2C338,366.8,369.7,398.4,369.7,398.4z"/>
	<path class="st24" d="M361,392.7c0,0,54.6-14.4,54.6,0c0,14.4-14.3,14.4-14.3,14.4S381.2,392.7,361,392.7z"/>
	<path class="st25" d="M471.8,414.3c0,0-17.3-46-106.4-23c0,0,57.5,17.3,54.6,28.8c-2.9,11.5-37.3,0-69-2.9s-11.5,97.8,2.9,112.1
		c-23-20.2-57.5-77.7-34.5-132.3c23-31.7,77.7-14.4,100.7-17.3C443,376.9,468.9,385.5,471.8,414.3z"/>
	<g>
		<path class="st26" d="M320.8,323.6c0,0,14.4,54.6,31.7,60.4c17.3,5.8,34.5,5.8,40.2,11.5l5.8-5.8c0,0-11.5-11.5-11.5-14.4
			s-5.8-34.5-28.8-40.2C345.5,332.1,333,328.3,320.8,323.6z"/>
		<path class="st27" d="M320.8,323.6c2.9,8.9,5.8,17.8,9.4,26.3c3.3,8.7,7.6,16.9,12.9,24.5c2.4,3.8,5.9,6.7,9.9,8.5
			c4.4,1.4,8.9,2.6,13.4,3.5l13.7,2.7c2.3,0.5,4.6,1.1,6.9,1.8c2.4,0.7,4.7,1.9,6.7,3.7h-2l5.8-5.8v2c-3.3-3.3-6.4-6.8-9.3-10.4
			c-0.8-1-1.4-2-2-3.1c-0.2-0.4-0.3-0.7-0.4-1.1c-0.1-0.2-0.1-0.5-0.1-0.7v-0.4c0-0.4-0.1-1.1-0.2-1.5c-0.4-2.2-0.9-4.3-1.5-6.6
			c-2.3-8.7-6.7-16.7-12.7-23.4c-3.1-3.3-6.9-5.7-11.2-7.1c-2-0.8-4.3-1.3-6.6-1.9c-2.2-0.7-4.4-1.3-6.7-1.9
			C337.9,330.1,329.3,327.2,320.8,323.6z M320.8,323.6c8.6,2.9,17.5,5.6,26.3,7.8l6.7,1.7c2.2,0.6,4.4,1,6.7,1.7
			c4.5,1.4,8.7,3.9,12.1,7.2c6.6,6.8,11.3,15.1,13.8,24.1c0.7,2.2,1.3,4.5,1.6,6.9c0.1,0.6,0.2,1.3,0.2,1.8v0.4l0,0
			c0.1,0.2,0.1,0.4,0.2,0.6c0.5,1,1.2,1.8,1.7,2.6c2.8,3.5,5.9,6.9,9.1,10l1,1l-1,1l-5.8,5.8l-1,1l-1.1-1c-1.6-1.4-3.5-2.4-5.5-3
			c-2.1-0.7-4.3-1.4-6.7-1.7l-13.7-2.9c-4.6-1-9.2-2.2-13.6-3.7c-2.4-0.9-4.5-2.2-6.3-4.1c-1.7-1.6-3.3-3.6-4.6-5.5
			c-5.1-7.9-9.3-16.4-12.4-25.3C325.7,341.6,323,332.7,320.8,323.6z"/>
	</g>
	<path class="st28" d="M330.8,330.9c0,0,34.5,8.6,43.1,20.2c6.2,8.3,11.5,28.8,11.5,28.8s-14.4-23-20.2-28.8
		C359.6,345.3,336.6,330.9,330.8,330.9z"/>
	<path class="st29" d="M330.8,339.5l48.9,46c0,0-31.7-5.8-34.5-14.4C342.4,362.5,330.8,339.5,330.8,339.5z"/>
	<path class="st27" d="M338,340.9c5.2,3.9,10.1,8,15.2,12.2c5,4.1,9.7,8.4,14.6,12.6c4.8,4.2,9.6,8.6,14.2,13.1l6.9,6.8
		c2.2,2.3,4.5,4.6,6.8,6.9c-2.6-1.9-5.1-4-7.6-6l-7.4-6.2c-4.9-4.1-9.7-8.4-14.6-12.7c-4.8-4.2-9.6-8.6-14.2-13.2
		C347,350.1,342.4,345.6,338,340.9z"/>
	<path class="st27" d="M358.2,349.6c1,1.3,1.4,2.9,1.4,4.4c0,1.6-0.5,3.2-1.4,4.4c-1-1.3-1.4-2.8-1.4-4.4
		C356.7,352.4,357.2,350.9,358.2,349.6z"/>
	<path class="st27" d="M365.9,366c-1.3,1.4-3,2.6-4.8,3.2c-1.8,0.7-3.9,0.9-5.8,0.5c1.3-1.4,3-2.6,4.8-3.2
		C362,365.8,364,365.7,365.9,366z"/>
	<path class="st27" d="M377,376c-1.6,1.7-3.7,3.1-5.9,4c-2.2,1-4.6,1.4-7,1.3c3.5-3.5,8.2-5.3,13.1-5.2H377z"/>
	<path class="st27" d="M346.7,349.6c-0.7,0.9-1.7,1.4-2.9,1.4s-2.2-0.6-2.9-1.4c0.7-0.9,1.7-1.4,2.9-1.4S346,348.7,346.7,349.6z"/>
	<path class="st27" d="M370.5,370.2c-2.1-2.5-2.5-6.2-0.8-9.1c1.1,1.2,1.7,2.7,1.8,4.3C371.7,367.1,371.3,368.7,370.5,370.2z"/>
	<path class="st30" d="M420.6,319.4c0,0-36.6,65.1-23.3,77.7c3.3-12.4,9.9-65.1,39.9-68.2C437.2,328.8,420.6,325.7,420.6,319.4z"/>
	<path class="st31" d="M363.9,389.8c0,0,23,2.9,37.3,11.5c14.4,8.6,34.5,2.9,34.5,2.9s-17.3,2.9-25.9-2.9S375.4,384.1,363.9,389.8z"
		/>
	<path class="st32" d="M362.4,538c0,0,23-8.6,46-2.9c23,5.8,77.7-54.6,77.7-97.8c-2.9,63.3-49.5,98.1-54.6,100.7
		c-5.8,2.9-14.4,8.6-24.7,6.1C393.1,540.6,365.3,535.1,362.4,538z"/>
	<path class="st24" d="M420,325.1c1.5,1.5,3.6,2.6,5.8,2.9h-2.9C421.3,328,420,326.7,420,325.1z"/>
</g>
<g id="apple_1_" class="st33">
	<path class="st34" d="M658.6,812c0,0-44.7,11.9-32.8,74.5s29.8,89.4,62.6,98.3c23.8,6,6-6,50.7,6c44.7,11.9,80.5-95.4,80.5-119.2
		S807.7,806,768.9,809c-38.7,3-56.6,0-56.6,0S667.5,806.1,658.6,812z"/>
	<path class="st35" d="M692.8,834.4c0,0,32.8,17.9,50.7,14.9s35.8-17.9,41.7-6c6,11.9,11.9,17.9,0,47.7s-47.7,86.4-95.4,83.4
		s-71.5-107.3-50.7-140.1C660.1,801.6,692.8,834.4,692.8,834.4z"/>
	<path class="st36" d="M683.9,828.4c0,0,56.6-14.9,56.6,0s-14.9,14.9-14.9,14.9S704.8,828.4,683.9,828.4z"/>
	<path class="st37" d="M798.6,850.8c0,0-17.9-47.7-110.3-23.8c0,0,59.6,17.9,56.6,29.8c-3,11.9-38.7,0-71.5-3s-11.9,101.3,3,116.2
		c-23.8-20.9-59.6-80.5-35.8-137.1C664.5,800.1,721.1,818,745,815C768.8,812,795.6,821,798.6,850.8z"/>
	<g class="st38">
		<path class="st26" d="M642.2,756.9c0,0,14.9,56.6,32.8,62.6c17.9,6,35.8,6,41.7,11.9l6-6c0,0-11.9-11.9-11.9-14.9
			s-6-35.8-29.8-41.7C667.8,765.6,654.8,761.7,642.2,756.9z"/>
		<path class="st27" d="M642.2,756.9c3,9.2,6,18.4,9.7,27.3c3.4,9,7.9,17.5,13.4,25.4c2.5,3.9,6.1,6.9,10.3,8.8
			c4.6,1.5,9.2,2.7,13.9,3.6l14.2,2.8c2.4,0.5,4.8,1.1,7.2,1.9c2.5,0.7,4.9,2,6.9,3.8h-2.1l6-6v2.1c-3.4-3.4-6.6-7-9.6-10.8
			c-0.8-1-1.5-2.1-2.1-3.2c-0.2-0.4-0.3-0.7-0.4-1.1c-0.1-0.2-0.1-0.5-0.1-0.7v-0.4c0-0.4-0.1-1.1-0.2-1.6c-0.4-2.3-0.9-4.5-1.6-6.8
			c-2.4-9-6.9-17.3-13.2-24.2c-3.2-3.4-7.2-5.9-11.6-7.4c-2.1-0.8-4.5-1.3-6.8-2s-4.6-1.3-6.9-2C660,763.6,650.9,760.6,642.2,756.9z
			 M642.2,756.9c8.9,3,18.1,5.8,27.3,8.1l6.9,1.8c2.3,0.6,4.6,1,6.9,1.8c4.7,1.5,9,4,12.5,7.5c6.8,7,11.7,15.6,14.3,25
			c0.7,2.3,1.3,4.7,1.7,7.1c0.1,0.6,0.2,1.3,0.2,1.9v0.4l0,0c0.1,0.2,0.1,0.4,0.2,0.6c0.5,1,1.2,1.9,1.8,2.7
			c2.9,3.6,6.1,7.1,9.4,10.4l1,1l-1,1l-6,6l-1,1l-1.1-1c-1.7-1.4-3.6-2.5-5.7-3.1c-2.2-0.7-4.5-1.4-6.9-1.8l-14.2-3
			c-4.8-1-9.5-2.3-14.1-3.8c-2.5-0.9-4.7-2.3-6.5-4.2c-1.8-1.7-3.4-3.7-4.8-5.7c-5.3-8.2-9.6-17-12.8-26.2
			C647.2,775.5,644.4,766.2,642.2,756.9z"/>
	</g>
	<path class="st39" d="M652.6,764.3c0,0,35.8,8.9,44.7,20.9c6.4,8.6,11.9,29.8,11.9,29.8s-14.9-23.8-20.9-29.8
		S658.6,764.3,652.6,764.3z"/>
	<path class="st40" d="M652.6,773.3l50.7,47.7c0,0-32.8-6-35.8-14.9C664.5,797.1,652.6,773.3,652.6,773.3z"/>
	<path class="st41" d="M660.1,774.8c5.4,4,10.5,8.3,15.7,12.6c5.1,4.3,10.1,8.7,15.1,13.1c5,4.4,9.9,8.9,14.7,13.6l7.2,7
		c2.3,2.4,4.7,4.8,7,7.2c-2.7-2-5.3-4.1-7.9-6.2l-7.7-6.4c-5.1-4.3-10.1-8.7-15.1-13.2c-5-4.4-9.9-8.9-14.7-13.7
		C669.4,784.3,664.5,779.7,660.1,774.8z"/>
	<path class="st41" d="M680.9,783.7c1,1.3,1.5,3,1.5,4.6c0,1.7-0.5,3.3-1.5,4.6c-1-1.3-1.5-2.9-1.5-4.6
		C679.4,786.7,679.9,785,680.9,783.7z"/>
	<path class="st41" d="M689,800.8c-1.3,1.5-3.1,2.7-5,3.3c-1.9,0.7-4,0.9-6,0.5c1.3-1.5,3.1-2.7,5-3.3
		C684.9,800.6,687,800.4,689,800.8z"/>
	<path class="st41" d="M700.5,811.1c-1.7,1.8-3.8,3.2-6.1,4.1c-2.3,1-4.8,1.4-7.3,1.3c3.6-3.6,8.5-5.5,13.6-5.4L700.5,811.1
		L700.5,811.1z"/>
	<path class="st41" d="M669.1,783.7c-0.7,0.9-1.8,1.5-3,1.5s-2.3-0.6-3-1.5c0.7-0.9,1.8-1.5,3-1.5
		C667.3,782.3,668.4,782.8,669.1,783.7z"/>
	<path class="st41" d="M693.7,805c-2.2-2.6-2.6-6.4-0.8-9.4c1.1,1.2,1.8,2.8,1.9,4.5C694.9,801.8,694.6,803.5,693.7,805z"/>
	<path class="st42" d="M745.6,752.4c0,0-37.9,67.5-24.1,80.5c3.4-12.9,10.3-67.5,41.3-70.7C762.9,762.1,745.6,758.9,745.6,752.4z"/>
	<path class="st43" d="M686.9,825.4c0,0,23.8,3,38.7,11.9s35.8,3,35.8,3s-17.9,3-26.8-3S698.8,819.5,686.9,825.4z"/>
	<path class="st44" d="M685.4,978.9c0,0,23.8-8.9,47.7-3c23.8,6,80.5-56.6,80.5-101.3c-3,65.6-51.3,101.6-56.6,104.3
		c-6,3-14.9,8.9-25.6,6.3C717.2,981.6,688.4,975.9,685.4,978.9z"/>
	<path class="st36" d="M745,758.4c1.6,1.6,3.7,2.7,6,3h-3C746.3,761.4,745,760,745,758.4z"/>
</g>
<path d="M740.9,435.3v-21.7h186.3v21.7H740.9z M740.9,505.9v-21.8h186.3v21.7L740.9,505.9z"/>
<line class="st45" x1="77.5" y1="623.1" x2="1622.5" y2="623.1"/>
<g class="st33">
	<path class="st46" d="M976.6,814c0,0,5.1-29.3-35.4-33.5C941.2,780.4,931.1,814,976.6,814z"/>
	<path class="st42" d="M996.3,762.9c0,0-37.1,66.1-23.6,78.8c3.4-12.7,10.1-66.1,40.4-69.3C1013.2,772.4,996.3,769.3,996.3,762.9z"
		/>
	<path class="st34" d="M914.4,815.8c0,0-43.8,11.7-32.1,72.9c11.7,61.3,26.3,90.4,58.3,99.2c23.3,5.8,8.8-8.8,52.5,2.9
		c43.8,11.7,78.8-93.4,78.8-116.7s-11.7-64.2-49.6-61.3s-55.4,0-55.4,0S923.1,810,914.4,815.8z"/>
	<path class="st47" d="M919.8,823.3c0,0-40,10.6-29.2,66.5s23.6,82.8,52.8,90.8c21.3,5.3,8.3-8.3,48.2,2.4
		c39.9,10.6,71.9-85.2,71.9-106.4s-10.6-58.7-45.2-56c-34.6,2.7-50.6,0-50.6,0S927.8,818,919.8,823.3z"/>
	<path class="st48" d="M962.6,883.1c0,0-9.6,2.6-7,16s6.4,19.2,13.4,21.1c5.1,1.3,2.5-2.2,12.1,0.3c9.6,2.6,16-19.5,16-24.6
		s-2.6-14.1-10.9-13.4c-4,0.4-8.1,0.4-12.1,0C974.1,882.4,964.5,881.8,962.6,883.1z"/>
	<path class="st49" d="M970.9,892.7c0,0-11.7,5.8-8.8,8.8S967.9,907.3,970.9,892.7z"/>
	<path class="st49" d="M982.1,892.7c0,0,11.7,5.8,8.8,8.8C987.9,904.4,985,907.3,982.1,892.7z"/>
	<path class="st50" d="M1029.2,822.7c0,0,26.3,8.8,29.2,52.5c2.9,43.8-40.8,96.3-46.7,102.1C1020.5,959.8,1073,875.2,1029.2,822.7z"
		/>
</g>
<g>
	<path class="st51" d="M1214.5,179.8c0,0-13.4,13.2-19.8,11.4c-6.4-1.8-18.9-4.7-15.4-16.9C1182.8,162.1,1196.8,157.1,1214.5,179.8z
		"/>
	<path class="st52" d="M1184.4,180.7c4.2,2.5,9.1,3.9,14,3.9C1198.4,184.6,1185.9,181.1,1184.4,180.7z"/>
	<path class="st51" d="M1252.8,187.2c0,0-13.3,13.2-19.7,11.4c-6.4-1.8-18.9-4.7-15.4-16.9C1221.2,169.5,1235.1,164.6,1252.8,187.2z
		"/>
	<path class="st52" d="M1222.8,188c4.2,2.5,9.1,3.8,14,3.9C1236.7,191.9,1224.3,188.6,1222.8,188z"/>
	<path class="st51" d="M1227.5,129.9c0,0,11.1,15.2,8.4,21.2s-7.4,18-19,12.8S1202.5,144.2,1227.5,129.9z"/>
	<path class="st52" d="M1223.8,159.7c3.1-3.9,5.2-8.5,5.9-13.4C1229.8,146.3,1224.6,158.4,1223.8,159.7z"/>
	<path class="st51" d="M1187.8,117.8c0,0,11.1,15.2,8.4,21.2s-7.4,18-19,12.8C1165.6,146.5,1162.8,132.1,1187.8,117.8z"/>
	<path class="st52" d="M1184.1,147.7c3.1-3.9,5.2-8.5,5.9-13.4C1190.1,134.3,1184.8,146.3,1184.1,147.7z"/>
	<path class="st51" d="M1177.8,192.1c0,0-16.4,9.2-22,5.8c-5.7-3.4-17-9.5-10.5-20.4C1151.8,166.7,1166.9,165.6,1177.8,192.1z"/>
	<path class="st52" d="M1148.8,185c3.5,3.6,7.8,6.2,12.6,7.5C1161.3,192.5,1150,186,1148.8,185z"/>
	<path class="st51" d="M1168.6,158.7c0,0-16.4,9.2-22,5.8s-17-9.5-10.5-20.4C1142.6,133.2,1157.5,132.1,1168.6,158.7z"/>
	<path class="st52" d="M1139.4,151.5c3.5,3.6,7.8,6.1,12.6,7.5C1152,159,1140.7,152.4,1139.4,151.5z"/>
	<path class="st51" d="M1178.9,209.4c0,0,15.1-11.2,21.2-8.4s18,7.3,12.8,18.9S1193.3,234.3,1178.9,209.4z"/>
	<path class="st52" d="M1208.8,212.9c-3.9-3.1-8.6-5.2-13.5-5.9C1195.3,207,1207.4,212.1,1208.8,212.9z"/>
	<path class="st51" d="M1244.2,167.2c0,0,3-18.6,9.3-21c6.2-2.4,18-7.3,22.4,4.6C1280.2,162.7,1271.9,175.1,1244.2,167.2z"/>
	<path class="st52" d="M1268.1,148.8c-4.9,0.5-9.7,2.3-13.7,5.1C1254.4,154,1266.5,149.2,1268.1,148.8z"/>
	<path class="st51" d="M1188.5,258.6c0,0,3-18.6,9.3-21c6.2-2.4,18-7.3,22.4,4.6C1224.5,254.2,1216.3,266.5,1188.5,258.6z"/>
	<path class="st52" d="M1212.3,240.2c-4.9,0.5-9.5,2.3-13.5,5.1C1198.8,245.4,1210.7,240.7,1212.3,240.2z"/>
	<path class="st51" d="M1255.9,203.2c0,0,3-18.6,9.2-21s18-7.3,22.4,4.6S1283.6,211,1255.9,203.2z"/>
	<path class="st52" d="M1279.7,184.8c-4.9,0.5-9.7,2.3-13.7,5.1C1266,189.9,1278.1,185.2,1279.7,184.8z"/>
	<path class="st51" d="M1272.2,218.1c0,0,18.4,3.7,20.5,10s6.6,18.3-5.4,22.2S1263.2,245.4,1272.2,218.1z"/>
	<path class="st52" d="M1289.6,242.5c-0.3-5-1.9-9.8-4.6-14C1285,228.5,1289.2,240.9,1289.6,242.5z"/>
	<path class="st51" d="M1290.3,153.1c0,0,18.4,3.7,20.5,10s6.7,18.3-5.4,22.2S1281.4,180.7,1290.3,153.1z"/>
	<path class="st52" d="M1307.8,177.6c-0.3-5-1.9-9.8-4.6-14C1303.1,163.7,1307.4,176.1,1307.8,177.6z"/>
	<path class="st51" d="M1114.9,177.6c0,0,18.4,3.5,20.5,10s6.7,18.3-5.4,22.2S1106,205.1,1114.9,177.6z"/>
	<path class="st52" d="M1132.4,202.1c-0.3-5-1.9-9.8-4.6-14C1127.8,188.1,1131.9,200.5,1132.4,202.1z"/>
	<path class="st51" d="M1278.6,112.1c0,0,18.4,3.7,20.5,10c2.1,6.3,6.7,18.3-5.4,22.2C1281.7,148.3,1269.8,139.5,1278.6,112.1z"/>
	<path class="st52" d="M1296.1,136.6c-0.3-5-1.9-9.8-4.6-14C1291.5,122.6,1295.7,135,1296.1,136.6z"/>
	<path class="st51" d="M1222.8,232.2c0,0,3-18.5,9.2-21c6.2-2.4,18-7.3,22.4,4.6C1258.7,227.8,1250.4,240.1,1222.8,232.2z"/>
	<path class="st52" d="M1246.6,213.9c-4.9,0.5-9.7,2.3-13.7,5.2C1232.9,219.1,1245,214.3,1246.6,213.9z"/>
	<path class="st51" d="M1235,126.2c0,0,3-18.6,9.2-21s18-7.3,22.4,4.6C1270.9,121.7,1262.6,134.1,1235,126.2z"/>
	<path class="st52" d="M1258.7,107.8c-4.9,0.5-9.6,2.2-13.7,5.1C1245.1,113,1257.2,108.2,1258.7,107.8z"/>
	<path class="st51" d="M1198,89.3c0,0,18.6-2.7,22.6,2.6c4.1,5.2,12.4,15,2.4,22.7C1213,122.4,1198.8,118.1,1198,89.3z"/>
	<path class="st52" d="M1222.7,106.5c-1.9-4.6-5.1-8.5-9-11.5C1213.7,95,1221.8,105.2,1222.7,106.5z"/>
	<path class="st51" d="M1146.4,210.7c0,0,18.6-2.7,22.7,2.5s12.4,15,2.4,22.7C1161.4,243.7,1147.3,239.4,1146.4,210.7z"/>
	<path class="st52" d="M1171.1,227.8c-2-4.6-5.1-8.5-9-11.5C1162.1,216.3,1170.2,226.5,1171.1,227.8z"/>
</g>
</svg>
