<?xml version="1.0" encoding="utf-8"?>
<!-- Generator: Adobe Illustrator 24.0.3, SVG Export Plug-In . SVG Version: 6.00 Build 0)  -->
<svg version="1.1" id="Layer_1" xmlns="http://www.w3.org/2000/svg" xmlns:xlink="http://www.w3.org/1999/xlink" x="0px" y="0px"
	 viewBox="0 0 1700 1080" style="enable-background:new 0 0 1700 1080;" xml:space="preserve">
<style type="text/css">
	.st0{fill:#DA3732;stroke:#000000;stroke-linejoin:round;}
	.st1{fill:#442222;stroke:#000000;stroke-linejoin:round;}
	.st2{fill:#819120;stroke:#000000;stroke-linejoin:round;}
	.st3{fill:#8E6A21;stroke:#000000;stroke-linejoin:round;}
	.st4{fill:#9933CC;stroke:#000000;stroke-width:0.8;stroke-miterlimit:10;}
	.st5{fill:#FFCC33;stroke:#000000;stroke-width:0.8;stroke-linecap:round;stroke-linejoin:round;}
	.st6{fill:#E08122;stroke:#000000;stroke-width:0.8;stroke-miterlimit:10;}
	.st7{fill:#669933;stroke:#000000;stroke-width:0.4;stroke-miterlimit:10;}
	.st8{fill:#7A5D3D;stroke:#000000;stroke-miterlimit:10;}
	.st9{fill:#FFCC33;}
	.st10{fill:#FFEC00;}
	.st11{fill:#A37D57;}
	.st12{fill:#DA3732;stroke:#000000;stroke-width:0.85;stroke-linejoin:round;}
	.st13{fill:#442222;stroke:#000000;stroke-width:0.85;stroke-linejoin:round;}
	.st14{fill:#819120;stroke:#000000;stroke-width:0.85;stroke-linejoin:round;}
	.st15{fill:#8E6A21;stroke:#000000;stroke-width:0.85;stroke-linejoin:round;}
	.st16{fill:#9933CC;stroke:#000000;stroke-width:0.68;stroke-miterlimit:10;}
	.st17{fill:#FFCC33;stroke:#000000;stroke-width:0.68;stroke-linecap:round;stroke-linejoin:round;}
	.st18{fill:#E08122;stroke:#000000;stroke-width:0.68;stroke-miterlimit:10;}
	.st19{fill:#669933;stroke:#000000;stroke-width:0.34;stroke-miterlimit:10;}
	.st20{fill:#7A5D3D;stroke:#000000;stroke-width:0.85;stroke-miterlimit:10;}
	.st21{stroke:#000000;stroke-linejoin:round;}
	.st22{fill:#DA3732;stroke:#000000;stroke-width:0.7721;stroke-linejoin:round;}
	.st23{fill:#DE543E;}
	.st24{fill:#AB2925;}
	.st25{fill:#E27F68;}
	.st26{fill:#A5C058;}
	.st27{fill:#006837;}
	.st28{fill:#72974F;}
	.st29{fill:#D7DC84;}
	.st30{fill:#E27F68;stroke:#000000;stroke-width:0.7721;stroke-linecap:round;stroke-linejoin:round;}
	.st31{stroke:#000000;stroke-width:0.7721;stroke-linecap:round;stroke-linejoin:round;}
	.st32{fill:#A82925;}
	.st33{fill:#DA3732;stroke:#000000;stroke-width:1.3143;stroke-linejoin:round;}
	.st34{fill:#E27F68;stroke:#000000;stroke-width:1.3143;stroke-linecap:round;stroke-linejoin:round;}
	.st35{stroke:#000000;stroke-width:1.3143;stroke-linecap:round;stroke-linejoin:round;}
	.st36{opacity:0.7;fill:none;stroke:#000000;stroke-width:16.306;stroke-miterlimit:10;enable-background:new    ;}
	.st37{fill:#336600;stroke:#000000;stroke-width:1.3569;stroke-linecap:round;stroke-linejoin:round;}
	.st38{fill:#E27F68;stroke:#000000;stroke-width:1.3569;stroke-linecap:round;stroke-linejoin:round;}
	.st39{fill:#DA3732;stroke:#000000;stroke-width:1.3569;stroke-linejoin:round;}
	.st40{fill:#EFE8BB;}
	.st41{opacity:0.28;fill:#ADA471;enable-background:new    ;}
	.st42{fill:#722A0D;stroke:#000000;stroke-width:1.3569;stroke-linejoin:round;}
	.st43{fill:#EFDF9C;}
	.st44{fill:#ECE1BA;stroke:#B39D6A;stroke-miterlimit:10;}
	.st45{opacity:0.72;fill:#ECE1BA;stroke:#B39D6A;stroke-width:0.81;stroke-linejoin:bevel;enable-background:new    ;}
</style>
<g id="fruits">
	<path class="st0" d="M341.6,77.9c0,0-40.7,12.2-24.4,36.6c10.3,14.6,26.8,23.7,44.7,24.4c0,0,44.7-12.2,44.7-28.5
		S390.3,61.6,370,57.5C354.1,54.4,349.7,57.6,341.6,77.9z"/>
	<polygon class="st1" points="333.5,65.7 341.6,77.9 341.6,61.7 	"/>
	<path class="st2" d="M455.2,107.1c0,0-24-35.1-42.3-12.2c-10.9,14.3-14.5,32.8-9.7,50.1c0,0,24.4,31.4,40.1,26.5
		c15.7-4.9,40.7-24.3,39.9-43.3C482.5,111.8,477,108.7,455.2,107.1z"/>
	<polygon class="st3" points="464.3,95.7 455.2,107.1 470.7,102.2 	"/>
	<circle class="st4" cx="382.3" cy="147.1" r="12.2"/>
	<circle class="st4" cx="370.1" cy="130.8" r="12.2"/>
	<circle class="st4" cx="361.9" cy="151.1" r="12.2"/>
	<circle class="st4" cx="394.5" cy="126.7" r="12.2"/>
	<circle class="st4" cx="378.2" cy="110.5" r="12.2"/>
	<circle class="st4" cx="357.9" cy="110.5" r="12.2"/>
	<circle class="st4" cx="402.6" cy="147.1" r="12.2"/>
	<circle class="st4" cx="386.3" cy="163.4" r="12.2"/>
	<circle class="st4" cx="370.1" cy="163.4" r="12.2"/>
	<circle class="st4" cx="349.7" cy="134.9" r="12.2"/>
	<circle class="st4" cx="349.7" cy="151.1" r="12.2"/>
	<circle class="st4" cx="345.7" cy="163.4" r="12.2"/>
	<circle class="st4" cx="370.1" cy="143" r="12.2"/>
	<circle class="st4" cx="390.4" cy="138.9" r="12.2"/>
	<circle class="st4" cx="370.1" cy="126.7" r="12.2"/>
	<path class="st5" d="M508.4,106.4c-2.4-5.1-3.8-10.6-4.1-16.3c0-8.1,12.2-16.3,12.2-8.1c0,8.1-4.1,24.4,4.1,32.5
		c8.1,8.1,2.4,25.1,0,28.5c-7,9.9-15,20.3-19.9,26.6c-3.3,4.3-7.7,7.6-12.7,9.6c-16.6,6.7-55.3,18-89.5-3.7c0,0-4.1-4.1,4.1-8.1
		c8.1-4.1,28.5,0,44.7-4.1c16.3-4.1,36.6-24.4,44.7-36.6C500.1,114.5,508.4,114.5,508.4,106.4z"/>
	<ellipse class="st6" cx="286.7" cy="157.3" rx="48.8" ry="44.7"/>
	<ellipse class="st7" cx="272.5" cy="132.8" rx="6.1" ry="4.1"/>
	<ellipse class="st7" cx="264.3" cy="136.9" rx="6.1" ry="4.1"/>
	<ellipse class="st7" cx="264.3" cy="132.8" rx="6.1" ry="4.1"/>
	<path class="st8" d="M221.6,177.6h317.2l0,0v20.1c0,36.1-29.2,65.3-65.3,65.3H286.9c-36.1,0-65.3-29.2-65.3-65.3l0,0L221.6,177.6
		L221.6,177.6z"/>
	<path class="st9" d="M294.8,128.8c15.4,6.1,26.3,20.1,28.5,36.6c0,0,8.1-20.3-8.1-32.5C301.8,122.8,294.8,128.8,294.8,128.8z"/>
	<path class="st10" d="M510.4,132.8c0,0-12.2,32.5-20.3,36.6c0,0,20.3-16.3,24.4-28.5c2.5-6.5,2.5-13.8,0-20.3L510.4,132.8z"/>
	<path class="st11" d="M528.7,189.8H488c0,0-4.1,61-16.3,65.1C471.8,254.9,528.7,242.7,528.7,189.8z"/>
</g>
<g id="fruits_1_">
	<path class="st12" d="M1233.2,372.6c0,0-34.6,10.4-20.7,31.1c8.8,12.4,22.8,20.1,38,20.7c0,0,38-10.4,38-24.2s-13.9-41.5-31.1-45
		C1243.8,352.6,1240.1,355.3,1233.2,372.6z"/>
	<polygon class="st13" points="1226.3,362.2 1233.2,372.6 1233.2,358.7 	"/>
	<path class="st14" d="M1329.8,397.4c0,0-20.4-29.8-36-10.4c-9.3,12.2-12.3,27.9-8.2,42.6c0,0,20.7,26.7,34.1,22.5
		c13.3-4.2,34.6-20.7,33.9-36.9C1353,401.4,1348.3,398.7,1329.8,397.4z"/>
	<polygon class="st15" points="1337.5,387.6 1329.8,397.4 1342.9,393.1 	"/>
	<circle class="st16" cx="1267.8" cy="431.3" r="10.4"/>
	<circle class="st16" cx="1257.4" cy="417.5" r="10.4"/>
	<circle class="st16" cx="1250.5" cy="434.8" r="10.4"/>
	<circle class="st16" cx="1278.2" cy="414" r="10.4"/>
	<circle class="st16" cx="1264.3" cy="400.2" r="10.4"/>
	<circle class="st16" cx="1247.1" cy="400.2" r="10.4"/>
	<circle class="st16" cx="1285.1" cy="431.3" r="10.4"/>
	<circle class="st16" cx="1271.2" cy="445.1" r="10.4"/>
	<circle class="st16" cx="1257.4" cy="445.1" r="10.4"/>
	<circle class="st16" cx="1240.1" cy="420.9" r="10.4"/>
	<circle class="st16" cx="1240.1" cy="434.8" r="10.4"/>
	<circle class="st16" cx="1236.7" cy="445.1" r="10.4"/>
	<circle class="st16" cx="1257.4" cy="427.9" r="10.4"/>
	<circle class="st16" cx="1274.7" cy="424.4" r="10.4"/>
	<circle class="st16" cx="1257.4" cy="414" r="10.4"/>
	<path class="st17" d="M1375,396.8c-2-4.3-3.2-9-3.5-13.9c0-6.9,10.4-13.9,10.4-6.9s-3.5,20.7,3.5,27.6s2,21.3,0,24.2
		c-5.9,8.4-12.7,17.3-16.9,22.6c-2.8,3.7-6.5,6.5-10.8,8.2c-14.1,5.7-47,15.3-76.1-3.1c0,0-3.5-3.5,3.5-6.9c6.9-3.5,24.2,0,38-3.5
		c13.9-3.5,31.1-20.7,38-31.1C1367.9,403.7,1375,403.7,1375,396.8z"/>
	<ellipse class="st18" cx="1186.5" cy="440" rx="41.5" ry="38"/>
	<ellipse class="st19" cx="1174.5" cy="419.2" rx="5.2" ry="3.5"/>
	<ellipse class="st19" cx="1167.5" cy="422.7" rx="5.2" ry="3.5"/>
	<ellipse class="st19" cx="1167.5" cy="419.2" rx="5.2" ry="3.5"/>
	<path class="st20" d="M1131.2,457.2h269.6l0,0v17.1c0,30.7-24.8,55.5-55.5,55.5h-158.6c-30.7,0-55.5-24.8-55.5-55.5l0,0
		L1131.2,457.2L1131.2,457.2z"/>
	<path class="st9" d="M1193.4,415.7c13.1,5.2,22.4,17.1,24.2,31.1c0,0,6.9-17.3-6.9-27.6C1199.4,410.7,1193.4,415.7,1193.4,415.7z"
		/>
	<path class="st10" d="M1376.7,419.2c0,0-10.4,27.6-17.3,31.1c0,0,17.3-13.9,20.7-24.2c2.1-5.5,2.1-11.7,0-17.3L1376.7,419.2z"/>
	<path class="st11" d="M1392.2,467.6h-34.6c0,0-3.5,51.8-13.9,55.3C1343.9,522.9,1392.2,512.5,1392.2,467.6z"/>
</g>
<title>Artboard 3</title>
<path class="st21" d="M699.9,203.2c0,0,111.4-69.3,183.7-60.2c0,0-36.1-30.1-69.3-36.1c0,0,108.4,3,162.6,54.2
	c0,0-102.4,18.1-114.4,90.3c0,0,3-63.2,24.1-84.3C886.6,167.1,772.2,170.1,699.9,203.2z"/>
<g id="apple">
	<path class="st22" d="M336.6,376.9c0,0-43.1,11.5-31.7,71.9c11.5,60.4,28.8,86.3,60.4,94.9c23,5.8,5.8-5.8,48.9,5.8
		c43.1,11.5,77.7-92.1,77.7-115S480.5,371.1,443,374c-37.3,2.9-54.6,0-54.6,0S345.2,371.1,336.6,376.9z"/>
	<path class="st23" d="M369.7,398.4c0,0,31.7,17.3,48.9,14.4s34.5-17.3,40.2-5.8c5.8,11.5,11.5,17.3,0,46
		c-11.5,28.8-46,83.4-92.1,80.5c-46-2.9-69-103.6-48.9-135.2C338,366.8,369.7,398.4,369.7,398.4z"/>
	<path class="st24" d="M361,392.7c0,0,54.6-14.4,54.6,0c0,14.4-14.3,14.4-14.3,14.4S381.2,392.7,361,392.7z"/>
	<path class="st25" d="M471.8,414.3c0,0-17.3-46-106.4-23c0,0,57.5,17.3,54.6,28.8c-2.9,11.5-37.3,0-69-2.9s-11.5,97.8,2.9,112.1
		c-23-20.2-57.5-77.7-34.5-132.3c23-31.7,77.7-14.4,100.7-17.3C443,376.9,468.9,385.5,471.8,414.3z"/>
	<g>
		<path class="st26" d="M320.8,323.6c0,0,14.4,54.6,31.7,60.4c17.3,5.8,34.5,5.8,40.2,11.5l5.8-5.8c0,0-11.5-11.5-11.5-14.4
			s-5.8-34.5-28.8-40.2C345.5,332.1,333,328.3,320.8,323.6z"/>
		<path class="st27" d="M320.8,323.6c2.9,8.9,5.8,17.8,9.4,26.3c3.3,8.7,7.6,16.9,12.9,24.5c2.4,3.8,5.9,6.7,9.9,8.5
			c4.4,1.4,8.9,2.6,13.4,3.5l13.7,2.7c2.3,0.5,4.6,1.1,6.9,1.8c2.4,0.7,4.7,1.9,6.7,3.7h-2l5.8-5.8v2c-3.3-3.3-6.4-6.8-9.3-10.4
			c-0.8-1-1.4-2-2-3.1c-0.2-0.4-0.3-0.7-0.4-1.1c-0.1-0.2-0.1-0.5-0.1-0.7v-0.4c0-0.4-0.1-1.1-0.2-1.5c-0.4-2.2-0.9-4.3-1.5-6.6
			c-2.3-8.7-6.7-16.7-12.7-23.4c-3.1-3.3-6.9-5.7-11.2-7.1c-2-0.8-4.3-1.3-6.6-1.9c-2.2-0.7-4.4-1.3-6.7-1.9
			C337.9,330.1,329.3,327.2,320.8,323.6z M320.8,323.6c8.6,2.9,17.5,5.6,26.3,7.8l6.7,1.7c2.2,0.6,4.4,1,6.7,1.7
			c4.5,1.4,8.7,3.9,12.1,7.2c6.6,6.8,11.3,15.1,13.8,24.1c0.7,2.2,1.3,4.5,1.6,6.9c0.1,0.6,0.2,1.3,0.2,1.8v0.4l0,0
			c0.1,0.2,0.1,0.4,0.2,0.6c0.5,1,1.2,1.8,1.7,2.6c2.8,3.5,5.9,6.9,9.1,10l1,1l-1,1l-5.8,5.8l-1,1l-1.1-1c-1.6-1.4-3.5-2.4-5.5-3
			c-2.1-0.7-4.3-1.4-6.7-1.7l-13.7-2.9c-4.6-1-9.2-2.2-13.6-3.7c-2.4-0.9-4.5-2.2-6.3-4.1c-1.7-1.6-3.3-3.6-4.6-5.5
			c-5.1-7.9-9.3-16.4-12.4-25.3C325.7,341.6,323,332.7,320.8,323.6z"/>
	</g>
	<path class="st28" d="M330.8,330.9c0,0,34.5,8.6,43.1,20.2c6.2,8.3,11.5,28.8,11.5,28.8s-14.4-23-20.2-28.8
		C359.6,345.3,336.6,330.9,330.8,330.9z"/>
	<path class="st29" d="M330.8,339.5l48.9,46c0,0-31.7-5.8-34.5-14.4C342.4,362.5,330.8,339.5,330.8,339.5z"/>
	<path class="st27" d="M338,340.9c5.2,3.9,10.1,8,15.2,12.2c5,4.1,9.7,8.4,14.6,12.6c4.8,4.2,9.6,8.6,14.2,13.1l6.9,6.8
		c2.2,2.3,4.5,4.6,6.8,6.9c-2.6-1.9-5.1-4-7.6-6l-7.4-6.2c-4.9-4.1-9.7-8.4-14.6-12.7c-4.8-4.2-9.6-8.6-14.2-13.2
		C347,350.1,342.4,345.6,338,340.9z"/>
	<path class="st27" d="M358.2,349.6c1,1.3,1.4,2.9,1.4,4.4c0,1.6-0.5,3.2-1.4,4.4c-1-1.3-1.4-2.8-1.4-4.4
		C356.7,352.4,357.2,350.9,358.2,349.6z"/>
	<path class="st27" d="M365.9,366c-1.3,1.4-3,2.6-4.8,3.2c-1.8,0.7-3.9,0.9-5.8,0.5c1.3-1.4,3-2.6,4.8-3.2
		C362,365.8,364,365.7,365.9,366z"/>
	<path class="st27" d="M377,376c-1.6,1.7-3.7,3.1-5.9,4c-2.2,1-4.6,1.4-7,1.3c3.5-3.5,8.2-5.3,13.1-5.2H377z"/>
	<path class="st27" d="M346.7,349.6c-0.7,0.9-1.7,1.4-2.9,1.4s-2.2-0.6-2.9-1.4c0.7-0.9,1.7-1.4,2.9-1.4S346,348.7,346.7,349.6z"/>
	<path class="st27" d="M370.5,370.2c-2.1-2.5-2.5-6.2-0.8-9.1c1.1,1.2,1.7,2.7,1.8,4.3C371.7,367.1,371.3,368.7,370.5,370.2z"/>
	<path class="st30" d="M420.6,319.4c0,0-36.6,65.1-23.3,77.7c3.3-12.4,9.9-65.1,39.9-68.2C437.2,328.8,420.6,325.7,420.6,319.4z"/>
	<path class="st31" d="M363.9,389.8c0,0,23,2.9,37.3,11.5c14.4,8.6,34.5,2.9,34.5,2.9s-17.3,2.9-25.9-2.9S375.4,384.1,363.9,389.8z"
		/>
	<path class="st32" d="M362.4,538c0,0,23-8.6,46-2.9c23,5.8,77.7-54.6,77.7-97.8c-2.9,63.3-49.5,98.1-54.6,100.7
		c-5.8,2.9-14.4,8.6-24.7,6.1C393.1,540.6,365.3,535.1,362.4,538z"/>
	<path class="st24" d="M420,325.1c1.5,1.5,3.6,2.6,5.8,2.9h-2.9C421.3,328,420,326.7,420,325.1z"/>
</g>
<g id="apple_1_">
	<path class="st33" d="M585.9,754.2c0,0-73.4,19.6-53.9,122.4c19.6,102.8,49,146.9,102.8,161.5c39.1,9.9,9.9-9.9,83.3,9.9
		c73.4,19.6,132.3-156.7,132.3-195.8c0-39.1-19.6-107.8-83.3-102.8c-63.6,4.9-93,0-93,0S600.5,744.5,585.9,754.2z"/>
	<path class="st23" d="M642.1,791c0,0,53.9,29.4,83.3,24.5c29.4-4.9,58.8-29.4,68.5-9.9c9.9,19.6,19.6,29.4,0,78.4
		c-19.6,49-78.4,141.9-156.7,137s-117.5-176.3-83.3-230.2C588.4,737.1,642.1,791,642.1,791z"/>
	<path class="st24" d="M627.5,781.1c0,0,93-24.5,93,0c0,24.5-24.5,24.5-24.5,24.5S661.8,781.1,627.5,781.1z"/>
	<path class="st25" d="M815.9,818c0,0-29.4-78.4-181.2-39.1c0,0,97.9,29.4,93,49c-4.9,19.6-63.6,0-117.5-4.9
		c-53.9-4.9-19.6,166.4,4.9,190.9c-39.1-34.3-97.9-132.3-58.8-225.2c39.3-53.9,132.3-24.5,171.5-29.4C766.9,754.2,811,769,815.9,818
		z"/>
	<g>
		<path class="st26" d="M559,663.7c0,0,24.5,93,53.9,102.8c29.4,9.9,58.8,9.9,68.5,19.6l9.9-9.9c0,0-19.6-19.6-19.6-24.5
			s-9.9-58.8-49-68.5C601,678,579.7,671.6,559,663.7z"/>
		<path class="st27" d="M559,663.7c4.9,15.1,9.9,30.2,15.9,44.9c5.6,14.8,13,28.8,22,41.7c4.1,6.4,10,11.3,16.9,14.5
			c7.6,2.5,15.1,4.4,22.8,5.9l23.3,4.6c3.9,0.8,7.9,1.8,11.8,3.1c4.1,1.2,8.1,3.3,11.3,6.2h-3.5l9.9-9.9v3.5
			c-5.6-5.6-10.8-11.5-15.8-17.7c-1.3-1.6-2.5-3.5-3.5-5.3c-0.3-0.7-0.5-1.2-0.7-1.8c-0.2-0.3-0.2-0.8-0.2-1.2v-0.7
			c0-0.7-0.2-1.8-0.3-2.6c-0.7-3.8-1.5-7.4-2.6-11.2c-3.9-14.8-11.3-28.4-21.7-39.8c-5.3-5.6-11.8-9.7-19.1-12.2
			c-3.5-1.3-7.4-2.1-11.2-3.3c-3.8-1.2-7.6-2.1-11.3-3.3C588.2,674.7,573.2,669.8,559,663.7z M559,663.7
			c14.6,4.9,29.7,9.5,44.9,13.3l11.3,3c3.8,1,7.6,1.6,11.3,3c7.7,2.5,14.8,6.6,20.5,12.3c11.2,11.5,19.2,25.6,23.5,41.1
			c1.2,3.8,2.1,7.7,2.8,11.7c0.2,1,0.3,2.1,0.3,3.1v0.7l0,0c0.2,0.3,0.2,0.7,0.3,1c0.8,1.6,2,3.1,3,4.4c4.8,5.9,10,11.7,15.4,17.1
			l1.6,1.6l-1.6,1.6l-9.9,9.9l-1.6,1.6l-1.8-1.6c-2.8-2.3-5.9-4.1-9.4-5.1c-3.6-1.2-7.4-2.3-11.3-3l-23.3-4.9
			c-7.9-1.6-15.6-3.8-23.2-6.2c-4.1-1.5-7.7-3.8-10.7-6.9c-3-2.8-5.6-6.1-7.9-9.4c-8.7-13.5-15.8-27.9-21-43
			C567.2,694.2,562.6,679,559,663.7z"/>
	</g>
	<path class="st28" d="M576,675.8c0,0,58.8,14.6,73.4,34.3c10.5,14.1,19.6,49,19.6,49s-24.5-39.1-34.3-49
		C624.8,700.3,585.9,675.8,576,675.8z"/>
	<path class="st29" d="M576,690.6l83.3,78.4c0,0-53.9-9.9-58.8-24.5C595.6,729.7,576,690.6,576,690.6z"/>
	<path class="st27" d="M588.4,693.1c8.9,6.6,17.3,13.6,25.8,20.7c8.4,7.1,16.6,14.3,24.8,21.5c8.2,7.2,16.3,14.6,24.2,22.3
		l11.8,11.5c3.8,3.9,7.7,7.9,11.5,11.8c-4.4-3.3-8.7-6.7-13-10.2l-12.7-10.5c-8.4-7.1-16.6-14.3-24.8-21.7
		c-8.2-7.2-16.3-14.6-24.2-22.5C603.6,708.7,595.6,701.1,588.4,693.1z"/>
	<path class="st27" d="M622.5,707.7c1.6,2.1,2.5,4.9,2.5,7.6c0,2.8-0.8,5.4-2.5,7.6c-1.6-2.1-2.5-4.8-2.5-7.6
		C620.1,712.6,620.9,709.8,622.5,707.7z"/>
	<path class="st27" d="M635.8,735.8c-2.1,2.5-5.1,4.4-8.2,5.4c-3.1,1.2-6.6,1.5-9.9,0.8c2.1-2.5,5.1-4.4,8.2-5.4
		C629.1,735.5,632.6,735.1,635.8,735.8z"/>
	<path class="st27" d="M654.7,752.7c-2.8,3-6.2,5.3-10,6.7c-3.8,1.6-7.9,2.3-12,2.1c5.9-5.9,14-9,22.3-8.9L654.7,752.7L654.7,752.7z
		"/>
	<path class="st27" d="M603.1,707.7c-1.2,1.5-3,2.5-4.9,2.5s-3.8-1-4.9-2.5c1.2-1.5,3-2.5,4.9-2.5
		C600.2,705.4,602,706.2,603.1,707.7z"/>
	<path class="st27" d="M643.6,742.7c-3.6-4.3-4.3-10.5-1.3-15.4c1.8,2,3,4.6,3.1,7.4C645.5,737.4,645,740.2,643.6,742.7z"/>
	<path class="st34" d="M728.8,656.3c0,0-62.3,110.9-39.6,132.3c5.6-21.2,16.9-110.9,67.9-116.2C757.3,672.2,728.8,667,728.8,656.3z"
		/>
	<path class="st35" d="M632.4,776.2c0,0,39.1,4.9,63.6,19.6c24.5,14.6,58.8,4.9,58.8,4.9s-29.4,4.9-44-4.9S651.9,766.5,632.4,776.2z
		"/>
	<path class="st32" d="M629.9,1028.4c0,0,39.1-14.6,78.4-4.9c39.1,9.9,132.3-93,132.3-166.4c-4.9,107.8-84.3,166.9-93,171.4
		c-9.9,4.9-24.5,14.6-42.1,10.4C682.2,1032.8,634.9,1023.5,629.9,1028.4z"/>
	<path class="st24" d="M727.8,666.1c2.6,2.6,6.1,4.4,9.9,4.9h-4.9C730,671.1,727.8,668.8,727.8,666.1z"/>
</g>
<path d="M740.9,435.3v-21.7h186.3v21.7H740.9z M740.9,505.9v-21.8h186.3v21.7L740.9,505.9z"/>
<line class="st36" x1="77.5" y1="623.1" x2="1622.5" y2="623.1"/>
<g>
	<path class="st37" d="M1058.4,737.1c0,0,8.7-49.7-60-56.8C998.3,680.1,981.2,737.1,1058.4,737.1z"/>
	<path class="st38" d="M1091.8,650.4c0,0-62.9,112.1-40,133.7c5.8-21.5,17.1-112.1,68.5-117.5
		C1120.4,666.5,1091.8,661.3,1091.8,650.4z"/>
	<path class="st39" d="M952.9,740.1c0,0-74.3,19.8-54.4,123.6c19.8,104,44.6,153.3,98.9,168.3c39.5,9.8,14.9-14.9,89,4.9
		c74.3,19.8,133.7-158.4,133.7-197.9c0-39.5-19.8-108.9-84.1-104c-64.3,4.9-94,0-94,0S967.6,730.3,952.9,740.1z"/>
	<path class="st40" d="M962,752.8c0,0-67.8,18-49.5,112.8c18.3,94.8,40,140.4,89.6,154c36.1,9,14.1-14.1,81.8,4.1
		c67.7,18,122-144.5,122-180.5s-18-99.6-76.7-95c-58.7,4.6-85.8,0-85.8,0S975.6,743.9,962,752.8z"/>
	<path class="st41" d="M1034.6,854.3c0,0-16.3,4.4-11.9,27.1c4.4,22.7,10.9,32.6,22.7,35.8c8.7,2.2,4.2-3.7,20.5,0.5
		c16.3,4.4,27.1-33.1,27.1-41.7c0-8.7-4.4-23.9-18.5-22.7c-6.8,0.7-13.7,0.7-20.5,0C1054.1,853.1,1037.8,852.1,1034.6,854.3z"/>
	<path class="st42" d="M1048.7,870.6c0,0-19.8,9.8-14.9,14.9C1038.7,890.6,1043.6,895.3,1048.7,870.6z"/>
	<path class="st42" d="M1067.7,870.6c0,0,19.8,9.8,14.9,14.9C1077.5,890.4,1072.6,895.3,1067.7,870.6z"/>
	<path class="st43" d="M1147.6,751.8c0,0,44.6,14.9,49.5,89c4.9,74.3-69.2,163.3-79.2,173.2C1132.8,984.4,1221.9,840.9,1147.6,751.8
		z"/>
</g>
<g>
	<path class="st44" d="M1214.5,179.8c0,0-13.4,13.2-19.8,11.4c-6.4-1.8-18.9-4.7-15.4-16.9C1182.8,162.1,1196.8,157.1,1214.5,179.8z
		"/>
	<path class="st45" d="M1184.4,180.7c4.2,2.5,9.1,3.9,14,3.9C1198.4,184.6,1185.9,181.1,1184.4,180.7z"/>
	<path class="st44" d="M1252.8,187.2c0,0-13.3,13.2-19.7,11.4c-6.4-1.8-18.9-4.7-15.4-16.9C1221.2,169.5,1235.1,164.6,1252.8,187.2z
		"/>
	<path class="st45" d="M1222.8,188c4.2,2.5,9.1,3.8,14,3.9C1236.7,191.9,1224.3,188.6,1222.8,188z"/>
	<path class="st44" d="M1227.5,129.9c0,0,11.1,15.2,8.4,21.2s-7.4,18-19,12.8S1202.5,144.2,1227.5,129.9z"/>
	<path class="st45" d="M1223.8,159.7c3.1-3.9,5.2-8.5,5.9-13.4C1229.8,146.3,1224.6,158.4,1223.8,159.7z"/>
	<path class="st44" d="M1187.8,117.8c0,0,11.1,15.2,8.4,21.2s-7.4,18-19,12.8C1165.6,146.5,1162.8,132.1,1187.8,117.8z"/>
	<path class="st45" d="M1184.1,147.7c3.1-3.9,5.2-8.5,5.9-13.4C1190.1,134.3,1184.8,146.3,1184.1,147.7z"/>
	<path class="st44" d="M1177.8,192.1c0,0-16.4,9.2-22,5.8c-5.7-3.4-17-9.5-10.5-20.4C1151.8,166.7,1166.9,165.6,1177.8,192.1z"/>
	<path class="st45" d="M1148.8,185c3.5,3.6,7.8,6.2,12.6,7.5C1161.3,192.5,1150,186,1148.8,185z"/>
	<path class="st44" d="M1168.6,158.7c0,0-16.4,9.2-22,5.8s-17-9.5-10.5-20.4C1142.6,133.2,1157.5,132.1,1168.6,158.7z"/>
	<path class="st45" d="M1139.4,151.5c3.5,3.6,7.8,6.1,12.6,7.5C1152,159,1140.7,152.4,1139.4,151.5z"/>
	<path class="st44" d="M1178.9,209.4c0,0,15.1-11.2,21.2-8.4s18,7.3,12.8,18.9S1193.3,234.3,1178.9,209.4z"/>
	<path class="st45" d="M1208.8,212.9c-3.9-3.1-8.6-5.2-13.5-5.9C1195.3,207,1207.4,212.1,1208.8,212.9z"/>
	<path class="st44" d="M1244.2,167.2c0,0,3-18.6,9.3-21c6.2-2.4,18-7.3,22.4,4.6C1280.2,162.7,1271.9,175.1,1244.2,167.2z"/>
	<path class="st45" d="M1268.1,148.8c-4.9,0.5-9.7,2.3-13.7,5.1C1254.4,154,1266.5,149.2,1268.1,148.8z"/>
	<path class="st44" d="M1188.5,258.6c0,0,3-18.6,9.3-21c6.2-2.4,18-7.3,22.4,4.6C1224.5,254.2,1216.3,266.5,1188.5,258.6z"/>
	<path class="st45" d="M1212.3,240.2c-4.9,0.5-9.5,2.3-13.5,5.1C1198.8,245.4,1210.7,240.7,1212.3,240.2z"/>
	<path class="st44" d="M1255.9,203.2c0,0,3-18.6,9.2-21s18-7.3,22.4,4.6S1283.6,211,1255.9,203.2z"/>
	<path class="st45" d="M1279.7,184.8c-4.9,0.5-9.7,2.3-13.7,5.1C1266,189.9,1278.1,185.2,1279.7,184.8z"/>
	<path class="st44" d="M1272.2,218.1c0,0,18.4,3.7,20.5,10s6.6,18.3-5.4,22.2S1263.2,245.4,1272.2,218.1z"/>
	<path class="st45" d="M1289.6,242.5c-0.3-5-1.9-9.8-4.6-14C1285,228.5,1289.2,240.9,1289.6,242.5z"/>
	<path class="st44" d="M1290.3,153.1c0,0,18.4,3.7,20.5,10s6.7,18.3-5.4,22.2S1281.4,180.7,1290.3,153.1z"/>
	<path class="st45" d="M1307.8,177.6c-0.3-5-1.9-9.8-4.6-14C1303.1,163.7,1307.4,176.1,1307.8,177.6z"/>
	<path class="st44" d="M1114.9,177.6c0,0,18.4,3.5,20.5,10s6.7,18.3-5.4,22.2S1106,205.1,1114.9,177.6z"/>
	<path class="st45" d="M1132.4,202.1c-0.3-5-1.9-9.8-4.6-14C1127.8,188.1,1131.9,200.5,1132.4,202.1z"/>
	<path class="st44" d="M1278.6,112.1c0,0,18.4,3.7,20.5,10c2.1,6.3,6.7,18.3-5.4,22.2C1281.7,148.3,1269.8,139.5,1278.6,112.1z"/>
	<path class="st45" d="M1296.1,136.6c-0.3-5-1.9-9.8-4.6-14C1291.5,122.6,1295.7,135,1296.1,136.6z"/>
	<path class="st44" d="M1222.8,232.2c0,0,3-18.5,9.2-21c6.2-2.4,18-7.3,22.4,4.6C1258.7,227.8,1250.4,240.1,1222.8,232.2z"/>
	<path class="st45" d="M1246.6,213.9c-4.9,0.5-9.7,2.3-13.7,5.2C1232.9,219.1,1245,214.3,1246.6,213.9z"/>
	<path class="st44" d="M1235,126.2c0,0,3-18.6,9.2-21s18-7.3,22.4,4.6C1270.9,121.7,1262.6,134.1,1235,126.2z"/>
	<path class="st45" d="M1258.7,107.8c-4.9,0.5-9.6,2.2-13.7,5.1C1245.1,113,1257.2,108.2,1258.7,107.8z"/>
	<path class="st44" d="M1198,89.3c0,0,18.6-2.7,22.6,2.6c4.1,5.2,12.4,15,2.4,22.7C1213,122.4,1198.8,118.1,1198,89.3z"/>
	<path class="st45" d="M1222.7,106.5c-1.9-4.6-5.1-8.5-9-11.5C1213.7,95,1221.8,105.2,1222.7,106.5z"/>
	<path class="st44" d="M1146.4,210.7c0,0,18.6-2.7,22.7,2.5s12.4,15,2.4,22.7C1161.4,243.7,1147.3,239.4,1146.4,210.7z"/>
	<path class="st45" d="M1171.1,227.8c-2-4.6-5.1-8.5-9-11.5C1162.1,216.3,1170.2,226.5,1171.1,227.8z"/>
</g>
</svg>
