<?xml version="1.0" encoding="utf-8"?>
<!-- Generator: Adobe Illustrator 24.0.3, SVG Export Plug-In . SVG Version: 6.00 Build 0)  -->
<svg version="1.1" id="Layer_1" xmlns="http://www.w3.org/2000/svg" xmlns:xlink="http://www.w3.org/1999/xlink" x="0px" y="0px"
	 viewBox="0 0 1700 1080" style="enable-background:new 0 0 1700 1080;" xml:space="preserve">
<style type="text/css">
	.st0{opacity:0.51;fill:#226999;enable-background:new    ;}
	.st1{fill:#DA3732;stroke:#000000;stroke-width:0.7506;stroke-linejoin:round;}
	.st2{fill:#442222;stroke:#000000;stroke-width:0.7506;stroke-linejoin:round;}
	.st3{fill:#819120;stroke:#000000;stroke-width:0.7506;stroke-linejoin:round;}
	.st4{fill:#8E6A21;stroke:#000000;stroke-width:0.7506;stroke-linejoin:round;}
	.st5{fill:#9933CC;stroke:#000000;stroke-width:0.6005;stroke-miterlimit:10;}
	.st6{fill:#FFCC33;stroke:#000000;stroke-width:0.6005;stroke-linecap:round;stroke-linejoin:round;}
	.st7{fill:#E08122;stroke:#000000;stroke-width:0.6005;stroke-miterlimit:10;}
	.st8{fill:#669933;stroke:#000000;stroke-width:0.3002;stroke-miterlimit:10;}
	.st9{fill:#7A5D3D;stroke:#000000;stroke-width:0.7506;stroke-miterlimit:10;}
	.st10{fill:#FFCC33;}
	.st11{fill:#FFEC00;}
	.st12{fill:#A37D57;}
	.st13{stroke:#000000;stroke-width:0.7564;stroke-linejoin:round;}
	.st14{enable-background:new    ;}
	.st15{opacity:0.53;}
	.st16{fill:#FFFFFF;}
	.st17{font-family:'CarterOne';}
	.st18{font-size:80.8875px;}
	.st19{fill:#ECE1BA;stroke:#B39D6A;stroke-width:0.981;stroke-miterlimit:10;}
	.st20{opacity:0.72;fill:#ECE1BA;stroke:#B39D6A;stroke-width:0.7946;stroke-linejoin:bevel;enable-background:new    ;}
	.st21{opacity:0.51;fill:#999923;enable-background:new    ;}
	.st22{fill:#DA3732;stroke:#000000;stroke-width:0.5684;stroke-linejoin:round;}
	.st23{fill:#DE543E;}
	.st24{fill:#AB2925;}
	.st25{fill:#E27F68;}
	.st26{fill:#A5C058;}
	.st27{fill:#006837;}
	.st28{fill:#72974F;}
	.st29{fill:#D7DC84;}
	.st30{fill:#E27F68;stroke:#000000;stroke-width:0.5684;stroke-linecap:round;stroke-linejoin:round;}
	.st31{stroke:#000000;stroke-width:0.5684;stroke-linecap:round;stroke-linejoin:round;}
	.st32{fill:#A82925;}
	.st33{fill:#DA3732;stroke:#000000;stroke-width:0.8445;stroke-linejoin:round;}
	.st34{fill:#442222;stroke:#000000;stroke-width:0.8445;stroke-linejoin:round;}
	.st35{fill:#819120;stroke:#000000;stroke-width:0.8445;stroke-linejoin:round;}
	.st36{fill:#8E6A21;stroke:#000000;stroke-width:0.8445;stroke-linejoin:round;}
	.st37{fill:#9933CC;stroke:#000000;stroke-width:0.6756;stroke-miterlimit:10;}
	.st38{fill:#FFCC33;stroke:#000000;stroke-width:0.6756;stroke-linecap:round;stroke-linejoin:round;}
	.st39{fill:#E08122;stroke:#000000;stroke-width:0.6756;stroke-miterlimit:10;}
	.st40{fill:#669933;stroke:#000000;stroke-width:0.3378;stroke-miterlimit:10;}
	.st41{fill:#7A5D3D;stroke:#000000;stroke-width:0.8445;stroke-miterlimit:10;}
	.st42{display:none;opacity:0.7;fill:none;stroke:#000000;stroke-width:13.243;stroke-miterlimit:10;enable-background:new    ;}
	.st43{display:none;fill:#FFFFFF;}
	.st44{display:none;fill:#C1272D;enable-background:new    ;}
	.st45{font-size:85px;}
	.st46{display:none;}
	.st47{display:inline;opacity:0.51;fill:#259949;enable-background:new    ;}
	.st48{display:inline;enable-background:new    ;}
	.st49{display:inline;}
	.st50{fill:#DA3732;stroke:#000000;stroke-width:0.8284;stroke-linejoin:round;}
	.st51{fill:#E27F68;stroke:#000000;stroke-width:0.8284;stroke-linecap:round;stroke-linejoin:round;}
	.st52{stroke:#000000;stroke-width:0.8284;stroke-linecap:round;stroke-linejoin:round;}
	.st53{fill:#336600;stroke:#000000;stroke-width:0.8284;stroke-linecap:round;stroke-linejoin:round;}
	.st54{fill:#EFE8BB;}
	.st55{opacity:0.28;fill:#ADA471;enable-background:new    ;}
	.st56{fill:#722A0D;stroke:#000000;stroke-width:0.8284;stroke-linejoin:round;}
	.st57{fill:#EFDF9C;}
</style>
<title>Artboard 3</title>
<g>
	<g>
		<path class="st0" d="M1629.2,321H98.8c-23,0-41.7-19.8-41.7-44.5V69.3c0-24.5,18.6-44.5,41.7-44.5h1530.4
			c23,0,41.7,19.8,41.7,44.5v207.4C1670.8,301.2,1652.2,321,1629.2,321z"/>
	</g>
	<g id="fruits">
		<path class="st1" d="M520.9,149.5c0,0-30.5,9.2-18.3,27.5c7.7,11,20.1,17.8,33.6,18.3c0,0,33.6-9.2,33.6-21.4
			s-12.2-36.6-27.5-39.7C530.3,131.8,527,134.3,520.9,149.5z"/>
		<polygon class="st2" points="514.8,140.3 520.9,149.5 520.9,137.3 		"/>
		<path class="st3" d="M606.2,171.4c0,0-18-26.3-31.7-9.2c-8.2,10.7-10.9,24.6-7.3,37.6c0,0,18.3,23.6,30.1,19.9
			c11.8-3.7,30.5-18.2,29.9-32.5C626.7,174.9,622.5,172.6,606.2,171.4z"/>
		<polygon class="st4" points="613,162.8 606.2,171.4 617.8,167.7 		"/>
		<circle class="st5" cx="551.4" cy="201.4" r="9.2"/>
		<circle class="st5" cx="542.3" cy="189.2" r="9.2"/>
		<circle class="st5" cx="536.1" cy="204.4" r="9.2"/>
		<circle class="st5" cx="560.6" cy="186.1" r="9.2"/>
		<circle class="st5" cx="548.4" cy="174" r="9.2"/>
		<circle class="st5" cx="533.1" cy="174" r="9.2"/>
		<circle class="st5" cx="566.7" cy="201.4" r="9.2"/>
		<circle class="st5" cx="554.4" cy="213.7" r="9.2"/>
		<circle class="st5" cx="542.3" cy="213.7" r="9.2"/>
		<circle class="st5" cx="527" cy="192.3" r="9.2"/>
		<circle class="st5" cx="527" cy="204.4" r="9.2"/>
		<circle class="st5" cx="524" cy="213.7" r="9.2"/>
		<circle class="st5" cx="542.3" cy="198.3" r="9.2"/>
		<circle class="st5" cx="557.5" cy="195.3" r="9.2"/>
		<circle class="st5" cx="542.3" cy="186.1" r="9.2"/>
		<path class="st6" d="M646.1,170.9c-1.8-3.8-2.9-8-3.1-12.2c0-6.1,9.2-12.2,9.2-6.1c0,6.1-3.1,18.3,3.1,24.4
			c6.1,6.1,1.8,18.8,0,21.4c-5.3,7.4-11.3,15.2-14.9,20c-2.5,3.2-5.8,5.7-9.5,7.2c-12.5,5-41.5,13.5-67.2-2.8c0,0-3.1-3.1,3.1-6.1
			c6.1-3.1,21.4,0,33.6-3.1c12.2-3.1,27.5-18.3,33.6-27.5C639.9,177,646.1,177,646.1,170.9z"/>
		<ellipse class="st7" cx="479.7" cy="209.1" rx="36.6" ry="33.6"/>
		<ellipse class="st8" cx="469" cy="190.7" rx="4.6" ry="3.1"/>
		<ellipse class="st8" cx="462.9" cy="193.8" rx="4.6" ry="3.1"/>
		<ellipse class="st8" cx="462.9" cy="190.7" rx="4.6" ry="3.1"/>
		<path class="st9" d="M430.8,224.3h238.1l0,0v15.1c0,27.1-21.9,49-49,49H479.8c-27.1,0-49-21.9-49-49l0,0L430.8,224.3L430.8,224.3z
			"/>
		<path class="st10" d="M485.8,187.7c11.6,4.6,19.7,15.1,21.4,27.5c0,0,6.1-15.2-6.1-24.4C491,183.2,485.8,187.7,485.8,187.7z"/>
		<path class="st11" d="M647.6,190.7c0,0-9.2,24.4-15.2,27.5c0,0,15.2-12.2,18.3-21.4c1.9-4.9,1.9-10.4,0-15.2L647.6,190.7z"/>
		<path class="st12" d="M661.3,233.5h-30.5c0,0-3.1,45.8-12.2,48.9C618.6,282.3,661.3,273.2,661.3,233.5z"/>
	</g>
	<path class="st13" d="M800.8,252.4c0,0,84.3-52.4,139-45.5c0,0-27.3-22.8-52.4-27.3c0,0,82,2.3,123,41c0,0-77.5,13.7-86.5,68.3
		c0,0,2.3-47.8,18.2-63.8C942,225.1,855.5,227.4,800.8,252.4z"/>
	<g class="st14">
		<g class="st15">
			<text transform="matrix(1 0 0 1 103.207 116.8206)" class="st16 st17 st18">General Statement 1:  Fruits have seeds. </text>
		</g>
		<g>
			<text transform="matrix(1 0 0 1 96.207 112.8206)" class="st17 st18">General Statement 1:  Fruits have seeds. </text>
		</g>
	</g>
	<g>
		<path class="st19" d="M1252,217.8c0,0-10.6,10.5-15.7,9c-5.1-1.5-14.9-3.7-12.2-13.4C1227,203.8,1238,199.8,1252,217.8z"/>
		<path class="st20" d="M1228.2,218.5c3.3,2,7.2,3,11.1,3.1C1239.3,221.6,1229.5,218.9,1228.2,218.5z"/>
		<path class="st19" d="M1282.4,223.7c0,0-10.6,10.5-15.6,9c-5.1-1.5-15-3.7-12.2-13.4C1257.3,209.7,1268.4,205.7,1282.4,223.7z"/>
		<path class="st20" d="M1258.6,224.3c3.3,2,7.2,3,11.1,3.1C1269.7,227.4,1259.8,224.8,1258.6,224.3z"/>
		<path class="st19" d="M1262.3,178.4c0,0,8.8,12,6.7,16.8c-2.2,4.8-5.9,14.2-15,10.1C1244.8,201,1242.5,189.5,1262.3,178.4z"/>
		<path class="st20" d="M1259.5,201.9c2.5-3,4.1-6.7,4.7-10.6C1264.2,191.3,1260.1,200.8,1259.5,201.9z"/>
		<path class="st19" d="M1230.9,168.6c0,0,8.8,12,6.7,16.8c-2.2,4.8-5.9,14.2-15,10.1S1211.1,180,1230.9,168.6z"/>
		<path class="st20" d="M1228.1,192.4c2.5-3,4.1-6.7,4.7-10.6C1232.7,181.8,1228.6,191.3,1228.1,192.4z"/>
		<path class="st19" d="M1223,227.6c0,0-12.9,7.3-17.5,4.6c-4.5-2.7-13.4-7.6-8.3-16.1C1202.3,207.6,1214.3,206.6,1223,227.6z"/>
		<path class="st20" d="M1200,221.9c2.7,2.8,6.2,4.9,10,6C1209.9,227.8,1201,222.7,1200,221.9z"/>
		<path class="st19" d="M1215.7,201c0,0-12.9,7.3-17.5,4.6c-4.5-2.7-13.4-7.6-8.3-16.1C1195,181,1206.9,180,1215.7,201z"/>
		<path class="st20" d="M1192.6,195.4c2.7,2.8,6.2,4.9,10,5.9C1202.6,201.3,1193.6,196.1,1192.6,195.4z"/>
		<path class="st19" d="M1223.9,241.2c0,0,12-8.9,16.8-6.7c4.8,2.3,14.2,5.8,10.1,15C1246.7,258.7,1235.2,261,1223.9,241.2z"/>
		<path class="st20" d="M1247.6,244c-3.1-2.5-6.8-4.1-10.7-4.7C1236.8,239.3,1246.4,243.4,1247.6,244z"/>
		<path class="st19" d="M1275.6,207.9c0,0,2.5-14.7,7.4-16.6c4.9-1.9,14.3-5.8,17.8,3.6C1304.1,204.3,1297.5,214.1,1275.6,207.9z"/>
		<path class="st20" d="M1294.5,193.3c-3.9,0.4-7.7,1.8-10.9,4C1283.6,197.4,1293.3,193.6,1294.5,193.3z"/>
		<path class="st19" d="M1231.4,280.2c0,0,2.5-14.7,7.4-16.6c4.9-1.9,14.3-5.8,17.8,3.6C1260,276.7,1253.5,286.5,1231.4,280.2z"/>
		<path class="st20" d="M1250.3,265.7c-3.8,0.4-7.6,1.8-10.7,4C1239.7,269.7,1249.1,266,1250.3,265.7z"/>
		<path class="st19" d="M1284.9,236.3c0,0,2.4-14.7,7.3-16.6c4.9-1.9,14.3-5.8,17.8,3.6C1313.4,232.7,1306.8,242.5,1284.9,236.3z"/>
		<path class="st20" d="M1303.7,221.7c-3.9,0.4-7.7,1.8-10.9,4C1292.8,225.8,1302.4,222.1,1303.7,221.7z"/>
		<path class="st19" d="M1297.7,248.1c0,0,14.6,2.9,16.3,7.9s5.3,14.5-4.3,17.6C1300.2,276.7,1290.7,269.8,1297.7,248.1z"/>
		<path class="st20" d="M1311.6,267.4c-0.2-3.9-1.5-7.7-3.6-11.1C1307.9,256.4,1311.2,266.3,1311.6,267.4z"/>
		<path class="st19" d="M1312.1,196.7c0,0,14.6,2.9,16.2,7.9c1.7,5,5.3,14.5-4.2,17.6C1314.5,225.2,1305.1,218.5,1312.1,196.7z"/>
		<path class="st20" d="M1325.9,216.1c-0.2-3.9-1.5-7.7-3.7-11.1C1322.3,205,1325.7,214.8,1325.9,216.1z"/>
		<path class="st19" d="M1173.2,216.1c0,0,14.6,2.7,16.2,7.9c1.7,5.1,5.3,14.5-4.2,17.6C1175.7,244.7,1166.2,237.9,1173.2,216.1z"/>
		<path class="st20" d="M1187.1,235.5c-0.2-3.9-1.5-7.7-3.7-11.1C1183.3,224.4,1186.7,234.2,1187.1,235.5z"/>
		<path class="st19" d="M1302.8,164.2c0,0,14.6,2.9,16.2,7.9c1.7,5,5.3,14.5-4.2,17.6C1305.3,192.8,1295.9,185.9,1302.8,164.2z"/>
		<path class="st20" d="M1316.7,183.6c-0.2-3.9-1.5-7.7-3.7-11.1C1313,172.6,1316.4,182.3,1316.7,183.6z"/>
		<path class="st19" d="M1258.6,259.3c0,0,2.4-14.6,7.3-16.6s14.3-5.8,17.8,3.6C1287,255.8,1280.6,265.6,1258.6,259.3z"/>
		<path class="st20" d="M1277.5,244.8c-3.9,0.4-7.7,1.9-10.9,4.1C1266.6,248.9,1276.2,245.1,1277.5,244.8z"/>
		<path class="st19" d="M1268.3,175.3c0,0,2.4-14.7,7.3-16.6c4.9-1.9,14.3-5.8,17.8,3.6C1296.7,171.8,1290.2,181.6,1268.3,175.3z"/>
		<path class="st20" d="M1287.1,160.8c-3.9,0.4-7.7,1.8-10.8,4C1276.2,164.8,1285.9,161.1,1287.1,160.8z"/>
		<path class="st19" d="M1239,146.2c0,0,14.7-2.2,18,2.1c3.2,4.1,9.8,11.9,1.9,18.1C1250.8,172.4,1239.7,168.9,1239,146.2z"/>
		<path class="st20" d="M1258.6,159.8c-1.6-3.6-4-6.8-7.2-9.1C1251.4,150.7,1257.9,158.7,1258.6,159.8z"/>
		<path class="st19" d="M1198.2,242.2c0,0,14.7-2.2,18,2c3.2,4.1,9.8,11.9,1.9,18C1210,268.4,1198.8,265,1198.2,242.2z"/>
		<path class="st20" d="M1217.7,255.9c-1.6-3.6-4-6.8-7.2-9.1C1210.5,246.7,1217,254.8,1217.7,255.9z"/>
	</g>
</g>
<g>
	<path class="st21" d="M1629.2,640.2H98.8c-23,0-41.7-19.7-41.7-44.2V390.2c0-24.4,18.6-44.2,41.7-44.2h1530.4
		c23,0,41.7,19.7,41.7,44.2v205.9C1670.8,620.5,1652.2,640.2,1629.2,640.2z"/>
	<g class="st14">
		<g class="st15">
			<text transform="matrix(1 0 0 1 122.3063 438.489)" class="st16 st17 st18">General Statement 2:  Apple is a fruit. </text>
		</g>
		<g>
			<text transform="matrix(1 0 0 1 115.3063 434.489)" class="st17 st18">General Statement 2:  Apple is a fruit. </text>
		</g>
	</g>
	<g id="apple">
		<path class="st22" d="M565.8,499.1c0,0-31.8,8.5-23.3,52.9s21.2,63.5,44.5,69.8c16.9,4.3,4.3-4.3,36,4.3
			c31.8,8.5,57.2-67.8,57.2-84.7c0-16.9-8.5-46.6-36-44.5c-27.5,2.1-40.2,0-40.2,0S572.2,494.8,565.8,499.1z"/>
		<path class="st23" d="M590.2,514.9c0,0,23.3,12.7,36,10.6c12.7-2.1,25.4-12.7,29.6-4.3c4.3,8.5,8.5,12.7,0,33.9
			c-8.5,21.2-33.9,61.4-67.8,59.3c-33.9-2.1-50.8-76.2-36-99.5C566.8,491.6,590.2,514.9,590.2,514.9z"/>
		<path class="st24" d="M583.8,510.7c0,0,40.2-10.6,40.2,0s-10.6,10.6-10.6,10.6S598.6,510.7,583.8,510.7z"/>
		<path class="st25" d="M665.3,526.6c0,0-12.7-33.9-78.4-16.9c0,0,42.3,12.7,40.2,21.2c-2.1,8.5-27.5,0-50.8-2.1
			c-23.3-2.1-8.5,72,2.1,82.6c-16.9-14.8-42.3-57.2-25.4-97.4c16.9-23.3,57.2-10.6,74.1-12.7C644.2,499.1,663.2,505.4,665.3,526.6z"
			/>
		<g>
			<path class="st26" d="M554.1,459.9c0,0,10.6,40.2,23.3,44.5c12.7,4.3,25.4,4.3,29.6,8.5l4.3-4.3c0,0-8.5-8.5-8.5-10.6
				c0-2.1-4.3-25.4-21.2-29.6C572.3,466.1,563.2,463.3,554.1,459.9z"/>
			<path class="st27" d="M554.1,459.9c2.1,6.5,4.3,13.1,6.9,19.4c2.4,6.4,5.6,12.4,9.5,18c1.8,2.8,4.3,4.9,7.3,6.3
				c3.3,1.1,6.5,1.9,9.9,2.6l10.1,2c1.7,0.4,3.4,0.8,5.1,1.3c1.8,0.5,3.5,1.4,4.9,2.7h-1.5l4.3-4.3v1.5c-2.4-2.4-4.7-5-6.8-7.7
				c-0.6-0.7-1.1-1.5-1.5-2.3c-0.1-0.3-0.2-0.5-0.3-0.8c-0.1-0.1-0.1-0.4-0.1-0.5v-0.3c0-0.3-0.1-0.8-0.1-1.1
				c-0.3-1.6-0.6-3.2-1.1-4.8c-1.7-6.4-4.9-12.3-9.4-17.2c-2.3-2.4-5.1-4.2-8.2-5.3c-1.5-0.6-3.2-0.9-4.8-1.4
				c-1.6-0.5-3.3-0.9-4.9-1.4C566.9,464.6,560.4,462.6,554.1,459.9z M554.1,459.9c6.3,2.1,12.9,4.1,19.4,5.8l4.9,1.3
				c1.6,0.4,3.3,0.7,4.9,1.3c3.3,1.1,6.4,2.8,8.9,5.3c4.8,5,8.3,11.1,10.2,17.8c0.5,1.6,0.9,3.3,1.2,5c0.1,0.4,0.1,0.9,0.1,1.3v0.3
				l0,0c0.1,0.1,0.1,0.3,0.1,0.4c0.4,0.7,0.9,1.3,1.3,1.9c2.1,2.6,4.3,5,6.7,7.4l0.7,0.7l-0.7,0.7l-4.3,4.3l-0.7,0.7l-0.8-0.7
				c-1.2-1-2.6-1.8-4-2.2c-1.6-0.5-3.2-1-4.9-1.3l-10.1-2.1c-3.4-0.7-6.7-1.6-10-2.7c-1.8-0.6-3.3-1.6-4.6-3c-1.3-1.2-2.4-2.6-3.4-4
				c-3.8-5.8-6.8-12.1-9.1-18.6C557.8,473.1,555.8,466.5,554.1,459.9z"/>
		</g>
		<path class="st28" d="M561.6,465.2c0,0,25.4,6.3,31.8,14.8c4.5,6.1,8.5,21.2,8.5,21.2S591.2,484.3,587,480
			C582.8,475.8,565.8,465.2,561.6,465.2z"/>
		<path class="st29" d="M561.6,471.6l36,33.9c0,0-23.3-4.3-25.4-10.6C570.1,488.5,561.6,471.6,561.6,471.6z"/>
		<path class="st27" d="M566.9,472.6c3.8,2.8,7.5,5.9,11.2,9c3.7,3.1,7.2,6.2,10.7,9.3c3.6,3.1,7,6.3,10.4,9.7l5.1,5
			c1.6,1.7,3.3,3.4,5,5.1c-1.9-1.4-3.8-2.9-5.6-4.4l-5.5-4.5c-3.6-3.1-7.2-6.2-10.7-9.4c-3.6-3.1-7-6.3-10.4-9.7
			C573.5,479.4,570.1,476.1,566.9,472.6z"/>
		<path class="st27" d="M581.7,479c0.7,0.9,1.1,2.1,1.1,3.3c0,1.2-0.4,2.3-1.1,3.3c-0.7-0.9-1.1-2.1-1.1-3.3S581,479.9,581.7,479z"
			/>
		<path class="st27" d="M587.4,491.1c-0.9,1.1-2.2,1.9-3.6,2.3c-1.3,0.5-2.8,0.6-4.3,0.4c0.9-1.1,2.2-1.9,3.6-2.3
			C584.5,491,586,490.8,587.4,491.1z"/>
		<path class="st27" d="M595.6,498.4c-1.2,1.3-2.7,2.3-4.3,2.9c-1.6,0.7-3.4,1-5.2,0.9c2.6-2.6,6-3.9,9.7-3.8H595.6z"/>
		<path class="st27" d="M573.3,479c-0.5,0.6-1.3,1.1-2.1,1.1s-1.6-0.4-2.1-1.1c0.5-0.6,1.3-1.1,2.1-1.1S572.8,478.3,573.3,479z"/>
		<path class="st27" d="M590.7,494.1c-1.6-1.8-1.8-4.5-0.6-6.7c0.8,0.9,1.3,2,1.3,3.2C591.7,491.8,591.4,493,590.7,494.1z"/>
		<path class="st30" d="M627.7,456.7c0,0-26.9,48-17.1,57.2c2.4-9.2,7.3-48,29.3-50.2C639.9,463.6,627.7,461.4,627.7,456.7z"/>
		<path class="st31" d="M585.9,508.6c0,0,16.9,2.1,27.5,8.5s25.4,2.1,25.4,2.1s-12.7,2.1-19-2.1
			C613.5,512.8,594.4,504.3,585.9,508.6z"/>
		<path class="st32" d="M584.9,617.7c0,0,16.9-6.3,33.9-2.1c16.9,4.3,57.2-40.2,57.2-72c-2.1,46.6-36.4,72.2-40.2,74.1
			c-4.3,2.1-10.6,6.3-18.2,4.5C607.4,619.6,587,615.5,584.9,617.7z"/>
		<path class="st24" d="M627.2,461c1.1,1.1,2.6,1.9,4.3,2.1h-2.1C628.2,463.1,627.2,462.1,627.2,461z"/>
	</g>
	<path d="M826.2,541.8v-14.6h125.5v14.6H826.2z M826.2,589.4v-14.7h125.5v14.6L826.2,589.4z"/>
	<g id="fruits_1_">
		<path class="st33" d="M1189,474.6c0,0-34.4,10.3-20.6,30.9c8.7,12.3,22.6,20,37.8,20.6c0,0,37.8-10.3,37.8-24.1
			s-13.8-41.2-30.9-44.7C1199.6,454.7,1195.8,457.4,1189,474.6z"/>
		<polygon class="st34" points="1182.2,464.3 1189,474.6 1189,460.8 		"/>
		<path class="st35" d="M1284.9,499.2c0,0-20.3-29.6-35.7-10.3c-9.2,12.1-12.2,27.7-8.2,42.3c0,0,20.6,26.5,33.9,22.4
			c13.3-4.1,34.4-20.6,33.7-36.7C1308,503.2,1303.3,500.5,1284.9,499.2z"/>
		<polygon class="st36" points="1292.6,489.5 1284.9,499.2 1298,495 		"/>
		<circle class="st37" cx="1223.4" cy="532.9" r="10.3"/>
		<circle class="st37" cx="1213.1" cy="519.3" r="10.3"/>
		<circle class="st37" cx="1206.1" cy="536.4" r="10.3"/>
		<circle class="st37" cx="1233.7" cy="515.8" r="10.3"/>
		<circle class="st37" cx="1219.9" cy="502" r="10.3"/>
		<circle class="st37" cx="1202.8" cy="502" r="10.3"/>
		<circle class="st37" cx="1240.5" cy="532.9" r="10.3"/>
		<circle class="st37" cx="1226.7" cy="546.7" r="10.3"/>
		<circle class="st37" cx="1213.1" cy="546.7" r="10.3"/>
		<circle class="st37" cx="1195.8" cy="522.6" r="10.3"/>
		<circle class="st37" cx="1195.8" cy="536.4" r="10.3"/>
		<circle class="st37" cx="1192.5" cy="546.7" r="10.3"/>
		<circle class="st37" cx="1213.1" cy="529.6" r="10.3"/>
		<circle class="st37" cx="1230.2" cy="526.1" r="10.3"/>
		<circle class="st37" cx="1213.1" cy="515.8" r="10.3"/>
		<path class="st38" d="M1329.9,498.6c-2-4.3-3.2-9-3.5-13.8c0-6.8,10.3-13.8,10.3-6.8c0,6.9-3.5,20.6,3.5,27.4
			c6.9,6.8,2,21.2,0,24.1c-5.9,8.4-12.7,17.1-16.8,22.5c-2.8,3.6-6.5,6.4-10.7,8.1c-14,5.7-46.7,15.2-75.6-3.1c0,0-3.5-3.5,3.5-6.8
			c6.8-3.5,24.1,0,37.8-3.5c13.8-3.5,30.9-20.6,37.8-30.9C1322.9,505.5,1329.9,505.5,1329.9,498.6z"/>
		<ellipse class="st39" cx="1142.6" cy="541.5" rx="41.2" ry="37.8"/>
		<ellipse class="st40" cx="1130.6" cy="520.9" rx="5.2" ry="3.5"/>
		<ellipse class="st40" cx="1123.7" cy="524.4" rx="5.2" ry="3.5"/>
		<ellipse class="st40" cx="1123.7" cy="520.9" rx="5.2" ry="3.5"/>
		<path class="st41" d="M1087.6,558.7h267.9l0,0v17c0,30.5-24.7,55.1-55.1,55.1h-157.6c-30.5,0-55.1-24.7-55.1-55.1l0,0
			L1087.6,558.7L1087.6,558.7z"/>
		<path class="st10" d="M1149.5,517.5c13,5.2,22.2,17,24.1,30.9c0,0,6.8-17.1-6.8-27.4C1155.4,512.5,1149.5,517.5,1149.5,517.5z"/>
		<path class="st11" d="M1331.6,520.9c0,0-10.3,27.4-17.1,30.9c0,0,17.1-13.8,20.6-24.1c2.1-5.5,2.1-11.7,0-17.1L1331.6,520.9z"/>
		<path class="st12" d="M1347,569h-34.4c0,0-3.5,51.5-13.8,55C1299,624,1347,613.7,1347,569z"/>
	</g>
</g>
<line class="st42" x1="46.1" y1="716.1" x2="1668.1" y2="716.1"/>
<rect x="609.5" y="650.2" class="st43" width="481" height="108.1"/>
<text transform="matrix(1 -7.940244e-05 7.940244e-05 1 643.3978 734.2758)" class="st44 st17 st45">Leads to a </text>
<g class="st46">
	<path class="st47" d="M1622.3,1062.2H91.9c-23,0-41.7-19-41.7-42.6V799.1c0-23.5,18.6-42.6,41.7-42.6h1530.4
		c23,0,41.7,19,41.7,42.6v220.6C1663.9,1043.1,1645.3,1062.2,1622.3,1062.2z"/>
	<g class="st48">
		<g class="st15">
			<text transform="matrix(1 0 0 1 134.2778 841.5288)" class="st16 st17 st18">Specific Conclusion: Apples have seeds.</text>
		</g>
		<g>
			<text transform="matrix(1 0 0 1 127.2778 837.5288)" class="st17 st18">Specific Conclusion: Apples have seeds.</text>
		</g>
	</g>
	<g id="apple_1_" class="st49">
		<path class="st50" d="M715.8,902.6c0,0-37.5,10-27.4,62.4c10,52.5,25,75,52.5,82.4c20,5,5-5,42.5,5c37.5,9.9,67.4-79.9,67.4-99.9
			s-10-55-42.5-52.5c-32.5,2.5-47.4,0-47.4,0S723.2,897.6,715.8,902.6z"/>
		<path class="st23" d="M744.5,921.3c0,0,27.4,15,42.5,12.5c15-2.5,30-15,35-5c5,10,10,15,0,40c-10,25-40,72.5-79.9,70
			c-40-2.5-60-90-42.5-117.4C717,893.9,744.5,921.3,744.5,921.3z"/>
		<path class="st24" d="M737,916.3c0,0,47.4-12.5,47.4,0s-12.5,12.5-12.5,12.5S754.4,916.3,737,916.3z"/>
		<path class="st25" d="M833.1,935.1c0,0-15-40-92.5-20c0,0,50,15,47.4,25c-2.5,10-32.5,0-60-2.5c-27.4-2.5-10,84.9,2.5,97.4
			c-20-17.5-50-67.4-30-114.9c20-27.4,67.4-12.5,87.4-15C808.2,902.6,830.6,910,833.1,935.1z"/>
		<g>
			<path class="st26" d="M702,856.4c0,0,12.5,47.4,27.4,52.5c15,5,30,5,35,10l5-5c0,0-10-10-10-12.5s-5-30-25-35
				C723.5,863.6,712.6,860.3,702,856.4z"/>
			<path class="st27" d="M702,856.4c2.5,7.8,5,15.4,8.2,22.9c2.9,7.6,6.6,14.7,11.2,21.3c2.1,3.2,5.1,5.8,8.6,7.4
				c3.8,1.2,7.7,2.3,11.6,3l11.9,2.3c2,0.4,4,0.9,6,1.6c2.2,0.6,4.1,1.7,5.8,3.2h-1.8l5-5v1.8c-2.9-2.9-5.5-5.9-8.1-9
				c-0.6-0.8-1.2-1.8-1.8-2.7c-0.1-0.3-0.3-0.6-0.3-0.9c-0.1-0.2-0.1-0.4-0.1-0.6v-0.3c0-0.4-0.1-0.9-0.2-1.3
				c-0.3-1.9-0.7-3.8-1.3-5.7c-2-7.6-5.8-14.5-11.1-20.3c-2.7-2.8-6-5-9.7-6.2c-1.8-0.7-3.7-1.1-5.7-1.7c-1.9-0.5-3.8-1-5.7-1.7
				C716.9,862,709.4,859.5,702,856.4z M702,856.4c7.5,2.5,15.1,4.9,22.9,6.8l5.8,1.4c2,0.5,3.8,0.8,5.8,1.6
				c3.9,1.2,7.6,3.4,10.5,6.2c5.7,5.8,9.8,13,12,20.9c0.6,2,1,3.9,1.4,5.9c0.1,0.5,0.2,1,0.2,1.7c0,0,0,0.3,0,0.4l0,0
				c0.1,0.2,0.1,0.3,0.2,0.5c0.4,0.8,0.9,1.6,1.6,2.3c2.5,3,5.1,6,7.9,8.7l0.8,0.8l-0.8,0.8l-5,5l-0.8,0.8l-0.9-0.8
				c-1.3-1.2-3-2.1-4.8-2.6c-1.9-0.6-3.8-1.1-5.7-1.6l-11.9-2.5c-4-0.8-8-1.9-11.8-3.2c-2.1-0.7-3.9-2-5.5-3.5
				c-1.4-1.4-2.8-3.1-4-4.8c-4.5-6.8-8.1-14.2-10.8-22C706.3,871.9,703.9,864.2,702,856.4z"/>
		</g>
		<path class="st28" d="M710.7,862.6c0,0,30,7.5,37.5,17.5c5.4,7.1,10,25,10,25s-12.5-20-17.5-25
			C735.8,875.1,715.8,862.6,710.7,862.6z"/>
		<path class="st29" d="M710.7,870.1l42.5,40c0,0-27.4-5-30-12.5C720.6,889.9,710.7,870.1,710.7,870.1z"/>
		<path class="st27" d="M717,871.3c4.5,3.4,8.8,6.9,13.2,10.6c4.2,3.6,8.5,7.2,12.6,11c4.1,3.7,8.3,7.5,12.3,11.5l6,5.9
			c2,2.1,3.9,4,5.8,6.1c-2.3-1.7-4.5-3.4-6.6-5.2l-6.5-5.4c-4.2-3.6-8.5-7.4-12.6-11.1c-4.1-3.7-8.3-7.5-12.3-11.5
			C724.8,879.3,720.8,875.4,717,871.3z"/>
		<path class="st27" d="M734.4,878.9c0.8,1.1,1.2,2.5,1.2,3.8s-0.4,2.8-1.2,3.8c-0.8-1.1-1.2-2.5-1.2-3.8
			C733.2,881.4,733.6,880,734.4,878.9z"/>
		<path class="st27" d="M741.3,893.2c-1.1,1.2-2.6,2.3-4.2,2.8c-1.6,0.6-3.3,0.7-5,0.4c1.1-1.2,2.6-2.3,4.2-2.8
			C737.8,892.9,739.5,892.8,741.3,893.2z"/>
		<path class="st27" d="M750.9,901.9c-1.4,1.4-3.2,2.7-5.2,3.4c-2,0.8-4,1.1-6.1,1C742.6,903.3,746.7,901.7,750.9,901.9L750.9,901.9
			z"/>
		<path class="st27" d="M724.6,878.9c-0.6,0.7-1.6,1.2-2.5,1.2s-1.9-0.5-2.5-1.2c0.6-0.8,1.6-1.2,2.5-1.2S724,878,724.6,878.9z"/>
		<path class="st27" d="M745.2,896.7c-1.9-2.2-2.2-5.4-0.7-7.9c0.9,1,1.4,2.4,1.6,3.7C746.2,894,745.9,895.4,745.2,896.7z"/>
		<path class="st51" d="M788.7,852.6c0,0-31.8,56.6-20.2,67.4c2.9-10.9,8.6-56.6,34.6-59.3C803.2,860.7,788.7,858.1,788.7,852.6z"/>
		<path class="st52" d="M739.5,913.9c0,0,20,2.5,32.5,10c12.5,7.5,30,2.5,30,2.5s-15,2.5-22.5-2.5
			C771.9,918.8,749.4,908.8,739.5,913.9z"/>
		<path class="st32" d="M738.3,1042.5c0,0,20-7.5,40-2.5c20,5,67.4-47.4,67.4-84.9c-2.5,55-43,85.2-47.4,87.4
			c-5,2.5-12.5,7.5-21.4,5.3C764.9,1044.7,740.7,1040,738.3,1042.5z"/>
		<path class="st24" d="M788.2,857.6c1.3,1.3,3.1,2.3,5,2.5h-2.5C789.3,860.1,788.2,859,788.2,857.6z"/>
	</g>
	<g class="st49">
		<path class="st53" d="M982.3,904.2c0,0,4.2-24.6-29.7-28.2C952.7,876.1,944.2,904.2,982.3,904.2z"/>
		<path class="st51" d="M998.9,861.4c0,0-31.1,55.4-19.8,66.1c2.8-10.7,8.5-55.4,33.9-58.1C1013,869.3,998.9,866.8,998.9,861.4z"/>
		<path class="st50" d="M930.2,905.8c0,0-36.7,9.7-26.9,61.1c9.7,51.4,22.1,75.8,48.9,83.1c19.6,4.9,7.4-7.4,44,2.5
			c36.7,9.7,66.1-78.3,66.1-97.8s-9.7-53.8-41.6-51.4c-31.8,2.5-46.5,0-46.5,0S937.5,900.8,930.2,905.8z"/>
		<path class="st54" d="M934.8,912.1c0,0-33.5,8.9-24.4,55.8c9.1,46.9,19.8,69.4,44.3,76.1c17.8,4.5,6.9-6.9,40.4,2
			c33.4,8.9,60.3-71.4,60.3-89.2c0-17.7-8.9-49.2-37.9-46.9c-29,2.2-42.5,0-42.5,0S941.4,907.7,934.8,912.1z"/>
		<path class="st55" d="M970.6,962.1c0,0-8,2.2-5.9,13.4c2.1,11.2,5.4,16,11.3,17.7c4.3,1,2.2-1.9,10.1,0.3
			c8,2.2,13.5-16.4,13.5-20.6c0-4.2-2.2-11.8-9.1-11.3c-3.4,0.4-6.8,0.4-10.1,0C980.2,961.6,972.2,961.1,970.6,962.1z"/>
		<path class="st56" d="M977.5,970.2c0,0-9.7,4.9-7.4,7.4C972.7,980,975.1,982.5,977.5,970.2z"/>
		<path class="st56" d="M987,970.2c0,0,9.7,4.9,7.4,7.4C991.8,980,989.4,982.5,987,970.2z"/>
		<path class="st57" d="M1026.4,911.6c0,0,22.1,7.4,24.4,44c2.5,36.7-34.3,80.7-39.1,85.6C1019.1,1026.5,1063.2,955.6,1026.4,911.6z
			"/>
	</g>
</g>
</svg>
