<?xml version="1.0" encoding="utf-8"?>
<!-- Generator: Adobe Illustrator 24.0.3, SVG Export Plug-In . SVG Version: 6.00 Build 0)  -->
<svg version="1.1" id="Layer_1" xmlns="http://www.w3.org/2000/svg" xmlns:xlink="http://www.w3.org/1999/xlink" x="0px" y="0px"
	 viewBox="0 0 1700 1080" style="enable-background:new 0 0 1700 1080;" xml:space="preserve">
<style type="text/css">
	.st0{fill:#DA3732;stroke:#000000;stroke-width:1.2075;stroke-linejoin:round;}
	.st1{fill:#DE543E;}
	.st2{fill:#AB2925;}
	.st3{fill:#E27F68;}
	.st4{fill:#A5C058;}
	.st5{fill:#006837;}
	.st6{fill:#72974F;}
	.st7{fill:#D7DC84;}
	.st8{fill:#E27F68;stroke:#000000;stroke-width:1.2075;stroke-linecap:round;stroke-linejoin:round;}
	.st9{stroke:#000000;stroke-width:1.2075;stroke-linecap:round;stroke-linejoin:round;}
	.st10{fill:#A82925;}
	.st11{fill:#336600;stroke:#000000;stroke-width:1.2075;stroke-linecap:round;stroke-linejoin:round;}
	.st12{fill:#EFE8BB;}
	.st13{opacity:0.28;fill:#ADA471;enable-background:new    ;}
	.st14{fill:#722A0D;stroke:#000000;stroke-width:1.2075;stroke-linejoin:round;}
	.st15{fill:#EFDF9C;}
	.st16{fill:#896264;}
	.st17{font-family:'CarterOne';}
	.st18{font-size:57.9635px;}
	.st19{fill:#3A9B3F;}
	.st20{fill:#FFFFFF;}
	.st21{font-size:70px;}
	.st22{display:none;enable-background:new    ;}
	.st23{display:inline;opacity:0.53;}
	.st24{fill:#0D280E;}
	.st25{font-size:119.5298px;}
	.st26{display:inline;}
	.st27{fill:#1B5E1F;}
</style>
<g id="apple_1_">
	<path class="st0" d="M77.1,309.3c0,0-54.6,14.6-40,91s36.2,109.3,76.4,120.3c29.1,7.2,7.2-7.2,61.9,7.2
		c54.6,14.5,98.3-116.5,98.3-145.7c0-29.1-14.6-80.1-61.9-76.5c-47.4,3.6-69.1,0-69.1,0S87.9,302,77.1,309.3z"/>
	<path class="st1" d="M118.9,336.6c0,0,40,21.9,61.9,18.3c21.9-3.6,43.8-21.9,51-7.2c7.2,14.6,14.6,21.9,0,58.3
		s-58.3,105.7-116.5,102C57,504.3,27.8,376.7,53.4,336.7C78.9,296.6,118.9,336.6,118.9,336.6z"/>
	<path class="st2" d="M108,329.4c0,0,69.1-18.3,69.1,0c0,18.3-18.3,18.3-18.3,18.3S133.4,329.4,108,329.4z"/>
	<path class="st3" d="M248.1,356.7c0,0-21.9-58.3-134.8-29.1c0,0,72.9,21.9,69.1,36.4c-3.8,14.5-47.4,0-87.4-3.6
		s-14.6,123.8,3.6,142c-29.1-25.5-72.9-98.3-43.8-167.5c29.1-40,98.3-18.3,127.4-21.9C211.7,309.3,244.4,320.3,248.1,356.7z"/>
	<g>
		<path class="st4" d="M57,242c0,0,18.3,69.1,40,76.5s43.8,7.2,51,14.6l7.2-7.2c0,0-14.6-14.6-14.6-18.3c0-3.6-7.2-43.8-36.4-51
			C88.2,252.7,72.4,247.8,57,242z"/>
		<path class="st5" d="M57,242c3.6,11.3,7.2,22.5,11.9,33.4c4.2,11,9.7,21.4,16.3,31.1c3,4.7,7.4,8.5,12.5,10.7
			c5.6,1.8,11.2,3.3,16.9,4.4l17.4,3.3c2.9,0.6,5.9,1.4,8.8,2.3c3.2,0.9,6,2.4,8.5,4.7h-2.6l7.2-7.2v2.6c-4.2-4.2-8-8.6-11.8-13.1
			c-0.9-1.2-1.8-2.6-2.6-3.9c-0.2-0.5-0.5-0.9-0.5-1.4c-0.2-0.3-0.2-0.6-0.2-0.9v-0.5c0-0.6-0.2-1.4-0.3-2c-0.5-2.7-1.1-5.6-2-8.3
			c-2.9-11-8.5-21.1-16.2-29.6c-3.9-4.1-8.8-7.2-14.2-9.1c-2.6-1.1-5.4-1.7-8.3-2.4c-2.7-0.8-5.6-1.5-8.3-2.4
			C78.7,250.1,67.7,246.5,57,242z M57,242c10.9,3.6,22,7.1,33.4,10l8.5,2.1c2.9,0.8,5.6,1.2,8.5,2.3c5.7,1.8,11,5,15.2,9.1
			c8.3,8.5,14.3,19,17.5,30.5c0.9,2.9,1.5,5.7,2.1,8.6c0.2,0.8,0.3,1.5,0.3,2.4c0,0,0,0.5,0,0.6l0,0c0.2,0.3,0.2,0.5,0.3,0.8
			c0.6,1.2,1.4,2.3,2.3,3.3c3.6,4.4,7.4,8.8,11.5,12.7l1.2,1.2l-1.2,1.2l-7.2,7.2l-1.2,1.2l-1.4-1.2c-2-1.8-4.4-3-6.9-3.8
			c-2.7-0.9-5.6-1.7-8.3-2.3l-17.4-3.6c-5.9-1.2-11.6-2.7-17.2-4.7c-3-1.1-5.7-2.9-8-5.1c-2.1-2.1-4.1-4.5-5.9-6.9
			c-6.5-10-11.8-20.7-15.7-32C63.2,264.6,59.7,253.4,57,242z"/>
	</g>
	<path class="st6" d="M69.7,251c0,0,43.8,10.9,54.6,25.5c7.8,10.4,14.6,36.4,14.6,36.4s-18.3-29.1-25.5-36.4S77.1,251,69.7,251z"/>
	<path class="st7" d="M69.7,262l61.9,58.3c0,0-40-7.2-43.8-18.3C84.3,291.2,69.7,262,69.7,262z"/>
	<path class="st5" d="M78.9,263.8c6.5,5,12.8,10.1,19.2,15.4c6.2,5.3,12.4,10.6,18.4,16c6,5.4,12.1,10.9,18,16.8l8.8,8.6
		c2.9,3,5.7,5.9,8.5,8.9c-3.3-2.4-6.5-5-9.7-7.5l-9.5-7.8c-6.2-5.3-12.4-10.7-18.4-16.2c-6-5.4-12.1-10.9-18-16.8
		C90.2,275.3,84.3,269.9,78.9,263.8z"/>
	<path class="st5" d="M104.2,274.7c1.2,1.7,1.8,3.6,1.8,5.6c0,2-0.6,4.1-1.8,5.6c-1.2-1.7-1.8-3.6-1.8-5.6S103.2,276.4,104.2,274.7z
		"/>
	<path class="st5" d="M114.2,295.5c-1.7,1.8-3.8,3.3-6.2,4.1c-2.3,0.9-4.8,1.1-7.2,0.6c1.7-1.8,3.8-3.3,6.2-4.1
		C109.2,295.4,111.6,295.1,114.2,295.5z"/>
	<path class="st5" d="M128.2,308.2c-2.1,2.1-4.7,3.9-7.5,5c-2.9,1.2-5.9,1.7-8.9,1.5C116.1,310.5,122.2,308.1,128.2,308.2
		L128.2,308.2z"/>
	<path class="st5" d="M89.9,274.7c-0.9,1.1-2.3,1.8-3.6,1.8c-1.4,0-2.7-0.8-3.6-1.8c0.9-1.2,2.3-1.8,3.6-1.8
		C87.6,272.9,89,273.7,89.9,274.7z"/>
	<path class="st5" d="M119.9,300.8c-2.7-3.2-3.2-7.8-1.1-11.5c1.4,1.5,2.1,3.5,2.3,5.4C121.4,296.9,121,299,119.9,300.8z"/>
	<path class="st8" d="M183.5,236.5c0,0-46.3,82.6-29.4,98.3c4.2-15.8,12.5-82.6,50.4-86.5C204.4,248.3,183.5,244.4,183.5,236.5z"/>
	<path class="st9" d="M111.6,325.7c0,0,29.1,3.6,47.4,14.6c18.3,10.9,43.8,3.6,43.8,3.6s-21.9,3.6-32.8-3.6
		C159.2,333.1,126.1,318.5,111.6,325.7z"/>
	<path class="st10" d="M109.8,513.2c0,0,29.1-10.9,58.3-3.6s98.3-69.1,98.3-123.8c-3.6,80.1-62.6,124.2-69.1,127.4
		c-7.2,3.6-18.3,10.9-31.2,7.7C148.6,516.5,113.4,509.6,109.8,513.2z"/>
	<path class="st2" d="M182.6,243.8c2,2,4.5,3.3,7.2,3.6h-3.6C184.2,247.4,182.6,245.7,182.6,243.8z"/>
</g>
<g>
	<path class="st11" d="M409.3,308.4c0,0,6.2-35.9-43.3-41.1C365.9,267.4,353.6,308.4,409.3,308.4z"/>
	<path class="st8" d="M433.3,245.9c0,0-45.3,80.8-28.8,96.3c4.1-15.5,12.4-80.8,49.4-84.7C453.8,257.6,433.3,253.8,433.3,245.9z"/>
	<path class="st0" d="M333.2,310.7c0,0-53.4,14.2-39.2,89.1s32.1,110.5,71.2,121.2c28.5,7.1,10.7-10.7,64.1,3.6
		c53.4,14.2,96.3-114.1,96.3-142.6c0-28.5-14.2-78.5-60.7-74.9c-46.5,3.6-67.8,0-67.8,0S343.9,303.5,333.2,310.7z"/>
	<path class="st12" d="M339.8,319.8c0,0-48.9,13-35.6,81.4S333,502.2,368.8,512c26,6.5,10.1-10.1,58.9,2.9
		c48.8,13,87.8-104.1,87.8-130c0-25.8-13-71.7-55.2-68.4c-42.3,3.2-61.9,0-61.9,0S349.5,313.4,339.8,319.8z"/>
	<path class="st13" d="M392.1,392.8c0,0-11.6,3.2-8.6,19.5c3.2,16.5,7.8,23.4,16.5,25.8c6.3,1.5,3.2-2.7,14.8,0.5
		c11.6,3.2,19.6-23.8,19.6-30s-3.2-17.2-13.3-16.5c-5,0.6-10,0.6-14.8,0C406.1,392.1,394.3,391.3,392.1,392.8z"/>
	<path class="st14" d="M402.2,404.6c0,0-14.2,7.1-10.7,10.7C395.1,418.9,398.6,422.4,402.2,404.6z"/>
	<path class="st14" d="M415.9,404.6c0,0,14.2,7.1,10.7,10.7C423,418.9,419.4,422.4,415.9,404.6z"/>
	<path class="st15" d="M473.4,319.1c0,0,32.1,10.7,35.6,64.1c3.5,53.4-50,117.6-57.1,124.8C462.9,486.7,527,383.3,473.4,319.1z"/>
</g>
<g>
	<g>
		<rect x="568.6" y="390" class="st16" width="166.5" height="42.1"/>
	</g>
	<g>
		<polygon class="st16" points="830.5,410.3 722.2,479 722.2,341.7 		"/>
	</g>
</g>
<text transform="matrix(1 0 0 1 893.326 397.2858)" class="st17 st18">According to the reasons, </text>
<text transform="matrix(1 0 0 1 859.9434 466.8419)" class="st17 st18">the conclusion makes sense. </text>
<g>
	<path class="st19" d="M924.3,970.3h-850c-21.9,0-39.7-17.8-39.7-39.7V689c0-21.9,17.8-39.7,39.7-39.7h850.1
		c21.9,0,39.7,17.8,39.7,39.7v241.5C964,952.5,946.3,970.3,924.3,970.3z"/>
	<text transform="matrix(1 0 0 1 98.0264 739.8363)" class="st20 st17 st21">Conclusion: </text>
	<text transform="matrix(1 0 0 1 98.0264 823.8363)" class="st20 st17 st21">Apples have seeds. </text>
	<text transform="matrix(1 0 0 1 98.0264 907.8363)" class="st20 st17 st21">(Specific Conclusion)</text>
</g>
<g class="st22">
	<g class="st23">
		<text transform="matrix(1 0 0 1 1008.5969 768.4356)" class="st24 st17 st25">LOGICALLY </text>
		<text transform="matrix(1 0 0 1 1179.5969 911.8356)" class="st24 st17 st25">TRUE</text>
	</g>
	<g class="st26">
		<text transform="matrix(1 0 0 1 1003.5969 764.4356)" class="st27 st17 st25">LOGICALLY </text>
		<text transform="matrix(1 0 0 1 1174.5969 907.8356)" class="st27 st17 st25">TRUE</text>
	</g>
</g>
</svg>
