<?xml version="1.0" encoding="utf-8"?>
<!-- Generator: Adobe Illustrator 24.0.3, SVG Export Plug-In . SVG Version: 6.00 Build 0)  -->
<svg version="1.1" id="Layer_1" xmlns="http://www.w3.org/2000/svg" xmlns:xlink="http://www.w3.org/1999/xlink" x="0px" y="0px"
	 viewBox="0 0 1700 1080" style="enable-background:new 0 0 1700 1080;" xml:space="preserve">
<style type="text/css">
	.st0{fill:#DA3732;stroke:#000000;stroke-width:0.6795;stroke-linejoin:round;}
	.st1{fill:#DE543E;}
	.st2{fill:#AB2925;}
	.st3{fill:#E27F68;}
	.st4{fill:#A5C058;}
	.st5{fill:#006837;}
	.st6{fill:#72974F;}
	.st7{fill:#D7DC84;}
	.st8{fill:#E27F68;stroke:#000000;stroke-width:0.6795;stroke-linecap:round;stroke-linejoin:round;}
	.st9{stroke:#000000;stroke-width:0.6795;stroke-linecap:round;stroke-linejoin:round;}
	.st10{fill:#A82925;}
	.st11{fill:#DA3732;stroke:#000000;stroke-width:0.8494;stroke-linejoin:round;}
	.st12{fill:#442222;stroke:#000000;stroke-width:0.8494;stroke-linejoin:round;}
	.st13{fill:#819120;stroke:#000000;stroke-width:0.8494;stroke-linejoin:round;}
	.st14{fill:#8E6A21;stroke:#000000;stroke-width:0.8494;stroke-linejoin:round;}
	.st15{fill:#9933CC;stroke:#000000;stroke-width:0.6795;stroke-miterlimit:10;}
	.st16{fill:#FFCC33;stroke:#000000;stroke-width:0.6795;stroke-linecap:round;stroke-linejoin:round;}
	.st17{fill:#E08122;stroke:#000000;stroke-width:0.6795;stroke-miterlimit:10;}
	.st18{fill:#669933;stroke:#000000;stroke-width:0.3397;stroke-miterlimit:10;}
	.st19{fill:#7A5D3D;stroke:#000000;stroke-width:0.8494;stroke-miterlimit:10;}
	.st20{fill:#FFCC33;}
	.st21{fill:#FFEC00;}
	.st22{fill:#A37D57;}
	.st23{fill:#DA3732;stroke:#000000;stroke-width:1.2558;stroke-linejoin:round;}
	.st24{fill:#442222;stroke:#000000;stroke-width:1.2558;stroke-linejoin:round;}
	.st25{fill:#819120;stroke:#000000;stroke-width:1.2558;stroke-linejoin:round;}
	.st26{fill:#8E6A21;stroke:#000000;stroke-width:1.2558;stroke-linejoin:round;}
	.st27{fill:#9933CC;stroke:#000000;stroke-width:1.0047;stroke-miterlimit:10;}
	.st28{fill:#FFCC33;stroke:#000000;stroke-width:1.0047;stroke-linecap:round;stroke-linejoin:round;}
	.st29{fill:#E08122;stroke:#000000;stroke-width:1.0047;stroke-miterlimit:10;}
	.st30{fill:#669933;stroke:#000000;stroke-width:0.5023;stroke-miterlimit:10;}
	.st31{fill:#7A5D3D;stroke:#000000;stroke-width:1.2558;stroke-miterlimit:10;}
	.st32{fill:#8E775F;stroke:#000000;stroke-width:1.7699;stroke-miterlimit:10;}
	.st33{fill:#BA9B79;}
	.st34{font-family:'CarterOne';}
	.st35{font-size:131.6374px;}
	.st36{display:none;opacity:0.7;fill:none;stroke:#000000;stroke-width:7;stroke-miterlimit:10;enable-background:new    ;}
	.st37{display:none;}
	.st38{display:inline;fill:#8E775F;stroke:#000000;stroke-miterlimit:10;}
	.st39{display:inline;fill:#BA9B79;}
	.st40{display:inline;}
	.st41{fill:#DA3732;stroke:#000000;stroke-width:0.34;stroke-linejoin:round;}
	.st42{fill:#E27F68;stroke:#000000;stroke-width:0.34;stroke-linecap:round;stroke-linejoin:round;}
	.st43{stroke:#000000;stroke-width:0.34;stroke-linecap:round;stroke-linejoin:round;}
</style>
<g id="apple">
	<path class="st0" d="M315.4,112.2c0,0-49.5,13.2-36.3,82.5c13.2,69.3,33,99,69.3,108.9c26.4,6.6,6.6-6.6,56.1,6.6
		c49.5,13.2,89.1-105.6,89.1-132s-13.2-72.6-56.1-69.3s-62.7,0-62.7,0S325.3,105.5,315.4,112.2z"/>
	<path class="st1" d="M353.4,136.9c0,0,36.3,19.8,56.1,16.5c19.8-3.3,39.6-19.8,46.2-6.6c6.6,13.2,13.2,19.8,0,52.8
		c-13.2,33-52.8,95.7-105.6,92.4c-52.7-3.3-79.2-118.8-56.1-155.1S353.4,136.9,353.4,136.9z"/>
	<path class="st2" d="M343.4,130.3c0,0,62.7-16.5,62.7,0s-16.5,16.5-16.5,16.5S366.5,130.3,343.4,130.3z"/>
	<path class="st3" d="M470.5,155.1c0,0-19.8-52.8-122.1-26.4c0,0,66,19.8,62.7,33s-42.9,0-79.2-3.3s-13.2,112.2,3.3,128.7
		c-26.4-23.1-66-89.1-39.6-151.8c26.4-36.3,89.1-16.5,115.5-19.8C437.5,112.2,467.2,122.1,470.5,155.1z"/>
	<g>
		<path class="st4" d="M297.2,51.1c0,0,16.5,62.7,36.3,69.3c19.8,6.6,39.6,6.6,46.2,13.2l6.6-6.6c0,0-13.2-13.2-13.2-16.5
			s-6.6-39.6-33-46.2C325.6,60.8,311.2,56.4,297.2,51.1z"/>
		<path class="st5" d="M297.2,51.1c3.3,10.2,6.6,20.3,10.8,30.2c3.8,9.9,8.7,19.4,14.8,28.1c2.8,4.2,6.7,7.6,11.4,9.7
			c5,1.6,10.2,3,15.4,4l15.8,3.1c2.6,0.6,5.3,1.2,7.9,2c2.8,0.8,5.4,2.2,7.6,4.2h-2.3l6.6-6.6v2.3c-3.7-3.7-7.3-7.7-10.6-12
			c-0.8-1.1-1.6-2.3-2.3-3.6c-0.2-0.4-0.3-0.8-0.4-1.2c-0.1-0.3-0.2-0.5-0.2-0.8V110c0-0.5-0.2-1.2-0.3-1.8c-0.4-2.5-1-5-1.8-7.5
			c-2.6-10-7.6-19.2-14.6-26.8c-3.6-3.7-8-6.5-12.9-8.2c-2.4-0.8-5-1.4-7.5-2.2c-2.5-0.8-5.1-1.4-7.6-2.2
			C317,58.5,306.9,55.2,297.2,51.1z M297.2,51.1c9.9,3.3,20,6.4,30.2,9l7.6,2c2.5,0.7,5.1,1.1,7.7,2c5.2,1.6,9.9,4.4,13.8,8.2
			c7.6,7.7,13,17.2,15.8,27.7c0.8,2.5,1.4,5.2,2,7.8c0.2,0.7,0.3,1.4,0.3,2.1c0,0,0,0.4,0,0.5l0,0c0.1,0.3,0.2,0.4,0.3,0.6
			c0.6,1.1,1.3,2,2,3.1c3.2,4,6.8,7.9,10.4,11.6l1.1,1.2l-1.1,1.2l-6.6,6.6l-1.1,1.1l-1.2-1.1c-1.9-1.6-4-2.8-6.4-3.5
			c-2.5-0.8-5-1.5-7.6-2l-15.7-3.3c-5.3-1.1-10.5-2.5-15.6-4.2c-2.7-1-5.2-2.5-7.2-4.6c-2-2-3.7-4.1-5.4-6.4
			c-5.9-9.1-10.7-18.8-14.2-29C302.8,71.6,299.8,61.5,297.2,51.1z"/>
	</g>
	<path class="st6" d="M308.8,59.3c0,0,39.6,9.9,49.5,23.1c7.1,9.5,13.2,33,13.2,33S355,89,348.4,82.4
		C341.7,75.9,315.4,59.3,308.8,59.3z"/>
	<path class="st7" d="M308.8,69.3l56.1,52.8c0,0-36.3-6.6-39.6-16.5C322,95.7,308.8,69.3,308.8,69.3z"/>
	<path class="st5" d="M317,70.9c5.9,4.4,11.7,9.2,17.3,13.9c5.7,4.8,11.2,9.6,16.7,14.5s11,9.9,16.3,15.1l7.9,7.8
		c2.5,2.6,5.2,5.3,7.7,8c-3-2.2-5.9-4.6-8.7-6.8l-8.6-7c-5.7-4.8-11.2-9.7-16.7-14.6c-5.5-4.9-11-9.9-16.3-15.1
		C327.4,81.4,322,76.3,317,70.9z"/>
	<path class="st5" d="M340.1,80.8c1.1,1.4,1.7,3.3,1.6,5.1c0.1,1.9-0.5,3.7-1.6,5.1c-1.1-1.4-1.7-3.2-1.6-5.1
		C338.5,84,339,82.3,340.1,80.8z"/>
	<path class="st5" d="M349,99.8c-1.5,1.7-3.4,3-5.6,3.7c-2.1,0.8-4.4,0.9-6.6,0.5c1.5-1.7,3.4-3,5.6-3.7
		C344.5,99.5,346.8,99.3,349,99.8z"/>
	<path class="st5" d="M361.8,111.1c-2,2-4.2,3.5-6.8,4.5c-2.5,1.1-5.4,1.5-8.2,1.4C350.8,113.2,356.3,111,361.8,111.1L361.8,111.1z"
		/>
	<path class="st5" d="M327,80.8c-0.8,1-2,1.6-3.3,1.6s-2.5-0.6-3.3-1.6c0.8-1,2-1.6,3.3-1.6C325.1,79.2,326.3,79.8,327,80.8z"/>
	<path class="st5" d="M354.3,104.4c-2.5-2.9-2.9-7-0.9-10.4c1.2,1.4,2,3.1,2.1,4.9C355.7,100.9,355.2,102.7,354.3,104.4z"/>
	<path class="st8" d="M411.8,46.2c0,0-42,74.7-26.7,89.1c3.8-14.4,11.4-74.7,45.7-78.3C430.9,57,411.8,53.4,411.8,46.2z"/>
	<path class="st9" d="M346.7,127c0,0,26.4,3.3,42.9,13.2c16.5,9.9,39.6,3.3,39.6,3.3s-19.8,3.3-29.7-3.3
		C389.6,133.6,359.9,120.4,346.7,127z"/>
	<path class="st10" d="M345.1,297c0,0,26.4-9.9,52.8-3.3c26.4,6.6,89.1-62.7,89.1-112.2c-3.3,72.6-56.8,112.5-62.7,115.5
		c-6.6,3.3-16.5,9.9-28.4,7C380.3,300,348.4,293.7,345.1,297z"/>
	<path class="st2" d="M411.1,52.8c1.8,1.8,4.1,3,6.6,3.3h-3.3C412.6,56.1,411.1,54.6,411.1,52.8z"/>
</g>
<g id="fruits">
	<path class="st11" d="M1329.9,93.4c0,0-43.7,13.2-26.2,39.4c11.1,15.8,28.9,25.5,48.2,26.2c0,0,48.2-13.2,48.2-30.7
		s-17.5-52.5-39.4-56.9C1343.4,68.1,1338.7,71.6,1329.9,93.4z"/>
	<polygon class="st12" points="1321.2,80.3 1329.9,93.4 1329.9,75.9 	"/>
	<path class="st13" d="M1452.1,124.8c0,0-25.7-37.7-45.4-13.2c-11.7,15.4-15.5,35.3-10.4,53.9c0,0,26.2,33.8,43.1,28.5
		c16.9-5.3,43.7-26.2,42.9-46.7C1481.5,129.8,1475.6,126.5,1452.1,124.8z"/>
	<polygon class="st14" points="1461.9,112.5 1452.1,124.8 1468.8,119.5 	"/>
	<circle class="st15" cx="1373.7" cy="167.8" r="13.2"/>
	<circle class="st15" cx="1360.6" cy="150.3" r="13.2"/>
	<circle class="st15" cx="1351.8" cy="172.2" r="13.2"/>
	<circle class="st15" cx="1386.8" cy="146" r="13.2"/>
	<circle class="st15" cx="1369.3" cy="128.4" r="13.2"/>
	<circle class="st15" cx="1347.4" cy="128.4" r="13.2"/>
	<circle class="st15" cx="1395.6" cy="167.8" r="13.2"/>
	<circle class="st15" cx="1378.1" cy="185.3" r="13.2"/>
	<circle class="st15" cx="1360.6" cy="185.3" r="13.2"/>
	<circle class="st15" cx="1338.7" cy="154.7" r="13.2"/>
	<circle class="st15" cx="1338.7" cy="172.2" r="13.2"/>
	<circle class="st15" cx="1334.3" cy="185.3" r="13.2"/>
	<circle class="st15" cx="1360.6" cy="163.5" r="13.2"/>
	<circle class="st15" cx="1382.4" cy="159.1" r="13.2"/>
	<circle class="st15" cx="1360.6" cy="146" r="13.2"/>
	<path class="st16" d="M1509.3,124.1c-2.6-5.5-4.1-11.5-4.4-17.5c0-8.7,13.2-17.5,13.2-8.7s-4.4,26.2,4.4,35c8.7,8.7,2.5,27,0,30.7
		c-7.6,10.6-16.1,21.9-21.4,28.6c-3.6,4.6-8.3,8.2-13.7,10.4c-17.8,7.1-59.5,19.4-96.2-4c0,0-4.4-4.4,4.4-8.7
		c8.7-4.4,30.7,0,48.2-4.4s39.4-26.2,48.2-39.4C1500.5,132.8,1509.3,132.8,1509.3,124.1z"/>
	<ellipse class="st17" cx="1270.8" cy="178.8" rx="52.5" ry="48.2"/>
	<ellipse class="st18" cx="1255.5" cy="152.5" rx="6.5" ry="4.4"/>
	<ellipse class="st18" cx="1246.8" cy="156.8" rx="6.5" ry="4.4"/>
	<ellipse class="st18" cx="1246.8" cy="152.5" rx="6.5" ry="4.4"/>
	<path class="st19" d="M1200.8,200.7h341.4l0,0v21.7c0,38.8-31.4,70.2-70.2,70.2h-200.8c-38.8,0-70.2-31.4-70.2-70.2l0,0
		L1200.8,200.7L1200.8,200.7z"/>
	<path class="st20" d="M1279.6,148.1c16.6,6.6,28.4,21.7,30.7,39.4c0,0,8.7-21.9-8.7-35C1287,141.7,1279.6,148.1,1279.6,148.1z"/>
	<path class="st21" d="M1511.5,152.5c0,0-13.2,35-21.9,39.4c0,0,21.9-17.5,26.2-30.7c2.7-7,2.7-14.9,0-21.9L1511.5,152.5z"/>
	<path class="st22" d="M1531.2,213.8h-43.7c0,0-4.4,65.7-17.5,70C1470,283.7,1531.2,270.7,1531.2,213.8z"/>
</g>
<g id="fruits_1_">
	<path class="st23" d="M1375,521.3c0,0-64.7,19.5-38.8,58.3c16.5,23.4,42.7,37.7,71.2,38.8c0,0,71.2-19.5,71.2-45.3
		c0-25.9-25.9-77.6-58.3-84.1C1395,483.8,1388,489,1375,521.3z"/>
	<polygon class="st24" points="1362.1,501.9 1375,521.3 1375,495.4 	"/>
	<path class="st25" d="M1555.6,567.7c0,0-38.1-55.8-67.2-19.5c-17.3,22.7-23,52.2-15.4,79.7c0,0,38.8,50,63.8,42.2
		c25-7.8,64.7-38.8,63.4-69.1C1599.2,575.1,1590.4,570.2,1555.6,567.7z"/>
	<polygon class="st26" points="1570.2,549.5 1555.6,567.7 1580.3,559.8 	"/>
	<circle class="st27" cx="1439.7" cy="631.3" r="19.5"/>
	<circle class="st27" cx="1420.4" cy="605.4" r="19.5"/>
	<circle class="st27" cx="1407.4" cy="637.8" r="19.5"/>
	<circle class="st27" cx="1459.2" cy="599" r="19.5"/>
	<circle class="st27" cx="1433.3" cy="573" r="19.5"/>
	<circle class="st27" cx="1400.9" cy="573" r="19.5"/>
	<circle class="st27" cx="1472.1" cy="631.3" r="19.5"/>
	<circle class="st27" cx="1446.2" cy="657.1" r="19.5"/>
	<circle class="st27" cx="1420.4" cy="657.1" r="19.5"/>
	<circle class="st27" cx="1388" cy="611.9" r="19.5"/>
	<circle class="st27" cx="1388" cy="637.8" r="19.5"/>
	<circle class="st27" cx="1381.4" cy="657.1" r="19.5"/>
	<circle class="st27" cx="1420.4" cy="624.9" r="19.5"/>
	<circle class="st27" cx="1452.6" cy="618.3" r="19.5"/>
	<circle class="st27" cx="1420.4" cy="599" r="19.5"/>
	<path class="st28" d="M1640.2,566.6c-3.9-8.2-6-17-6.5-25.9c0-12.9,19.5-25.9,19.5-12.9s-6.5,38.8,6.5,51.7
		c12.9,12.9,3.8,39.9,0,45.3c-11.2,15.7-23.9,32.4-31.6,42.3c-5.3,6.8-12.3,12.1-20.2,15.3c-26.4,10.5-88,28.6-142.3-5.9
		c0,0-6.5-6.5,6.5-12.9c12.9-6.5,45.3,0,71.2-6.5c25.9-6.5,58.3-38.8,71.2-58.3C1627.2,579.5,1640.2,579.5,1640.2,566.6z"/>
	<ellipse class="st29" cx="1287.6" cy="647.5" rx="77.6" ry="71.2"/>
	<ellipse class="st30" cx="1265" cy="608.7" rx="9.7" ry="6.5"/>
	<ellipse class="st30" cx="1252.1" cy="615.1" rx="9.7" ry="6.5"/>
	<ellipse class="st30" cx="1252.1" cy="608.7" rx="9.7" ry="6.5"/>
	<path class="st31" d="M1184.1,679.9h504.7l0,0v32c0,57.4-46.5,103.9-103.9,103.9h-296.9c-57.4,0-103.9-46.5-103.9-103.9l0,0v-32
		H1184.1z"/>
	<path class="st20" d="M1300.6,602.1c24.6,9.8,41.9,32,45.3,58.3c0,0,12.9-32.4-12.9-51.7C1311.6,592.7,1300.6,602.1,1300.6,602.1z"
		/>
	<path class="st21" d="M1643.5,608.7c0,0-19.5,51.7-32.4,58.3c0,0,32.4-25.9,38.8-45.3c4-10.4,4-22,0-32.4L1643.5,608.7z"/>
	<path class="st22" d="M1672.6,699.2H1608c0,0-6.5,97.1-25.9,103.5C1582.1,802.7,1672.6,783.3,1672.6,699.2z"/>
</g>
<path d="M778.2,183.2v-15.5h133.1v15.5H778.2z M778.2,233.6v-15.5h133.1v15.5L778.2,233.6z"/>
<g>
	<polygon class="st32" points="313.1,653.4 159.3,738 317,837.5 462.5,745.4 	"/>
	<polygon class="st33" points="74.9,536.4 313.1,395 313.1,655.2 74.9,796.6 	"/>
	<path d="M309.2,401.7v251.2L78.6,789.7v-251L309.2,401.7 M317,388.3l-246,146v269l246-146V388.3z"/>
	<polygon class="st33" points="320.7,655.2 320.7,395 559,536.4 559,796.6 	"/>
	<path d="M324.6,401.7l230.6,137v251.2L324.6,653.1V401.7 M317,388.3v269l246,146v-269L317,388.3z"/>
	<polygon class="st33" points="320.7,682.4 559,541 559,801.2 320.7,942.6 	"/>
	<path d="M555.3,547.7v251.2L324.6,935.7v-251L555.3,547.7 M562.9,534.3L317,680.3v269l246-146v-269H562.9z"/>
	<polygon class="st33" points="74.9,801.2 74.9,541 313.1,682.4 313.1,942.6 	"/>
	<path d="M78.6,547.7l230.6,136.8v251.2L78.6,798.9V547.7 M71,534.3v269l246,146v-269L71,534.3z"/>
</g>
<text transform="matrix(1 0 0 1 618.103 718.6645)" class="st34 st35">is full of</text>
<line class="st36" x1="131" y1="756.5" x2="1618" y2="756.5"/>
<g class="st37">
	<polygon class="st38" points="837.6,922.3 763.6,963 839.5,1011 909.6,966.6 	"/>
	<polygon class="st39" points="722.9,865.9 837.6,797.8 837.6,923.1 722.9,991.2 	"/>
	<path class="st40" d="M835.8,801v121l-111.1,66V867L835.8,801 M839.5,794.5L721,864.9v129.6l118.5-70.4V794.5z"/>
	<polygon class="st39" points="841.4,923.1 841.4,797.8 956.1,865.9 956.1,991.2 	"/>
	<path class="st40" d="M843.2,801l111.1,66v121l-111.1-66V801 M839.5,794.5v129.6L958,994.5V864.9L839.5,794.5z"/>
	<g id="apple_1_" class="st40">
		<path class="st41" d="M750.3,807.6c0,0-23.7,6.3-17.4,39.6s15.8,47.5,33.3,52.2c12.6,3.2,3.1-3.1,26.9,3.2s42.7-50.7,42.7-63.3
			s-6.3-34.8-26.9-33.3c-10,1.1-20.1,1.1-30.1,0C778.8,805.9,755.1,804.4,750.3,807.6z"/>
		<path class="st1" d="M768.5,819.5c0,0,17.4,9.5,26.9,7.9s19-9.5,22.2-3.2s6.3,9.5,0,25.3s-25.3,45.9-50.7,44.4
			c-25.3-1.4-38-57.1-27-74.5C751.1,802.1,768.5,819.5,768.5,819.5z"/>
		<path class="st2" d="M763.8,816.3c0,0,30.1-7.9,30.1,0c0,4.3-3.4,7.8-7.7,7.8c-0.1,0-0.1,0-0.2,0
			C779.4,819.6,771.7,816.9,763.8,816.3z"/>
		<path class="st3" d="M824.7,828.2c0,0-9.5-25.3-58.5-12.7c0,0,31.6,9.5,30.1,15.8c-1.6,6.3-20.6,0-38-1.6s-6.3,53.8,1.6,61.7
			c-12.7-11.1-31.7-42.7-19-72.8c12.7-17.4,42.7-7.9,55.5-9.5S823.1,812.4,824.7,828.2z"/>
		<g>
			<path class="st4" d="M741.6,778.3c0,0,7.9,30.1,17.4,33.3c9.5,3.3,19,3.2,22.2,6.3l3.1-3.1c0,0-6.3-6.3-6.3-7.9
				s-3.1-19-15.8-22.2C755.3,783,748.4,780.9,741.6,778.3z"/>
			<path class="st5" d="M741.6,778.3c1.5,4.9,3.3,9.7,5.3,14.5c1.8,4.8,4.2,9.3,7.1,13.5c1.3,2,3.2,3.7,5.4,4.7
				c2.4,0.8,4.9,1.4,7.4,1.9l7.4,1.5c2.7,0.4,5.2,1.4,7.4,3h-1.1l3.1-3.1v1.1c-1.8-1.8-3.5-3.7-5.1-5.7c-0.4-0.5-0.8-1.1-1.1-1.7
				c-0.1-0.2-0.2-0.4-0.3-0.6c0-0.3,0-0.6,0-0.6c0-0.3,0-0.6,0-0.9c-0.2-1.3-0.5-2.5-0.9-3.7c-1.3-4.8-3.9-9.2-7.3-12.7
				c-1.7-1.7-3.8-3-6.1-3.7c-2.3-0.8-4.9-1.3-7.4-2.1C751.1,781.9,746.3,780.3,741.6,778.3z M741.6,778.3c4.8,1.7,9.6,3.1,14.5,4.3
				c2.4,0.7,4.9,1.1,7.4,1.9c2.5,0.8,4.8,2.1,6.6,4c3.6,3.7,6.2,8.4,7.6,13.4c0.4,1.2,0.7,2.5,0.9,3.7c0,0.3,0,0.7,0,1
				c0,0.1,0,0.2,0,0.3s0,0.2,0,0.3c0.3,0.5,0.6,1,1,1.5c1.6,1.9,3.2,3.8,5,5.5l0.6,0.6l-0.6,0.6l-3.1,3.1l-0.6,0.6l-0.6-0.6
				c-2-1.4-4.3-2.3-6.7-2.6l-7.4-1.6c-2.5-0.5-5-1.2-7.4-2c-2.5-1.1-4.6-3-6-5.3c-2.8-4.3-5.1-9-6.9-13.9
				C744.4,788.2,742.9,783.4,741.6,778.3z"/>
		</g>
		<path class="st6" d="M747.2,782.3c0,0,19,4.7,23.7,11.1c2.8,5,5,10.3,6.3,15.9c-3.4-5.5-7.1-10.8-11.1-15.8
			C763,790.2,750.3,782.3,747.2,782.3z"/>
		<path class="st7" d="M747.2,787.1l26.9,25.3c0,0-17.4-3.2-19-7.9C753.5,799.8,747.2,787.1,747.2,787.1z"/>
		<path class="st5" d="M751.1,787.8c5.7,4.3,11.1,9,16.3,13.7s10.5,9.6,15.3,14.8c-5.7-4.3-11.1-9-16.3-13.7
			C761.2,798,756,793.1,751.1,787.8z"/>
		<path class="st5" d="M762.2,792.6c0.5,0.7,0.8,1.6,0.8,2.5s-0.3,1.7-0.8,2.4c-0.5-0.7-0.8-1.6-0.8-2.4
			C761.4,794.1,761.7,793.3,762.2,792.6z"/>
		<path class="st5" d="M766.5,801.6c-0.7,0.8-1.6,1.4-2.7,1.8c-1,0.3-2.1,0.4-3.2,0.3c0.7-0.8,1.6-1.4,2.7-1.8
			C764.3,801.6,765.4,801.5,766.5,801.6z"/>
		<path class="st5" d="M772.6,807.1c-1.9,1.9-4.5,2.9-7.2,2.9c0.9-1,2.1-1.7,3.3-2.2C769.9,807.3,771.3,807.1,772.6,807.1z"/>
		<path class="st5" d="M755.9,792.6c-0.4,0.5-1,0.8-1.6,0.8s-1.2-0.3-1.6-0.8c0.4-0.5,1-0.7,1.6-0.8
			C754.9,791.8,755.5,792.1,755.9,792.6z"/>
		<path class="st5" d="M769.1,803.9c-0.6-0.7-0.9-1.5-1-2.4s0.1-1.8,0.6-2.6c0.6,0.7,0.9,1.6,1,2.4
			C769.8,802.2,769.6,803.1,769.1,803.9z"/>
		<path class="st42" d="M796.6,776c0,0-20,35.8-12.6,42.6c1.9-6.8,5.5-35.8,22-37.5C805.7,781.1,796.6,779.4,796.6,776z"/>
		<path class="st43" d="M765.4,814.7c7.2,0.9,14.1,3.1,20.6,6.3c7.9,4.7,19,1.6,19,1.6s-9.5,1.6-14.3-1.6S771.7,811.5,765.4,814.7z"
			/>
		<path class="st10" d="M764.6,896.2c8.1-2.8,16.9-3.4,25.3-1.7c12.7,3.1,42.7-30.1,42.7-53.8c-1,22.1-12.1,42.6-30.1,55.5
			c-3.2,1.6-7.9,4.7-13.6,3.3C781.5,897.7,766.2,894.5,764.6,896.2z"/>
		<path class="st2" d="M796.2,779.1c0.8,0.9,1.9,1.4,3.1,1.6h-1.6C796.9,780.7,796.2,780,796.2,779.1L796.2,779.1z"/>
	</g>
	<g id="apple-2" class="st40">
		<path class="st41" d="M798.5,840.9c0,0-23.7,6.3-17.4,39.6s15.8,47.5,33.3,52.2c12.6,3.2,3.1-3.1,26.9,3.2
			c23.7,6.3,42.7-50.7,42.7-63.3s-6.3-34.8-26.9-33.3c-10,1.1-20.1,1.1-30.1,0C826.9,839.2,803.2,837.8,798.5,840.9z"/>
		<path class="st1" d="M816.7,852.8c0,0,17.4,9.5,26.9,7.9s19-9.5,22.2-3.2s6.3,9.5,0,25.3s-25.3,45.9-50.7,44.4
			c-25.3-1.4-38-57.1-27-74.5C799.2,835.4,816.7,852.8,816.7,852.8z"/>
		<path class="st2" d="M811.9,849.7c0,0,30.1-7.9,30.1,0c0,4.3-3.4,7.8-7.7,7.8c-0.1,0-0.1,0-0.2,0
			C827.5,852.9,819.9,850.2,811.9,849.7z"/>
		<path class="st3" d="M872.8,861.5c0,0-9.5-25.3-58.5-12.7c0,0,31.6,9.5,30.1,15.8c-1.6,6.3-20.6,0-38-1.6s-6.3,53.8,1.6,61.7
			c-12.7-11.1-31.7-42.7-19-72.8c12.7-17.4,42.7-7.9,55.5-9.5S871.3,845.7,872.8,861.5z"/>
		<g>
			<path class="st4" d="M789.8,811.7c0,0,7.9,30.1,17.4,33.3c9.5,3.3,19,3.2,22.2,6.3l3.1-3.1c0,0-6.3-6.3-6.3-7.9
				s-3.1-19-15.8-22.2C803.4,816.3,796.5,814.2,789.8,811.7z"/>
			<path class="st5" d="M789.8,811.7c1.5,4.9,3.3,9.7,5.3,14.5c1.8,4.8,4.2,9.3,7.1,13.5c1.3,2,3.2,3.7,5.4,4.7
				c2.4,0.8,4.9,1.4,7.4,1.9l7.4,1.5c2.7,0.4,5.2,1.4,7.4,3h-1.1l3.1-3.1v1.1c-1.8-1.8-3.5-3.7-5.1-5.7c-0.4-0.5-0.8-1.1-1.1-1.7
				c-0.1-0.2-0.2-0.4-0.3-0.6c0-0.3,0-0.6,0-0.6c0-0.3,0-0.6,0-0.9c-0.2-1.3-0.5-2.5-0.9-3.7c-1.3-4.8-3.9-9.2-7.3-12.7
				c-1.7-1.8-3.8-3.1-6.1-3.9c-2.3-0.8-4.9-1.3-7.4-2.1C799.2,815.2,794.4,813.6,789.8,811.7z M789.8,811.7
				c4.8,1.7,9.6,3.1,14.5,4.3c2.4,0.7,4.9,1.1,7.4,1.9c2.5,0.8,4.8,2.1,6.6,4c3.6,3.7,6.2,8.4,7.6,13.4c0.4,1.2,0.7,2.5,0.9,3.7
				c0,0.3,0,0.7,0,1c0,0.1,0,0.2,0,0.3s0,0.2,0,0.3c0.3,0.5,0.6,1,1,1.5c1.6,1.9,3.2,3.8,5,5.5l0.6,0.6l-0.6,0.6l-3.1,3.1l-0.6,0.6
				l-0.6-0.6c-2-1.4-4.3-2.3-6.7-2.6l-7.4-1.6c-2.5-0.5-5-1.2-7.4-2c-2.5-1.1-4.6-3-6-5.3c-2.8-4.3-5.1-9-6.9-13.9
				C792.5,821.5,791,816.7,789.8,811.7z"/>
		</g>
		<path class="st6" d="M795.3,815.6c0,0,19,4.7,23.7,11.1c2.8,5,5,10.3,6.3,15.9c-3.4-5.5-7.1-10.8-11.1-15.8
			C811.1,823.5,798.5,815.6,795.3,815.6z"/>
		<path class="st7" d="M795.3,820.4l26.9,25.3c0,0-17.4-3.2-19-7.9C801.6,833.1,795.3,820.4,795.3,820.4z"/>
		<path class="st5" d="M799.3,821.1c5.7,4.3,11.1,9,16.3,13.7s10.5,9.6,15.3,14.8c-5.7-4.3-11.1-9-16.3-13.7
			C809.4,831.3,804.1,826.4,799.3,821.1z"/>
		<path class="st5" d="M810.4,825.9c0.5,0.7,0.8,1.6,0.8,2.5s-0.3,1.7-0.8,2.4c-0.5-0.7-0.8-1.6-0.8-2.4
			C809.6,827.5,809.8,826.6,810.4,825.9z"/>
		<path class="st5" d="M814.6,835c-0.7,0.8-1.6,1.4-2.7,1.8c-1,0.3-2.1,0.4-3.2,0.3c0.7-0.8,1.6-1.4,2.7-1.8S813.5,834.8,814.6,835z
			"/>
		<path class="st5" d="M820.7,840.5c-2,1.9-4.7,3-7.4,2.9c0.9-1,2.1-1.7,3.3-2.2C817.9,840.6,819.3,840.4,820.7,840.5z"/>
		<path class="st5" d="M804.1,825.9c-0.4,0.5-1,0.8-1.6,0.8s-1.2-0.3-1.6-0.8c0.4-0.5,1-0.7,1.6-0.8
			C803.1,825.1,803.7,825.4,804.1,825.9z"/>
		<path class="st5" d="M817.3,837.2c-0.6-0.7-0.9-1.5-1-2.4s0.1-1.8,0.6-2.6c0.6,0.7,0.9,1.6,1,2.4
			C817.9,835.5,817.7,836.4,817.3,837.2z"/>
		<path class="st42" d="M844.7,809.3c0,0-20,35.8-12.6,42.6c1.9-6.8,5.5-35.8,22-37.5C853.9,814.4,844.7,812.7,844.7,809.3z"/>
		<path class="st43" d="M813.6,848.1c7.2,0.9,14.1,3.1,20.6,6.3c7.9,4.7,19,1.6,19,1.6s-9.5,1.6-14.3-1.6S819.8,844.9,813.6,848.1z"
			/>
		<path class="st10" d="M812.7,929.6c8.1-2.8,16.9-3.4,25.3-1.7c12.7,3.1,42.7-30.1,42.7-53.8c-1,22.1-12.1,42.6-30.1,55.5
			c-3.2,1.6-7.9,4.7-13.6,3.3C829.6,931,814.3,927.8,812.7,929.6z"/>
		<path class="st2" d="M844.4,812.4c0.8,0.9,1.9,1.4,3.1,1.6h-1.6C845.1,814,844.4,813.3,844.4,812.4
			C844.4,812.5,844.4,812.5,844.4,812.4z"/>
	</g>
	<g id="apple-3" class="st40">
		<path class="st41" d="M857.7,822.4c0,0-23.7,6.3-17.4,39.6s15.8,47.5,33.3,52.2c12.6,3.2,3.1-3.1,26.9,3.2
			c23.7,6.3,42.7-50.7,42.7-63.3s-6.3-34.8-26.9-33.3c-10,1.1-20.1,1.1-30.1,0C886.2,820.7,862.5,819.3,857.7,822.4z"/>
		<path class="st1" d="M875.9,834.3c0,0,17.4,9.5,26.9,7.9s19-9.5,22.2-3.2s6.3,9.5,0,25.3s-25.3,45.9-50.7,44.4s-38-57.1-27-74.5
			C858.5,816.9,875.9,834.3,875.9,834.3z"/>
		<path class="st2" d="M871.2,831.1c0,0,30.1-7.9,30.1,0c0,4.3-3.4,7.8-7.7,7.8c-0.1,0-0.1,0-0.2,0
			C886.8,834.4,879.1,831.7,871.2,831.1z"/>
		<path class="st3" d="M932.1,843c0,0-9.5-25.3-58.5-12.7c0,0,31.6,9.5,30.1,15.8c-1.6,6.3-20.6,0-38-1.6s-6.3,53.8,1.6,61.7
			c-12.7-11.1-31.7-42.7-19-72.8c12.7-17.4,42.7-7.9,55.5-9.5S930.5,827.2,932.1,843z"/>
		<g>
			<path class="st4" d="M849,793.1c0,0,7.9,30.1,17.4,33.3c9.5,3.3,19,3.2,22.2,6.3l3.1-3.1c0,0-6.3-6.3-6.3-7.9s-3.1-19-15.8-22.2
				C862.6,797.8,855.8,795.7,849,793.1z"/>
			<path class="st5" d="M849,793.1c1.5,4.9,3.3,9.7,5.3,14.5c1.8,4.8,4.2,9.3,7.1,13.5c1.3,2,3.2,3.7,5.4,4.7
				c2.4,0.8,4.9,1.4,7.4,1.9l7.4,1.5c2.7,0.4,5.2,1.4,7.4,3h-1l3.1-3.1v1.1c-1.8-1.8-3.5-3.7-5.1-5.7c-0.4-0.5-0.8-1.1-1.1-1.7
				c-0.1-0.2-0.2-0.4-0.3-0.6c0-0.3,0-0.6,0-0.6c0-0.3,0-0.6,0-0.9c-0.2-1.3-0.5-2.5-0.9-3.7c-1.3-4.8-3.9-9.2-7.3-12.7
				c-1.7-1.8-3.8-3.1-6.1-3.9c-2.3-0.8-4.9-1.3-7.4-2.1C858.5,796.7,853.7,795.1,849,793.1z M849,793.1c4.8,1.7,9.6,3.1,14.5,4.3
				c2.4,0.7,4.9,1.1,7.4,1.9c2.5,0.8,4.8,2.1,6.6,4c3.6,3.7,6.2,8.4,7.6,13.4c0.4,1.2,0.7,2.5,0.9,3.7c0,0.3,0,0.7,0,1
				c0,0.1,0,0.2,0,0.3s0,0.2,0,0.3c0.3,0.5,0.6,1,1,1.5c1.6,1.9,3.2,3.8,5,5.5l0.6,0.6l-0.6,0.6l-3.1,3.1l-0.6,0.6l-0.6-0.6
				c-2-1.4-4.3-2.3-6.7-2.6l-7.4-1.6c-2.5-0.5-5-1.2-7.4-2c-2.5-1.1-4.6-3-6-5.3c-2.8-4.3-5.1-9-6.9-13.9
				C851.8,803,850.3,798.2,849,793.1z"/>
		</g>
		<path class="st6" d="M854.6,797.1c0,0,19,4.7,23.7,11.1c2.8,5,5,10.3,6.3,15.9c-3.4-5.5-7.1-10.8-11.1-15.8
			C870.4,805,857.7,797.1,854.6,797.1z"/>
		<path class="st7" d="M854.6,801.9l26.9,25.3c0,0-17.4-3.2-19-7.9S854.6,801.9,854.6,801.9z"/>
		<path class="st5" d="M858.5,802.6c5.7,4.3,11.1,9,16.3,13.7s10.5,9.6,15.3,14.8c-5.7-4.3-11.1-9-16.3-13.7
			C868.6,812.8,863.3,807.9,858.5,802.6z"/>
		<path class="st5" d="M869.6,807.4c0.5,0.7,0.8,1.6,0.8,2.5s-0.3,1.7-0.8,2.4c-0.5-0.7-0.8-1.6-0.8-2.4
			C868.8,809,869.1,808.1,869.6,807.4z"/>
		<path class="st5" d="M873.9,816.4c-0.7,0.8-1.6,1.4-2.7,1.8c-1,0.3-2.1,0.4-3.2,0.3c0.7-0.8,1.6-1.4,2.7-1.8
			C871.7,816.4,872.8,816.3,873.9,816.4z"/>
		<path class="st5" d="M880,822c-2,1.9-4.7,3-7.4,2.9c0.9-1,2.1-1.7,3.3-2.2C877.2,822.1,878.6,821.9,880,822z"/>
		<path class="st5" d="M863.3,807.4c-0.4,0.5-1,0.8-1.6,0.8s-1.2-0.3-1.6-0.8c0.4-0.5,1-0.7,1.6-0.8
			C862.3,806.6,862.9,806.9,863.3,807.4z"/>
		<path class="st5" d="M876.5,818.7c-0.6-0.7-0.9-1.5-1-2.4s0.1-1.8,0.6-2.6c0.6,0.7,0.9,1.6,1,2.4C877.1,817,877,817.9,876.5,818.7
			z"/>
		<path class="st42" d="M904,790.8c0,0-20,35.8-12.6,42.6c1.9-6.8,5.5-35.8,22-37.5C913.1,795.9,904,794.2,904,790.8z"/>
		<path class="st43" d="M872.8,829.5c7.2,0.9,14.1,3.1,20.6,6.3c7.9,4.7,19,1.6,19,1.6s-9.5,1.6-14.3-1.6S879.1,826.4,872.8,829.5z"
			/>
		<path class="st10" d="M872,911.1c8.1-2.8,16.9-3.4,25.3-1.7c12.7,3.1,42.7-30.1,42.7-53.8c-1,22.1-12.1,42.6-30.1,55.5
			c-3.2,1.6-7.9,4.7-13.6,3.3C888.9,912.5,873.6,909.3,872,911.1z"/>
		<path class="st2" d="M903.6,793.9c0.8,0.9,1.9,1.4,3.1,1.6h-1.6C904.3,795.5,903.6,794.8,903.6,793.9L903.6,793.9z"/>
	</g>
	<polygon class="st39" points="841.4,936.3 956.1,868.1 956.1,993.4 841.4,1061.6 	"/>
	<path class="st40" d="M954.3,871.4v121l-111.1,66v-121L954.3,871.4 M958,864.9l-118.5,70.4v129.6L958,994.5V864.9z"/>
	<polygon class="st39" points="722.9,993.4 722.9,868.1 837.6,936.3 837.6,1061.6 	"/>
	<path class="st40" d="M724.7,871.4l111.1,66v121l-111.1-66V871.4 M721,864.9v129.6l118.5,70.4V935.2L721,864.9z"/>
</g>
</svg>
